<svg width="1024" height="768" viewBox="0 0 1024 768" fill="none" xmlns="http://www.w3.org/2000/svg">
<g id="Jakie jest twierdzenie">
<rect width="1024" height="768" fill="white"/>
<rect id="habzdryg data (do not delete): {&#34;events&#34;:[{&#34;type&#34;:&#34;show&#34;,&#34;id&#34;:&#34;12:62&#34;,&#34;name&#34;:&#34;Takie jakie jest&#34;,&#34;index&#34;:1}],&#34;name&#34;:&#34;Jakie jest twierdzenie&#34;,&#34;id&#34;:&#34;12:59&#34;,&#34;root&#34;:false,&#34;pagecount&#34;:1}" x="1" y="1" width="1" height="1" fill="#C4C4C4"/>
<path id="Takie jakie jest" d="M366.851 290.56C365.571 290.56 365.931 290.56 364.291 290.48C363.131 290.44 362.691 290.28 362.091 289.76C361.851 289.52 361.611 289.4 361.491 289.4C361.331 289.4 360.611 289.76 360.651 290.12C360.771 292 360.451 293.76 360.371 295C360.331 295.96 360.491 296.52 361.131 296.52C361.451 296.52 361.811 296.08 362.051 295.4C362.971 292.92 364.051 292.44 364.651 292.44C365.171 292.44 369.371 292.48 370.371 292.48C370.491 292.48 370.771 292.92 370.771 293.4V298.64C370.771 304.96 370.651 309.12 370.651 309.96C370.651 312.68 369.971 312.8 367.131 313.56C366.411 313.76 366.011 314.04 366.011 314.36C366.011 314.8 366.411 315.12 367.251 315.12C368.331 315.12 369.331 315 371.691 315C374.091 315 377.011 315.2 377.411 315.2C378.211 315.2 378.611 314.84 378.611 314.52C378.611 314.04 378.171 313.88 377.451 313.6C375.451 312.8 374.771 312.72 374.571 309.84C374.411 307.56 374.411 303.88 374.411 301.44C374.411 298.92 374.491 294.08 374.611 293C374.651 292.76 374.971 292.48 375.131 292.48C378.531 292.48 380.371 292.56 380.971 292.64C382.051 292.76 382.851 293.16 383.411 295.68C383.491 296.04 383.731 296.6 384.171 296.6C384.611 296.6 385.011 296.04 385.011 295.48C385.011 292.8 385.491 290.48 385.491 290.2C385.491 289.92 384.851 289.44 384.731 289.44C384.491 289.44 384.211 289.72 383.771 290.08C383.411 290.44 382.691 290.56 380.451 290.56H366.851ZM392.125 298.28C390.765 298.28 388.925 299.08 387.405 300.08C385.685 301.28 384.525 302.52 384.525 303.2C384.525 303.36 384.805 303.76 385.005 303.84C385.365 304 386.365 304.04 386.685 304.04C386.925 304.04 387.645 303.88 387.845 303.72C388.005 303.6 388.165 303.28 388.205 302.84C388.285 301.64 388.445 301.08 388.605 300.88C388.765 300.72 389.565 300.36 390.405 300.36C391.645 300.36 393.365 301.04 393.925 302.6C394.045 302.96 394.045 303.2 394.045 303.64V305.16C394.045 305.4 393.805 305.68 393.605 305.76C392.725 306.24 390.845 306.72 386.805 307.68C386.645 307.72 385.805 308.08 385.205 308.84C384.925 309.2 384.605 309.8 384.605 310.76C384.605 314 387.205 315.48 388.405 315.48C389.125 315.48 389.805 315.28 390.525 314.88C391.445 314.36 392.765 313.6 393.605 312.96C393.685 312.92 394.005 313.12 394.005 313.16C394.525 315.24 395.805 315.64 396.845 315.64C398.205 315.64 399.165 315 399.765 314.2C399.845 314.08 400.125 313.32 400.125 313.16C400.125 312.84 399.925 312.44 399.765 312.52C399.445 312.68 398.725 312.88 398.405 312.88C397.645 312.88 396.965 312.24 396.965 310.92C396.965 306.44 397.125 304.76 397.125 303.24C397.125 302.4 396.565 300.52 395.765 299.8C394.605 298.72 393.605 298.28 392.125 298.28ZM390.525 312.8C389.045 312.8 387.845 311.6 387.845 310.32C387.845 309.32 388.205 308.88 389.325 308.48C390.125 308.2 392.445 307.64 393.605 307.44C393.725 307.44 393.925 307.52 393.925 307.68L393.885 310.24C393.845 310.72 393.685 311.16 393.565 311.44C392.685 312.28 391.405 312.8 390.525 312.8ZM413.364 298.72C412.844 298.72 412.364 299.12 412.364 299.52C412.364 299.8 412.804 300 413.404 300.16C414.164 300.4 414.284 300.68 413.764 301.32C412.964 302.28 411.324 303.88 410.044 304.96C409.524 305.4 408.884 305.76 408.684 305.76C408.324 305.76 408.204 305.48 408.244 304.08C408.244 302.88 408.204 303 408.204 301.28C408.204 299 408.404 289.8 408.444 288.6C408.444 288.36 408.244 287.88 408.004 287.88C407.764 287.88 407.364 288.08 406.844 288.2C405.844 288.48 404.444 288.8 403.884 288.96C403.524 289.08 403.084 289.52 403.084 289.84C403.084 290 403.484 290.28 403.844 290.48C404.844 291.04 405.044 291.44 405.044 292.32C405.084 292.72 405.084 293.6 405.084 296.8C405.084 300.4 404.924 311 404.844 311.68C404.764 312.72 404.684 313.24 403.404 313.64C402.524 313.92 402.284 314.24 402.284 314.52C402.284 314.92 402.964 315.12 403.564 315.12C404.324 315.12 405.604 315 406.644 315C407.644 315 408.924 315.12 409.644 315.12C410.364 315.12 410.724 314.56 410.724 314.28C410.724 313.96 410.324 313.88 409.804 313.68C409.004 313.36 408.284 313.28 408.244 311.44C408.204 310.4 408.244 309.12 408.244 307.68C408.244 307.44 408.244 307.24 408.444 307.12C408.684 306.96 409.004 306.84 409.124 306.84C409.524 306.84 409.764 307.12 410.524 308C411.324 309 413.884 311.96 414.364 312.68C414.604 313.04 414.644 313.44 414.164 313.6C413.364 313.88 413.164 314.08 413.164 314.44C413.164 314.64 413.404 315.04 414.044 315.04C414.484 315.04 415.244 315 415.804 315C417.804 315 419.004 315.12 420.204 315.12C421.044 315.12 421.564 314.92 421.564 314.52C421.564 314.16 421.124 313.92 420.004 313.48C419.124 313.16 417.884 312 417.084 311.12C416.404 310.32 413.884 307.4 412.244 305.24C412.164 305.08 412.044 304.88 412.244 304.72C413.564 303.6 414.644 302.64 415.764 301.76C417.204 300.56 417.924 300.36 419.564 299.92C420.044 299.8 420.524 299.52 420.524 299.16C420.524 298.84 420.044 298.52 419.324 298.52C418.524 298.52 416.564 298.72 414.964 298.72H413.364ZM423.55 300.04C423.55 300.2 423.71 300.68 423.99 300.84C425.15 301.6 425.51 302.04 425.55 302.36C425.59 302.6 425.59 304.68 425.59 305.48C425.59 307.76 425.51 310.48 425.43 311.32C425.27 312.96 425.19 313.28 423.43 313.72C422.87 313.88 422.47 314.16 422.47 314.52C422.47 314.88 422.87 315.12 423.67 315.12C424.23 315.12 424.99 315 427.03 315C427.91 315 429.55 315.12 430.39 315.12C430.91 315.12 431.55 314.96 431.55 314.6C431.55 314.2 431.15 313.84 430.59 313.68C429.15 313.28 428.99 312.88 428.95 312.56C428.91 312.2 428.83 311.44 428.79 306.2V298.88C428.79 298.76 428.55 298.24 428.39 298.24C427.71 298.24 426.07 298.84 424.07 299.56C423.83 299.64 423.55 299.84 423.55 300.04ZM427.03 290C425.63 290 424.71 290.96 424.71 292.28C424.71 292.8 424.87 293.08 425.11 293.48C425.55 294 426.23 294.4 426.83 294.4C427.55 294.4 428.95 293.72 428.95 292.12C428.95 291.8 428.75 291.04 428.27 290.48C427.95 290.2 427.59 290 427.03 290ZM442.457 298.28C440.777 298.28 439.097 298.76 437.777 299.64C435.377 301.2 433.897 303.96 433.897 307.2C433.897 312.08 436.737 315.48 441.737 315.48C443.857 315.48 445.977 314.56 447.457 313C447.777 312.64 447.977 312.2 447.977 311.76C447.977 311.32 447.657 311.12 447.497 311.24C446.737 311.76 445.017 312.76 443.457 312.76C440.017 312.76 437.337 310.04 437.337 306.48C437.337 306.24 437.377 305.52 437.537 305.24C437.617 305.04 438.057 304.8 438.177 304.8C438.897 304.8 446.497 304.68 446.777 304.68C447.177 304.68 447.857 303.92 447.857 303.48C447.857 302.48 447.697 301.44 447.177 300.68C446.217 299.12 444.377 298.28 442.457 298.28ZM441.257 299.72C443.377 299.72 444.337 300.8 444.337 302C444.337 303.36 442.497 303.44 440.977 303.44C439.817 303.44 438.497 303.4 438.057 303.36C437.977 303.36 437.777 303.12 437.817 302.96C438.337 300.96 440.257 299.72 441.257 299.72ZM458.924 300.44C458.924 300.72 459.204 301.08 459.684 301.28C461.084 301.92 461.044 302.24 461.084 303.36C461.164 305.56 461.204 311.6 461.204 315.68C461.204 319.76 460.164 321.36 459.044 322.44C458.564 322.88 458.084 323.24 457.484 323.68C457.124 323.96 456.844 324.24 456.844 324.72C456.844 325 457.244 325.16 457.524 325.16C457.924 325.16 459.924 324.24 461.004 323.24C462.484 321.96 464.004 319.48 464.324 316.76C464.404 316.08 464.484 315.36 464.484 314.4C464.484 313.44 464.604 306.08 464.604 301.92C464.604 298.68 464.524 298.24 464.124 298.24C463.684 298.24 462.924 298.6 462.324 298.84L459.604 299.8C459.404 299.92 458.924 300.08 458.924 300.44ZM462.684 290.04C462.124 290.04 460.644 290.68 460.644 292.24C460.644 293.44 461.604 294.32 462.684 294.32C463.004 294.32 463.604 294.2 464.004 293.84C464.484 293.52 464.804 292.92 464.804 292.12C464.804 291.8 464.604 290.88 464.244 290.56C463.884 290.32 463.324 290.04 462.684 290.04ZM476.773 298.28C475.413 298.28 473.573 299.08 472.053 300.08C470.333 301.28 469.173 302.52 469.173 303.2C469.173 303.36 469.453 303.76 469.653 303.84C470.013 304 471.013 304.04 471.333 304.04C471.573 304.04 472.293 303.88 472.493 303.72C472.653 303.6 472.813 303.28 472.853 302.84C472.933 301.64 473.093 301.08 473.253 300.88C473.413 300.72 474.213 300.36 475.053 300.36C476.293 300.36 478.013 301.04 478.573 302.6C478.693 302.96 478.693 303.2 478.693 303.64V305.16C478.693 305.4 478.453 305.68 478.253 305.76C477.373 306.24 475.493 306.72 471.453 307.68C471.293 307.72 470.453 308.08 469.853 308.84C469.573 309.2 469.253 309.8 469.253 310.76C469.253 314 471.853 315.48 473.053 315.48C473.773 315.48 474.453 315.28 475.173 314.88C476.093 314.36 477.413 313.6 478.253 312.96C478.333 312.92 478.653 313.12 478.653 313.16C479.173 315.24 480.453 315.64 481.493 315.64C482.853 315.64 483.813 315 484.413 314.2C484.493 314.08 484.773 313.32 484.773 313.16C484.773 312.84 484.573 312.44 484.413 312.52C484.093 312.68 483.373 312.88 483.053 312.88C482.293 312.88 481.613 312.24 481.613 310.92C481.613 306.44 481.773 304.76 481.773 303.24C481.773 302.4 481.213 300.52 480.413 299.8C479.253 298.72 478.253 298.28 476.773 298.28ZM475.173 312.8C473.693 312.8 472.493 311.6 472.493 310.32C472.493 309.32 472.853 308.88 473.973 308.48C474.773 308.2 477.093 307.64 478.253 307.44C478.373 307.44 478.573 307.52 478.573 307.68L478.533 310.24C478.493 310.72 478.333 311.16 478.213 311.44C477.333 312.28 476.053 312.8 475.173 312.8ZM498.013 298.72C497.493 298.72 497.013 299.12 497.013 299.52C497.013 299.8 497.453 300 498.053 300.16C498.813 300.4 498.933 300.68 498.413 301.32C497.613 302.28 495.973 303.88 494.693 304.96C494.173 305.4 493.533 305.76 493.333 305.76C492.973 305.76 492.853 305.48 492.893 304.08C492.893 302.88 492.853 303 492.853 301.28C492.853 299 493.053 289.8 493.093 288.6C493.093 288.36 492.893 287.88 492.653 287.88C492.413 287.88 492.013 288.08 491.493 288.2C490.493 288.48 489.093 288.8 488.533 288.96C488.173 289.08 487.733 289.52 487.733 289.84C487.733 290 488.133 290.28 488.493 290.48C489.493 291.04 489.693 291.44 489.693 292.32C489.733 292.72 489.733 293.6 489.733 296.8C489.733 300.4 489.573 311 489.493 311.68C489.413 312.72 489.333 313.24 488.053 313.64C487.173 313.92 486.933 314.24 486.933 314.52C486.933 314.92 487.613 315.12 488.213 315.12C488.973 315.12 490.253 315 491.293 315C492.293 315 493.573 315.12 494.293 315.12C495.013 315.12 495.373 314.56 495.373 314.28C495.373 313.96 494.973 313.88 494.453 313.68C493.653 313.36 492.933 313.28 492.893 311.44C492.853 310.4 492.893 309.12 492.893 307.68C492.893 307.44 492.893 307.24 493.093 307.12C493.333 306.96 493.653 306.84 493.773 306.84C494.173 306.84 494.413 307.12 495.173 308C495.973 309 498.533 311.96 499.013 312.68C499.253 313.04 499.293 313.44 498.813 313.6C498.013 313.88 497.813 314.08 497.813 314.44C497.813 314.64 498.053 315.04 498.693 315.04C499.133 315.04 499.893 315 500.453 315C502.453 315 503.653 315.12 504.853 315.12C505.693 315.12 506.213 314.92 506.213 314.52C506.213 314.16 505.773 313.92 504.653 313.48C503.773 313.16 502.533 312 501.733 311.12C501.053 310.32 498.533 307.4 496.893 305.24C496.813 305.08 496.693 304.88 496.893 304.72C498.213 303.6 499.293 302.64 500.413 301.76C501.853 300.56 502.573 300.36 504.213 299.92C504.693 299.8 505.173 299.52 505.173 299.16C505.173 298.84 504.693 298.52 503.973 298.52C503.173 298.52 501.213 298.72 499.613 298.72H498.013ZM508.198 300.04C508.198 300.2 508.358 300.68 508.638 300.84C509.798 301.6 510.158 302.04 510.198 302.36C510.238 302.6 510.238 304.68 510.238 305.48C510.238 307.76 510.158 310.48 510.078 311.32C509.918 312.96 509.838 313.28 508.078 313.72C507.518 313.88 507.118 314.16 507.118 314.52C507.118 314.88 507.518 315.12 508.318 315.12C508.878 315.12 509.638 315 511.678 315C512.558 315 514.198 315.12 515.038 315.12C515.558 315.12 516.198 314.96 516.198 314.6C516.198 314.2 515.798 313.84 515.238 313.68C513.798 313.28 513.638 312.88 513.598 312.56C513.558 312.2 513.478 311.44 513.438 306.2V298.88C513.438 298.76 513.198 298.24 513.038 298.24C512.358 298.24 510.718 298.84 508.718 299.56C508.478 299.64 508.198 299.84 508.198 300.04ZM511.678 290C510.278 290 509.358 290.96 509.358 292.28C509.358 292.8 509.518 293.08 509.758 293.48C510.198 294 510.878 294.4 511.478 294.4C512.198 294.4 513.598 293.72 513.598 292.12C513.598 291.8 513.398 291.04 512.918 290.48C512.598 290.2 512.238 290 511.678 290ZM527.105 298.28C525.425 298.28 523.745 298.76 522.425 299.64C520.025 301.2 518.545 303.96 518.545 307.2C518.545 312.08 521.385 315.48 526.385 315.48C528.505 315.48 530.625 314.56 532.105 313C532.425 312.64 532.625 312.2 532.625 311.76C532.625 311.32 532.305 311.12 532.145 311.24C531.385 311.76 529.665 312.76 528.105 312.76C524.665 312.76 521.985 310.04 521.985 306.48C521.985 306.24 522.025 305.52 522.185 305.24C522.265 305.04 522.705 304.8 522.825 304.8C523.545 304.8 531.145 304.68 531.425 304.68C531.825 304.68 532.505 303.92 532.505 303.48C532.505 302.48 532.345 301.44 531.825 300.68C530.865 299.12 529.025 298.28 527.105 298.28ZM525.905 299.72C528.025 299.72 528.985 300.8 528.985 302C528.985 303.36 527.145 303.44 525.625 303.44C524.465 303.44 523.145 303.4 522.705 303.36C522.625 303.36 522.425 303.12 522.465 302.96C522.985 300.96 524.905 299.72 525.905 299.72ZM543.572 300.44C543.572 300.72 543.852 301.08 544.332 301.28C545.732 301.92 545.692 302.24 545.732 303.36C545.812 305.56 545.852 311.6 545.852 315.68C545.852 319.76 544.812 321.36 543.692 322.44C543.212 322.88 542.732 323.24 542.132 323.68C541.772 323.96 541.492 324.24 541.492 324.72C541.492 325 541.892 325.16 542.172 325.16C542.572 325.16 544.572 324.24 545.652 323.24C547.132 321.96 548.652 319.48 548.972 316.76C549.052 316.08 549.132 315.36 549.132 314.4C549.132 313.44 549.252 306.08 549.252 301.92C549.252 298.68 549.172 298.24 548.772 298.24C548.332 298.24 547.572 298.6 546.972 298.84L544.252 299.8C544.052 299.92 543.572 300.08 543.572 300.44ZM547.332 290.04C546.772 290.04 545.292 290.68 545.292 292.24C545.292 293.44 546.252 294.32 547.332 294.32C547.652 294.32 548.252 294.2 548.652 293.84C549.132 293.52 549.452 292.92 549.452 292.12C549.452 291.8 549.252 290.88 548.892 290.56C548.532 290.32 547.972 290.04 547.332 290.04ZM562.457 298.28C560.777 298.28 559.097 298.76 557.777 299.64C555.377 301.2 553.897 303.96 553.897 307.2C553.897 312.08 556.737 315.48 561.737 315.48C563.857 315.48 565.977 314.56 567.457 313C567.777 312.64 567.977 312.2 567.977 311.76C567.977 311.32 567.657 311.12 567.497 311.24C566.737 311.76 565.017 312.76 563.457 312.76C560.017 312.76 557.337 310.04 557.337 306.48C557.337 306.24 557.377 305.52 557.537 305.24C557.617 305.04 558.057 304.8 558.177 304.8C558.897 304.8 566.497 304.68 566.777 304.68C567.177 304.68 567.857 303.92 567.857 303.48C567.857 302.48 567.697 301.44 567.177 300.68C566.217 299.12 564.377 298.28 562.457 298.28ZM561.257 299.72C563.377 299.72 564.337 300.8 564.337 302C564.337 303.36 562.497 303.44 560.977 303.44C559.817 303.44 558.497 303.4 558.057 303.36C557.977 303.36 557.777 303.12 557.817 302.96C558.337 300.96 560.257 299.72 561.257 299.72ZM577.165 298.28C576.285 298.28 574.605 298.72 573.685 299.32C572.725 300.04 571.645 301.16 571.645 303.08C571.645 305.44 573.205 306.68 574.525 307.44C575.725 308.12 576.605 308.56 577.685 309.2C578.685 309.84 579.125 310.68 579.125 311.44C579.125 312.72 578.125 313.92 576.325 313.92C575.245 313.92 573.845 313.16 572.685 311.36C572.165 310.56 571.885 310.28 571.645 310.28C571.205 310.28 570.925 310.56 570.925 311.6C570.925 312.32 571.325 314.08 571.725 314.48C572.165 314.92 573.365 315.48 575.805 315.48C576.805 315.48 578.085 315.28 579.245 314.72C580.765 314.04 582.245 312.6 582.245 310.32C582.245 307.96 580.485 306.72 578.405 305.64C576.325 304.56 574.605 304.04 574.605 302.08C574.605 300.6 576.005 299.72 576.925 299.72C577.765 299.72 579.085 300.4 579.965 302.04C580.325 302.76 580.685 303.12 580.845 303.12C581.405 303.12 581.725 302.24 581.725 301.96C581.725 301.52 581.725 300 581.645 299.76C581.605 299.6 581.165 299.04 580.965 298.96L579.685 298.6C579.125 298.4 578.205 298.28 577.165 298.28ZM590.7 298.76C590.42 298.76 590.38 298.44 590.38 298.28C590.38 298.04 590.42 296.76 590.42 296.32C590.42 296.12 590.22 295.72 590.06 295.72C589.86 295.72 589.1 295.96 588.46 296.76C587.74 297.68 586.26 298.6 585.58 299.16C585.22 299.48 584.74 299.84 584.74 300C584.74 300.2 585.3 301.08 585.94 301.16C587.06 301.32 587.18 301.36 587.18 301.8C587.18 305.6 586.98 308.04 586.98 310.84C586.98 312.28 587.22 313.2 587.54 313.68C588.42 314.96 589.98 315.52 591.06 315.52C592.06 315.52 593.86 315.24 595.14 314.28C595.78 313.8 596.1 313.32 596.1 312.88C596.1 312.56 595.9 312.28 595.74 312.28C595.5 312.28 595.22 312.44 594.86 312.52C594.26 312.68 593.74 312.88 593.02 312.88C592.54 312.88 591.38 312.56 590.86 312C590.38 311.44 590.22 310.8 590.26 309L590.38 301.72C590.38 301.28 590.58 301.12 590.66 301.12C591.58 301.12 593.7 301.08 595.18 301.08C595.62 301.08 595.98 301 596.1 300.56C596.14 300.36 596.14 299.72 596.14 299.28C596.1 299.04 595.9 298.6 595.62 298.6C594.7 298.6 591.14 298.76 590.7 298.76Z" fill="black"/>
</g>
</svg>
