<svg width="1920" height="1080" viewBox="0 0 1920 1080" fill="none" xmlns="http://www.w3.org/2000/svg">
<g id="Frame 3">
<rect width="1920" height="1080" fill="white"/>
<rect id="habzdryg data (do not delete): {&#34;events&#34;:[],&#34;name&#34;:&#34;Frame 3&#34;,&#34;id&#34;:&#34;1:12&#34;,&#34;root&#34;:false,&#34;pagecount&#34;:1}" x="1" y="1" width="1" height="1" fill="#C4C4C4"/>
<g id="tekst pierwszy">
<path id="xyz" d="M914.219 540.797L925.469 522.281H935.594L919 547.359L936.109 573H926.078L914.359 554.016L902.641 573H892.562L909.672 547.359L893.078 522.281H903.109L914.219 540.797ZM961.422 560.297L973.234 522.281H982.516L962.125 580.828C958.969 589.266 953.953 593.484 947.078 593.484L945.438 593.344L942.203 592.734V585.703L944.547 585.891C947.484 585.891 949.766 585.297 951.391 584.109C953.047 582.922 954.406 580.75 955.469 577.594L957.391 572.438L939.297 522.281H948.766L961.422 560.297ZM998.453 565.922H1028.12V573H987.859V566.625L1015.84 529.453H988.281V522.281H1026.72V528.422L998.453 565.922Z" fill="black"/>
</g>
</g>
</svg>
