<svg width="1920" height="1080" viewBox="0 0 1920 1080" fill="none" xmlns="http://www.w3.org/2000/svg">
<g id="Frame 1">
<rect width="1920" height="1080" fill="white"/>
<rect id="habzdryg data (do not delete): {&#34;events&#34;:[{&#34;type&#34;:&#34;show&#34;,&#34;id&#34;:&#34;1:5&#34;,&#34;name&#34;:&#34;tekst pierwszy&#34;,&#34;index&#34;:1},{&#34;type&#34;:&#34;child&#34;,&#34;id&#34;:&#34;1:7&#34;,&#34;name&#34;:&#34;Frame 2&#34;},{&#34;type&#34;:&#34;hide&#34;,&#34;id&#34;:&#34;1:5&#34;,&#34;name&#34;:&#34;tekst pierwszy&#34;,&#34;index&#34;:1},{&#34;type&#34;:&#34;child&#34;,&#34;id&#34;:&#34;1:12&#34;,&#34;name&#34;:&#34;Frame 3&#34;}],&#34;name&#34;:&#34;Frame 1&#34;,&#34;id&#34;:&#34;1:2&#34;,&#34;root&#34;:false,&#34;pagecount&#34;:3}" x="1" y="1" width="1" height="1" fill="#C4C4C4"/>
<g id="tekst pierwszy">
<path id="Hello world" d="M715.578 282H706.531V250.453H672.125V282H663.125V213.75H672.125V243.094H706.531V213.75H715.578V282ZM751.25 282.938C744.375 282.938 738.781 280.688 734.469 276.188C730.156 271.656 728 265.609 728 258.047V256.453C728 251.422 728.953 246.938 730.859 243C732.797 239.031 735.484 235.938 738.922 233.719C742.391 231.469 746.141 230.344 750.172 230.344C756.766 230.344 761.891 232.516 765.547 236.859C769.203 241.203 771.031 247.422 771.031 255.516V259.125H736.672C736.797 264.125 738.25 268.172 741.031 271.266C743.844 274.328 747.406 275.859 751.719 275.859C754.781 275.859 757.375 275.234 759.5 273.984C761.625 272.734 763.484 271.078 765.078 269.016L770.375 273.141C766.125 279.672 759.75 282.938 751.25 282.938ZM750.172 237.469C746.672 237.469 743.734 238.75 741.359 241.312C738.984 243.844 737.516 247.406 736.953 252H762.359V251.344C762.109 246.938 760.922 243.531 758.797 241.125C756.672 238.688 753.797 237.469 750.172 237.469ZM790.531 282H781.859V210H790.531V282ZM813.875 282H805.203V210H813.875V282ZM825.5 256.172C825.5 251.203 826.469 246.734 828.406 242.766C830.375 238.797 833.094 235.734 836.562 233.578C840.062 231.422 844.047 230.344 848.516 230.344C855.422 230.344 861 232.734 865.25 237.516C869.531 242.297 871.672 248.656 871.672 256.594V257.203C871.672 262.141 870.719 266.578 868.812 270.516C866.938 274.422 864.234 277.469 860.703 279.656C857.203 281.844 853.172 282.938 848.609 282.938C841.734 282.938 836.156 280.547 831.875 275.766C827.625 270.984 825.5 264.656 825.5 256.781V256.172ZM834.219 257.203C834.219 262.828 835.516 267.344 838.109 270.75C840.734 274.156 844.234 275.859 848.609 275.859C853.016 275.859 856.516 274.141 859.109 270.703C861.703 267.234 863 262.391 863 256.172C863 250.609 861.672 246.109 859.016 242.672C856.391 239.203 852.891 237.469 848.516 237.469C844.234 237.469 840.781 239.172 838.156 242.578C835.531 245.984 834.219 250.859 834.219 257.203ZM951.266 270.047L961.016 231.281H969.688L954.922 282H947.891L935.562 243.562L923.562 282H916.531L901.812 231.281H910.438L920.422 269.25L932.234 231.281H939.219L951.266 270.047ZM976.25 256.172C976.25 251.203 977.219 246.734 979.156 242.766C981.125 238.797 983.844 235.734 987.312 233.578C990.812 231.422 994.797 230.344 999.266 230.344C1006.17 230.344 1011.75 232.734 1016 237.516C1020.28 242.297 1022.42 248.656 1022.42 256.594V257.203C1022.42 262.141 1021.47 266.578 1019.56 270.516C1017.69 274.422 1014.98 277.469 1011.45 279.656C1007.95 281.844 1003.92 282.938 999.359 282.938C992.484 282.938 986.906 280.547 982.625 275.766C978.375 270.984 976.25 264.656 976.25 256.781V256.172ZM984.969 257.203C984.969 262.828 986.266 267.344 988.859 270.75C991.484 274.156 994.984 275.859 999.359 275.859C1003.77 275.859 1007.27 274.141 1009.86 270.703C1012.45 267.234 1013.75 262.391 1013.75 256.172C1013.75 250.609 1012.42 246.109 1009.77 242.672C1007.14 239.203 1003.64 237.469 999.266 237.469C994.984 237.469 991.531 239.172 988.906 242.578C986.281 245.984 984.969 250.859 984.969 257.203ZM1057.81 239.062C1056.5 238.844 1055.08 238.734 1053.55 238.734C1047.86 238.734 1044 241.156 1041.97 246V282H1033.3V231.281H1041.73L1041.88 237.141C1044.72 232.609 1048.75 230.344 1053.97 230.344C1055.66 230.344 1056.94 230.562 1057.81 231V239.062ZM1075.25 282H1066.58V210H1075.25V282ZM1087.06 256.219C1087.06 248.438 1088.91 242.188 1092.59 237.469C1096.28 232.719 1101.11 230.344 1107.08 230.344C1113.02 230.344 1117.72 232.375 1121.19 236.438V210H1129.86V282H1121.89L1121.47 276.562C1118 280.812 1113.17 282.938 1106.98 282.938C1101.11 282.938 1096.31 280.531 1092.59 275.719C1088.91 270.906 1087.06 264.625 1087.06 256.875V256.219ZM1095.73 257.203C1095.73 262.953 1096.92 267.453 1099.3 270.703C1101.67 273.953 1104.95 275.578 1109.14 275.578C1114.64 275.578 1118.66 273.109 1121.19 268.172V244.875C1118.59 240.094 1114.61 237.703 1109.23 237.703C1104.98 237.703 1101.67 239.344 1099.3 242.625C1096.92 245.906 1095.73 250.766 1095.73 257.203Z" fill="black"/>
</g>
<rect id="1:7" opacity="0.2" x="960" y="428" width="716" height="403" fill="#FF0000"/>
<rect id="1:12" opacity="0.2" x="122" y="512" width="567" height="319" fill="#FF0000"/>
</g>
</svg>
