<svg width="1920" height="1080" viewBox="0 0 1920 1080" fill="none" xmlns="http://www.w3.org/2000/svg">
<g id="Frame 2">
<rect width="1920" height="1080" fill="white"/>
<rect id="habzdryg data (do not delete): {&#34;events&#34;:[{&#34;type&#34;:&#34;child&#34;,&#34;id&#34;:&#34;1:12&#34;,&#34;name&#34;:&#34;Frame 3&#34;},{&#34;type&#34;:&#34;child&#34;,&#34;id&#34;:&#34;1:2&#34;,&#34;name&#34;:&#34;Frame 1&#34;}],&#34;name&#34;:&#34;Frame 2&#34;,&#34;id&#34;:&#34;1:7&#34;,&#34;root&#34;:false,&#34;pagecount&#34;:5}" x="1" y="1" width="1" height="1" fill="#C4C4C4"/>
<g id="tekst pierwszy">
<path id="Klatka druga" d="M851.75 471.266L843.406 479.938V503H834.406V434.75H843.406V468.5L873.734 434.75H884.609L857.75 464.891L886.719 503H875.938L851.75 471.266ZM902.656 503H893.984V431H902.656V503ZM947.891 503C947.391 502 946.984 500.219 946.672 497.656C942.641 501.844 937.828 503.938 932.234 503.938C927.234 503.938 923.125 502.531 919.906 499.719C916.719 496.875 915.125 493.281 915.125 488.938C915.125 483.656 917.125 479.562 921.125 476.656C925.156 473.719 930.812 472.25 938.094 472.25H946.531V468.266C946.531 465.234 945.625 462.828 943.812 461.047C942 459.234 939.328 458.328 935.797 458.328C932.703 458.328 930.109 459.109 928.016 460.672C925.922 462.234 924.875 464.125 924.875 466.344H916.156C916.156 463.812 917.047 461.375 918.828 459.031C920.641 456.656 923.078 454.781 926.141 453.406C929.234 452.031 932.625 451.344 936.312 451.344C942.156 451.344 946.734 452.812 950.047 455.75C953.359 458.656 955.078 462.672 955.203 467.797V491.141C955.203 495.797 955.797 499.5 956.984 502.25V503H947.891ZM933.5 496.391C936.219 496.391 938.797 495.688 941.234 494.281C943.672 492.875 945.438 491.047 946.531 488.797V478.391H939.734C929.109 478.391 923.797 481.5 923.797 487.719C923.797 490.438 924.703 492.562 926.516 494.094C928.328 495.625 930.656 496.391 933.5 496.391ZM980.562 440V452.281H990.031V458.984H980.562V490.438C980.562 492.469 980.984 494 981.828 495.031C982.672 496.031 984.109 496.531 986.141 496.531C987.141 496.531 988.516 496.344 990.266 495.969V503C987.984 503.625 985.766 503.938 983.609 503.938C979.734 503.938 976.812 502.766 974.844 500.422C972.875 498.078 971.891 494.75 971.891 490.438V458.984H962.656V452.281H971.891V440H980.562ZM1014.36 479.516L1008.92 485.188V503H1000.25V431H1008.92V474.547L1013.56 468.969L1029.36 452.281H1039.91L1020.17 473.469L1042.2 503H1032.03L1014.36 479.516ZM1080.17 503C1079.67 502 1079.27 500.219 1078.95 497.656C1074.92 501.844 1070.11 503.938 1064.52 503.938C1059.52 503.938 1055.41 502.531 1052.19 499.719C1049 496.875 1047.41 493.281 1047.41 488.938C1047.41 483.656 1049.41 479.562 1053.41 476.656C1057.44 473.719 1063.09 472.25 1070.38 472.25H1078.81V468.266C1078.81 465.234 1077.91 462.828 1076.09 461.047C1074.28 459.234 1071.61 458.328 1068.08 458.328C1064.98 458.328 1062.39 459.109 1060.3 460.672C1058.2 462.234 1057.16 464.125 1057.16 466.344H1048.44C1048.44 463.812 1049.33 461.375 1051.11 459.031C1052.92 456.656 1055.36 454.781 1058.42 453.406C1061.52 452.031 1064.91 451.344 1068.59 451.344C1074.44 451.344 1079.02 452.812 1082.33 455.75C1085.64 458.656 1087.36 462.672 1087.48 467.797V491.141C1087.48 495.797 1088.08 499.5 1089.27 502.25V503H1080.17ZM1065.78 496.391C1068.5 496.391 1071.08 495.688 1073.52 494.281C1075.95 492.875 1077.72 491.047 1078.81 488.797V478.391H1072.02C1061.39 478.391 1056.08 481.5 1056.08 487.719C1056.08 490.438 1056.98 492.562 1058.8 494.094C1060.61 495.625 1062.94 496.391 1065.78 496.391ZM842.047 590.219C842.047 582.438 843.891 576.188 847.578 571.469C851.266 566.719 856.094 564.344 862.062 564.344C868 564.344 872.703 566.375 876.172 570.438V544H884.844V616H876.875L876.453 610.562C872.984 614.812 868.156 616.938 861.969 616.938C856.094 616.938 851.297 614.531 847.578 609.719C843.891 604.906 842.047 598.625 842.047 590.875V590.219ZM850.719 591.203C850.719 596.953 851.906 601.453 854.281 604.703C856.656 607.953 859.938 609.578 864.125 609.578C869.625 609.578 873.641 607.109 876.172 602.172V578.875C873.578 574.094 869.594 571.703 864.219 571.703C859.969 571.703 856.656 573.344 854.281 576.625C851.906 579.906 850.719 584.766 850.719 591.203ZM922.859 573.062C921.547 572.844 920.125 572.734 918.594 572.734C912.906 572.734 909.047 575.156 907.016 580V616H898.344V565.281H906.781L906.922 571.141C909.766 566.609 913.797 564.344 919.016 564.344C920.703 564.344 921.984 564.562 922.859 565V573.062ZM962.188 610.984C958.812 614.953 953.859 616.938 947.328 616.938C941.922 616.938 937.797 615.375 934.953 612.25C932.141 609.094 930.719 604.438 930.688 598.281V565.281H939.359V598.047C939.359 605.734 942.484 609.578 948.734 609.578C955.359 609.578 959.766 607.109 961.953 602.172V565.281H970.625V616H962.375L962.188 610.984ZM981.781 590.219C981.781 582.312 983.609 576.031 987.266 571.375C990.922 566.688 995.766 564.344 1001.8 564.344C1007.98 564.344 1012.81 566.531 1016.28 570.906L1016.7 565.281H1024.62V614.781C1024.62 621.344 1022.67 626.516 1018.77 630.297C1014.89 634.078 1009.67 635.969 1003.11 635.969C999.453 635.969 995.875 635.188 992.375 633.625C988.875 632.062 986.203 629.922 984.359 627.203L988.859 622C992.578 626.594 997.125 628.891 1002.5 628.891C1006.72 628.891 1010 627.703 1012.34 625.328C1014.72 622.953 1015.91 619.609 1015.91 615.297V610.938C1012.44 614.938 1007.7 616.938 1001.7 616.938C995.766 616.938 990.953 614.547 987.266 609.766C983.609 604.984 981.781 598.469 981.781 590.219ZM990.5 591.203C990.5 596.922 991.672 601.422 994.016 604.703C996.359 607.953 999.641 609.578 1003.86 609.578C1009.33 609.578 1013.34 607.094 1015.91 602.125V578.969C1013.25 574.125 1009.27 571.703 1003.95 571.703C999.734 571.703 996.438 573.344 994.062 576.625C991.688 579.906 990.5 584.766 990.5 591.203ZM1069.06 616C1068.56 615 1068.16 613.219 1067.84 610.656C1063.81 614.844 1059 616.938 1053.41 616.938C1048.41 616.938 1044.3 615.531 1041.08 612.719C1037.89 609.875 1036.3 606.281 1036.3 601.938C1036.3 596.656 1038.3 592.562 1042.3 589.656C1046.33 586.719 1051.98 585.25 1059.27 585.25H1067.7V581.266C1067.7 578.234 1066.8 575.828 1064.98 574.047C1063.17 572.234 1060.5 571.328 1056.97 571.328C1053.88 571.328 1051.28 572.109 1049.19 573.672C1047.09 575.234 1046.05 577.125 1046.05 579.344H1037.33C1037.33 576.812 1038.22 574.375 1040 572.031C1041.81 569.656 1044.25 567.781 1047.31 566.406C1050.41 565.031 1053.8 564.344 1057.48 564.344C1063.33 564.344 1067.91 565.812 1071.22 568.75C1074.53 571.656 1076.25 575.672 1076.38 580.797V604.141C1076.38 608.797 1076.97 612.5 1078.16 615.25V616H1069.06ZM1054.67 609.391C1057.39 609.391 1059.97 608.688 1062.41 607.281C1064.84 605.875 1066.61 604.047 1067.7 601.797V591.391H1060.91C1050.28 591.391 1044.97 594.5 1044.97 600.719C1044.97 603.438 1045.88 605.562 1047.69 607.094C1049.5 608.625 1051.83 609.391 1054.67 609.391Z" fill="black"/>
</g>
<rect id="1:12" opacity="0.2" x="1191" y="527" width="588" height="331" fill="#FF0000"/>
<rect id="1:2" opacity="0.2" x="100" y="100" width="100" height="56.25" fill="#FF0000"/>
</g>
</svg>
