<svg width="1024" height="768" viewBox="0 0 1024 768" fill="none" xmlns="http://www.w3.org/2000/svg">
<g id="tabelka" clip-path="url(#clip0)">
<rect width="1024" height="768" fill="white"/>
<rect id="habzdryg data (do not delete): {&#34;events&#34;:[{&#34;type&#34;:&#34;show&#34;,&#34;id&#34;:&#34;26:15&#34;,&#34;name&#34;:&#34;Arrow 1&#34;,&#34;index&#34;:1},{&#34;type&#34;:&#34;show&#34;,&#34;id&#34;:&#34;36:49&#34;,&#34;name&#34;:&#34;Group 16&#34;,&#34;index&#34;:2},{&#34;type&#34;:&#34;show&#34;,&#34;id&#34;:&#34;36:51&#34;,&#34;name&#34;:&#34;Group 17&#34;,&#34;index&#34;:3},{&#34;type&#34;:&#34;show&#34;,&#34;id&#34;:&#34;36:54&#34;,&#34;name&#34;:&#34;Group 18&#34;,&#34;index&#34;:4}],&#34;pagecount&#34;:1,&#34;name&#34;:&#34;tabelka&#34;,&#34;id&#34;:&#34;26:11&#34;,&#34;root&#34;:false}" x="1" y="1" width="1" height="1" fill="#C4C4C4"/>
<path id="Arrow 1" d="M951.354 458.354C951.549 458.158 951.549 457.842 951.354 457.647L948.172 454.465C947.976 454.269 947.66 454.269 947.464 454.465C947.269 454.66 947.269 454.976 947.464 455.172L950.293 458L947.464 460.829C947.269 461.024 947.269 461.34 947.464 461.536C947.66 461.731 947.976 461.731 948.172 461.536L951.354 458.354ZM-62 458.5L951 458.5L951 457.5L-62 457.5L-62 458.5Z" fill="black"/>
<g id="Group 16">
<path id="Vector 2" d="M-19 707.008C85 465.008 263 73.0076 451 75.0076C639 77.0076 659 521.008 795 531.008C903.8 539.008 1035 247.674 1087 101.008" stroke="#EB5757" stroke-width="3"/>
<path id="Line 5" d="M96 -29L96 603.5" stroke="black" stroke-dasharray="1 1"/>
<path id="Line 8" d="M709.5 -29L709.5 603.5" stroke="black" stroke-dasharray="1 1"/>
<path id="Line 10" d="M907.5 -29L907.5 603.5" stroke="black" stroke-dasharray="1 1"/>
<path id="&#226;&#128;&#147;" d="M30.2044 661.4C30.0044 661.4 29.4844 662.16 29.4844 663C29.4844 663.12 29.6844 663.56 29.9244 663.56L46.8844 663.6C47.1644 663.6 47.5644 662.48 47.5244 661.96C47.5244 661.72 47.3244 661.44 47.1644 661.44L30.2044 661.4Z" fill="#EB5757"/>
<path id="0" d="M98.3134 645.76C96.7934 645.76 95.7134 646.16 94.6334 646.84C92.1134 648.44 89.7934 652.4 89.7934 658.84C89.7934 663.96 91.9934 671.36 97.9934 671.48C99.1934 671.52 100.513 671.12 101.673 670.36C103.913 668.92 106.233 664.68 106.233 658.24C106.233 653.96 104.633 645.76 98.3134 645.76ZM97.6334 646.96C98.4334 646.96 99.0734 647.28 99.7134 647.72C100.793 648.48 102.713 651.92 102.713 658.48C102.713 663.6 102.073 666.72 101.153 668.48C101.033 668.68 99.9134 670.4 98.5534 670.4C94.4734 670.4 93.1534 662.8 93.1534 658.36C93.1534 652.44 94.2334 649.92 95.1934 648.48C96.0334 647.32 96.7134 646.96 97.6334 646.96Z" fill="#EB5757"/>
<path id="+" d="M458.34 651.04V659.56C458.34 659.68 458.26 659.84 458.1 659.84L450.02 659.8C449.7 659.8 449.42 660.4 449.42 660.92C449.42 661.48 449.54 661.92 450.26 661.92L458.1 661.96C458.22 661.96 458.34 662.16 458.34 662.4L458.38 671.16C458.38 671.36 458.66 671.6 458.86 671.6C459.9 671.6 460.62 671.24 460.62 670.96L460.7 662.32C460.7 662.12 460.78 661.96 460.94 661.96L468.98 661.84C469.22 661.84 469.54 661.28 469.54 660.32C469.54 660.08 469.34 659.76 469.22 659.76L460.94 659.84C460.82 659.84 460.7 659.8 460.7 659.6L460.82 650.92C460.82 650.8 460.62 650.48 460.22 650.48C459.66 650.48 458.34 650.72 458.34 651.04Z" fill="#EB5757"/>
<path id="0_2" d="M709.313 645.76C707.793 645.76 706.713 646.16 705.633 646.84C703.113 648.44 700.793 652.4 700.793 658.84C700.793 663.96 702.993 671.36 708.993 671.48C710.193 671.52 711.513 671.12 712.673 670.36C714.913 668.92 717.233 664.68 717.233 658.24C717.233 653.96 715.633 645.76 709.313 645.76ZM708.633 646.96C709.433 646.96 710.073 647.28 710.713 647.72C711.793 648.48 713.713 651.92 713.713 658.48C713.713 663.6 713.073 666.72 712.153 668.48C712.033 668.68 710.913 670.4 709.553 670.4C705.473 670.4 704.153 662.8 704.153 658.36C704.153 652.44 705.233 649.92 706.193 648.48C707.033 647.32 707.713 646.96 708.633 646.96Z" fill="#EB5757"/>
<path id="&#226;&#128;&#147;_2" d="M796.204 661.4C796.004 661.4 795.484 662.16 795.484 663C795.484 663.12 795.684 663.56 795.924 663.56L812.884 663.6C813.164 663.6 813.564 662.48 813.524 661.96C813.524 661.72 813.324 661.44 813.164 661.44L796.204 661.4Z" fill="#EB5757"/>
<path id="0_3" d="M908.313 645.76C906.793 645.76 905.713 646.16 904.633 646.84C902.113 648.44 899.793 652.4 899.793 658.84C899.793 663.96 901.993 671.36 907.993 671.48C909.193 671.52 910.513 671.12 911.673 670.36C913.913 668.92 916.233 664.68 916.233 658.24C916.233 653.96 914.633 645.76 908.313 645.76ZM907.633 646.96C908.433 646.96 909.073 647.28 909.713 647.72C910.793 648.48 912.713 651.92 912.713 658.48C912.713 663.6 912.073 666.72 911.153 668.48C911.033 668.68 909.913 670.4 908.553 670.4C904.473 670.4 903.153 662.8 903.153 658.36C903.153 652.44 904.233 649.92 905.193 648.48C906.033 647.32 906.713 646.96 907.633 646.96Z" fill="#EB5757"/>
<path id="+_2" d="M967.34 651.04V659.56C967.34 659.68 967.26 659.84 967.1 659.84L959.02 659.8C958.7 659.8 958.42 660.4 958.42 660.92C958.42 661.48 958.54 661.92 959.26 661.92L967.1 661.96C967.22 661.96 967.34 662.16 967.34 662.4L967.38 671.16C967.38 671.36 967.66 671.6 967.86 671.6C968.9 671.6 969.62 671.24 969.62 670.96L969.7 662.32C969.7 662.12 969.78 661.96 969.94 661.96L977.98 661.84C978.22 661.84 978.54 661.28 978.54 660.32C978.54 660.08 978.34 659.76 978.22 659.76L969.94 659.84C969.82 659.84 969.7 659.8 969.7 659.6L969.82 650.92C969.82 650.8 969.62 650.48 969.22 650.48C968.66 650.48 967.34 650.72 967.34 651.04Z" fill="#EB5757"/>
</g>
<g id="Group 17">
<path id="+_3" d="M196.34 651.04V659.56C196.34 659.68 196.26 659.84 196.1 659.84L188.02 659.8C187.7 659.8 187.42 660.4 187.42 660.92C187.42 661.48 187.54 661.92 188.26 661.92L196.1 661.96C196.22 661.96 196.34 662.16 196.34 662.4L196.38 671.16C196.38 671.36 196.66 671.6 196.86 671.6C197.9 671.6 198.62 671.24 198.62 670.96L198.7 662.32C198.7 662.12 198.78 661.96 198.94 661.96L206.98 661.84C207.22 661.84 207.54 661.28 207.54 660.32C207.54 660.08 207.34 659.76 207.22 659.76L198.94 659.84C198.82 659.84 198.7 659.8 198.7 659.6L198.82 650.92C198.82 650.8 198.62 650.48 198.22 650.48C197.66 650.48 196.34 650.72 196.34 651.04Z" fill="#EB5757"/>
<path id="+_4" d="M196.34 699.04V707.56C196.34 707.68 196.26 707.84 196.1 707.84L188.02 707.8C187.7 707.8 187.42 708.4 187.42 708.92C187.42 709.48 187.54 709.92 188.26 709.92L196.1 709.96C196.22 709.96 196.34 710.16 196.34 710.4L196.38 719.16C196.38 719.36 196.66 719.6 196.86 719.6C197.9 719.6 198.62 719.24 198.62 718.96L198.7 710.32C198.7 710.12 198.78 709.96 198.94 709.96L206.98 709.84C207.22 709.84 207.54 709.28 207.54 708.32C207.54 708.08 207.34 707.76 207.22 707.76L198.94 707.84C198.82 707.84 198.7 707.8 198.7 707.6L198.82 698.92C198.82 698.8 198.62 698.48 198.22 698.48C197.66 698.48 196.34 698.72 196.34 699.04Z" fill="#2F80ED"/>
<path id="+_5" d="M338.34 651.04V659.56C338.34 659.68 338.26 659.84 338.1 659.84L330.02 659.8C329.7 659.8 329.42 660.4 329.42 660.92C329.42 661.48 329.54 661.92 330.26 661.92L338.1 661.96C338.22 661.96 338.34 662.16 338.34 662.4L338.38 671.16C338.38 671.36 338.66 671.6 338.86 671.6C339.9 671.6 340.62 671.24 340.62 670.96L340.7 662.32C340.7 662.12 340.78 661.96 340.94 661.96L348.98 661.84C349.22 661.84 349.54 661.28 349.54 660.32C349.54 660.08 349.34 659.76 349.22 659.76L340.94 659.84C340.82 659.84 340.7 659.8 340.7 659.6L340.82 650.92C340.82 650.8 340.62 650.48 340.22 650.48C339.66 650.48 338.34 650.72 338.34 651.04Z" fill="#EB5757"/>
<path id="+_6" d="M578.34 651.04V659.56C578.34 659.68 578.26 659.84 578.1 659.84L570.02 659.8C569.7 659.8 569.42 660.4 569.42 660.92C569.42 661.48 569.54 661.92 570.26 661.92L578.1 661.96C578.22 661.96 578.34 662.16 578.34 662.4L578.38 671.16C578.38 671.36 578.66 671.6 578.86 671.6C579.9 671.6 580.62 671.24 580.62 670.96L580.7 662.32C580.7 662.12 580.78 661.96 580.94 661.96L588.98 661.84C589.22 661.84 589.54 661.28 589.54 660.32C589.54 660.08 589.34 659.76 589.22 659.76L580.94 659.84C580.82 659.84 580.7 659.8 580.7 659.6L580.82 650.92C580.82 650.8 580.62 650.48 580.22 650.48C579.66 650.48 578.34 650.72 578.34 651.04Z" fill="#EB5757"/>
<path id="+_7" d="M645.34 651.04V659.56C645.34 659.68 645.26 659.84 645.1 659.84L637.02 659.8C636.7 659.8 636.42 660.4 636.42 660.92C636.42 661.48 636.54 661.92 637.26 661.92L645.1 661.96C645.22 661.96 645.34 662.16 645.34 662.4L645.38 671.16C645.38 671.36 645.66 671.6 645.86 671.6C646.9 671.6 647.62 671.24 647.62 670.96L647.7 662.32C647.7 662.12 647.78 661.96 647.94 661.96L655.98 661.84C656.22 661.84 656.54 661.28 656.54 660.32C656.54 660.08 656.34 659.76 656.22 659.76L647.94 659.84C647.82 659.84 647.7 659.8 647.7 659.6L647.82 650.92C647.82 650.8 647.62 650.48 647.22 650.48C646.66 650.48 645.34 650.72 645.34 651.04Z" fill="#EB5757"/>
<path id="+_8" d="M645.34 699.04V707.56C645.34 707.68 645.26 707.84 645.1 707.84L637.02 707.8C636.7 707.8 636.42 708.4 636.42 708.92C636.42 709.48 636.54 709.92 637.26 709.92L645.1 709.96C645.22 709.96 645.34 710.16 645.34 710.4L645.38 719.16C645.38 719.36 645.66 719.6 645.86 719.6C646.9 719.6 647.62 719.24 647.62 718.96L647.7 710.32C647.7 710.12 647.78 709.96 647.94 709.96L655.98 709.84C656.22 709.84 656.54 709.28 656.54 708.32C656.54 708.08 656.34 707.76 656.22 707.76L647.94 707.84C647.82 707.84 647.7 707.8 647.7 707.6L647.82 698.92C647.82 698.8 647.62 698.48 647.22 698.48C646.66 698.48 645.34 698.72 645.34 699.04Z" fill="#2F80ED"/>
<path id="Vector 1" d="M160 -77C202 107 336 594 464 593C566.4 592.2 710.667 122.333 759 -54" stroke="#2F80ED" stroke-width="3"/>
<path id="Line 6" d="M339 -29L339 603.5" stroke="black" stroke-dasharray="1 1"/>
<path id="Line 7" d="M579 -29L579 603.5" stroke="black" stroke-dasharray="1 1"/>
<path id="+_9" d="M906.34 699.04V707.56C906.34 707.68 906.26 707.84 906.1 707.84L898.02 707.8C897.7 707.8 897.42 708.4 897.42 708.92C897.42 709.48 897.54 709.92 898.26 709.92L906.1 709.96C906.22 709.96 906.34 710.16 906.34 710.4L906.38 719.16C906.38 719.36 906.66 719.6 906.86 719.6C907.9 719.6 908.62 719.24 908.62 718.96L908.7 710.32C908.7 710.12 908.78 709.96 908.94 709.96L916.98 709.84C917.22 709.84 917.54 709.28 917.54 708.32C917.54 708.08 917.34 707.76 917.22 707.76L908.94 707.84C908.82 707.84 908.7 707.8 908.7 707.6L908.82 698.92C908.82 698.8 908.62 698.48 908.22 698.48C907.66 698.48 906.34 698.72 906.34 699.04Z" fill="#2F80ED"/>
<path id="+_10" d="M966.34 699.04V707.56C966.34 707.68 966.26 707.84 966.1 707.84L958.02 707.8C957.7 707.8 957.42 708.4 957.42 708.92C957.42 709.48 957.54 709.92 958.26 709.92L966.1 709.96C966.22 709.96 966.34 710.16 966.34 710.4L966.38 719.16C966.38 719.36 966.66 719.6 966.86 719.6C967.9 719.6 968.62 719.24 968.62 718.96L968.7 710.32C968.7 710.12 968.78 709.96 968.94 709.96L976.98 709.84C977.22 709.84 977.54 709.28 977.54 708.32C977.54 708.08 977.34 707.76 977.22 707.76L968.94 707.84C968.82 707.84 968.7 707.8 968.7 707.6L968.82 698.92C968.82 698.8 968.62 698.48 968.22 698.48C967.66 698.48 966.34 698.72 966.34 699.04Z" fill="#2F80ED"/>
<path id="+_11" d="M37.3395 699.04V707.56C37.3395 707.68 37.2595 707.84 37.0995 707.84L29.0195 707.8C28.6995 707.8 28.4195 708.4 28.4195 708.92C28.4195 709.48 28.5395 709.92 29.2595 709.92L37.0995 709.96C37.2195 709.96 37.3395 710.16 37.3395 710.4L37.3795 719.16C37.3795 719.36 37.6595 719.6 37.8595 719.6C38.8995 719.6 39.6195 719.24 39.6195 718.96L39.6995 710.32C39.6995 710.12 39.7795 709.96 39.9395 709.96L47.9795 709.84C48.2195 709.84 48.5395 709.28 48.5395 708.32C48.5395 708.08 48.3395 707.76 48.2195 707.76L39.9395 707.84C39.8195 707.84 39.6995 707.8 39.6995 707.6L39.8195 698.92C39.8195 698.8 39.6195 698.48 39.2195 698.48C38.6595 698.48 37.3395 698.72 37.3395 699.04Z" fill="#2F80ED"/>
<path id="+_12" d="M97.3395 699.04V707.56C97.3395 707.68 97.2595 707.84 97.0995 707.84L89.0195 707.8C88.6995 707.8 88.4195 708.4 88.4195 708.92C88.4195 709.48 88.5395 709.92 89.2595 709.92L97.0995 709.96C97.2195 709.96 97.3395 710.16 97.3395 710.4L97.3795 719.16C97.3795 719.36 97.6595 719.6 97.8595 719.6C98.8995 719.6 99.6195 719.24 99.6195 718.96L99.6995 710.32C99.6995 710.12 99.7795 709.96 99.9395 709.96L107.98 709.84C108.22 709.84 108.54 709.28 108.54 708.32C108.54 708.08 108.34 707.76 108.22 707.76L99.9395 707.84C99.8195 707.84 99.6995 707.8 99.6995 707.6L99.8195 698.92C99.8195 698.8 99.6195 698.48 99.2195 698.48C98.6595 698.48 97.3395 698.72 97.3395 699.04Z" fill="#2F80ED"/>
<path id="0_4" d="M339.313 693.76C337.793 693.76 336.713 694.16 335.633 694.84C333.113 696.44 330.793 700.4 330.793 706.84C330.793 711.96 332.993 719.36 338.993 719.48C340.193 719.52 341.513 719.12 342.673 718.36C344.913 716.92 347.233 712.68 347.233 706.24C347.233 701.96 345.633 693.76 339.313 693.76ZM338.633 694.96C339.433 694.96 340.073 695.28 340.713 695.72C341.793 696.48 343.713 699.92 343.713 706.48C343.713 711.6 343.073 714.72 342.153 716.48C342.033 716.68 340.913 718.4 339.553 718.4C335.473 718.4 334.153 710.8 334.153 706.36C334.153 700.44 335.233 697.92 336.193 696.48C337.033 695.32 337.713 694.96 338.633 694.96Z" fill="#2F80ED"/>
<path id="&#226;&#128;&#147;_3" d="M451.204 709.4C451.004 709.4 450.484 710.16 450.484 711C450.484 711.12 450.684 711.56 450.924 711.56L467.884 711.6C468.164 711.6 468.564 710.48 468.524 709.96C468.524 709.72 468.324 709.44 468.164 709.44L451.204 709.4Z" fill="#2F80ED"/>
<path id="0_5" d="M579.313 693.76C577.793 693.76 576.713 694.16 575.633 694.84C573.113 696.44 570.793 700.4 570.793 706.84C570.793 711.96 572.993 719.36 578.993 719.48C580.193 719.52 581.513 719.12 582.673 718.36C584.913 716.92 587.233 712.68 587.233 706.24C587.233 701.96 585.633 693.76 579.313 693.76ZM578.633 694.96C579.433 694.96 580.073 695.28 580.713 695.72C581.793 696.48 583.713 699.92 583.713 706.48C583.713 711.6 583.073 714.72 582.153 716.48C582.033 716.68 580.913 718.4 579.553 718.4C575.473 718.4 574.153 710.8 574.153 706.36C574.153 700.44 575.233 697.92 576.193 696.48C577.033 695.32 577.713 694.96 578.633 694.96Z" fill="#2F80ED"/>
<path id="+_13" d="M708.34 699.04V707.56C708.34 707.68 708.26 707.84 708.1 707.84L700.02 707.8C699.7 707.8 699.42 708.4 699.42 708.92C699.42 709.48 699.54 709.92 700.26 709.92L708.1 709.96C708.22 709.96 708.34 710.16 708.34 710.4L708.38 719.16C708.38 719.36 708.66 719.6 708.86 719.6C709.9 719.6 710.62 719.24 710.62 718.96L710.7 710.32C710.7 710.12 710.78 709.96 710.94 709.96L718.98 709.84C719.22 709.84 719.54 709.28 719.54 708.32C719.54 708.08 719.34 707.76 719.22 707.76L710.94 707.84C710.82 707.84 710.7 707.8 710.7 707.6L710.82 698.92C710.82 698.8 710.62 698.48 710.22 698.48C709.66 698.48 708.34 698.72 708.34 699.04Z" fill="#2F80ED"/>
<path id="+_14" d="M803.34 699.04V707.56C803.34 707.68 803.26 707.84 803.1 707.84L795.02 707.8C794.7 707.8 794.42 708.4 794.42 708.92C794.42 709.48 794.54 709.92 795.26 709.92L803.1 709.96C803.22 709.96 803.34 710.16 803.34 710.4L803.38 719.16C803.38 719.36 803.66 719.6 803.86 719.6C804.9 719.6 805.62 719.24 805.62 718.96L805.7 710.32C805.7 710.12 805.78 709.96 805.94 709.96L813.98 709.84C814.22 709.84 814.54 709.28 814.54 708.32C814.54 708.08 814.34 707.76 814.22 707.76L805.94 707.84C805.82 707.84 805.7 707.8 805.7 707.6L805.82 698.92C805.82 698.8 805.62 698.48 805.22 698.48C804.66 698.48 803.34 698.72 803.34 699.04Z" fill="#2F80ED"/>
</g>
<g id="Group 18">
<line id="Line 4" x1="-5.26681" y1="4.6914" x2="1122.73" y2="636.691" stroke="black" stroke-width="3"/>
<path id="Line 9" d="M804 -29L804 603.5" stroke="black" stroke-dasharray="1 1"/>
<path id="+_15" d="M37.3395 744.04V752.56C37.3395 752.68 37.2595 752.84 37.0995 752.84L29.0195 752.8C28.6995 752.8 28.4195 753.4 28.4195 753.92C28.4195 754.48 28.5395 754.92 29.2595 754.92L37.0995 754.96C37.2195 754.96 37.3395 755.16 37.3395 755.4L37.3795 764.16C37.3795 764.36 37.6595 764.6 37.8595 764.6C38.8995 764.6 39.6195 764.24 39.6195 763.96L39.6995 755.32C39.6995 755.12 39.7795 754.96 39.9395 754.96L47.9795 754.84C48.2195 754.84 48.5395 754.28 48.5395 753.32C48.5395 753.08 48.3395 752.76 48.2195 752.76L39.9395 752.84C39.8195 752.84 39.6995 752.8 39.6995 752.6L39.8195 743.92C39.8195 743.8 39.6195 743.48 39.2195 743.48C38.6595 743.48 37.3395 743.72 37.3395 744.04Z" fill="#333333"/>
<path id="+_16" d="M97.3395 744.04V752.56C97.3395 752.68 97.2595 752.84 97.0995 752.84L89.0195 752.8C88.6995 752.8 88.4195 753.4 88.4195 753.92C88.4195 754.48 88.5395 754.92 89.2595 754.92L97.0995 754.96C97.2195 754.96 97.3395 755.16 97.3395 755.4L97.3795 764.16C97.3795 764.36 97.6595 764.6 97.8595 764.6C98.8995 764.6 99.6195 764.24 99.6195 763.96L99.6995 755.32C99.6995 755.12 99.7795 754.96 99.9395 754.96L107.98 754.84C108.22 754.84 108.54 754.28 108.54 753.32C108.54 753.08 108.34 752.76 108.22 752.76L99.9395 752.84C99.8195 752.84 99.6995 752.8 99.6995 752.6L99.8195 743.92C99.8195 743.8 99.6195 743.48 99.2195 743.48C98.6595 743.48 97.3395 743.72 97.3395 744.04Z" fill="#333333"/>
<path id="+_17" d="M196.34 744.04V752.56C196.34 752.68 196.26 752.84 196.1 752.84L188.02 752.8C187.7 752.8 187.42 753.4 187.42 753.92C187.42 754.48 187.54 754.92 188.26 754.92L196.1 754.96C196.22 754.96 196.34 755.16 196.34 755.4L196.38 764.16C196.38 764.36 196.66 764.6 196.86 764.6C197.9 764.6 198.62 764.24 198.62 763.96L198.7 755.32C198.7 755.12 198.78 754.96 198.94 754.96L206.98 754.84C207.22 754.84 207.54 754.28 207.54 753.32C207.54 753.08 207.34 752.76 207.22 752.76L198.94 752.84C198.82 752.84 198.7 752.8 198.7 752.6L198.82 743.92C198.82 743.8 198.62 743.48 198.22 743.48C197.66 743.48 196.34 743.72 196.34 744.04Z" fill="#333333"/>
<path id="+_18" d="M338.34 744.04V752.56C338.34 752.68 338.26 752.84 338.1 752.84L330.02 752.8C329.7 752.8 329.42 753.4 329.42 753.92C329.42 754.48 329.54 754.92 330.26 754.92L338.1 754.96C338.22 754.96 338.34 755.16 338.34 755.4L338.38 764.16C338.38 764.36 338.66 764.6 338.86 764.6C339.9 764.6 340.62 764.24 340.62 763.96L340.7 755.32C340.7 755.12 340.78 754.96 340.94 754.96L348.98 754.84C349.22 754.84 349.54 754.28 349.54 753.32C349.54 753.08 349.34 752.76 349.22 752.76L340.94 752.84C340.82 752.84 340.7 752.8 340.7 752.6L340.82 743.92C340.82 743.8 340.62 743.48 340.22 743.48C339.66 743.48 338.34 743.72 338.34 744.04Z" fill="#333333"/>
<path id="+_19" d="M458.34 744.04V752.56C458.34 752.68 458.26 752.84 458.1 752.84L450.02 752.8C449.7 752.8 449.42 753.4 449.42 753.92C449.42 754.48 449.54 754.92 450.26 754.92L458.1 754.96C458.22 754.96 458.34 755.16 458.34 755.4L458.38 764.16C458.38 764.36 458.66 764.6 458.86 764.6C459.9 764.6 460.62 764.24 460.62 763.96L460.7 755.32C460.7 755.12 460.78 754.96 460.94 754.96L468.98 754.84C469.22 754.84 469.54 754.28 469.54 753.32C469.54 753.08 469.34 752.76 469.22 752.76L460.94 752.84C460.82 752.84 460.7 752.8 460.7 752.6L460.82 743.92C460.82 743.8 460.62 743.48 460.22 743.48C459.66 743.48 458.34 743.72 458.34 744.04Z" fill="#333333"/>
<path id="+_20" d="M578.34 744.04V752.56C578.34 752.68 578.26 752.84 578.1 752.84L570.02 752.8C569.7 752.8 569.42 753.4 569.42 753.92C569.42 754.48 569.54 754.92 570.26 754.92L578.1 754.96C578.22 754.96 578.34 755.16 578.34 755.4L578.38 764.16C578.38 764.36 578.66 764.6 578.86 764.6C579.9 764.6 580.62 764.24 580.62 763.96L580.7 755.32C580.7 755.12 580.78 754.96 580.94 754.96L588.98 754.84C589.22 754.84 589.54 754.28 589.54 753.32C589.54 753.08 589.34 752.76 589.22 752.76L580.94 752.84C580.82 752.84 580.7 752.8 580.7 752.6L580.82 743.92C580.82 743.8 580.62 743.48 580.22 743.48C579.66 743.48 578.34 743.72 578.34 744.04Z" fill="#333333"/>
<path id="+_21" d="M645.34 744.04V752.56C645.34 752.68 645.26 752.84 645.1 752.84L637.02 752.8C636.7 752.8 636.42 753.4 636.42 753.92C636.42 754.48 636.54 754.92 637.26 754.92L645.1 754.96C645.22 754.96 645.34 755.16 645.34 755.4L645.38 764.16C645.38 764.36 645.66 764.6 645.86 764.6C646.9 764.6 647.62 764.24 647.62 763.96L647.7 755.32C647.7 755.12 647.78 754.96 647.94 754.96L655.98 754.84C656.22 754.84 656.54 754.28 656.54 753.32C656.54 753.08 656.34 752.76 656.22 752.76L647.94 752.84C647.82 752.84 647.7 752.8 647.7 752.6L647.82 743.92C647.82 743.8 647.62 743.48 647.22 743.48C646.66 743.48 645.34 743.72 645.34 744.04Z" fill="#333333"/>
<path id="+_22" d="M708.34 744.04V752.56C708.34 752.68 708.26 752.84 708.1 752.84L700.02 752.8C699.7 752.8 699.42 753.4 699.42 753.92C699.42 754.48 699.54 754.92 700.26 754.92L708.1 754.96C708.22 754.96 708.34 755.16 708.34 755.4L708.38 764.16C708.38 764.36 708.66 764.6 708.86 764.6C709.9 764.6 710.62 764.24 710.62 763.96L710.7 755.32C710.7 755.12 710.78 754.96 710.94 754.96L718.98 754.84C719.22 754.84 719.54 754.28 719.54 753.32C719.54 753.08 719.34 752.76 719.22 752.76L710.94 752.84C710.82 752.84 710.7 752.8 710.7 752.6L710.82 743.92C710.82 743.8 710.62 743.48 710.22 743.48C709.66 743.48 708.34 743.72 708.34 744.04Z" fill="#333333"/>
<path id="&#226;&#128;&#147;_4" d="M749.204 661.4C749.004 661.4 748.484 662.16 748.484 663C748.484 663.12 748.684 663.56 748.924 663.56L765.884 663.6C766.164 663.6 766.564 662.48 766.524 661.96C766.524 661.72 766.324 661.44 766.164 661.44L749.204 661.4Z" fill="#EB5757"/>
<path id="+_23" d="M756.34 699.04V707.56C756.34 707.68 756.26 707.84 756.1 707.84L748.02 707.8C747.7 707.8 747.42 708.4 747.42 708.92C747.42 709.48 747.54 709.92 748.26 709.92L756.1 709.96C756.22 709.96 756.34 710.16 756.34 710.4L756.38 719.16C756.38 719.36 756.66 719.6 756.86 719.6C757.9 719.6 758.62 719.24 758.62 718.96L758.7 710.32C758.7 710.12 758.78 709.96 758.94 709.96L766.98 709.84C767.22 709.84 767.54 709.28 767.54 708.32C767.54 708.08 767.34 707.76 767.22 707.76L758.94 707.84C758.82 707.84 758.7 707.8 758.7 707.6L758.82 698.92C758.82 698.8 758.62 698.48 758.22 698.48C757.66 698.48 756.34 698.72 756.34 699.04Z" fill="#2F80ED"/>
<path id="+_24" d="M756.34 744.04V752.56C756.34 752.68 756.26 752.84 756.1 752.84L748.02 752.8C747.7 752.8 747.42 753.4 747.42 753.92C747.42 754.48 747.54 754.92 748.26 754.92L756.1 754.96C756.22 754.96 756.34 755.16 756.34 755.4L756.38 764.16C756.38 764.36 756.66 764.6 756.86 764.6C757.9 764.6 758.62 764.24 758.62 763.96L758.7 755.32C758.7 755.12 758.78 754.96 758.94 754.96L766.98 754.84C767.22 754.84 767.54 754.28 767.54 753.32C767.54 753.08 767.34 752.76 767.22 752.76L758.94 752.84C758.82 752.84 758.7 752.8 758.7 752.6L758.82 743.92C758.82 743.8 758.62 743.48 758.22 743.48C757.66 743.48 756.34 743.72 756.34 744.04Z" fill="#333333"/>
<path id="0_6" d="M804.313 738.76C802.793 738.76 801.713 739.16 800.633 739.84C798.113 741.44 795.793 745.4 795.793 751.84C795.793 756.96 797.993 764.36 803.993 764.48C805.193 764.52 806.513 764.12 807.673 763.36C809.913 761.92 812.233 757.68 812.233 751.24C812.233 746.96 810.633 738.76 804.313 738.76ZM803.633 739.96C804.433 739.96 805.073 740.28 805.713 740.72C806.793 741.48 808.713 744.92 808.713 751.48C808.713 756.6 808.073 759.72 807.153 761.48C807.033 761.68 805.913 763.4 804.553 763.4C800.473 763.4 799.153 755.8 799.153 751.36C799.153 745.44 800.233 742.92 801.193 741.48C802.033 740.32 802.713 739.96 803.633 739.96Z" fill="#333333"/>
<path id="&#226;&#128;&#147;_5" d="M849.204 661.4C849.004 661.4 848.484 662.16 848.484 663C848.484 663.12 848.684 663.56 848.924 663.56L865.884 663.6C866.164 663.6 866.564 662.48 866.524 661.96C866.524 661.72 866.324 661.44 866.164 661.44L849.204 661.4Z" fill="#EB5757"/>
<path id="+_25" d="M856.34 699.04V707.56C856.34 707.68 856.26 707.84 856.1 707.84L848.02 707.8C847.7 707.8 847.42 708.4 847.42 708.92C847.42 709.48 847.54 709.92 848.26 709.92L856.1 709.96C856.22 709.96 856.34 710.16 856.34 710.4L856.38 719.16C856.38 719.36 856.66 719.6 856.86 719.6C857.9 719.6 858.62 719.24 858.62 718.96L858.7 710.32C858.7 710.12 858.78 709.96 858.94 709.96L866.98 709.84C867.22 709.84 867.54 709.28 867.54 708.32C867.54 708.08 867.34 707.76 867.22 707.76L858.94 707.84C858.82 707.84 858.7 707.8 858.7 707.6L858.82 698.92C858.82 698.8 858.62 698.48 858.22 698.48C857.66 698.48 856.34 698.72 856.34 699.04Z" fill="#2F80ED"/>
<path id="&#226;&#128;&#147;_6" d="M849.204 754.4C849.004 754.4 848.484 755.16 848.484 756C848.484 756.12 848.684 756.56 848.924 756.56L865.884 756.6C866.164 756.6 866.564 755.48 866.524 754.96C866.524 754.72 866.324 754.44 866.164 754.44L849.204 754.4Z" fill="#333333"/>
<path id="&#226;&#128;&#147;_7" d="M900.204 754.4C900.004 754.4 899.484 755.16 899.484 756C899.484 756.12 899.684 756.56 899.924 756.56L916.884 756.6C917.164 756.6 917.564 755.48 917.524 754.96C917.524 754.72 917.324 754.44 917.164 754.44L900.204 754.4Z" fill="#333333"/>
<path id="&#226;&#128;&#147;_8" d="M960.204 754.4C960.004 754.4 959.484 755.16 959.484 756C959.484 756.12 959.684 756.56 959.924 756.56L976.884 756.6C977.164 756.6 977.564 755.48 977.524 754.96C977.524 754.72 977.324 754.44 977.164 754.44L960.204 754.4Z" fill="#333333"/>
</g>
</g>
<defs>
<clipPath id="clip0">
<rect width="1024" height="768" fill="white"/>
</clipPath>
</defs>
</svg>
