<svg width="1280" height="960" viewBox="0 0 1280 960" fill="none" xmlns="http://www.w3.org/2000/svg">
<g id="Frame">
<rect width="1280" height="960" fill="white"/>
<rect id="habzdryg data (do not delete): {&#34;events&#34;:[{&#34;type&#34;:&#34;show&#34;,&#34;id&#34;:&#34;2:5&#34;,&#34;name&#34;:&#34;drugi pod-slajd&#34;,&#34;index&#34;:3},{&#34;type&#34;:&#34;show&#34;,&#34;id&#34;:&#34;2:3&#34;,&#34;name&#34;:&#34;pierwszy pod-slajd&#34;,&#34;index&#34;:2},{&#34;type&#34;:&#34;child&#34;,&#34;id&#34;:&#34;2:7&#34;,&#34;name&#34;:&#34;zagnie&#197;&#188;d&#197;&#188;one&#34;}],&#34;name&#34;:&#34;Frame&#34;,&#34;id&#34;:&#34;2:0&#34;,&#34;root&#34;:false,&#34;pagecount&#34;:2}" x="1" y="1" width="1" height="1" fill="#C4C4C4"/>
<path id="To jest pierwszy slajd" d="M394.687 187.311H383.261V219H378.598V187.311H367.196V183.453H394.687V187.311ZM395.614 205.548C395.614 202.96 396.119 200.632 397.128 198.565C398.153 196.498 399.569 194.903 401.376 193.78C403.199 192.657 405.274 192.096 407.602 192.096C411.199 192.096 414.104 193.341 416.317 195.831C418.547 198.321 419.662 201.633 419.662 205.768V206.085C419.662 208.657 419.166 210.968 418.173 213.019C417.196 215.053 415.788 216.64 413.949 217.779C412.126 218.919 410.027 219.488 407.65 219.488C404.07 219.488 401.164 218.243 398.935 215.753C396.721 213.263 395.614 209.967 395.614 205.865V205.548ZM400.155 206.085C400.155 209.015 400.831 211.367 402.182 213.141C403.549 214.915 405.372 215.802 407.65 215.802C409.945 215.802 411.768 214.907 413.119 213.116C414.47 211.31 415.146 208.787 415.146 205.548C415.146 202.651 414.454 200.307 413.07 198.517C411.703 196.71 409.88 195.807 407.602 195.807C405.372 195.807 403.573 196.694 402.206 198.468C400.839 200.242 400.155 202.781 400.155 206.085ZM442.392 192.584V222.052C442.392 227.13 440.089 229.669 435.482 229.669C434.49 229.669 433.57 229.522 432.724 229.229V225.616C433.244 225.746 433.928 225.812 434.774 225.812C435.784 225.812 436.549 225.535 437.069 224.981C437.606 224.444 437.875 223.5 437.875 222.149V192.584H442.392ZM437.411 185.577C437.411 184.861 437.631 184.251 438.07 183.746C438.526 183.225 439.185 182.965 440.048 182.965C440.927 182.965 441.594 183.217 442.05 183.722C442.506 184.226 442.733 184.845 442.733 185.577C442.733 186.31 442.506 186.92 442.05 187.408C441.594 187.896 440.927 188.141 440.048 188.141C439.169 188.141 438.51 187.896 438.07 187.408C437.631 186.92 437.411 186.31 437.411 185.577ZM460.653 219.488C457.073 219.488 454.159 218.316 451.913 215.973C449.667 213.613 448.544 210.463 448.544 206.524V205.694C448.544 203.074 449.04 200.738 450.033 198.688C451.042 196.62 452.442 195.009 454.232 193.854C456.039 192.682 457.992 192.096 460.092 192.096C463.526 192.096 466.195 193.227 468.1 195.489C470.004 197.752 470.956 200.991 470.956 205.206V207.086H453.061C453.126 209.69 453.882 211.798 455.331 213.409C456.796 215.004 458.651 215.802 460.897 215.802C462.493 215.802 463.843 215.476 464.95 214.825C466.057 214.174 467.025 213.312 467.855 212.237L470.614 214.386C468.401 217.787 465.08 219.488 460.653 219.488ZM460.092 195.807C458.269 195.807 456.739 196.474 455.502 197.809C454.265 199.127 453.5 200.982 453.207 203.375H466.439V203.033C466.309 200.738 465.691 198.964 464.584 197.711C463.477 196.441 461.98 195.807 460.092 195.807ZM491.586 211.993C491.586 210.772 491.122 209.828 490.194 209.161C489.283 208.478 487.68 207.892 485.385 207.403C483.106 206.915 481.291 206.329 479.94 205.646C478.606 204.962 477.613 204.148 476.962 203.204C476.327 202.26 476.01 201.137 476.01 199.835C476.01 197.67 476.921 195.839 478.744 194.342C480.583 192.844 482.927 192.096 485.775 192.096C488.77 192.096 491.195 192.869 493.051 194.415C494.923 195.961 495.858 197.939 495.858 200.348H491.317C491.317 199.111 490.788 198.045 489.73 197.149C488.689 196.254 487.37 195.807 485.775 195.807C484.132 195.807 482.846 196.165 481.918 196.881C480.99 197.597 480.526 198.533 480.526 199.688C480.526 200.779 480.958 201.601 481.82 202.154C482.683 202.708 484.237 203.237 486.483 203.741C488.746 204.246 490.577 204.848 491.977 205.548C493.376 206.248 494.41 207.094 495.077 208.087C495.761 209.063 496.103 210.26 496.103 211.676C496.103 214.036 495.159 215.932 493.271 217.364C491.382 218.78 488.933 219.488 485.922 219.488C483.806 219.488 481.934 219.114 480.307 218.365C478.679 217.617 477.401 216.575 476.474 215.24C475.562 213.889 475.106 212.433 475.106 210.87H479.623C479.704 212.384 480.307 213.588 481.43 214.483C482.569 215.362 484.066 215.802 485.922 215.802C487.631 215.802 488.998 215.46 490.023 214.776C491.065 214.076 491.586 213.149 491.586 211.993ZM508.114 186.188V192.584H513.046V196.075H508.114V212.457C508.114 213.515 508.334 214.312 508.773 214.85C509.213 215.37 509.962 215.631 511.02 215.631C511.54 215.631 512.257 215.533 513.168 215.338V219C511.98 219.326 510.824 219.488 509.701 219.488C507.683 219.488 506.161 218.878 505.136 217.657C504.11 216.437 503.598 214.703 503.598 212.457V196.075H498.788V192.584H503.598V186.188H508.114ZM553.061 206.085C553.061 210.105 552.141 213.344 550.302 215.802C548.463 218.259 545.972 219.488 542.831 219.488C539.625 219.488 537.102 218.471 535.263 216.437V229.156H530.746V192.584H534.872L535.092 195.514C536.931 193.235 539.486 192.096 542.758 192.096C545.932 192.096 548.438 193.292 550.277 195.685C552.133 198.077 553.061 201.406 553.061 205.67V206.085ZM548.544 205.572C548.544 202.594 547.909 200.242 546.64 198.517C545.37 196.791 543.629 195.929 541.415 195.929C538.681 195.929 536.63 197.141 535.263 199.566V212.188C536.614 214.597 538.681 215.802 541.464 215.802C543.629 215.802 545.346 214.947 546.615 213.238C547.901 211.513 548.544 208.958 548.544 205.572ZM563.729 219H559.213V192.584H563.729V219ZM558.847 185.577C558.847 184.845 559.066 184.226 559.506 183.722C559.962 183.217 560.629 182.965 561.508 182.965C562.387 182.965 563.054 183.217 563.51 183.722C563.965 184.226 564.193 184.845 564.193 185.577C564.193 186.31 563.965 186.92 563.51 187.408C563.054 187.896 562.387 188.141 561.508 188.141C560.629 188.141 559.962 187.896 559.506 187.408C559.066 186.92 558.847 186.31 558.847 185.577ZM581.942 219.488C578.362 219.488 575.448 218.316 573.202 215.973C570.956 213.613 569.833 210.463 569.833 206.524V205.694C569.833 203.074 570.329 200.738 571.322 198.688C572.331 196.62 573.731 195.009 575.521 193.854C577.328 192.682 579.281 192.096 581.381 192.096C584.815 192.096 587.484 193.227 589.389 195.489C591.293 197.752 592.245 200.991 592.245 205.206V207.086H574.35C574.415 209.69 575.172 211.798 576.62 213.409C578.085 215.004 579.94 215.802 582.187 215.802C583.782 215.802 585.132 215.476 586.239 214.825C587.346 214.174 588.314 213.312 589.145 212.237L591.903 214.386C589.69 217.787 586.369 219.488 581.942 219.488ZM581.381 195.807C579.558 195.807 578.028 196.474 576.791 197.809C575.554 199.127 574.789 200.982 574.496 203.375H587.729V203.033C587.598 200.738 586.98 198.964 585.873 197.711C584.766 196.441 583.269 195.807 581.381 195.807ZM610.263 196.637C609.579 196.523 608.839 196.466 608.041 196.466C605.079 196.466 603.069 197.727 602.011 200.25V219H597.494V192.584H601.889L601.962 195.636C603.443 193.276 605.543 192.096 608.261 192.096C609.14 192.096 609.807 192.21 610.263 192.438V196.637ZM638.266 212.774L643.344 192.584H647.86L640.17 219H636.508L630.087 198.98L623.837 219H620.175L612.509 192.584H617.001L622.201 212.359L628.354 192.584H631.991L638.266 212.774ZM667.855 211.993C667.855 210.772 667.392 209.828 666.464 209.161C665.552 208.478 663.949 207.892 661.654 207.403C659.376 206.915 657.561 206.329 656.21 205.646C654.875 204.962 653.882 204.148 653.231 203.204C652.597 202.26 652.279 201.137 652.279 199.835C652.279 197.67 653.191 195.839 655.014 194.342C656.853 192.844 659.197 192.096 662.045 192.096C665.04 192.096 667.465 192.869 669.32 194.415C671.192 195.961 672.128 197.939 672.128 200.348H667.587C667.587 199.111 667.058 198.045 666 197.149C664.958 196.254 663.64 195.807 662.045 195.807C660.401 195.807 659.115 196.165 658.188 196.881C657.26 197.597 656.796 198.533 656.796 199.688C656.796 200.779 657.227 201.601 658.09 202.154C658.952 202.708 660.507 203.237 662.753 203.741C665.015 204.246 666.846 204.848 668.246 205.548C669.646 206.248 670.679 207.094 671.347 208.087C672.03 209.063 672.372 210.26 672.372 211.676C672.372 214.036 671.428 215.932 669.54 217.364C667.652 218.78 665.202 219.488 662.191 219.488C660.076 219.488 658.204 219.114 656.576 218.365C654.949 217.617 653.671 216.575 652.743 215.24C651.832 213.889 651.376 212.433 651.376 210.87H655.893C655.974 212.384 656.576 213.588 657.699 214.483C658.839 215.362 660.336 215.802 662.191 215.802C663.9 215.802 665.268 215.46 666.293 214.776C667.335 214.076 667.855 213.149 667.855 211.993ZM682.504 215.313H697.958V219H676.986V215.68L691.562 196.319H677.206V192.584H697.226V195.782L682.504 215.313ZM711.703 212.384L717.855 192.584H722.689L712.069 223.077C710.425 227.472 707.813 229.669 704.232 229.669L703.378 229.596L701.693 229.278V225.616L702.914 225.714C704.444 225.714 705.632 225.405 706.479 224.786C707.341 224.168 708.049 223.036 708.603 221.393L709.604 218.707L700.18 192.584H705.111L711.703 212.384ZM754.525 211.993C754.525 210.772 754.062 209.828 753.134 209.161C752.222 208.478 750.619 207.892 748.324 207.403C746.046 206.915 744.231 206.329 742.88 205.646C741.545 204.962 740.552 204.148 739.901 203.204C739.267 202.26 738.949 201.137 738.949 199.835C738.949 197.67 739.861 195.839 741.684 194.342C743.523 192.844 745.867 192.096 748.715 192.096C751.71 192.096 754.135 192.869 755.99 194.415C757.862 195.961 758.798 197.939 758.798 200.348H754.257C754.257 199.111 753.728 198.045 752.67 197.149C751.628 196.254 750.31 195.807 748.715 195.807C747.071 195.807 745.785 196.165 744.857 196.881C743.93 197.597 743.466 198.533 743.466 199.688C743.466 200.779 743.897 201.601 744.76 202.154C745.622 202.708 747.177 203.237 749.423 203.741C751.685 204.246 753.516 204.848 754.916 205.548C756.316 206.248 757.349 207.094 758.017 208.087C758.7 209.063 759.042 210.26 759.042 211.676C759.042 214.036 758.098 215.932 756.21 217.364C754.322 218.78 751.872 219.488 748.861 219.488C746.745 219.488 744.874 219.114 743.246 218.365C741.618 217.617 740.341 216.575 739.413 215.24C738.502 213.889 738.046 212.433 738.046 210.87H742.562C742.644 212.384 743.246 213.588 744.369 214.483C745.508 215.362 747.006 215.802 748.861 215.802C750.57 215.802 751.938 215.46 752.963 214.776C754.005 214.076 754.525 213.149 754.525 211.993ZM769.833 219H765.316V181.5H769.833V219ZM793.393 219C793.132 218.479 792.921 217.551 792.758 216.217C790.658 218.398 788.152 219.488 785.238 219.488C782.634 219.488 780.494 218.756 778.817 217.291C777.157 215.81 776.327 213.938 776.327 211.676C776.327 208.925 777.369 206.793 779.452 205.279C781.552 203.749 784.498 202.984 788.29 202.984H792.685V200.909C792.685 199.33 792.213 198.077 791.269 197.149C790.325 196.205 788.933 195.733 787.094 195.733C785.482 195.733 784.132 196.14 783.041 196.954C781.951 197.768 781.405 198.753 781.405 199.908H776.864C776.864 198.59 777.328 197.32 778.256 196.1C779.2 194.863 780.469 193.886 782.064 193.17C783.676 192.454 785.442 192.096 787.362 192.096C790.406 192.096 792.79 192.861 794.516 194.391C796.241 195.904 797.136 197.996 797.201 200.665V212.823C797.201 215.248 797.51 217.177 798.129 218.609V219H793.393ZM785.897 215.558C787.313 215.558 788.656 215.191 789.926 214.459C791.195 213.727 792.115 212.774 792.685 211.603V206.183H789.145C783.611 206.183 780.844 207.802 780.844 211.041C780.844 212.457 781.316 213.564 782.26 214.361C783.204 215.159 784.416 215.558 785.897 215.558ZM808.944 192.584V222.052C808.944 227.13 806.641 229.669 802.035 229.669C801.042 229.669 800.123 229.522 799.276 229.229V225.616C799.797 225.746 800.481 225.812 801.327 225.812C802.336 225.812 803.101 225.535 803.622 224.981C804.159 224.444 804.428 223.5 804.428 222.149V192.584H808.944ZM803.964 185.577C803.964 184.861 804.184 184.251 804.623 183.746C805.079 183.225 805.738 182.965 806.601 182.965C807.479 182.965 808.147 183.217 808.603 183.722C809.058 184.226 809.286 184.845 809.286 185.577C809.286 186.31 809.058 186.92 808.603 187.408C808.147 187.896 807.479 188.141 806.601 188.141C805.722 188.141 805.062 187.896 804.623 187.408C804.184 186.92 803.964 186.31 803.964 185.577ZM815.146 205.572C815.146 201.52 816.106 198.264 818.026 195.807C819.947 193.333 822.462 192.096 825.57 192.096C828.663 192.096 831.112 193.154 832.919 195.27V181.5H837.436V219H833.285L833.065 216.168C831.259 218.382 828.744 219.488 825.521 219.488C822.462 219.488 819.963 218.235 818.026 215.729C816.106 213.222 815.146 209.951 815.146 205.914V205.572ZM819.662 206.085C819.662 209.08 820.281 211.424 821.518 213.116C822.755 214.809 824.464 215.655 826.645 215.655C829.509 215.655 831.601 214.369 832.919 211.798V199.664C831.568 197.174 829.493 195.929 826.693 195.929C824.48 195.929 822.755 196.783 821.518 198.492C820.281 200.201 819.662 202.732 819.662 206.085Z" fill="black"/>
<path id="pierwszy pod-slajd" d="M391.732 327.085C391.732 331.105 390.813 334.344 388.974 336.802C387.134 339.259 384.644 340.488 381.503 340.488C378.297 340.488 375.774 339.471 373.935 337.437V350.156H369.418V313.584H373.544L373.764 316.514C375.603 314.235 378.158 313.096 381.43 313.096C384.604 313.096 387.11 314.292 388.949 316.685C390.805 319.077 391.732 322.406 391.732 326.67V327.085ZM387.216 326.572C387.216 323.594 386.581 321.242 385.312 319.517C384.042 317.791 382.3 316.929 380.087 316.929C377.353 316.929 375.302 318.141 373.935 320.566V333.188C375.285 335.597 377.353 336.802 380.136 336.802C382.3 336.802 384.018 335.947 385.287 334.238C386.573 332.513 387.216 329.958 387.216 326.572ZM402.401 340H397.885V313.584H402.401V340ZM397.519 306.577C397.519 305.845 397.738 305.226 398.178 304.722C398.633 304.217 399.301 303.965 400.18 303.965C401.059 303.965 401.726 304.217 402.182 304.722C402.637 305.226 402.865 305.845 402.865 306.577C402.865 307.31 402.637 307.92 402.182 308.408C401.726 308.896 401.059 309.141 400.18 309.141C399.301 309.141 398.633 308.896 398.178 308.408C397.738 307.92 397.519 307.31 397.519 306.577ZM420.614 340.488C417.034 340.488 414.12 339.316 411.874 336.973C409.628 334.613 408.505 331.463 408.505 327.524V326.694C408.505 324.074 409.001 321.738 409.994 319.688C411.003 317.62 412.403 316.009 414.193 314.854C416 313.682 417.953 313.096 420.053 313.096C423.487 313.096 426.156 314.227 428.061 316.489C429.965 318.752 430.917 321.991 430.917 326.206V328.086H413.021C413.087 330.69 413.843 332.798 415.292 334.409C416.757 336.004 418.612 336.802 420.858 336.802C422.453 336.802 423.804 336.476 424.911 335.825C426.018 335.174 426.986 334.312 427.816 333.237L430.575 335.386C428.362 338.787 425.041 340.488 420.614 340.488ZM420.053 316.807C418.23 316.807 416.7 317.474 415.463 318.809C414.226 320.127 413.461 321.982 413.168 324.375H426.4V324.033C426.27 321.738 425.652 319.964 424.545 318.711C423.438 317.441 421.941 316.807 420.053 316.807ZM448.935 317.637C448.251 317.523 447.51 317.466 446.713 317.466C443.751 317.466 441.741 318.727 440.683 321.25V340H436.166V313.584H440.561L440.634 316.636C442.115 314.276 444.215 313.096 446.933 313.096C447.812 313.096 448.479 313.21 448.935 313.438V317.637ZM476.938 333.774L482.016 313.584H486.532L478.842 340H475.18L468.759 319.98L462.509 340H458.847L451.181 313.584H455.673L460.873 333.359L467.025 313.584H470.663L476.938 333.774ZM506.527 332.993C506.527 331.772 506.063 330.828 505.136 330.161C504.224 329.478 502.621 328.892 500.326 328.403C498.048 327.915 496.233 327.329 494.882 326.646C493.547 325.962 492.554 325.148 491.903 324.204C491.269 323.26 490.951 322.137 490.951 320.835C490.951 318.67 491.863 316.839 493.686 315.342C495.525 313.844 497.868 313.096 500.717 313.096C503.712 313.096 506.137 313.869 507.992 315.415C509.864 316.961 510.8 318.939 510.8 321.348H506.259C506.259 320.111 505.73 319.045 504.672 318.149C503.63 317.254 502.312 316.807 500.717 316.807C499.073 316.807 497.787 317.165 496.859 317.881C495.932 318.597 495.468 319.533 495.468 320.688C495.468 321.779 495.899 322.601 496.762 323.154C497.624 323.708 499.179 324.237 501.425 324.741C503.687 325.246 505.518 325.848 506.918 326.548C508.318 327.248 509.351 328.094 510.019 329.087C510.702 330.063 511.044 331.26 511.044 332.676C511.044 335.036 510.1 336.932 508.212 338.364C506.324 339.78 503.874 340.488 500.863 340.488C498.747 340.488 496.876 340.114 495.248 339.365C493.62 338.617 492.343 337.575 491.415 336.24C490.504 334.889 490.048 333.433 490.048 331.87H494.564C494.646 333.384 495.248 334.588 496.371 335.483C497.51 336.362 499.008 336.802 500.863 336.802C502.572 336.802 503.939 336.46 504.965 335.776C506.007 335.076 506.527 334.149 506.527 332.993ZM521.176 336.313H536.63V340H515.658V336.68L530.233 317.319H515.878V313.584H535.897V316.782L521.176 336.313ZM550.375 333.384L556.527 313.584H561.361L550.741 344.077C549.097 348.472 546.485 350.669 542.904 350.669L542.05 350.596L540.365 350.278V346.616L541.586 346.714C543.116 346.714 544.304 346.405 545.15 345.786C546.013 345.168 546.721 344.036 547.274 342.393L548.275 339.707L538.852 313.584H543.783L550.375 333.384ZM600.131 327.085C600.131 331.105 599.211 334.344 597.372 336.802C595.533 339.259 593.043 340.488 589.901 340.488C586.695 340.488 584.172 339.471 582.333 337.437V350.156H577.816V313.584H581.942L582.162 316.514C584.001 314.235 586.557 313.096 589.828 313.096C593.002 313.096 595.508 314.292 597.348 316.685C599.203 319.077 600.131 322.406 600.131 326.67V327.085ZM595.614 326.572C595.614 323.594 594.979 321.242 593.71 319.517C592.44 317.791 590.699 316.929 588.485 316.929C585.751 316.929 583.7 318.141 582.333 320.566V333.188C583.684 335.597 585.751 336.802 588.534 336.802C590.699 336.802 592.416 335.947 593.686 334.238C594.971 332.513 595.614 329.958 595.614 326.572ZM604.696 326.548C604.696 323.96 605.201 321.632 606.21 319.565C607.235 317.498 608.651 315.903 610.458 314.78C612.281 313.657 614.356 313.096 616.684 313.096C620.281 313.096 623.186 314.341 625.399 316.831C627.629 319.321 628.744 322.633 628.744 326.768V327.085C628.744 329.657 628.248 331.968 627.255 334.019C626.278 336.053 624.87 337.64 623.031 338.779C621.208 339.919 619.109 340.488 616.732 340.488C613.152 340.488 610.246 339.243 608.017 336.753C605.803 334.263 604.696 330.967 604.696 326.865V326.548ZM609.237 327.085C609.237 330.015 609.913 332.367 611.264 334.141C612.631 335.915 614.454 336.802 616.732 336.802C619.027 336.802 620.85 335.907 622.201 334.116C623.552 332.31 624.228 329.787 624.228 326.548C624.228 323.651 623.536 321.307 622.152 319.517C620.785 317.71 618.962 316.807 616.684 316.807C614.454 316.807 612.655 317.694 611.288 319.468C609.921 321.242 609.237 323.781 609.237 327.085ZM633.31 326.572C633.31 322.52 634.27 319.264 636.19 316.807C638.111 314.333 640.626 313.096 643.734 313.096C646.827 313.096 649.276 314.154 651.083 316.27V302.5H655.6V340H651.449L651.229 337.168C649.423 339.382 646.908 340.488 643.686 340.488C640.626 340.488 638.127 339.235 636.19 336.729C634.27 334.222 633.31 330.951 633.31 326.914V326.572ZM637.826 327.085C637.826 330.08 638.445 332.424 639.682 334.116C640.919 335.809 642.628 336.655 644.809 336.655C647.673 336.655 649.765 335.369 651.083 332.798V320.664C649.732 318.174 647.657 316.929 644.857 316.929C642.644 316.929 640.919 317.783 639.682 319.492C638.445 321.201 637.826 323.732 637.826 327.085ZM672.03 326.743H660.116V323.057H672.03V326.743ZM691.83 332.993C691.83 331.772 691.366 330.828 690.438 330.161C689.527 329.478 687.924 328.892 685.629 328.403C683.35 327.915 681.535 327.329 680.185 326.646C678.85 325.962 677.857 325.148 677.206 324.204C676.571 323.26 676.254 322.137 676.254 320.835C676.254 318.67 677.165 316.839 678.988 315.342C680.827 313.844 683.171 313.096 686.02 313.096C689.014 313.096 691.439 313.869 693.295 315.415C695.167 316.961 696.103 318.939 696.103 321.348H691.562C691.562 320.111 691.033 319.045 689.975 318.149C688.933 317.254 687.615 316.807 686.02 316.807C684.376 316.807 683.09 317.165 682.162 317.881C681.234 318.597 680.771 319.533 680.771 320.688C680.771 321.779 681.202 322.601 682.064 323.154C682.927 323.708 684.481 324.237 686.728 324.741C688.99 325.246 690.821 325.848 692.221 326.548C693.62 327.248 694.654 328.094 695.321 329.087C696.005 330.063 696.347 331.26 696.347 332.676C696.347 335.036 695.403 336.932 693.515 338.364C691.627 339.78 689.177 340.488 686.166 340.488C684.05 340.488 682.178 340.114 680.551 339.365C678.923 338.617 677.646 337.575 676.718 336.24C675.806 334.889 675.351 333.433 675.351 331.87H679.867C679.949 333.384 680.551 334.588 681.674 335.483C682.813 336.362 684.311 336.802 686.166 336.802C687.875 336.802 689.242 336.46 690.268 335.776C691.309 335.076 691.83 334.149 691.83 332.993ZM707.138 340H702.621V302.5H707.138V340ZM730.697 340C730.437 339.479 730.225 338.551 730.062 337.217C727.963 339.398 725.456 340.488 722.543 340.488C719.939 340.488 717.799 339.756 716.122 338.291C714.462 336.81 713.632 334.938 713.632 332.676C713.632 329.925 714.674 327.793 716.757 326.279C718.856 324.749 721.802 323.984 725.595 323.984H729.989V321.909C729.989 320.33 729.517 319.077 728.573 318.149C727.629 317.205 726.238 316.733 724.398 316.733C722.787 316.733 721.436 317.14 720.346 317.954C719.255 318.768 718.71 319.753 718.71 320.908H714.169C714.169 319.59 714.633 318.32 715.561 317.1C716.505 315.863 717.774 314.886 719.369 314.17C720.98 313.454 722.746 313.096 724.667 313.096C727.711 313.096 730.095 313.861 731.82 315.391C733.546 316.904 734.441 318.996 734.506 321.665V333.823C734.506 336.248 734.815 338.177 735.434 339.609V340H730.697ZM723.202 336.558C724.618 336.558 725.961 336.191 727.23 335.459C728.5 334.727 729.42 333.774 729.989 332.603V327.183H726.449C720.915 327.183 718.148 328.802 718.148 332.041C718.148 333.457 718.62 334.564 719.564 335.361C720.508 336.159 721.721 336.558 723.202 336.558ZM746.249 313.584V343.052C746.249 348.13 743.946 350.669 739.34 350.669C738.347 350.669 737.427 350.522 736.581 350.229V346.616C737.102 346.746 737.785 346.812 738.632 346.812C739.641 346.812 740.406 346.535 740.927 345.981C741.464 345.444 741.732 344.5 741.732 343.149V313.584H746.249ZM741.269 306.577C741.269 305.861 741.488 305.251 741.928 304.746C742.383 304.225 743.043 303.965 743.905 303.965C744.784 303.965 745.451 304.217 745.907 304.722C746.363 305.226 746.591 305.845 746.591 306.577C746.591 307.31 746.363 307.92 745.907 308.408C745.451 308.896 744.784 309.141 743.905 309.141C743.026 309.141 742.367 308.896 741.928 308.408C741.488 307.92 741.269 307.31 741.269 306.577ZM752.45 326.572C752.45 322.52 753.41 319.264 755.331 316.807C757.252 314.333 759.766 313.096 762.875 313.096C765.967 313.096 768.417 314.154 770.224 316.27V302.5H774.74V340H770.59L770.37 337.168C768.563 339.382 766.049 340.488 762.826 340.488C759.766 340.488 757.268 339.235 755.331 336.729C753.41 334.222 752.45 330.951 752.45 326.914V326.572ZM756.967 327.085C756.967 330.08 757.585 332.424 758.822 334.116C760.059 335.809 761.768 336.655 763.949 336.655C766.814 336.655 768.905 335.369 770.224 332.798V320.664C768.873 318.174 766.798 316.929 763.998 316.929C761.785 316.929 760.059 317.783 758.822 319.492C757.585 321.201 756.967 323.732 756.967 327.085Z" fill="black"/>
<path id="drugi pod-slajd" d="M368.319 454.572C368.319 450.52 369.28 447.264 371.2 444.807C373.121 442.333 375.635 441.096 378.744 441.096C381.837 441.096 384.286 442.154 386.093 444.27V430.5H390.609V468H386.459L386.239 465.168C384.433 467.382 381.918 468.488 378.695 468.488C375.635 468.488 373.137 467.235 371.2 464.729C369.28 462.222 368.319 458.951 368.319 454.914V454.572ZM372.836 455.085C372.836 458.08 373.454 460.424 374.691 462.116C375.928 463.809 377.637 464.655 379.818 464.655C382.683 464.655 384.774 463.369 386.093 460.798V448.664C384.742 446.174 382.667 444.929 379.867 444.929C377.654 444.929 375.928 445.783 374.691 447.492C373.454 449.201 372.836 451.732 372.836 455.085ZM410.409 445.637C409.726 445.523 408.985 445.466 408.188 445.466C405.225 445.466 403.215 446.727 402.157 449.25V468H397.641V441.584H402.035L402.108 444.636C403.59 442.276 405.689 441.096 408.407 441.096C409.286 441.096 409.953 441.21 410.409 441.438V445.637ZM430.893 465.388C429.135 467.455 426.555 468.488 423.153 468.488C420.338 468.488 418.189 467.674 416.708 466.047C415.243 464.403 414.503 461.978 414.486 458.771V441.584H419.003V458.649C419.003 462.653 420.631 464.655 423.886 464.655C427.336 464.655 429.631 463.369 430.771 460.798V441.584H435.287V468H430.99L430.893 465.388ZM441.098 454.572C441.098 450.454 442.05 447.183 443.954 444.758C445.858 442.316 448.381 441.096 451.522 441.096C454.745 441.096 457.26 442.235 459.066 444.514L459.286 441.584H463.412V467.365C463.412 470.783 462.395 473.477 460.36 475.446C458.342 477.416 455.624 478.4 452.206 478.4C450.302 478.4 448.438 477.993 446.615 477.18C444.792 476.366 443.401 475.251 442.44 473.835L444.784 471.125C446.721 473.518 449.089 474.714 451.889 474.714C454.086 474.714 455.795 474.095 457.016 472.858C458.253 471.621 458.871 469.88 458.871 467.634V465.363C457.064 467.447 454.599 468.488 451.474 468.488C448.381 468.488 445.875 467.243 443.954 464.753C442.05 462.263 441.098 458.869 441.098 454.572ZM445.639 455.085C445.639 458.063 446.249 460.407 447.47 462.116C448.69 463.809 450.399 464.655 452.597 464.655C455.445 464.655 457.536 463.361 458.871 460.773V448.713C457.488 446.19 455.412 444.929 452.646 444.929C450.448 444.929 448.731 445.783 447.494 447.492C446.257 449.201 445.639 451.732 445.639 455.085ZM475.155 468H470.639V441.584H475.155V468ZM470.272 434.577C470.272 433.845 470.492 433.226 470.932 432.722C471.387 432.217 472.055 431.965 472.934 431.965C473.812 431.965 474.48 432.217 474.936 432.722C475.391 433.226 475.619 433.845 475.619 434.577C475.619 435.31 475.391 435.92 474.936 436.408C474.48 436.896 473.812 437.141 472.934 437.141C472.055 437.141 471.387 436.896 470.932 436.408C470.492 435.92 470.272 435.31 470.272 434.577ZM517.123 455.085C517.123 459.105 516.203 462.344 514.364 464.802C512.525 467.259 510.035 468.488 506.894 468.488C503.687 468.488 501.164 467.471 499.325 465.437V478.156H494.809V441.584H498.935L499.154 444.514C500.993 442.235 503.549 441.096 506.82 441.096C509.994 441.096 512.501 442.292 514.34 444.685C516.195 447.077 517.123 450.406 517.123 454.67V455.085ZM512.606 454.572C512.606 451.594 511.972 449.242 510.702 447.517C509.433 445.791 507.691 444.929 505.478 444.929C502.743 444.929 500.692 446.141 499.325 448.566V461.188C500.676 463.597 502.743 464.802 505.526 464.802C507.691 464.802 509.408 463.947 510.678 462.238C511.964 460.513 512.606 457.958 512.606 454.572ZM521.688 454.548C521.688 451.96 522.193 449.632 523.202 447.565C524.228 445.498 525.644 443.903 527.45 442.78C529.273 441.657 531.348 441.096 533.676 441.096C537.273 441.096 540.178 442.341 542.392 444.831C544.621 447.321 545.736 450.633 545.736 454.768V455.085C545.736 457.657 545.24 459.968 544.247 462.019C543.271 464.053 541.863 465.64 540.023 466.779C538.201 467.919 536.101 468.488 533.725 468.488C530.144 468.488 527.239 467.243 525.009 464.753C522.795 462.263 521.688 458.967 521.688 454.865V454.548ZM526.229 455.085C526.229 458.015 526.905 460.367 528.256 462.141C529.623 463.915 531.446 464.802 533.725 464.802C536.02 464.802 537.842 463.907 539.193 462.116C540.544 460.31 541.22 457.787 541.22 454.548C541.22 451.651 540.528 449.307 539.145 447.517C537.777 445.71 535.954 444.807 533.676 444.807C531.446 444.807 529.647 445.694 528.28 447.468C526.913 449.242 526.229 451.781 526.229 455.085ZM550.302 454.572C550.302 450.52 551.262 447.264 553.183 444.807C555.103 442.333 557.618 441.096 560.727 441.096C563.819 441.096 566.269 442.154 568.075 444.27V430.5H572.592V468H568.441L568.222 465.168C566.415 467.382 563.9 468.488 560.678 468.488C557.618 468.488 555.119 467.235 553.183 464.729C551.262 462.222 550.302 458.951 550.302 454.914V454.572ZM554.818 455.085C554.818 458.08 555.437 460.424 556.674 462.116C557.911 463.809 559.62 464.655 561.801 464.655C564.665 464.655 566.757 463.369 568.075 460.798V448.664C566.724 446.174 564.649 444.929 561.85 444.929C559.636 444.929 557.911 445.783 556.674 447.492C555.437 449.201 554.818 451.732 554.818 455.085ZM589.022 454.743H577.108V451.057H589.022V454.743ZM608.822 460.993C608.822 459.772 608.358 458.828 607.431 458.161C606.519 457.478 604.916 456.892 602.621 456.403C600.342 455.915 598.528 455.329 597.177 454.646C595.842 453.962 594.849 453.148 594.198 452.204C593.563 451.26 593.246 450.137 593.246 448.835C593.246 446.67 594.158 444.839 595.98 443.342C597.82 441.844 600.163 441.096 603.012 441.096C606.007 441.096 608.432 441.869 610.287 443.415C612.159 444.961 613.095 446.939 613.095 449.348H608.554C608.554 448.111 608.025 447.045 606.967 446.149C605.925 445.254 604.607 444.807 603.012 444.807C601.368 444.807 600.082 445.165 599.154 445.881C598.227 446.597 597.763 447.533 597.763 448.688C597.763 449.779 598.194 450.601 599.057 451.154C599.919 451.708 601.474 452.237 603.72 452.741C605.982 453.246 607.813 453.848 609.213 454.548C610.613 455.248 611.646 456.094 612.313 457.087C612.997 458.063 613.339 459.26 613.339 460.676C613.339 463.036 612.395 464.932 610.507 466.364C608.619 467.78 606.169 468.488 603.158 468.488C601.042 468.488 599.171 468.114 597.543 467.365C595.915 466.617 594.638 465.575 593.71 464.24C592.799 462.889 592.343 461.433 592.343 459.87H596.859C596.941 461.384 597.543 462.588 598.666 463.483C599.805 464.362 601.303 464.802 603.158 464.802C604.867 464.802 606.234 464.46 607.26 463.776C608.301 463.076 608.822 462.149 608.822 460.993ZM624.13 468H619.613V430.5H624.13V468ZM647.689 468C647.429 467.479 647.217 466.551 647.055 465.217C644.955 467.398 642.449 468.488 639.535 468.488C636.931 468.488 634.791 467.756 633.114 466.291C631.454 464.81 630.624 462.938 630.624 460.676C630.624 457.925 631.666 455.793 633.749 454.279C635.849 452.749 638.795 451.984 642.587 451.984H646.981V449.909C646.981 448.33 646.509 447.077 645.565 446.149C644.621 445.205 643.23 444.733 641.391 444.733C639.779 444.733 638.428 445.14 637.338 445.954C636.247 446.768 635.702 447.753 635.702 448.908H631.161C631.161 447.59 631.625 446.32 632.553 445.1C633.497 443.863 634.766 442.886 636.361 442.17C637.973 441.454 639.739 441.096 641.659 441.096C644.703 441.096 647.087 441.861 648.812 443.391C650.538 444.904 651.433 446.996 651.498 449.665V461.823C651.498 464.248 651.807 466.177 652.426 467.609V468H647.689ZM640.194 464.558C641.61 464.558 642.953 464.191 644.223 463.459C645.492 462.727 646.412 461.774 646.981 460.603V455.183H643.441C637.908 455.183 635.141 456.802 635.141 460.041C635.141 461.457 635.613 462.564 636.557 463.361C637.501 464.159 638.713 464.558 640.194 464.558ZM663.241 441.584V471.052C663.241 476.13 660.938 478.669 656.332 478.669C655.339 478.669 654.42 478.522 653.573 478.229V474.616C654.094 474.746 654.778 474.812 655.624 474.812C656.633 474.812 657.398 474.535 657.919 473.981C658.456 473.444 658.725 472.5 658.725 471.149V441.584H663.241ZM658.261 434.577C658.261 433.861 658.48 433.251 658.92 432.746C659.376 432.225 660.035 431.965 660.897 431.965C661.776 431.965 662.444 432.217 662.899 432.722C663.355 433.226 663.583 433.845 663.583 434.577C663.583 435.31 663.355 435.92 662.899 436.408C662.444 436.896 661.776 437.141 660.897 437.141C660.019 437.141 659.359 436.896 658.92 436.408C658.48 435.92 658.261 435.31 658.261 434.577ZM669.442 454.572C669.442 450.52 670.403 447.264 672.323 444.807C674.244 442.333 676.758 441.096 679.867 441.096C682.96 441.096 685.409 442.154 687.216 444.27V430.5H691.732V468H687.582L687.362 465.168C685.556 467.382 683.041 468.488 679.818 468.488C676.758 468.488 674.26 467.235 672.323 464.729C670.403 462.222 669.442 458.951 669.442 454.914V454.572ZM673.959 455.085C673.959 458.08 674.577 460.424 675.814 462.116C677.051 463.809 678.76 464.655 680.941 464.655C683.806 464.655 685.897 463.369 687.216 460.798V448.664C685.865 446.174 683.79 444.929 680.99 444.929C678.777 444.929 677.051 445.783 675.814 447.492C674.577 449.201 673.959 451.732 673.959 455.085Z" fill="black"/>
<rect id="2:7" opacity="0.2" x="363" y="542" width="416" height="312" fill="#FF0000"/>
</g>
</svg>
