<svg width="1280" height="960" viewBox="0 0 1280 960" fill="none" xmlns="http://www.w3.org/2000/svg">
<g id="zagnie&#197;&#188;d&#197;&#188;one">
<rect width="1280" height="960" fill="white"/>
<rect id="habzdryg data (do not delete): {&#34;events&#34;:[{&#34;type&#34;:&#34;show&#34;,&#34;id&#34;:&#34;2:10&#34;,&#34;name&#34;:&#34;kukuku&#34;,&#34;index&#34;:1},{&#34;type&#34;:&#34;show&#34;,&#34;id&#34;:&#34;2:11&#34;,&#34;name&#34;:&#34;kukuku&#34;,&#34;index&#34;:2}],&#34;name&#34;:&#34;zagnie&#197;&#188;d&#197;&#188;one&#34;,&#34;id&#34;:&#34;2:7&#34;,&#34;root&#34;:false,&#34;pagecount&#34;:1}" x="1" y="1" width="1" height="1" fill="#C4C4C4"/>
<path id="kukuku" d="M351.791 262.769L348.959 265.723V275H344.442V237.5H348.959V260.181L351.376 257.275L359.604 248.584H365.097L354.818 259.619L366.293 275H360.995L351.791 262.769ZM386.068 272.388C384.311 274.455 381.731 275.488 378.329 275.488C375.513 275.488 373.365 274.674 371.884 273.047C370.419 271.403 369.678 268.978 369.662 265.771V248.584H374.179V265.649C374.179 269.653 375.806 271.655 379.062 271.655C382.512 271.655 384.807 270.369 385.946 267.798V248.584H390.463V275H386.166L386.068 272.388ZM404.721 262.769L401.889 265.723V275H397.372V237.5H401.889V260.181L404.306 257.275L412.533 248.584H418.026L407.748 259.619L419.223 275H413.925L404.721 262.769ZM438.998 272.388C437.24 274.455 434.66 275.488 431.259 275.488C428.443 275.488 426.295 274.674 424.813 273.047C423.349 271.403 422.608 268.978 422.592 265.771V248.584H427.108V265.649C427.108 269.653 428.736 271.655 431.991 271.655C435.442 271.655 437.737 270.369 438.876 267.798V248.584H443.393V275H439.096L438.998 272.388ZM457.65 262.769L454.818 265.723V275H450.302V237.5H454.818V260.181L457.235 257.275L465.463 248.584H470.956L460.678 259.619L472.152 275H466.854L457.65 262.769ZM491.928 272.388C490.17 274.455 487.59 275.488 484.188 275.488C481.373 275.488 479.224 274.674 477.743 273.047C476.278 271.403 475.538 268.978 475.521 265.771V248.584H480.038V265.649C480.038 269.653 481.666 271.655 484.921 271.655C488.371 271.655 490.666 270.369 491.806 267.798V248.584H496.322V275H492.025L491.928 272.388Z" fill="black"/>
<path id="kukuku_2" d="M351.791 420.769L348.959 423.723V433H344.442V395.5H348.959V418.181L351.376 415.275L359.604 406.584H365.097L354.818 417.619L366.293 433H360.995L351.791 420.769ZM386.068 430.388C384.311 432.455 381.731 433.488 378.329 433.488C375.513 433.488 373.365 432.674 371.884 431.047C370.419 429.403 369.678 426.978 369.662 423.771V406.584H374.179V423.649C374.179 427.653 375.806 429.655 379.062 429.655C382.512 429.655 384.807 428.369 385.946 425.798V406.584H390.463V433H386.166L386.068 430.388ZM404.721 420.769L401.889 423.723V433H397.372V395.5H401.889V418.181L404.306 415.275L412.533 406.584H418.026L407.748 417.619L419.223 433H413.925L404.721 420.769ZM438.998 430.388C437.24 432.455 434.66 433.488 431.259 433.488C428.443 433.488 426.295 432.674 424.813 431.047C423.349 429.403 422.608 426.978 422.592 423.771V406.584H427.108V423.649C427.108 427.653 428.736 429.655 431.991 429.655C435.442 429.655 437.737 428.369 438.876 425.798V406.584H443.393V433H439.096L438.998 430.388ZM457.65 420.769L454.818 423.723V433H450.302V395.5H454.818V418.181L457.235 415.275L465.463 406.584H470.956L460.678 417.619L472.152 433H466.854L457.65 420.769ZM491.928 430.388C490.17 432.455 487.59 433.488 484.188 433.488C481.373 433.488 479.224 432.674 477.743 431.047C476.278 429.403 475.538 426.978 475.521 423.771V406.584H480.038V423.649C480.038 427.653 481.666 429.655 484.921 429.655C488.371 429.655 490.666 428.369 491.806 425.798V406.584H496.322V433H492.025L491.928 430.388Z" fill="black"/>
</g>
</svg>
