<svg width="1920" height="1080" viewBox="0 0 1920 1080" fill="none" xmlns="http://www.w3.org/2000/svg">
<g id="dziecko">
<rect width="1920" height="1080" fill="white"/>
<rect id="Rectangle 2" x="84" y="78" width="271" height="205" fill="#EB5757"/>
<path id="Co_percentC5%9B_takiego" d="M788.338 475.5H783.847C783.581 474.208 783.116 473.073 782.452 472.095C781.8 471.117 781.003 470.296 780.061 469.632C779.132 468.956 778.099 468.449 776.964 468.111C775.83 467.773 774.646 467.604 773.415 467.604C771.169 467.604 769.135 468.171 767.311 469.306C765.5 470.441 764.058 472.113 762.983 474.323C761.92 476.532 761.389 479.243 761.389 482.455C761.389 485.666 761.92 488.377 762.983 490.586C764.058 492.796 765.5 494.468 767.311 495.603C769.135 496.738 771.169 497.305 773.415 497.305C774.646 497.305 775.83 497.136 776.964 496.798C778.099 496.46 779.132 495.959 780.061 495.295C781.003 494.619 781.8 493.792 782.452 492.814C783.116 491.824 783.581 490.689 783.847 489.409H788.338C788 491.305 787.384 493.001 786.491 494.498C785.597 495.995 784.487 497.269 783.158 498.32C781.83 499.358 780.339 500.149 778.685 500.692C777.043 501.235 775.286 501.507 773.415 501.507C770.251 501.507 767.438 500.734 764.975 499.189C762.512 497.643 760.574 495.446 759.162 492.597C757.749 489.747 757.043 486.366 757.043 482.455C757.043 478.543 757.749 475.162 759.162 472.312C760.574 469.463 762.512 467.266 764.975 465.72C767.438 464.175 770.251 463.402 773.415 463.402C775.286 463.402 777.043 463.674 778.685 464.217C780.339 464.76 781.83 465.557 783.158 466.608C784.487 467.646 785.597 468.914 786.491 470.411C787.384 471.896 788 473.592 788.338 475.5ZM806.318 501.58C803.806 501.58 801.603 500.982 799.707 499.787C797.824 498.591 796.351 496.919 795.288 494.77C794.238 492.621 793.712 490.109 793.712 487.236C793.712 484.338 794.238 481.809 795.288 479.647C796.351 477.486 797.824 475.808 799.707 474.613C801.603 473.417 803.806 472.82 806.318 472.82C808.829 472.82 811.026 473.417 812.91 474.613C814.805 475.808 816.278 477.486 817.329 479.647C818.391 481.809 818.923 484.338 818.923 487.236C818.923 490.109 818.391 492.621 817.329 494.77C816.278 496.919 814.805 498.591 812.91 499.787C811.026 500.982 808.829 501.58 806.318 501.58ZM806.318 497.74C808.225 497.74 809.795 497.251 811.026 496.273C812.258 495.295 813.169 494.009 813.761 492.415C814.353 490.822 814.649 489.095 814.649 487.236C814.649 485.376 814.353 483.644 813.761 482.038C813.169 480.432 812.258 479.134 811.026 478.144C809.795 477.154 808.225 476.659 806.318 476.659C804.41 476.659 802.84 477.154 801.609 478.144C800.377 479.134 799.466 480.432 798.874 482.038C798.282 483.644 797.987 485.376 797.987 487.236C797.987 489.095 798.282 490.822 798.874 492.415C799.466 494.009 800.377 495.295 801.609 496.273C802.84 497.251 804.41 497.74 806.318 497.74ZM845.152 479.412L841.312 480.499C841.071 479.859 840.714 479.237 840.244 478.633C839.785 478.017 839.157 477.51 838.36 477.112C837.563 476.713 836.543 476.514 835.299 476.514C833.597 476.514 832.178 476.907 831.043 477.691C829.92 478.464 829.359 479.448 829.359 480.643C829.359 481.706 829.745 482.545 830.518 483.161C831.291 483.777 832.498 484.29 834.14 484.7L838.27 485.714C840.757 486.318 842.61 487.242 843.83 488.485C845.049 489.717 845.659 491.305 845.659 493.249C845.659 494.842 845.2 496.267 844.282 497.523C843.377 498.778 842.109 499.768 840.479 500.493C838.849 501.217 836.953 501.58 834.792 501.58C831.955 501.58 829.607 500.964 827.747 499.732C825.888 498.501 824.711 496.702 824.216 494.335L828.272 493.321C828.659 494.818 829.389 495.941 830.464 496.69C831.55 497.438 832.969 497.812 834.72 497.812C836.712 497.812 838.294 497.39 839.465 496.545C840.648 495.687 841.24 494.661 841.24 493.466C841.24 492.5 840.902 491.691 840.225 491.039C839.549 490.375 838.511 489.88 837.11 489.554L832.474 488.467C829.926 487.864 828.055 486.928 826.86 485.66C825.676 484.38 825.085 482.781 825.085 480.861C825.085 479.291 825.526 477.903 826.407 476.695C827.3 475.488 828.514 474.54 830.047 473.852C831.593 473.164 833.343 472.82 835.299 472.82C838.052 472.82 840.213 473.423 841.783 474.631C843.365 475.838 844.488 477.432 845.152 479.412ZM833.343 469.415L837.762 461.011H842.761L837.11 469.415H833.343ZM878.534 473.182V476.804H864.118V473.182H878.534ZM868.32 466.517H872.594V493.031C872.594 494.239 872.769 495.144 873.119 495.748C873.481 496.339 873.94 496.738 874.496 496.943C875.063 497.136 875.661 497.233 876.289 497.233C876.76 497.233 877.146 497.209 877.448 497.161C877.75 497.1 877.991 497.052 878.172 497.016L879.041 500.855C878.752 500.964 878.347 501.072 877.828 501.181C877.309 501.302 876.651 501.362 875.854 501.362C874.647 501.362 873.463 501.103 872.304 500.583C871.157 500.064 870.203 499.273 869.443 498.211C868.694 497.148 868.32 495.808 868.32 494.19V466.517ZM893.15 501.652C891.387 501.652 889.787 501.32 888.35 500.656C886.914 499.98 885.773 499.008 884.927 497.74C884.082 496.46 883.66 494.915 883.66 493.104C883.66 491.51 883.974 490.218 884.601 489.228C885.229 488.226 886.068 487.441 887.119 486.874C888.169 486.306 889.328 485.884 890.596 485.606C891.876 485.316 893.162 485.087 894.454 484.918C896.144 484.7 897.514 484.537 898.565 484.429C899.627 484.308 900.4 484.109 900.883 483.831C901.378 483.553 901.626 483.07 901.626 482.382V482.237C901.626 480.45 901.137 479.062 900.159 478.072C899.193 477.082 897.726 476.587 895.758 476.587C893.717 476.587 892.117 477.033 890.958 477.927C889.799 478.82 888.984 479.774 888.513 480.788L884.457 479.339C885.181 477.649 886.147 476.333 887.354 475.391C888.574 474.437 889.902 473.773 891.339 473.399C892.788 473.013 894.212 472.82 895.613 472.82C896.506 472.82 897.533 472.928 898.692 473.146C899.863 473.351 900.992 473.779 902.078 474.431C903.177 475.083 904.089 476.067 904.813 477.384C905.538 478.7 905.9 480.462 905.9 482.672V501H901.626V497.233H901.408C901.119 497.837 900.636 498.483 899.959 499.171C899.283 499.859 898.384 500.445 897.261 500.928C896.138 501.411 894.768 501.652 893.15 501.652ZM893.802 497.812C895.492 497.812 896.917 497.48 898.076 496.816C899.247 496.152 900.128 495.295 900.72 494.245C901.324 493.194 901.626 492.089 901.626 490.93V487.018C901.445 487.236 901.046 487.435 900.43 487.616C899.827 487.785 899.126 487.936 898.329 488.069C897.545 488.19 896.778 488.298 896.029 488.395C895.293 488.479 894.695 488.552 894.236 488.612C893.126 488.757 892.087 488.993 891.121 489.319C890.168 489.632 889.395 490.109 888.803 490.749C888.224 491.377 887.934 492.234 887.934 493.321C887.934 494.806 888.483 495.929 889.582 496.69C890.693 497.438 892.099 497.812 893.802 497.812ZM917.685 490.858L917.613 485.57H918.482L930.653 473.182H935.941L922.974 486.294H922.612L917.685 490.858ZM913.701 501V463.909H917.975V501H913.701ZM931.377 501L920.511 487.236L923.553 484.266L936.81 501H931.377ZM941.442 501V473.182H945.716V501H941.442ZM943.616 468.545C942.782 468.545 942.064 468.262 941.46 467.694C940.869 467.127 940.573 466.445 940.573 465.648C940.573 464.851 940.869 464.169 941.46 463.601C942.064 463.034 942.782 462.75 943.616 462.75C944.449 462.75 945.161 463.034 945.753 463.601C946.356 464.169 946.658 464.851 946.658 465.648C946.658 466.445 946.356 467.127 945.753 467.694C945.161 468.262 944.449 468.545 943.616 468.545ZM965.208 501.58C962.528 501.58 960.216 500.988 958.272 499.805C956.34 498.609 954.849 496.943 953.798 494.806C952.76 492.657 952.241 490.158 952.241 487.308C952.241 484.459 952.76 481.947 953.798 479.774C954.849 477.589 956.31 475.886 958.181 474.667C960.065 473.435 962.262 472.82 964.773 472.82C966.222 472.82 967.653 473.061 969.066 473.544C970.478 474.027 971.764 474.812 972.923 475.898C974.082 476.973 975.006 478.398 975.694 480.173C976.382 481.947 976.727 484.133 976.727 486.729V488.54H955.283V484.845H972.38C972.38 483.276 972.066 481.875 971.438 480.643C970.822 479.412 969.941 478.44 968.794 477.728C967.659 477.015 966.319 476.659 964.773 476.659C963.071 476.659 961.598 477.082 960.354 477.927C959.123 478.76 958.175 479.847 957.511 481.187C956.847 482.527 956.515 483.964 956.515 485.497V487.96C956.515 490.061 956.877 491.842 957.602 493.303C958.338 494.752 959.358 495.857 960.662 496.617C961.966 497.366 963.482 497.74 965.208 497.74C966.331 497.74 967.345 497.583 968.251 497.269C969.168 496.943 969.959 496.46 970.623 495.82C971.287 495.168 971.8 494.359 972.163 493.393L976.292 494.553C975.857 495.953 975.127 497.185 974.1 498.247C973.074 499.298 971.806 500.119 970.297 500.71C968.788 501.29 967.092 501.58 965.208 501.58ZM994.457 512.011C992.392 512.011 990.618 511.746 989.132 511.214C987.647 510.695 986.41 510.007 985.42 509.15C984.442 508.305 983.663 507.399 983.083 506.433L986.488 504.043C986.875 504.55 987.364 505.129 987.955 505.781C988.547 506.445 989.356 507.019 990.382 507.502C991.42 507.997 992.779 508.244 994.457 508.244C996.703 508.244 998.556 507.701 1000.02 506.614C1001.48 505.528 1002.21 503.825 1002.21 501.507V495.857H1001.85C1001.53 496.364 1001.09 496.991 1000.51 497.74C999.939 498.477 999.118 499.135 998.043 499.714C996.98 500.282 995.544 500.565 993.733 500.565C991.487 500.565 989.471 500.034 987.684 498.972C985.909 497.909 984.502 496.364 983.464 494.335C982.438 492.307 981.924 489.844 981.924 486.946C981.924 484.097 982.425 481.615 983.428 479.502C984.43 477.377 985.824 475.735 987.611 474.576C989.398 473.405 991.463 472.82 993.805 472.82C995.616 472.82 997.053 473.121 998.115 473.725C999.19 474.317 1000.01 474.993 1000.58 475.754C1001.16 476.502 1001.6 477.118 1001.92 477.601H1002.35V473.182H1006.48V501.797C1006.48 504.188 1005.94 506.131 1004.85 507.629C1003.78 509.138 1002.33 510.243 1000.51 510.943C998.695 511.655 996.679 512.011 994.457 512.011ZM994.312 496.726C996.027 496.726 997.475 496.333 998.659 495.549C999.842 494.764 1000.74 493.635 1001.36 492.162C1001.97 490.689 1002.28 488.926 1002.28 486.874C1002.28 484.869 1001.98 483.1 1001.38 481.567C1000.77 480.034 999.878 478.832 998.695 477.963C997.512 477.094 996.051 476.659 994.312 476.659C992.501 476.659 990.992 477.118 989.784 478.036C988.589 478.953 987.69 480.185 987.086 481.73C986.494 483.276 986.199 484.99 986.199 486.874C986.199 488.805 986.5 490.514 987.104 491.999C987.72 493.472 988.625 494.631 989.821 495.476C991.028 496.309 992.525 496.726 994.312 496.726ZM1025.61 501.58C1023.1 501.58 1020.89 500.982 1019 499.787C1017.11 498.591 1015.64 496.919 1014.58 494.77C1013.53 492.621 1013 490.109 1013 487.236C1013 484.338 1013.53 481.809 1014.58 479.647C1015.64 477.486 1017.11 475.808 1019 474.613C1020.89 473.417 1023.1 472.82 1025.61 472.82C1028.12 472.82 1030.32 473.417 1032.2 474.613C1034.1 475.808 1035.57 477.486 1036.62 479.647C1037.68 481.809 1038.21 484.338 1038.21 487.236C1038.21 490.109 1037.68 492.621 1036.62 494.77C1035.57 496.919 1034.1 498.591 1032.2 499.787C1030.32 500.982 1028.12 501.58 1025.61 501.58ZM1025.61 497.74C1027.52 497.74 1029.08 497.251 1030.32 496.273C1031.55 495.295 1032.46 494.009 1033.05 492.415C1033.64 490.822 1033.94 489.095 1033.94 487.236C1033.94 485.376 1033.64 483.644 1033.05 482.038C1032.46 480.432 1031.55 479.134 1030.32 478.144C1029.08 477.154 1027.52 476.659 1025.61 476.659C1023.7 476.659 1022.13 477.154 1020.9 478.144C1019.67 479.134 1018.76 480.432 1018.16 482.038C1017.57 483.644 1017.28 485.376 1017.28 487.236C1017.28 489.095 1017.57 490.822 1018.16 492.415C1018.76 494.009 1019.67 495.295 1020.9 496.273C1022.13 497.251 1023.7 497.74 1025.61 497.74Z" fill="black"/>
<path id="Druga_rzecz" d="M1160.94 219H1149.49V181.909H1161.44C1165.04 181.909 1168.12 182.652 1170.68 184.137C1173.24 185.61 1175.2 187.729 1176.57 190.494C1177.93 193.246 1178.61 196.543 1178.61 200.382C1178.61 204.246 1177.93 207.572 1176.55 210.361C1175.17 213.138 1173.17 215.275 1170.54 216.772C1167.9 218.257 1164.7 219 1160.94 219ZM1153.98 215.016H1160.65C1163.71 215.016 1166.26 214.424 1168.27 213.241C1170.29 212.058 1171.79 210.373 1172.78 208.188C1173.77 206.002 1174.27 203.401 1174.27 200.382C1174.27 197.388 1173.78 194.81 1172.8 192.649C1171.82 190.475 1170.36 188.809 1168.42 187.65C1166.47 186.479 1164.05 185.893 1161.15 185.893H1153.98V215.016ZM1185.57 219V191.182H1189.7V195.384H1189.99C1190.49 194.007 1191.41 192.89 1192.74 192.033C1194.07 191.176 1195.57 190.747 1197.23 190.747C1197.55 190.747 1197.94 190.753 1198.41 190.765C1198.88 190.777 1199.24 190.795 1199.48 190.82V195.166C1199.33 195.13 1199 195.076 1198.48 195.003C1197.97 194.919 1197.44 194.876 1196.87 194.876C1195.52 194.876 1194.31 195.16 1193.25 195.728C1192.2 196.283 1191.36 197.056 1190.75 198.046C1190.14 199.024 1189.84 200.141 1189.84 201.396V219H1185.57ZM1222.08 207.626V191.182H1226.35V219H1222.08V214.291H1221.79C1221.13 215.704 1220.12 216.905 1218.74 217.895C1217.37 218.873 1215.63 219.362 1213.53 219.362C1211.79 219.362 1210.24 218.982 1208.89 218.221C1207.54 217.449 1206.48 216.289 1205.7 214.744C1204.93 213.186 1204.54 211.224 1204.54 208.858V191.182H1208.82V208.568C1208.82 210.597 1209.39 212.214 1210.52 213.422C1211.67 214.629 1213.13 215.233 1214.9 215.233C1215.97 215.233 1217.05 214.961 1218.14 214.418C1219.26 213.875 1220.19 213.042 1220.93 211.919C1221.69 210.796 1222.08 209.365 1222.08 207.626ZM1245.41 230.011C1243.34 230.011 1241.57 229.746 1240.08 229.214C1238.6 228.695 1237.36 228.007 1236.37 227.15C1235.39 226.305 1234.61 225.399 1234.03 224.433L1237.44 222.043C1237.82 222.55 1238.31 223.129 1238.9 223.781C1239.5 224.445 1240.31 225.019 1241.33 225.502C1242.37 225.997 1243.73 226.244 1245.41 226.244C1247.65 226.244 1249.51 225.701 1250.97 224.614C1252.43 223.528 1253.16 221.825 1253.16 219.507V213.857H1252.8C1252.48 214.364 1252.03 214.991 1251.46 215.74C1250.89 216.477 1250.07 217.135 1248.99 217.714C1247.93 218.282 1246.49 218.565 1244.68 218.565C1242.44 218.565 1240.42 218.034 1238.63 216.972C1236.86 215.909 1235.45 214.364 1234.41 212.335C1233.39 210.307 1232.87 207.844 1232.87 204.946C1232.87 202.097 1233.37 199.615 1234.38 197.502C1235.38 195.377 1236.77 193.735 1238.56 192.576C1240.35 191.405 1242.41 190.82 1244.75 190.82C1246.57 190.82 1248 191.121 1249.06 191.725C1250.14 192.317 1250.96 192.993 1251.53 193.754C1252.11 194.502 1252.55 195.118 1252.87 195.601H1253.3V191.182H1257.43V219.797C1257.43 222.188 1256.89 224.131 1255.8 225.629C1254.73 227.138 1253.28 228.243 1251.46 228.943C1249.64 229.655 1247.63 230.011 1245.41 230.011ZM1245.26 214.726C1246.98 214.726 1248.42 214.333 1249.61 213.549C1250.79 212.764 1251.69 211.635 1252.31 210.162C1252.92 208.689 1253.23 206.926 1253.23 204.874C1253.23 202.869 1252.93 201.1 1252.32 199.567C1251.72 198.034 1250.83 196.832 1249.64 195.963C1248.46 195.094 1247 194.659 1245.26 194.659C1243.45 194.659 1241.94 195.118 1240.73 196.036C1239.54 196.953 1238.64 198.185 1238.04 199.73C1237.44 201.276 1237.15 202.99 1237.15 204.874C1237.15 206.805 1237.45 208.514 1238.05 209.999C1238.67 211.472 1239.57 212.631 1240.77 213.476C1241.98 214.309 1243.47 214.726 1245.26 214.726ZM1273.44 219.652C1271.68 219.652 1270.08 219.32 1268.64 218.656C1267.21 217.98 1266.06 217.008 1265.22 215.74C1264.37 214.46 1263.95 212.915 1263.95 211.104C1263.95 209.51 1264.27 208.218 1264.89 207.228C1265.52 206.226 1266.36 205.441 1267.41 204.874C1268.46 204.306 1269.62 203.884 1270.89 203.606C1272.17 203.316 1273.45 203.087 1274.75 202.918C1276.44 202.7 1277.81 202.537 1278.86 202.429C1279.92 202.308 1280.69 202.109 1281.18 201.831C1281.67 201.553 1281.92 201.07 1281.92 200.382V200.237C1281.92 198.45 1281.43 197.062 1280.45 196.072C1279.48 195.082 1278.02 194.587 1276.05 194.587C1274.01 194.587 1272.41 195.033 1271.25 195.927C1270.09 196.82 1269.28 197.774 1268.81 198.788L1264.75 197.339C1265.47 195.649 1266.44 194.333 1267.65 193.391C1268.87 192.437 1270.19 191.773 1271.63 191.399C1273.08 191.013 1274.5 190.82 1275.9 190.82C1276.8 190.82 1277.82 190.928 1278.98 191.146C1280.15 191.351 1281.28 191.779 1282.37 192.431C1283.47 193.083 1284.38 194.067 1285.11 195.384C1285.83 196.7 1286.19 198.462 1286.19 200.672V219H1281.92V215.233H1281.7C1281.41 215.837 1280.93 216.483 1280.25 217.171C1279.58 217.859 1278.68 218.445 1277.55 218.928C1276.43 219.411 1275.06 219.652 1273.44 219.652ZM1274.09 215.812C1275.78 215.812 1277.21 215.48 1278.37 214.816C1279.54 214.152 1280.42 213.295 1281.01 212.245C1281.62 211.194 1281.92 210.089 1281.92 208.93V205.018C1281.74 205.236 1281.34 205.435 1280.72 205.616C1280.12 205.785 1279.42 205.936 1278.62 206.069C1277.84 206.19 1277.07 206.298 1276.32 206.395C1275.58 206.479 1274.99 206.552 1274.53 206.612C1273.42 206.757 1272.38 206.993 1271.41 207.319C1270.46 207.632 1269.69 208.109 1269.1 208.749C1268.52 209.377 1268.23 210.234 1268.23 211.321C1268.23 212.806 1268.78 213.929 1269.87 214.69C1270.98 215.438 1272.39 215.812 1274.09 215.812ZM1308.34 219V191.182H1312.47V195.384H1312.76C1313.26 194.007 1314.18 192.89 1315.51 192.033C1316.84 191.176 1318.33 190.747 1320 190.747C1320.31 190.747 1320.71 190.753 1321.18 190.765C1321.65 190.777 1322 190.795 1322.25 190.82V195.166C1322.1 195.13 1321.77 195.076 1321.25 195.003C1320.74 194.919 1320.21 194.876 1319.64 194.876C1318.29 194.876 1317.08 195.16 1316.02 195.728C1314.97 196.283 1314.13 197.056 1313.52 198.046C1312.91 199.024 1312.61 200.141 1312.61 201.396V219H1308.34ZM1326.52 219V215.74L1342.31 195.456V195.166H1327.02V191.182H1347.81V194.587L1332.46 214.726V215.016H1348.32V219H1326.52ZM1365.77 219.58C1363.09 219.58 1360.78 218.988 1358.83 217.805C1356.9 216.609 1355.41 214.943 1354.36 212.806C1353.32 210.657 1352.8 208.158 1352.8 205.308C1352.8 202.459 1353.32 199.947 1354.36 197.774C1355.41 195.589 1356.87 193.886 1358.74 192.667C1360.63 191.435 1362.82 190.82 1365.34 190.82C1366.78 190.82 1368.22 191.061 1369.63 191.544C1371.04 192.027 1372.33 192.812 1373.49 193.898C1374.64 194.973 1375.57 196.398 1376.26 198.173C1376.94 199.947 1377.29 202.133 1377.29 204.729V206.54H1355.85V202.845H1372.94C1372.94 201.276 1372.63 199.875 1372 198.643C1371.38 197.412 1370.5 196.44 1369.36 195.728C1368.22 195.015 1366.88 194.659 1365.34 194.659C1363.63 194.659 1362.16 195.082 1360.92 195.927C1359.69 196.76 1358.74 197.847 1358.07 199.187C1357.41 200.527 1357.08 201.964 1357.08 203.497V205.96C1357.08 208.061 1357.44 209.842 1358.16 211.303C1358.9 212.752 1359.92 213.857 1361.22 214.617C1362.53 215.366 1364.04 215.74 1365.77 215.74C1366.89 215.74 1367.91 215.583 1368.81 215.269C1369.73 214.943 1370.52 214.46 1371.19 213.82C1371.85 213.168 1372.36 212.359 1372.73 211.393L1376.85 212.553C1376.42 213.953 1375.69 215.185 1374.66 216.247C1373.64 217.298 1372.37 218.119 1370.86 218.71C1369.35 219.29 1367.65 219.58 1365.77 219.58ZM1395.09 219.58C1392.48 219.58 1390.24 218.964 1388.35 217.732C1386.47 216.501 1385.02 214.804 1384.01 212.643C1382.99 210.482 1382.49 208.013 1382.49 205.236C1382.49 202.411 1383.01 199.917 1384.04 197.756C1385.09 195.583 1386.56 193.886 1388.43 192.667C1390.31 191.435 1392.51 190.82 1395.02 190.82C1396.98 190.82 1398.74 191.182 1400.31 191.906C1401.88 192.631 1403.16 193.645 1404.17 194.949C1405.17 196.253 1405.79 197.774 1406.03 199.513H1401.76C1401.43 198.245 1400.71 197.122 1399.58 196.144C1398.47 195.154 1396.98 194.659 1395.09 194.659C1393.43 194.659 1391.96 195.094 1390.71 195.963C1389.47 196.82 1388.49 198.034 1387.79 199.603C1387.11 201.161 1386.76 202.99 1386.76 205.091C1386.76 207.24 1387.1 209.112 1387.78 210.705C1388.46 212.299 1389.43 213.537 1390.67 214.418C1391.93 215.299 1393.4 215.74 1395.09 215.74C1396.2 215.74 1397.21 215.547 1398.12 215.161C1399.02 214.774 1399.79 214.219 1400.42 213.494C1401.04 212.77 1401.49 211.901 1401.76 210.886H1406.03C1405.79 212.528 1405.19 214.007 1404.24 215.324C1403.3 216.627 1402.05 217.666 1400.49 218.439C1398.94 219.199 1397.14 219.58 1395.09 219.58ZM1411.48 219V215.74L1427.27 195.456V195.166H1411.99V191.182H1432.78V194.587L1417.42 214.726V215.016H1433.29V219H1411.48Z" fill="black"/>
</g>
</svg>
