<svg width="4936" height="1385" viewBox="0 0 4936 1385" fill="none" xmlns="http://www.w3.org/2000/svg">
<rect width="4936" height="1385" fill="#E5E5E5"/>
<g id="slajd g&#197;&#130;&#195;&#179;wny">
<rect width="1280" height="720" fill="white"/>
<rect id="habzdryg data (do not delete): {&#34;events&#34;:[{&#34;type&#34;:&#34;show&#34;,&#34;id&#34;:&#34;1:6&#34;,&#34;name&#34;:&#34;Abc&#206;&#177;&#34;},{&#34;type&#34;:&#34;show&#34;,&#34;id&#34;:&#34;303:19&#34;,&#34;name&#34;:&#34;J&#195;&#179;zio&#34;},{&#34;type&#34;:&#34;child&#34;,&#34;id&#34;:&#34;1:3&#34;,&#34;name&#34;:&#34;pierwsze dziecko&#34;},{&#34;type&#34;:&#34;child&#34;,&#34;id&#34;:&#34;1:4&#34;,&#34;name&#34;:&#34;drugie dziecko&#34;}]}" x="1" y="1" width="1" height="1" fill="#C4C4C4"/>
<path id="Abc&#206;&#177;" d="M190.9 149.7C189.4 149.7 188.2 151.2 186.1 153.6L178.9 165.6C177.7 168 177.1 169.8 176.8 170.7C176.2 172.5 175.9 174.3 174.1 178.5C161.5 209.1 127.3 299.7 120.4 315C111.7 334.5 107.8 335.4 92.8 340.5C88.3 342 86.2 344.7 86.2 346.5C86.2 348.3 87.7 349.5 93.1 349.5C97.6 349.5 113.2 348 124.3 348C135.4 348 142.9 348.9 148 348.9C151.9 348.9 156.4 348 156.4 345C156.4 342.9 153.4 341.1 148.3 339.6C134.8 335.4 133.6 330.3 133.6 326.7C133.6 319.2 141.4 293.7 149.2 274.2C149.8 273.3 151.3 271.8 152.5 271.8C158.8 270.9 185.2 270.6 201.7 270.6C210.4 270.6 211.6 272.4 211.9 273.6C218.8 292.8 226.3 312.6 228.7 324.9C229.9 331.2 231.1 337.2 216.7 340.2C211.3 341.1 209.5 343.5 209.5 345C209.5 346.5 211.3 348.6 218.8 348.6C226.3 348.6 230.5 348 240.1 348C253.3 348 268 349.5 277.9 349.5C285.4 349.5 287.5 347.7 287.5 345.6C287.5 343.5 285.1 342 280.3 340.5C266.8 337.2 262 334.8 252.1 310.2C247 297.9 224.5 238.5 208.9 194.7C203.2 179.1 198.1 165.6 195.7 157.5C193.3 150.9 192.1 149.7 190.9 149.7ZM204.4 257.1C194.5 258 169.6 257.7 157.6 258C156.4 258 155.8 257.1 156.1 255.9C158.5 246.6 174.1 204.6 179.5 190.2C180.4 188.1 181 188.4 181.9 190.2C184.6 194.4 200.2 239.4 205.3 254.7C205.6 255.6 204.7 257.1 204.4 257.1ZM379.534 236.4C363.934 236.4 342.634 257.4 324.634 279.6C323.434 281.1 322.534 279 323.134 278.1C333.634 245.7 360.634 155.7 364.234 145.2C364.834 143.7 365.134 140.7 363.634 141C359.134 142.2 347.134 145.5 334.834 146.4C332.734 146.4 330.634 147.3 330.634 148.2C330.634 149.4 331.834 150 333.934 150.3C341.134 151.5 342.934 153.6 341.134 160.8C334.534 185.7 307.534 276.3 299.434 305.1C296.734 315.3 294.634 327 294.634 331.5C294.634 342.9 300.334 352.2 312.634 352.2C321.334 352.2 335.134 345.9 347.734 336.3C368.434 320.4 393.334 284.4 393.334 256.8C393.634 246.6 390.034 236.4 379.534 236.4ZM367.234 247.5C372.934 247.5 374.734 254.4 374.734 258.9C374.734 280.5 353.134 320.7 337.234 336.3C329.134 344.4 324.934 345.9 319.534 345.9C314.734 345.9 311.134 340.8 311.134 330.3C311.134 318.9 320.134 295.5 330.934 280.2C342.634 263.4 357.934 247.5 367.234 247.5ZM469.277 236.7C463.577 236.7 457.577 238.2 450.377 242.1C431.777 251.1 420.077 267.9 413.177 283.5C405.677 300.9 404.177 315.9 404.177 321.3C404.177 343.8 416.177 352.2 425.177 352.2C439.877 352.2 455.477 339.6 462.077 326.7C463.877 324 465.977 318.6 464.477 318.6C463.577 318.6 462.977 319.2 460.577 321.9C450.677 333.6 440.177 340.5 432.077 340.5C426.677 340.5 422.177 334.8 422.177 325.2C422.177 305.7 429.977 280.2 438.377 265.5C445.577 252 452.777 243 459.677 243C463.877 243 466.277 245.7 470.477 252C473.477 255.9 475.877 257.7 477.977 257.7C480.077 257.7 486.077 254.1 486.077 249.6C486.077 246.3 484.877 244.2 483.077 242.4C479.777 238.8 474.077 236.7 469.277 236.7ZM543.48 238.8C540.48 238.8 529.98 240.9 514.38 259.8C498.48 278.7 485.58 311.4 485.28 327.6C484.68 343.8 494.28 352.2 498.48 352.2C501.48 352.2 505.98 350.7 507.78 349.8C518.28 345 533.28 333.6 547.98 317.7C549.18 316.5 549.78 315.9 549.48 317.4C548.28 323.7 547.38 329.4 547.38 333.9C547.38 347.1 551.58 353.4 557.88 353.4C571.38 353.4 584.88 337.8 591.48 324.6C592.38 323.7 594.78 318.6 594.78 315.3C594.78 313.8 594.18 312.6 593.58 313.5C582.78 329.7 573.48 335.4 564.18 335.4C557.88 335.4 553.38 330.6 552.78 320.4C552.78 318.9 552.48 315 552.78 313.8C553.08 312 553.38 310.8 554.28 309.6C565.38 295.2 580.98 269.1 584.58 263.4C587.88 257.4 593.28 246.6 593.58 243.9C593.58 240 589.38 230.7 584.88 230.7C583.38 230.7 581.28 234 577.68 241.5C574.68 248.7 565.38 266.4 560.28 274.8C559.68 276 559.08 276.9 558.78 274.5C558.18 262.2 554.88 252.9 553.68 248.7C550.98 241.8 546.18 238.8 543.48 238.8ZM543.18 256.8C553.38 256.8 555.78 271.8 555.18 282.3C555.18 283.5 552.18 290.1 550.68 292.2C537.48 313.5 509.28 343.2 497.28 343.2C493.08 343.2 491.58 338.1 491.88 333.9C492.48 319.8 508.68 289.8 522.18 273C533.88 258.6 539.58 256.8 543.18 256.8Z" fill="black"/>
<rect id="1:3" x="100" y="100" width="100" height="56.25" fill="#FF0000"/>
<rect id="1:4" x="471" y="100" width="100" height="56.25" fill="#FF0000"/>
<path id="J&#195;&#179;zio" d="M747.215 349.562H750.984V369.699C750.984 372.421 750.164 374.549 748.523 376.086C746.896 377.622 744.721 378.391 742 378.391C739.174 378.391 736.974 377.668 735.398 376.223C733.823 374.777 733.035 372.753 733.035 370.148H736.785C736.785 371.776 737.228 373.046 738.113 373.957C739.012 374.868 740.307 375.324 742 375.324C743.549 375.324 744.799 374.836 745.75 373.859C746.714 372.883 747.202 371.516 747.215 369.758V349.562ZM755.848 367.238C755.848 365.168 756.251 363.306 757.059 361.652C757.879 359.999 759.012 358.723 760.457 357.824C761.915 356.926 763.576 356.477 765.438 356.477C768.315 356.477 770.639 357.473 772.41 359.465C774.194 361.457 775.086 364.107 775.086 367.414V367.668C775.086 369.725 774.689 371.574 773.895 373.215C773.113 374.842 771.987 376.112 770.516 377.023C769.057 377.935 767.378 378.391 765.477 378.391C762.612 378.391 760.288 377.395 758.504 375.402C756.733 373.41 755.848 370.773 755.848 367.492V367.238ZM759.48 367.668C759.48 370.012 760.021 371.893 761.102 373.312C762.195 374.732 763.654 375.441 765.477 375.441C767.312 375.441 768.771 374.725 769.852 373.293C770.932 371.848 771.473 369.829 771.473 367.238C771.473 364.921 770.919 363.046 769.812 361.613C768.719 360.168 767.26 359.445 765.438 359.445C763.654 359.445 762.215 360.155 761.121 361.574C760.027 362.993 759.48 365.025 759.48 367.668ZM767.078 348H771.453L766.219 353.742H763.309L767.078 348ZM782.703 375.051H795.066V378H778.289V375.344L789.949 359.855H778.465V356.867H794.48V359.426L782.703 375.051ZM803.074 378H799.461V356.867H803.074V378ZM799.168 351.262C799.168 350.676 799.344 350.181 799.695 349.777C800.06 349.374 800.594 349.172 801.297 349.172C802 349.172 802.534 349.374 802.898 349.777C803.263 350.181 803.445 350.676 803.445 351.262C803.445 351.848 803.263 352.336 802.898 352.727C802.534 353.117 802 353.312 801.297 353.312C800.594 353.312 800.06 353.117 799.695 352.727C799.344 352.336 799.168 351.848 799.168 351.262ZM807.918 367.238C807.918 365.168 808.322 363.306 809.129 361.652C809.949 359.999 811.082 358.723 812.527 357.824C813.986 356.926 815.646 356.477 817.508 356.477C820.385 356.477 822.71 357.473 824.48 359.465C826.264 361.457 827.156 364.107 827.156 367.414V367.668C827.156 369.725 826.759 371.574 825.965 373.215C825.184 374.842 824.057 376.112 822.586 377.023C821.128 377.935 819.448 378.391 817.547 378.391C814.682 378.391 812.358 377.395 810.574 375.402C808.803 373.41 807.918 370.773 807.918 367.492V367.238ZM811.551 367.668C811.551 370.012 812.091 371.893 813.172 373.312C814.266 374.732 815.724 375.441 817.547 375.441C819.383 375.441 820.841 374.725 821.922 373.293C823.003 371.848 823.543 369.829 823.543 367.238C823.543 364.921 822.99 363.046 821.883 361.613C820.789 360.168 819.331 359.445 817.508 359.445C815.724 359.445 814.285 360.155 813.191 361.574C812.098 362.993 811.551 365.025 811.551 367.668Z" fill="black"/>
</g>
<g id="pierwsze dziecko">
<rect width="1280" height="720" transform="translate(1320)" fill="white"/>
<rect id="habzdryg data (do not delete): {&#34;events&#34;:[{&#34;type&#34;:&#34;show&#34;,&#34;id&#34;:&#34;131:2&#34;,&#34;name&#34;:&#34;pierwsz dziecko&#34;},{&#34;type&#34;:&#34;child&#34;,&#34;id&#34;:&#34;10:55&#34;,&#34;name&#34;:&#34;trzecie dziecko&#34;}]}" x="1321" y="1" width="1" height="1" fill="#C4C4C4"/>
<path id="pierwsz dziecko" d="M1557.36 199.889C1557.36 200.865 1557.13 201.648 1556.69 202.238C1556.25 202.824 1555.65 203.117 1554.9 203.117C1554.26 203.117 1553.74 202.895 1553.34 202.449V205.438H1551.65V196.66H1553.22L1553.28 197.281C1553.69 196.789 1554.22 196.543 1554.88 196.543C1555.67 196.543 1556.27 196.832 1556.71 197.41C1557.14 197.988 1557.36 198.785 1557.36 199.801V199.889ZM1555.66 199.766C1555.66 199.176 1555.56 198.721 1555.35 198.4C1555.14 198.08 1554.84 197.92 1554.44 197.92C1553.91 197.92 1553.54 198.123 1553.34 198.529V201.125C1553.55 201.543 1553.92 201.752 1554.45 201.752C1555.26 201.752 1555.66 201.09 1555.66 199.766ZM1560.2 203H1558.5V196.66H1560.2V203ZM1558.4 195.02C1558.4 194.766 1558.48 194.557 1558.65 194.393C1558.82 194.229 1559.06 194.146 1559.35 194.146C1559.64 194.146 1559.87 194.229 1560.04 194.393C1560.21 194.557 1560.3 194.766 1560.3 195.02C1560.3 195.277 1560.21 195.488 1560.04 195.652C1559.86 195.816 1559.63 195.898 1559.35 195.898C1559.06 195.898 1558.83 195.816 1558.66 195.652C1558.49 195.488 1558.4 195.277 1558.4 195.02ZM1564.52 203.117C1563.59 203.117 1562.83 202.832 1562.24 202.262C1561.66 201.691 1561.37 200.932 1561.37 199.982V199.818C1561.37 199.182 1561.49 198.613 1561.74 198.113C1561.99 197.609 1562.33 197.223 1562.78 196.953C1563.24 196.68 1563.75 196.543 1564.33 196.543C1565.2 196.543 1565.88 196.816 1566.38 197.363C1566.88 197.91 1567.12 198.686 1567.12 199.689V200.381H1563.09C1563.14 200.795 1563.31 201.127 1563.58 201.377C1563.86 201.627 1564.21 201.752 1564.63 201.752C1565.28 201.752 1565.79 201.516 1566.16 201.043L1566.99 201.975C1566.74 202.334 1566.39 202.615 1565.96 202.818C1565.53 203.018 1565.04 203.117 1564.52 203.117ZM1564.32 197.914C1563.99 197.914 1563.71 198.027 1563.5 198.254C1563.3 198.48 1563.16 198.805 1563.11 199.227H1565.46V199.092C1565.45 198.717 1565.35 198.428 1565.16 198.225C1564.96 198.018 1564.68 197.914 1564.32 197.914ZM1571.65 198.248C1571.42 198.217 1571.22 198.201 1571.04 198.201C1570.4 198.201 1569.98 198.418 1569.79 198.852V203H1568.09V196.66H1569.69L1569.74 197.416C1570.08 196.834 1570.55 196.543 1571.15 196.543C1571.34 196.543 1571.51 196.568 1571.68 196.619L1571.65 198.248ZM1578.09 200.697L1578.93 196.66H1580.56L1578.94 203H1577.53L1576.32 199.01L1575.12 203H1573.71L1572.09 196.66H1573.73L1574.55 200.691L1575.71 196.66H1576.94L1578.09 200.697ZM1584.84 201.248C1584.84 201.041 1584.73 200.879 1584.53 200.762C1584.32 200.641 1584 200.533 1583.54 200.439C1582.04 200.123 1581.28 199.482 1581.28 198.518C1581.28 197.955 1581.51 197.486 1581.98 197.111C1582.45 196.732 1583.06 196.543 1583.81 196.543C1584.62 196.543 1585.26 196.732 1585.74 197.111C1586.22 197.49 1586.47 197.982 1586.47 198.588H1584.77C1584.77 198.346 1584.7 198.146 1584.54 197.99C1584.38 197.83 1584.14 197.75 1583.81 197.75C1583.52 197.75 1583.3 197.814 1583.14 197.943C1582.99 198.072 1582.91 198.236 1582.91 198.436C1582.91 198.623 1583 198.775 1583.17 198.893C1583.35 199.006 1583.65 199.105 1584.08 199.191C1584.5 199.273 1584.85 199.367 1585.14 199.473C1586.04 199.801 1586.48 200.369 1586.48 201.178C1586.48 201.756 1586.24 202.225 1585.74 202.584C1585.24 202.939 1584.6 203.117 1583.82 203.117C1583.29 203.117 1582.81 203.023 1582.4 202.836C1581.99 202.645 1581.67 202.385 1581.43 202.057C1581.2 201.725 1581.08 201.367 1581.08 200.984H1582.69C1582.7 201.285 1582.81 201.516 1583.02 201.676C1583.23 201.836 1583.51 201.916 1583.85 201.916C1584.18 201.916 1584.42 201.855 1584.59 201.734C1584.75 201.609 1584.84 201.447 1584.84 201.248ZM1589.53 201.635H1592.62V203H1587.36V201.969L1590.35 198.031H1587.45V196.66H1592.53V197.662L1589.53 201.635ZM1596.41 199.783C1596.41 198.795 1596.63 198.008 1597.07 197.422C1597.52 196.836 1598.12 196.543 1598.89 196.543C1599.51 196.543 1600.02 196.773 1600.42 197.234V194H1602.12V203H1600.59L1600.51 202.326C1600.09 202.854 1599.55 203.117 1598.88 203.117C1598.14 203.117 1597.54 202.824 1597.08 202.238C1596.63 201.648 1596.41 200.83 1596.41 199.783ZM1598.1 199.906C1598.1 200.5 1598.21 200.955 1598.41 201.271C1598.62 201.588 1598.92 201.746 1599.32 201.746C1599.84 201.746 1600.21 201.525 1600.42 201.084V198.582C1600.21 198.141 1599.85 197.92 1599.33 197.92C1598.51 197.92 1598.1 198.582 1598.1 199.906ZM1605.38 201.635H1608.48V203H1603.22V201.969L1606.2 198.031H1603.31V196.66H1608.39V197.662L1605.38 201.635ZM1611.33 203H1609.63V196.66H1611.33V203ZM1609.53 195.02C1609.53 194.766 1609.61 194.557 1609.78 194.393C1609.95 194.229 1610.19 194.146 1610.48 194.146C1610.77 194.146 1611 194.229 1611.17 194.393C1611.34 194.557 1611.43 194.766 1611.43 195.02C1611.43 195.277 1611.34 195.488 1611.16 195.652C1610.99 195.816 1610.76 195.898 1610.48 195.898C1610.19 195.898 1609.96 195.816 1609.79 195.652C1609.62 195.488 1609.53 195.277 1609.53 195.02ZM1615.65 203.117C1614.72 203.117 1613.96 202.832 1613.37 202.262C1612.79 201.691 1612.5 200.932 1612.5 199.982V199.818C1612.5 199.182 1612.62 198.613 1612.87 198.113C1613.12 197.609 1613.46 197.223 1613.91 196.953C1614.37 196.68 1614.88 196.543 1615.46 196.543C1616.33 196.543 1617.01 196.816 1617.5 197.363C1618 197.91 1618.25 198.686 1618.25 199.689V200.381H1614.22C1614.27 200.795 1614.44 201.127 1614.71 201.377C1614.99 201.627 1615.34 201.752 1615.76 201.752C1616.41 201.752 1616.92 201.516 1617.29 201.043L1618.12 201.975C1617.87 202.334 1617.52 202.615 1617.09 202.818C1616.65 203.018 1616.17 203.117 1615.65 203.117ZM1615.45 197.914C1615.12 197.914 1614.84 198.027 1614.63 198.254C1614.43 198.48 1614.29 198.805 1614.23 199.227H1616.59V199.092C1616.58 198.717 1616.48 198.428 1616.29 198.225C1616.09 198.018 1615.81 197.914 1615.45 197.914ZM1621.86 201.752C1622.17 201.752 1622.42 201.666 1622.62 201.494C1622.81 201.322 1622.92 201.094 1622.92 200.809H1624.51C1624.51 201.238 1624.39 201.633 1624.16 201.992C1623.93 202.348 1623.61 202.625 1623.21 202.824C1622.81 203.02 1622.37 203.117 1621.89 203.117C1620.98 203.117 1620.27 202.83 1619.74 202.256C1619.22 201.678 1618.96 200.881 1618.96 199.865V199.754C1618.96 198.777 1619.22 197.998 1619.74 197.416C1620.26 196.834 1620.97 196.543 1621.88 196.543C1622.67 196.543 1623.3 196.77 1623.78 197.223C1624.26 197.672 1624.5 198.271 1624.51 199.021H1622.92C1622.92 198.693 1622.81 198.428 1622.62 198.225C1622.42 198.018 1622.17 197.914 1621.85 197.914C1621.45 197.914 1621.15 198.059 1620.95 198.348C1620.75 198.633 1620.65 199.098 1620.65 199.742V199.918C1620.65 200.57 1620.75 201.039 1620.95 201.324C1621.15 201.609 1621.45 201.752 1621.86 201.752ZM1627.78 200.457L1627.17 201.066V203H1625.48V194H1627.17V198.986L1627.5 198.564L1629.12 196.66H1631.16L1628.87 199.303L1631.36 203H1629.41L1627.78 200.457ZM1631.62 199.771C1631.62 199.143 1631.75 198.582 1631.99 198.09C1632.23 197.598 1632.58 197.217 1633.03 196.947C1633.49 196.678 1634.02 196.543 1634.62 196.543C1635.47 196.543 1636.17 196.805 1636.71 197.328C1637.25 197.852 1637.56 198.562 1637.62 199.461L1637.63 199.895C1637.63 200.867 1637.36 201.648 1636.82 202.238C1636.27 202.824 1635.54 203.117 1634.63 203.117C1633.72 203.117 1632.99 202.824 1632.44 202.238C1631.9 201.652 1631.62 200.855 1631.62 199.848V199.771ZM1633.32 199.895C1633.32 200.496 1633.43 200.957 1633.66 201.277C1633.88 201.594 1634.21 201.752 1634.63 201.752C1635.04 201.752 1635.36 201.596 1635.59 201.283C1635.82 200.967 1635.94 200.463 1635.94 199.771C1635.94 199.182 1635.82 198.725 1635.59 198.4C1635.36 198.076 1635.04 197.914 1634.62 197.914C1634.21 197.914 1633.88 198.076 1633.66 198.4C1633.43 198.721 1633.32 199.219 1633.32 199.895Z" fill="black"/>
<path id="Slide" d="M1934.19 230.762C1934.19 230.43 1934.07 230.176 1933.83 230C1933.6 229.82 1933.18 229.633 1932.57 229.438C1931.96 229.238 1931.48 229.043 1931.12 228.852C1930.15 228.328 1929.67 227.623 1929.67 226.736C1929.67 226.275 1929.8 225.865 1930.05 225.506C1930.32 225.143 1930.69 224.859 1931.17 224.656C1931.66 224.453 1932.21 224.352 1932.81 224.352C1933.42 224.352 1933.97 224.463 1934.44 224.686C1934.92 224.904 1935.29 225.215 1935.55 225.617C1935.82 226.02 1935.95 226.477 1935.95 226.988H1934.19C1934.19 226.598 1934.07 226.295 1933.82 226.08C1933.58 225.861 1933.23 225.752 1932.79 225.752C1932.36 225.752 1932.02 225.844 1931.78 226.027C1931.54 226.207 1931.43 226.445 1931.43 226.742C1931.43 227.02 1931.56 227.252 1931.84 227.439C1932.12 227.627 1932.54 227.803 1933.08 227.967C1934.08 228.268 1934.81 228.641 1935.26 229.086C1935.72 229.531 1935.95 230.086 1935.95 230.75C1935.95 231.488 1935.67 232.068 1935.11 232.49C1934.55 232.908 1933.8 233.117 1932.86 233.117C1932.2 233.117 1931.6 232.998 1931.06 232.76C1930.52 232.518 1930.11 232.188 1929.83 231.77C1929.54 231.352 1929.4 230.867 1929.4 230.316H1931.17C1931.17 231.258 1931.73 231.729 1932.86 231.729C1933.27 231.729 1933.6 231.645 1933.83 231.477C1934.07 231.305 1934.19 231.066 1934.19 230.762ZM1938.82 233H1937.12V224H1938.82V233ZM1942.01 233H1940.31V226.66H1942.01V233ZM1940.21 225.02C1940.21 224.766 1940.29 224.557 1940.46 224.393C1940.63 224.229 1940.87 224.146 1941.16 224.146C1941.45 224.146 1941.68 224.229 1941.85 224.393C1942.02 224.557 1942.11 224.766 1942.11 225.02C1942.11 225.277 1942.02 225.488 1941.84 225.652C1941.67 225.816 1941.44 225.898 1941.16 225.898C1940.87 225.898 1940.64 225.816 1940.47 225.652C1940.29 225.488 1940.21 225.277 1940.21 225.02ZM1943.14 229.783C1943.14 228.795 1943.37 228.008 1943.81 227.422C1944.25 226.836 1944.86 226.543 1945.63 226.543C1946.25 226.543 1946.76 226.773 1947.16 227.234V224H1948.86V233H1947.33L1947.25 232.326C1946.82 232.854 1946.28 233.117 1945.62 233.117C1944.87 233.117 1944.27 232.824 1943.82 232.238C1943.37 231.648 1943.14 230.83 1943.14 229.783ZM1944.84 229.906C1944.84 230.5 1944.94 230.955 1945.15 231.271C1945.36 231.588 1945.66 231.746 1946.05 231.746C1946.57 231.746 1946.94 231.525 1947.16 231.084V228.582C1946.95 228.141 1946.58 227.92 1946.06 227.92C1945.25 227.92 1944.84 228.582 1944.84 229.906ZM1953.09 233.117C1952.16 233.117 1951.4 232.832 1950.81 232.262C1950.23 231.691 1949.94 230.932 1949.94 229.982V229.818C1949.94 229.182 1950.06 228.613 1950.31 228.113C1950.56 227.609 1950.9 227.223 1951.35 226.953C1951.81 226.68 1952.32 226.543 1952.9 226.543C1953.77 226.543 1954.45 226.816 1954.95 227.363C1955.45 227.91 1955.7 228.686 1955.7 229.689V230.381H1951.66C1951.71 230.795 1951.88 231.127 1952.15 231.377C1952.43 231.627 1952.78 231.752 1953.2 231.752C1953.85 231.752 1954.36 231.516 1954.73 231.043L1955.56 231.975C1955.31 232.334 1954.96 232.615 1954.53 232.818C1954.1 233.018 1953.62 233.117 1953.09 233.117ZM1952.89 227.914C1952.56 227.914 1952.29 228.027 1952.07 228.254C1951.87 228.48 1951.73 228.805 1951.68 229.227H1954.03V229.092C1954.02 228.717 1953.92 228.428 1953.73 228.225C1953.53 228.018 1953.25 227.914 1952.89 227.914Z" fill="black"/>
<path id="Events" d="M1934.89 274.303H1931.52V276.588H1935.48V278H1929.76V269.469H1935.47V270.893H1931.52V272.926H1934.89V274.303ZM1938.62 275.932L1939.8 271.66H1941.57L1939.43 278H1937.81L1935.67 271.66H1937.44L1938.62 275.932ZM1945.15 278.117C1944.22 278.117 1943.47 277.832 1942.88 277.262C1942.3 276.691 1942.01 275.932 1942.01 274.982V274.818C1942.01 274.182 1942.13 273.613 1942.38 273.113C1942.62 272.609 1942.97 272.223 1943.42 271.953C1943.87 271.68 1944.39 271.543 1944.97 271.543C1945.83 271.543 1946.52 271.816 1947.01 272.363C1947.51 272.91 1947.76 273.686 1947.76 274.689V275.381H1943.72C1943.78 275.795 1943.94 276.127 1944.22 276.377C1944.49 276.627 1944.84 276.752 1945.27 276.752C1945.92 276.752 1946.43 276.516 1946.79 276.043L1947.63 276.975C1947.37 277.334 1947.03 277.615 1946.6 277.818C1946.16 278.018 1945.68 278.117 1945.15 278.117ZM1944.96 272.914C1944.62 272.914 1944.35 273.027 1944.14 273.254C1943.93 273.48 1943.8 273.805 1943.74 274.227H1946.1V274.092C1946.09 273.717 1945.99 273.428 1945.79 273.225C1945.6 273.018 1945.32 272.914 1944.96 272.914ZM1950.29 271.66L1950.34 272.393C1950.79 271.826 1951.4 271.543 1952.16 271.543C1952.83 271.543 1953.33 271.74 1953.66 272.135C1953.99 272.529 1954.16 273.119 1954.17 273.904V278H1952.47V273.945C1952.47 273.586 1952.39 273.326 1952.24 273.166C1952.08 273.002 1951.82 272.92 1951.46 272.92C1950.98 272.92 1950.62 273.123 1950.39 273.529V278H1948.69V271.66H1950.29ZM1957.48 270.102V271.66H1958.57V272.902H1957.48V276.066C1957.48 276.301 1957.53 276.469 1957.62 276.57C1957.71 276.672 1957.88 276.723 1958.13 276.723C1958.32 276.723 1958.49 276.709 1958.63 276.682V277.965C1958.3 278.066 1957.96 278.117 1957.61 278.117C1956.42 278.117 1955.81 277.518 1955.79 276.318V272.902H1954.86V271.66H1955.79V270.102H1957.48ZM1962.94 276.248C1962.94 276.041 1962.84 275.879 1962.63 275.762C1962.43 275.641 1962.1 275.533 1961.65 275.439C1960.14 275.123 1959.39 274.482 1959.39 273.518C1959.39 272.955 1959.62 272.486 1960.08 272.111C1960.55 271.732 1961.16 271.543 1961.92 271.543C1962.72 271.543 1963.37 271.732 1963.85 272.111C1964.33 272.49 1964.57 272.982 1964.57 273.588H1962.88C1962.88 273.346 1962.8 273.146 1962.64 272.99C1962.49 272.83 1962.24 272.75 1961.91 272.75C1961.63 272.75 1961.41 272.814 1961.25 272.943C1961.09 273.072 1961.02 273.236 1961.02 273.436C1961.02 273.623 1961.1 273.775 1961.28 273.893C1961.46 274.006 1961.76 274.105 1962.18 274.191C1962.6 274.273 1962.96 274.367 1963.25 274.473C1964.14 274.801 1964.59 275.369 1964.59 276.178C1964.59 276.756 1964.34 277.225 1963.85 277.584C1963.35 277.939 1962.71 278.117 1961.92 278.117C1961.39 278.117 1960.92 278.023 1960.51 277.836C1960.1 277.645 1959.77 277.385 1959.54 277.057C1959.3 276.725 1959.19 276.367 1959.19 275.984H1960.79C1960.81 276.285 1960.92 276.516 1961.13 276.676C1961.33 276.836 1961.61 276.916 1961.96 276.916C1962.28 276.916 1962.53 276.855 1962.69 276.734C1962.86 276.609 1962.94 276.447 1962.94 276.248Z" fill="black"/>
<g id="zoom_out_map-black-18dp 1">
<g id="Group">
<g id="Group_2">
<g id="Group_3">
<path id="Vector" d="M1954.25 307.25L1955.97 308.975L1953.81 311.128L1954.87 312.193L1957.03 310.025L1958.75 311.75V307.25H1954.25ZM1945.25 311.75L1946.98 310.025L1949.13 312.193L1950.19 311.128L1948.02 308.975L1949.75 307.25H1945.25V311.75ZM1949.75 320.75L1948.02 319.025L1950.19 316.872L1949.13 315.807L1946.98 317.975L1945.25 316.25V320.75H1949.75ZM1958.75 316.25L1957.03 317.975L1954.87 315.807L1953.81 316.872L1955.97 319.025L1954.25 320.75H1958.75V316.25Z" fill="black"/>
</g>
</g>
</g>
</g>
<path id="pierwszy slajd" d="M2016.18 229.9C2016.18 230.865 2015.96 231.643 2015.51 232.232C2015.07 232.822 2014.47 233.117 2013.72 233.117C2012.95 233.117 2012.35 232.873 2011.9 232.385V235.438H2010.82V226.66H2011.81L2011.86 227.363C2012.3 226.816 2012.92 226.543 2013.7 226.543C2014.46 226.543 2015.07 226.83 2015.51 227.404C2015.95 227.979 2016.18 228.777 2016.18 229.801V229.9ZM2015.09 229.777C2015.09 229.062 2014.94 228.498 2014.63 228.084C2014.33 227.67 2013.91 227.463 2013.38 227.463C2012.72 227.463 2012.23 227.754 2011.9 228.336V231.365C2012.23 231.943 2012.72 232.232 2013.39 232.232C2013.91 232.232 2014.32 232.027 2014.63 231.617C2014.94 231.203 2015.09 230.59 2015.09 229.777ZM2018.74 233H2017.65V226.66H2018.74V233ZM2017.56 224.979C2017.56 224.803 2017.62 224.654 2017.72 224.533C2017.83 224.412 2017.99 224.352 2018.2 224.352C2018.41 224.352 2018.57 224.412 2018.68 224.533C2018.79 224.654 2018.85 224.803 2018.85 224.979C2018.85 225.154 2018.79 225.301 2018.68 225.418C2018.57 225.535 2018.41 225.594 2018.2 225.594C2017.99 225.594 2017.83 225.535 2017.72 225.418C2017.62 225.301 2017.56 225.154 2017.56 224.979ZM2023.11 233.117C2022.25 233.117 2021.55 232.836 2021.01 232.273C2020.47 231.707 2020.2 230.951 2020.2 230.006V229.807C2020.2 229.178 2020.32 228.617 2020.56 228.125C2020.8 227.629 2021.14 227.242 2021.57 226.965C2022 226.684 2022.47 226.543 2022.97 226.543C2023.8 226.543 2024.44 226.814 2024.89 227.357C2025.35 227.9 2025.58 228.678 2025.58 229.689V230.141H2021.29C2021.3 230.766 2021.48 231.271 2021.83 231.658C2022.18 232.041 2022.63 232.232 2023.17 232.232C2023.55 232.232 2023.87 232.154 2024.14 231.998C2024.4 231.842 2024.64 231.635 2024.84 231.377L2025.5 231.893C2024.97 232.709 2024.17 233.117 2023.11 233.117ZM2022.97 227.434C2022.54 227.434 2022.17 227.594 2021.87 227.914C2021.57 228.23 2021.39 228.676 2021.32 229.25H2024.5V229.168C2024.46 228.617 2024.32 228.191 2024.05 227.891C2023.79 227.586 2023.43 227.434 2022.97 227.434ZM2029.9 227.633C2029.74 227.605 2029.56 227.592 2029.37 227.592C2028.66 227.592 2028.18 227.895 2027.92 228.5V233H2026.84V226.66H2027.89L2027.91 227.393C2028.27 226.826 2028.77 226.543 2029.42 226.543C2029.63 226.543 2029.79 226.57 2029.9 226.625V227.633ZM2036.62 231.506L2037.84 226.66H2038.93L2037.08 233H2036.2L2034.66 228.195L2033.16 233H2032.28L2030.44 226.66H2031.52L2032.77 231.406L2034.25 226.66H2035.12L2036.62 231.506ZM2043.73 231.318C2043.73 231.025 2043.62 230.799 2043.39 230.639C2043.17 230.475 2042.79 230.334 2042.24 230.217C2041.69 230.1 2041.26 229.959 2040.93 229.795C2040.61 229.631 2040.37 229.436 2040.22 229.209C2040.06 228.982 2039.99 228.713 2039.99 228.4C2039.99 227.881 2040.21 227.441 2040.64 227.082C2041.09 226.723 2041.65 226.543 2042.33 226.543C2043.05 226.543 2043.63 226.729 2044.08 227.1C2044.53 227.471 2044.75 227.945 2044.75 228.523H2043.66C2043.66 228.227 2043.54 227.971 2043.28 227.756C2043.03 227.541 2042.71 227.434 2042.33 227.434C2041.94 227.434 2041.63 227.52 2041.41 227.691C2041.18 227.863 2041.07 228.088 2041.07 228.365C2041.07 228.627 2041.18 228.824 2041.38 228.957C2041.59 229.09 2041.96 229.217 2042.5 229.338C2043.04 229.459 2043.48 229.604 2043.82 229.771C2044.16 229.939 2044.4 230.143 2044.56 230.381C2044.73 230.615 2044.81 230.902 2044.81 231.242C2044.81 231.809 2044.58 232.264 2044.13 232.607C2043.68 232.947 2043.09 233.117 2042.37 233.117C2041.86 233.117 2041.41 233.027 2041.02 232.848C2040.63 232.668 2040.32 232.418 2040.1 232.098C2039.88 231.773 2039.77 231.424 2039.77 231.049H2040.86C2040.88 231.412 2041.02 231.701 2041.29 231.916C2041.56 232.127 2041.92 232.232 2042.37 232.232C2042.78 232.232 2043.11 232.15 2043.35 231.986C2043.6 231.818 2043.73 231.596 2043.73 231.318ZM2047.24 232.115H2050.95V233H2045.92V232.203L2049.42 227.557H2045.97V226.66H2050.78V227.428L2047.24 232.115ZM2054.25 231.412L2055.73 226.66H2056.89L2054.34 233.979C2053.94 235.033 2053.32 235.561 2052.46 235.561L2052.25 235.543L2051.85 235.467V234.588L2052.14 234.611C2052.51 234.611 2052.79 234.537 2053 234.389C2053.2 234.24 2053.37 233.969 2053.51 233.574L2053.75 232.93L2051.48 226.66H2052.67L2054.25 231.412ZM2064.53 231.318C2064.53 231.025 2064.42 230.799 2064.19 230.639C2063.97 230.475 2063.59 230.334 2063.04 230.217C2062.49 230.1 2062.06 229.959 2061.73 229.795C2061.41 229.631 2061.17 229.436 2061.02 229.209C2060.87 228.982 2060.79 228.713 2060.79 228.4C2060.79 227.881 2061.01 227.441 2061.45 227.082C2061.89 226.723 2062.45 226.543 2063.13 226.543C2063.85 226.543 2064.43 226.729 2064.88 227.1C2065.33 227.471 2065.55 227.945 2065.55 228.523H2064.46C2064.46 228.227 2064.34 227.971 2064.08 227.756C2063.83 227.541 2063.52 227.434 2063.13 227.434C2062.74 227.434 2062.43 227.52 2062.21 227.691C2061.98 227.863 2061.87 228.088 2061.87 228.365C2061.87 228.627 2061.98 228.824 2062.18 228.957C2062.39 229.09 2062.76 229.217 2063.3 229.338C2063.85 229.459 2064.29 229.604 2064.62 229.771C2064.96 229.939 2065.21 230.143 2065.37 230.381C2065.53 230.615 2065.61 230.902 2065.61 231.242C2065.61 231.809 2065.38 232.264 2064.93 232.607C2064.48 232.947 2063.89 233.117 2063.17 233.117C2062.66 233.117 2062.21 233.027 2061.82 232.848C2061.43 232.668 2061.12 232.418 2060.9 232.098C2060.68 231.773 2060.57 231.424 2060.57 231.049H2061.66C2061.68 231.412 2061.82 231.701 2062.09 231.916C2062.36 232.127 2062.72 232.232 2063.17 232.232C2063.58 232.232 2063.91 232.15 2064.15 231.986C2064.4 231.818 2064.53 231.596 2064.53 231.318ZM2068.2 233H2067.12V224H2068.2V233ZM2073.86 233C2073.79 232.875 2073.74 232.652 2073.7 232.332C2073.2 232.855 2072.6 233.117 2071.9 233.117C2071.27 233.117 2070.76 232.941 2070.36 232.59C2069.96 232.234 2069.76 231.785 2069.76 231.242C2069.76 230.582 2070.01 230.07 2070.51 229.707C2071.01 229.34 2071.72 229.156 2072.63 229.156H2073.69V228.658C2073.69 228.279 2073.57 227.979 2073.35 227.756C2073.12 227.529 2072.79 227.416 2072.34 227.416C2071.96 227.416 2071.63 227.514 2071.37 227.709C2071.11 227.904 2070.98 228.141 2070.98 228.418H2069.89C2069.89 228.102 2070 227.797 2070.22 227.504C2070.45 227.207 2070.75 226.973 2071.14 226.801C2071.52 226.629 2071.95 226.543 2072.41 226.543C2073.14 226.543 2073.71 226.727 2074.12 227.094C2074.54 227.457 2074.75 227.959 2074.77 228.6V231.518C2074.77 232.1 2074.84 232.562 2074.99 232.906V233H2073.86ZM2072.06 232.174C2072.4 232.174 2072.72 232.086 2073.02 231.91C2073.33 231.734 2073.55 231.506 2073.69 231.225V229.924H2072.84C2071.51 229.924 2070.84 230.312 2070.84 231.09C2070.84 231.43 2070.96 231.695 2071.18 231.887C2071.41 232.078 2071.7 232.174 2072.06 232.174ZM2077.59 226.66V233.732C2077.59 234.951 2077.04 235.561 2075.93 235.561C2075.69 235.561 2075.47 235.525 2075.27 235.455V234.588C2075.39 234.619 2075.56 234.635 2075.76 234.635C2076 234.635 2076.19 234.568 2076.31 234.436C2076.44 234.307 2076.5 234.08 2076.5 233.756V226.66H2077.59ZM2076.39 224.979C2076.39 224.807 2076.45 224.66 2076.55 224.539C2076.66 224.414 2076.82 224.352 2077.03 224.352C2077.24 224.352 2077.4 224.412 2077.51 224.533C2077.62 224.654 2077.67 224.803 2077.67 224.979C2077.67 225.154 2077.62 225.301 2077.51 225.418C2077.4 225.535 2077.24 225.594 2077.03 225.594C2076.81 225.594 2076.66 225.535 2076.55 225.418C2076.45 225.301 2076.39 225.154 2076.39 224.979ZM2079.08 229.777C2079.08 228.805 2079.31 228.023 2079.77 227.434C2080.23 226.84 2080.83 226.543 2081.58 226.543C2082.32 226.543 2082.91 226.797 2083.34 227.305V224H2084.43V233H2083.43L2083.38 232.32C2082.94 232.852 2082.34 233.117 2081.57 233.117C2080.83 233.117 2080.23 232.816 2079.77 232.215C2079.31 231.613 2079.08 230.828 2079.08 229.859V229.777ZM2080.16 229.9C2080.16 230.619 2080.31 231.182 2080.61 231.588C2080.9 231.994 2081.31 232.197 2081.84 232.197C2082.52 232.197 2083.03 231.889 2083.34 231.271V228.359C2083.02 227.762 2082.52 227.463 2081.85 227.463C2081.32 227.463 2080.9 227.668 2080.61 228.078C2080.31 228.488 2080.16 229.096 2080.16 229.9Z" fill="black"/>
<path id="first child" d="M1974.18 318V312.498H1973.18V311.66H1974.18V311.121C1974.18 310.414 1974.38 309.863 1974.79 309.469C1975.19 309.074 1975.77 308.877 1976.5 308.877C1976.94 308.877 1977.49 308.996 1978.16 309.234L1977.98 310.148C1977.49 309.953 1977.03 309.855 1976.59 309.855C1976.12 309.855 1975.79 309.961 1975.58 310.172C1975.38 310.379 1975.27 310.691 1975.27 311.109V311.66H1976.57V312.498H1975.27V318H1974.18ZM1978.7 318H1977.61V311.66H1978.7V318ZM1983.53 312.633C1983.37 312.605 1983.19 312.592 1983 312.592C1982.29 312.592 1981.8 312.895 1981.55 313.5V318H1980.46V311.66H1981.52L1981.54 312.393C1981.89 311.826 1982.4 311.543 1983.05 311.543C1983.26 311.543 1983.42 311.57 1983.53 311.625V312.633ZM1988.22 316.318C1988.22 316.025 1988.11 315.799 1987.89 315.639C1987.67 315.475 1987.29 315.334 1986.73 315.217C1986.19 315.1 1985.75 314.959 1985.43 314.795C1985.11 314.631 1984.87 314.436 1984.71 314.209C1984.56 313.982 1984.48 313.713 1984.48 313.4C1984.48 312.881 1984.7 312.441 1985.14 312.082C1985.58 311.723 1986.14 311.543 1986.83 311.543C1987.55 311.543 1988.13 311.729 1988.57 312.1C1989.02 312.471 1989.25 312.945 1989.25 313.523H1988.16C1988.16 313.227 1988.03 312.971 1987.78 312.756C1987.53 312.541 1987.21 312.434 1986.83 312.434C1986.43 312.434 1986.12 312.52 1985.9 312.691C1985.68 312.863 1985.57 313.088 1985.57 313.365C1985.57 313.627 1985.67 313.824 1985.88 313.957C1986.09 314.09 1986.46 314.217 1987 314.338C1987.54 314.459 1987.98 314.604 1988.32 314.771C1988.65 314.939 1988.9 315.143 1989.06 315.381C1989.22 315.615 1989.31 315.902 1989.31 316.242C1989.31 316.809 1989.08 317.264 1988.63 317.607C1988.17 317.947 1987.59 318.117 1986.86 318.117C1986.36 318.117 1985.91 318.027 1985.52 317.848C1985.12 317.668 1984.82 317.418 1984.6 317.098C1984.38 316.773 1984.27 316.424 1984.27 316.049H1985.35C1985.37 316.412 1985.52 316.701 1985.79 316.916C1986.06 317.127 1986.42 317.232 1986.86 317.232C1987.27 317.232 1987.6 317.15 1987.85 316.986C1988.1 316.818 1988.22 316.596 1988.22 316.318ZM1992.19 310.125V311.66H1993.37V312.498H1992.19V316.43C1992.19 316.684 1992.24 316.875 1992.35 317.004C1992.45 317.129 1992.63 317.191 1992.89 317.191C1993.01 317.191 1993.18 317.168 1993.4 317.121V318C1993.12 318.078 1992.84 318.117 1992.57 318.117C1992.09 318.117 1991.72 317.971 1991.47 317.678C1991.23 317.385 1991.11 316.969 1991.11 316.43V312.498H1989.95V311.66H1991.11V310.125H1992.19ZM2000.16 317.232C2000.55 317.232 2000.89 317.115 2001.18 316.881C2001.47 316.646 2001.63 316.354 2001.66 316.002H2002.68C2002.66 316.365 2002.54 316.711 2002.31 317.039C2002.08 317.367 2001.77 317.629 2001.38 317.824C2001 318.02 2000.59 318.117 2000.16 318.117C1999.3 318.117 1998.61 317.83 1998.1 317.256C1997.59 316.678 1997.34 315.889 1997.34 314.889V314.707C1997.34 314.09 1997.45 313.541 1997.68 313.061C1997.91 312.58 1998.23 312.207 1998.65 311.941C1999.08 311.676 1999.58 311.543 2000.16 311.543C2000.87 311.543 2001.46 311.756 2001.93 312.182C2002.4 312.607 2002.65 313.16 2002.68 313.84H2001.66C2001.63 313.43 2001.47 313.094 2001.19 312.832C2000.91 312.566 2000.57 312.434 2000.16 312.434C1999.61 312.434 1999.18 312.633 1998.88 313.031C1998.57 313.426 1998.42 313.998 1998.42 314.748V314.953C1998.42 315.684 1998.57 316.246 1998.88 316.641C1999.18 317.035 1999.61 317.232 2000.16 317.232ZM2004.99 312.428C2005.47 311.838 2006.09 311.543 2006.86 311.543C2008.2 311.543 2008.88 312.299 2008.89 313.811V318H2007.8V313.805C2007.8 313.348 2007.7 313.01 2007.49 312.791C2007.29 312.572 2006.97 312.463 2006.53 312.463C2006.18 312.463 2005.87 312.557 2005.61 312.744C2005.34 312.932 2005.13 313.178 2004.99 313.482V318H2003.9V309H2004.99V312.428ZM2011.69 318H2010.61V311.66H2011.69V318ZM2010.52 309.979C2010.52 309.803 2010.57 309.654 2010.68 309.533C2010.79 309.412 2010.95 309.352 2011.16 309.352C2011.37 309.352 2011.53 309.412 2011.64 309.533C2011.75 309.654 2011.8 309.803 2011.8 309.979C2011.8 310.154 2011.75 310.301 2011.64 310.418C2011.53 310.535 2011.37 310.594 2011.16 310.594C2010.95 310.594 2010.79 310.535 2010.68 310.418C2010.57 310.301 2010.52 310.154 2010.52 309.979ZM2014.61 318H2013.52V309H2014.61V318ZM2016.08 314.777C2016.08 313.805 2016.31 313.023 2016.78 312.434C2017.24 311.84 2017.84 311.543 2018.59 311.543C2019.33 311.543 2019.92 311.797 2020.35 312.305V309H2021.43V318H2020.44L2020.38 317.32C2019.95 317.852 2019.35 318.117 2018.57 318.117C2017.84 318.117 2017.24 317.816 2016.78 317.215C2016.31 316.613 2016.08 315.828 2016.08 314.859V314.777ZM2017.17 314.9C2017.17 315.619 2017.32 316.182 2017.61 316.588C2017.91 316.994 2018.32 317.197 2018.84 317.197C2019.53 317.197 2020.03 316.889 2020.35 316.271V313.359C2020.03 312.762 2019.53 312.463 2018.86 312.463C2018.32 312.463 2017.91 312.668 2017.61 313.078C2017.32 313.488 2017.17 314.096 2017.17 314.9Z" fill="black"/>
<path id="child" d="M1976.36 353.232C1976.75 353.232 1977.09 353.115 1977.38 352.881C1977.67 352.646 1977.83 352.354 1977.86 352.002H1978.88C1978.86 352.365 1978.74 352.711 1978.51 353.039C1978.28 353.367 1977.97 353.629 1977.58 353.824C1977.2 354.02 1976.79 354.117 1976.36 354.117C1975.5 354.117 1974.81 353.83 1974.3 353.256C1973.79 352.678 1973.54 351.889 1973.54 350.889V350.707C1973.54 350.09 1973.65 349.541 1973.88 349.061C1974.11 348.58 1974.43 348.207 1974.85 347.941C1975.28 347.676 1975.78 347.543 1976.36 347.543C1977.07 347.543 1977.66 347.756 1978.13 348.182C1978.6 348.607 1978.85 349.16 1978.88 349.84H1977.86C1977.83 349.43 1977.67 349.094 1977.39 348.832C1977.11 348.566 1976.77 348.434 1976.36 348.434C1975.81 348.434 1975.38 348.633 1975.07 349.031C1974.77 349.426 1974.62 349.998 1974.62 350.748V350.953C1974.62 351.684 1974.77 352.246 1975.07 352.641C1975.38 353.035 1975.8 353.232 1976.36 353.232ZM1981.19 348.428C1981.67 347.838 1982.29 347.543 1983.06 347.543C1984.4 347.543 1985.08 348.299 1985.09 349.811V354H1984V349.805C1984 349.348 1983.89 349.01 1983.69 348.791C1983.48 348.572 1983.17 348.463 1982.73 348.463C1982.38 348.463 1982.07 348.557 1981.81 348.744C1981.54 348.932 1981.33 349.178 1981.19 349.482V354H1980.1V345H1981.19V348.428ZM1987.89 354H1986.8V347.66H1987.89V354ZM1986.72 345.979C1986.72 345.803 1986.77 345.654 1986.88 345.533C1986.98 345.412 1987.14 345.352 1987.36 345.352C1987.57 345.352 1987.73 345.412 1987.84 345.533C1987.95 345.654 1988 345.803 1988 345.979C1988 346.154 1987.95 346.301 1987.84 346.418C1987.73 346.535 1987.57 346.594 1987.36 346.594C1987.14 346.594 1986.98 346.535 1986.88 346.418C1986.77 346.301 1986.72 346.154 1986.72 345.979ZM1990.81 354H1989.72V345H1990.81V354ZM1992.28 350.777C1992.28 349.805 1992.51 349.023 1992.97 348.434C1993.44 347.84 1994.04 347.543 1994.79 347.543C1995.53 347.543 1996.12 347.797 1996.55 348.305V345H1997.63V354H1996.64L1996.58 353.32C1996.15 353.852 1995.55 354.117 1994.77 354.117C1994.04 354.117 1993.44 353.816 1992.97 353.215C1992.51 352.613 1992.28 351.828 1992.28 350.859V350.777ZM1993.37 350.9C1993.37 351.619 1993.52 352.182 1993.81 352.588C1994.11 352.994 1994.52 353.197 1995.04 353.197C1995.73 353.197 1996.23 352.889 1996.55 352.271V349.359C1996.22 348.762 1995.73 348.463 1995.05 348.463C1994.52 348.463 1994.11 348.668 1993.81 349.078C1993.52 349.488 1993.37 350.096 1993.37 350.9Z" fill="black"/>
<path id="child_2" d="M1976.36 387.232C1976.75 387.232 1977.09 387.115 1977.38 386.881C1977.67 386.646 1977.83 386.354 1977.86 386.002H1978.88C1978.86 386.365 1978.74 386.711 1978.51 387.039C1978.28 387.367 1977.97 387.629 1977.58 387.824C1977.2 388.02 1976.79 388.117 1976.36 388.117C1975.5 388.117 1974.81 387.83 1974.3 387.256C1973.79 386.678 1973.54 385.889 1973.54 384.889V384.707C1973.54 384.09 1973.65 383.541 1973.88 383.061C1974.11 382.58 1974.43 382.207 1974.85 381.941C1975.28 381.676 1975.78 381.543 1976.36 381.543C1977.07 381.543 1977.66 381.756 1978.13 382.182C1978.6 382.607 1978.85 383.16 1978.88 383.84H1977.86C1977.83 383.43 1977.67 383.094 1977.39 382.832C1977.11 382.566 1976.77 382.434 1976.36 382.434C1975.81 382.434 1975.38 382.633 1975.07 383.031C1974.77 383.426 1974.62 383.998 1974.62 384.748V384.953C1974.62 385.684 1974.77 386.246 1975.07 386.641C1975.38 387.035 1975.8 387.232 1976.36 387.232ZM1981.19 382.428C1981.67 381.838 1982.29 381.543 1983.06 381.543C1984.4 381.543 1985.08 382.299 1985.09 383.811V388H1984V383.805C1984 383.348 1983.89 383.01 1983.69 382.791C1983.48 382.572 1983.17 382.463 1982.73 382.463C1982.38 382.463 1982.07 382.557 1981.81 382.744C1981.54 382.932 1981.33 383.178 1981.19 383.482V388H1980.1V379H1981.19V382.428ZM1987.89 388H1986.8V381.66H1987.89V388ZM1986.72 379.979C1986.72 379.803 1986.77 379.654 1986.88 379.533C1986.98 379.412 1987.14 379.352 1987.36 379.352C1987.57 379.352 1987.73 379.412 1987.84 379.533C1987.95 379.654 1988 379.803 1988 379.979C1988 380.154 1987.95 380.301 1987.84 380.418C1987.73 380.535 1987.57 380.594 1987.36 380.594C1987.14 380.594 1986.98 380.535 1986.88 380.418C1986.77 380.301 1986.72 380.154 1986.72 379.979ZM1990.81 388H1989.72V379H1990.81V388ZM1992.28 384.777C1992.28 383.805 1992.51 383.023 1992.97 382.434C1993.44 381.84 1994.04 381.543 1994.79 381.543C1995.53 381.543 1996.12 381.797 1996.55 382.305V379H1997.63V388H1996.64L1996.58 387.32C1996.15 387.852 1995.55 388.117 1994.77 388.117C1994.04 388.117 1993.44 387.816 1992.97 387.215C1992.51 386.613 1992.28 385.828 1992.28 384.859V384.777ZM1993.37 384.9C1993.37 385.619 1993.52 386.182 1993.81 386.588C1994.11 386.994 1994.52 387.197 1995.04 387.197C1995.73 387.197 1996.23 386.889 1996.55 386.271V383.359C1996.22 382.762 1995.73 382.463 1995.05 382.463C1994.52 382.463 1994.11 382.668 1993.81 383.078C1993.52 383.488 1993.37 384.096 1993.37 384.9Z" fill="black"/>
<g id="visibility-black-18dp 1">
<path id="Vector_2" d="M1952 342.375C1948.25 342.375 1945.05 344.707 1943.75 348C1945.05 351.292 1948.25 353.625 1952 353.625C1955.75 353.625 1958.95 351.292 1960.25 348C1958.95 344.707 1955.75 342.375 1952 342.375ZM1952 351.75C1949.93 351.75 1948.25 350.07 1948.25 348C1948.25 345.93 1949.93 344.25 1952 344.25C1954.07 344.25 1955.75 345.93 1955.75 348C1955.75 350.07 1954.07 351.75 1952 351.75ZM1952 345.75C1950.76 345.75 1949.75 346.755 1949.75 348C1949.75 349.245 1950.76 350.25 1952 350.25C1953.24 350.25 1954.25 349.245 1954.25 348C1954.25 346.755 1953.24 345.75 1952 345.75Z" fill="black"/>
</g>
<g id="Group 1">
<g id="close-black-18dp 1">
<path id="Vector_3" d="M2151.25 309.807L2150.19 308.75L2146 312.943L2141.81 308.75L2140.75 309.807L2144.94 314L2140.75 318.193L2141.81 319.25L2146 315.057L2150.19 319.25L2151.25 318.193L2147.06 314L2151.25 309.807Z" fill="black"/>
</g>
<g id="arrow_upward-black-18dp 1">
<path id="Vector_4" d="M2122 314L2123.06 315.057L2127.25 310.872V320H2128.75V310.872L2132.93 315.065L2134 314L2128 308L2122 314Z" fill="black"/>
</g>
<g id="arrow_downward-black-18dp 1">
<path id="Vector_5" d="M2115 314L2113.94 312.943L2109.75 317.128V308H2108.25V317.128L2104.07 312.935L2103 314L2109 320L2115 314Z" fill="black"/>
</g>
</g>
<g id="Group 2">
<g id="close-black-18dp 1_2">
<path id="Vector_6" d="M2151.25 343.807L2150.19 342.75L2146 346.943L2141.81 342.75L2140.75 343.807L2144.94 348L2140.75 352.193L2141.81 353.25L2146 349.057L2150.19 353.25L2151.25 352.193L2147.06 348L2151.25 343.807Z" fill="black"/>
</g>
<g id="arrow_upward-black-18dp 1_2">
<path id="Vector_7" d="M2122 348L2123.06 349.057L2127.25 344.872V354H2128.75V344.872L2132.93 349.065L2134 348L2128 342L2122 348Z" fill="black"/>
</g>
<g id="arrow_downward-black-18dp 1_2">
<path id="Vector_8" d="M2115 348L2113.94 346.943L2109.75 351.128V342H2108.25V351.128L2104.07 346.935L2103 348L2109 354L2115 348Z" fill="black"/>
</g>
</g>
<g id="Group 3">
<g id="close-black-18dp 1_3">
<path id="Vector_9" d="M2151.25 377.807L2150.19 376.75L2146 380.943L2141.81 376.75L2140.75 377.807L2144.94 382L2140.75 386.193L2141.81 387.25L2146 383.057L2150.19 387.25L2151.25 386.193L2147.06 382L2151.25 377.807Z" fill="black"/>
</g>
<g id="arrow_upward-black-18dp 1_3">
<path id="Vector_10" d="M2122 382L2123.06 383.057L2127.25 378.872V388H2128.75V378.872L2132.93 383.065L2134 382L2128 376L2122 382Z" fill="black"/>
</g>
<g id="arrow_downward-black-18dp 1_3">
<path id="Vector_11" d="M2115 382L2113.94 380.943L2109.75 385.128V376H2108.25V385.128L2104.07 380.935L2103 382L2109 388L2115 382Z" fill="black"/>
</g>
</g>
<g id="visibility_off-black-18dp 1">
<path id="Vector_12" d="M1953 378.25C1955.07 378.25 1956.75 379.93 1956.75 382C1956.75 382.488 1956.65 382.945 1956.48 383.372L1958.67 385.562C1959.8 384.618 1960.69 383.395 1961.24 382C1959.94 378.707 1956.74 376.375 1952.99 376.375C1951.94 376.375 1950.94 376.562 1950.01 376.9L1951.63 378.52C1952.05 378.348 1952.51 378.25 1953 378.25ZM1945.5 376.202L1947.21 377.913L1947.55 378.258C1946.31 379.225 1945.33 380.515 1944.75 382C1946.05 385.292 1949.25 387.625 1953 387.625C1954.16 387.625 1955.27 387.4 1956.28 386.995L1956.6 387.31L1958.8 389.5L1959.75 388.547L1946.45 375.25L1945.5 376.202ZM1949.65 380.35L1950.81 381.513C1950.77 381.67 1950.75 381.835 1950.75 382C1950.75 383.245 1951.76 384.25 1953 384.25C1953.16 384.25 1953.33 384.227 1953.49 384.19L1954.65 385.352C1954.15 385.6 1953.59 385.75 1953 385.75C1950.93 385.75 1949.25 384.07 1949.25 382C1949.25 381.407 1949.4 380.852 1949.65 380.35ZM1952.88 379.765L1955.24 382.128L1955.26 382.008C1955.26 380.763 1954.25 379.758 1953.01 379.758L1952.88 379.765Z" fill="black"/>
</g>
<rect id="Rectangle 1" x="1325" y="6" width="32" height="15" fill="#C4C4C4"/>
<rect id="10:55" x="1420" y="100" width="100" height="141.906" fill="#FF0000"/>
</g>
<g id="drugie dziecko" clip-path="url(#clip0)">
<rect width="1280" height="720" transform="translate(2640)" fill="white"/>
<rect id="habzdryg data (do not delete): {&#34;events&#34;:[{&#34;type&#34;:&#34;show&#34;,&#34;id&#34;:&#34;1:10&#34;,&#34;name&#34;:&#34;Prof&#34;},{&#34;type&#34;:&#34;hide&#34;,&#34;id&#34;:&#34;1:10&#34;,&#34;name&#34;:&#34;Prof&#34;}]}" x="2641" y="1" width="1" height="1" fill="#C4C4C4"/>
<path id="Prof" d="M3006.2 262.8C3006.2 331.8 2961.8 360 2930 360H2915C2910.2 360 2907.8 363 2907.8 365.4C2907.8 369 2910.8 372 2918 375C2927.6 378.6 2943.2 379.2 2949.8 379.2C2975.6 379.2 3003.2 366 3018.8 352.8C3036.2 337.8 3060.8 313.2 3060.8 259.8C3060.8 240 3054.8 205.8 3026 178.2C3003.8 157.2 2968.4 142.8 2913.8 142.8C2883.8 142.8 2837.6 147.6 2813.6 147.6C2808.2 147.6 2798 147 2793.8 147.6C2786 148.2 2780 151.2 2780 156C2780 159.6 2786.6 163.2 2798.6 165C2832.2 169.8 2831.6 178.2 2832.2 199.8C2832.8 219 2834 346.2 2834 366C2834 396 2832.8 445.2 2831 474.6C2829.2 499.2 2822.6 511.2 2789 518.4C2783 520.2 2777 523.8 2777 528C2777 533.4 2783.6 536.4 2793.8 536.4C2812.4 536.4 2837 534 2854.4 534C2880.8 534 2902.4 536.4 2917.4 536.4C2926.4 536.4 2937.2 534.6 2937.2 529.2C2937.2 523.8 2932.4 520.8 2921 517.8C2890.4 508.8 2885.6 504 2885 465C2885 450 2883.8 400.2 2883.8 345.6C2884.4 276.6 2884.4 202.2 2885 189.6C2885.6 175.2 2888.6 168 2891 166.2C2895.8 163.2 2901.8 160.8 2908.4 160.8C2964.8 160.8 3006.2 208.2 3006.2 262.8ZM3097.15 322.8C3097.15 325.2 3103.15 327.6 3117.55 339C3124.15 343.2 3124.15 351 3124.15 357V471.6C3123.55 507.6 3121.75 513.6 3098.35 521.4C3093.55 523.2 3086.35 525.6 3086.35 529.2C3086.35 534 3092.35 536.4 3098.95 536.4C3113.35 536.4 3120.55 534 3138.55 534C3173.35 534 3194.35 537 3209.35 537C3218.35 537 3223.75 534.6 3223.75 531.6C3223.75 529.2 3222.55 525 3212.95 522L3185.35 514.8C3174.55 513 3170.95 501.6 3169.75 484.2C3169.15 475.2 3166.15 366.6 3166.15 354.6C3166.15 351.6 3167.95 346.2 3172.15 341.4C3178.15 334.8 3188.35 333 3198.55 333C3210.55 333 3224.95 340.2 3231.55 346.2C3233.35 347.4 3238.75 348.6 3239.95 348C3243.55 346.2 3257.95 330 3264.55 320.4C3266.35 317.4 3268.15 313.2 3268.15 312C3268.15 306.6 3262.75 291.6 3238.15 291.6C3219.55 291.6 3193.15 306.6 3169.75 328.8C3168.55 329.4 3165.55 328.8 3165.55 326.4C3165.55 315 3166.75 304.2 3166.75 293.4C3166.75 291.6 3163.75 286.2 3161.35 286.2C3159.55 286.2 3156.55 288.6 3149.35 293.4C3143.35 297 3124.75 306 3104.95 312.6C3098.35 315 3097.15 321 3097.15 322.8ZM3415.77 291.6C3375.57 291.6 3345.57 308.4 3326.97 324.6C3304.17 343.8 3284.97 372.6 3284.97 418.2C3284.97 448.2 3303.57 489 3329.37 510C3351.57 528.6 3381.57 541.2 3409.17 541.2C3436.17 541.2 3459.57 534.6 3483.57 517.2C3505.77 502.8 3535.77 463.8 3535.77 414C3535.77 338.4 3475.17 291.6 3415.77 291.6ZM3404.37 309.6C3419.97 309.6 3441.57 318.6 3454.77 333C3477.57 359.4 3484.77 393.6 3484.77 424.8C3484.77 450.6 3472.77 487.8 3457.77 504C3440.97 520.8 3427.77 523.8 3421.17 523.8C3392.37 523.8 3358.17 502.2 3343.17 457.2C3338.37 442.2 3335.97 423.6 3335.97 403.8C3335.97 372.6 3349.77 341.4 3365.37 327C3377.97 316.2 3391.77 309.6 3404.37 309.6ZM3659.62 300C3657.82 300 3656.02 297 3656.02 294.6C3656.02 216 3661.42 183.6 3675.82 158.4C3686.62 141 3698.62 133.8 3713.02 133.8C3728.62 133.8 3743.62 142.2 3755.02 152.4C3763.42 160.8 3767.02 164.4 3771.22 164.4C3774.82 164.4 3779.02 163.8 3782.02 162.6C3790.42 159.6 3798.22 145.8 3798.22 137.4C3798.22 130.2 3794.02 121.8 3788.02 117C3778.42 109.2 3762.22 105.6 3749.62 105.6C3726.82 105.6 3705.22 112.2 3681.22 130.2C3654.82 149.4 3639.82 171 3627.22 201C3616.42 226.8 3613.42 254.4 3612.22 290.4C3612.22 293.4 3608.62 297 3604.42 300.6C3590.62 311.4 3575.62 318 3575.02 320.4C3573.22 324.6 3577.42 330.6 3580.42 330.6C3587.02 329.4 3599.62 329.4 3605.62 329.4C3608.02 329.4 3611.62 331.2 3611.62 351.6C3611.62 384 3611.02 456 3610.42 480.6C3609.82 507.6 3609.22 513.6 3583.42 520.8C3576.82 523.2 3570.82 527.4 3570.82 530.4C3570.82 534.6 3577.42 537 3585.82 537C3591.82 537 3624.22 534 3645.82 534C3660.82 534 3688.42 535.2 3695.62 535.2C3702.82 535.2 3711.22 534 3711.22 528C3711.22 525.6 3707.62 520.8 3697.42 519C3663.82 513.6 3659.62 508.2 3657.22 487.2C3656.02 477 3654.22 345.6 3655.42 333.6C3655.42 332.4 3658.42 328.8 3659.62 328.8C3666.22 328.8 3725.62 330.6 3729.82 330.6C3732.82 330.6 3738.82 326.4 3738.82 324.6C3738.82 312 3734.62 299.4 3730.42 299.4C3728.02 299.4 3696.22 300 3659.62 300Z" fill="black"/>
<rect id="1:2" x="2740" y="100" width="100" height="56.25" fill="#FF0000"/>
</g>
<g id="trzecie dziecko">
<rect width="976" height="1385" transform="translate(3960)" fill="white"/>
<rect id="habzdryg data (do not delete): {&#34;events&#34;:[{&#34;type&#34;:&#34;show&#34;,&#34;id&#34;:&#34;227:2&#34;,&#34;name&#34;:&#34;trutu tutu&#34;},{&#34;type&#34;:&#34;show&#34;,&#34;id&#34;:&#34;227:4&#34;,&#34;name&#34;:&#34;pki&#34;}]}" x="3961" y="1" width="1" height="1" fill="#C4C4C4"/>
<path id="trutu tutu" d="M4262.39 159.906V162.849H4264.66V164.455H4262.39V171.99C4262.39 172.477 4262.49 172.844 4262.69 173.091C4262.9 173.33 4263.24 173.45 4263.73 173.45C4263.97 173.45 4264.3 173.405 4264.72 173.315V175C4264.17 175.15 4263.64 175.225 4263.12 175.225C4262.19 175.225 4261.49 174.944 4261.02 174.382C4260.55 173.821 4260.31 173.023 4260.31 171.99V164.455H4258.1V162.849H4260.31V159.906H4262.39ZM4272.97 164.713C4272.66 164.66 4272.32 164.634 4271.95 164.634C4270.59 164.634 4269.66 165.215 4269.17 166.375V175H4267.1V162.849H4269.12L4269.15 164.252C4269.83 163.167 4270.8 162.624 4272.05 162.624C4272.45 162.624 4272.76 162.676 4272.97 162.781V164.713ZM4282.39 173.798C4281.58 174.749 4280.4 175.225 4278.83 175.225C4277.54 175.225 4276.55 174.85 4275.87 174.102C4275.19 173.345 4274.85 172.23 4274.85 170.755V162.849H4276.92V170.699C4276.92 172.541 4277.67 173.461 4279.17 173.461C4280.76 173.461 4281.81 172.87 4282.34 171.687V162.849H4284.41V175H4282.44L4282.39 173.798ZM4290.4 159.906V162.849H4292.67V164.455H4290.4V171.99C4290.4 172.477 4290.5 172.844 4290.7 173.091C4290.91 173.33 4291.25 173.45 4291.74 173.45C4291.98 173.45 4292.31 173.405 4292.72 173.315V175C4292.18 175.15 4291.65 175.225 4291.13 175.225C4290.2 175.225 4289.5 174.944 4289.03 174.382C4288.56 173.821 4288.32 173.023 4288.32 171.99V164.455H4286.11V162.849H4288.32V159.906H4290.4ZM4302.61 173.798C4301.8 174.749 4300.61 175.225 4299.05 175.225C4297.75 175.225 4296.76 174.85 4296.08 174.102C4295.41 173.345 4295.07 172.23 4295.06 170.755V162.849H4297.14V170.699C4297.14 172.541 4297.89 173.461 4299.38 173.461C4300.97 173.461 4302.03 172.87 4302.55 171.687V162.849H4304.63V175H4302.65L4302.61 173.798ZM4316.32 159.906V162.849H4318.59V164.455H4316.32V171.99C4316.32 172.477 4316.42 172.844 4316.62 173.091C4316.83 173.33 4317.17 173.45 4317.66 173.45C4317.9 173.45 4318.23 173.405 4318.64 173.315V175C4318.1 175.15 4317.57 175.225 4317.05 175.225C4316.12 175.225 4315.42 174.944 4314.95 174.382C4314.48 173.821 4314.24 173.023 4314.24 171.99V164.455H4312.03V162.849H4314.24V159.906H4316.32ZM4328.53 173.798C4327.72 174.749 4326.53 175.225 4324.97 175.225C4323.67 175.225 4322.68 174.85 4322 174.102C4321.33 173.345 4320.99 172.23 4320.98 170.755V162.849H4323.06V170.699C4323.06 172.541 4323.81 173.461 4325.3 173.461C4326.89 173.461 4327.95 172.87 4328.47 171.687V162.849H4330.55V175H4328.57L4328.53 173.798ZM4336.53 159.906V162.849H4338.8V164.455H4336.53V171.99C4336.53 172.477 4336.64 172.844 4336.84 173.091C4337.04 173.33 4337.38 173.45 4337.87 173.45C4338.11 173.45 4338.44 173.405 4338.86 173.315V175C4338.31 175.15 4337.78 175.225 4337.26 175.225C4336.34 175.225 4335.64 174.944 4335.16 174.382C4334.69 173.821 4334.46 173.023 4334.46 171.99V164.455H4332.24V162.849H4334.46V159.906H4336.53ZM4348.74 173.798C4347.93 174.749 4346.75 175.225 4345.18 175.225C4343.89 175.225 4342.9 174.85 4342.22 174.102C4341.54 173.345 4341.2 172.23 4341.2 170.755V162.849H4343.27V170.699C4343.27 172.541 4344.02 173.461 4345.52 173.461C4347.11 173.461 4348.16 172.87 4348.69 171.687V162.849H4350.76V175H4348.79L4348.74 173.798Z" fill="black"/>
<path id="pki" d="M4269.84 263.059C4269.84 264.908 4269.41 266.398 4268.57 267.529C4267.72 268.659 4266.58 269.225 4265.13 269.225C4263.66 269.225 4262.5 268.757 4261.65 267.821V273.672H4259.57V256.849H4261.47L4261.57 258.196C4262.42 257.148 4263.59 256.624 4265.1 256.624C4266.56 256.624 4267.71 257.174 4268.56 258.275C4269.41 259.375 4269.84 260.907 4269.84 262.868V263.059ZM4267.76 262.823C4267.76 261.453 4267.47 260.371 4266.88 259.578C4266.3 258.784 4265.5 258.387 4264.48 258.387C4263.22 258.387 4262.28 258.945 4261.65 260.061V265.867C4262.27 266.975 4263.22 267.529 4264.5 267.529C4265.5 267.529 4266.29 267.136 4266.87 266.35C4267.46 265.556 4267.76 264.381 4267.76 262.823ZM4275.88 263.374L4274.58 264.732V269H4272.5V251.75H4274.58V262.183L4275.69 260.847L4279.47 256.849H4282L4277.27 261.925L4282.55 269H4280.11L4275.88 263.374ZM4286.4 269H4284.32V256.849H4286.4V269ZM4284.16 253.625C4284.16 253.289 4284.26 253.004 4284.46 252.772C4284.67 252.54 4284.98 252.424 4285.38 252.424C4285.78 252.424 4286.09 252.54 4286.3 252.772C4286.51 253.004 4286.62 253.289 4286.62 253.625C4286.62 253.962 4286.51 254.243 4286.3 254.468C4286.09 254.692 4285.78 254.805 4285.38 254.805C4284.98 254.805 4284.67 254.692 4284.46 254.468C4284.26 254.243 4284.16 253.962 4284.16 253.625Z" fill="black"/>
</g>
<defs>
<clipPath id="clip0">
<rect width="1280" height="720" fill="white" transform="translate(2640)"/>
</clipPath>
</defs>
</svg>
