<svg width="746" height="311" viewBox="0 0 746 311" fill="none" xmlns="http://www.w3.org/2000/svg">
<rect width="746" height="311" fill="white"/>
<path d="M648.557 73.9091L643.716 87H641.671L636.83 73.9091H639.012L642.625 84.3409H642.762L646.375 73.9091H648.557ZM651.212 87V73.9091H653.223V87H651.212ZM652.235 71.7273C651.843 71.7273 651.505 71.5938 651.221 71.3267C650.942 71.0597 650.803 70.7386 650.803 70.3636C650.803 69.9886 650.942 69.6676 651.221 69.4006C651.505 69.1335 651.843 69 652.235 69C652.627 69 652.962 69.1335 653.24 69.4006C653.525 69.6676 653.667 69.9886 653.667 70.3636C653.667 70.7386 653.525 71.0597 653.24 71.3267C652.962 71.5938 652.627 71.7273 652.235 71.7273ZM662.396 87.2727C661.135 87.2727 660.047 86.9943 659.132 86.4375C658.223 85.875 657.521 85.0909 657.027 84.0852C656.538 83.0739 656.294 81.8977 656.294 80.5568C656.294 79.2159 656.538 78.0341 657.027 77.0114C657.521 75.983 658.208 75.1818 659.089 74.608C659.975 74.0284 661.01 73.7386 662.191 73.7386C662.873 73.7386 663.547 73.8523 664.211 74.0795C664.876 74.3068 665.481 74.6761 666.027 75.1875C666.572 75.6932 667.007 76.3636 667.331 77.1989C667.654 78.0341 667.816 79.0625 667.816 80.2841V81.1364H657.725V79.3977H665.771C665.771 78.6591 665.623 78 665.328 77.4205C665.038 76.8409 664.623 76.3835 664.083 76.0483C663.549 75.7131 662.919 75.5455 662.191 75.5455C661.39 75.5455 660.697 75.7443 660.112 76.142C659.532 76.5341 659.086 77.0455 658.774 77.6761C658.461 78.3068 658.305 78.983 658.305 79.7045V80.8636C658.305 81.8523 658.475 82.6903 658.816 83.3778C659.163 84.0597 659.643 84.5795 660.257 84.9375C660.87 85.2898 661.583 85.4659 662.396 85.4659C662.924 85.4659 663.402 85.392 663.828 85.2443C664.26 85.0909 664.632 84.8636 664.944 84.5625C665.257 84.2557 665.498 83.875 665.669 83.4205L667.612 83.9659C667.407 84.625 667.064 85.2045 666.581 85.7045C666.098 86.1989 665.501 86.5852 664.791 86.8636C664.081 87.1364 663.282 87.2727 662.396 87.2727ZM673.842 87L669.853 73.9091H671.967L674.797 83.9318H674.933L677.728 73.9091H679.876L682.637 83.8977H682.774L685.603 73.9091H687.717L683.728 87H681.751L678.887 76.9432H678.683L675.819 87H673.842ZM695.419 87.2727C694.158 87.2727 693.07 86.9943 692.155 86.4375C691.246 85.875 690.544 85.0909 690.05 84.0852C689.561 83.0739 689.317 81.8977 689.317 80.5568C689.317 79.2159 689.561 78.0341 690.05 77.0114C690.544 75.983 691.232 75.1818 692.113 74.608C692.999 74.0284 694.033 73.7386 695.215 73.7386C695.897 73.7386 696.57 73.8523 697.235 74.0795C697.9 74.3068 698.505 74.6761 699.05 75.1875C699.596 75.6932 700.03 76.3636 700.354 77.1989C700.678 78.0341 700.84 79.0625 700.84 80.2841V81.1364H690.749V79.3977H698.794C698.794 78.6591 698.647 78 698.351 77.4205C698.061 76.8409 697.647 76.3835 697.107 76.0483C696.573 75.7131 695.942 75.5455 695.215 75.5455C694.414 75.5455 693.721 75.7443 693.135 76.142C692.556 76.5341 692.11 77.0455 691.797 77.6761C691.485 78.3068 691.328 78.983 691.328 79.7045V80.8636C691.328 81.8523 691.499 82.6903 691.84 83.3778C692.186 84.0597 692.667 84.5795 693.28 84.9375C693.894 85.2898 694.607 85.4659 695.419 85.4659C695.948 85.4659 696.425 85.392 696.851 85.2443C697.283 85.0909 697.655 84.8636 697.968 84.5625C698.28 84.2557 698.522 83.875 698.692 83.4205L700.635 83.9659C700.431 84.625 700.087 85.2045 699.604 85.7045C699.121 86.1989 698.525 86.5852 697.814 86.8636C697.104 87.1364 696.306 87.2727 695.419 87.2727ZM703.9 87V73.9091H705.843V75.8864H705.979C706.218 75.2386 706.65 74.7131 707.275 74.3097C707.9 73.9062 708.604 73.7045 709.388 73.7045C709.536 73.7045 709.721 73.7074 709.942 73.7131C710.164 73.7187 710.331 73.7273 710.445 73.7386V75.7841C710.377 75.767 710.221 75.7415 709.976 75.7074C709.738 75.6676 709.485 75.6477 709.218 75.6477C708.581 75.6477 708.013 75.7812 707.513 76.0483C707.019 76.3097 706.627 76.6733 706.337 77.1392C706.053 77.5994 705.911 78.125 705.911 78.7159V87H703.9Z" fill="black"/>
<path d="M81.5284 239.909V221.909H83.4716V223.989H83.7102C83.858 223.761 84.0625 223.472 84.3239 223.119C84.5909 222.761 84.9716 222.443 85.4659 222.165C85.9659 221.881 86.642 221.739 87.4943 221.739C88.5966 221.739 89.5682 222.014 90.4091 222.565C91.25 223.116 91.9063 223.898 92.3778 224.909C92.8494 225.92 93.0852 227.114 93.0852 228.489C93.0852 229.875 92.8494 231.077 92.3778 232.094C91.9063 233.105 91.2528 233.889 90.4176 234.446C89.5824 234.997 88.6193 235.273 87.5284 235.273C86.6875 235.273 86.0142 235.134 85.5085 234.855C85.0028 234.571 84.6136 234.25 84.3409 233.892C84.0682 233.528 83.858 233.227 83.7102 232.989H83.5398V239.909H81.5284ZM83.5057 228.455C83.5057 229.443 83.6506 230.315 83.9403 231.071C84.2301 231.821 84.6534 232.409 85.2102 232.835C85.767 233.256 86.4489 233.466 87.2557 233.466C88.0966 233.466 88.7983 233.244 89.3608 232.801C89.929 232.352 90.3551 231.75 90.6392 230.994C90.929 230.233 91.0739 229.386 91.0739 228.455C91.0739 227.534 90.9318 226.705 90.6477 225.966C90.3693 225.222 89.946 224.634 89.3778 224.202C88.8153 223.764 88.108 223.545 87.2557 223.545C86.4375 223.545 85.75 223.753 85.1932 224.168C84.6364 224.577 84.2159 225.151 83.9318 225.889C83.6477 226.622 83.5057 227.477 83.5057 228.455ZM98.1648 217.545V235H96.1534V217.545H98.1648ZM110.099 229.648V221.909H112.11V235H110.099V232.784H109.962C109.656 233.449 109.178 234.014 108.531 234.48C107.883 234.94 107.065 235.17 106.076 235.17C105.258 235.17 104.531 234.991 103.894 234.634C103.258 234.27 102.758 233.724 102.394 232.997C102.031 232.264 101.849 231.341 101.849 230.227V221.909H103.86V230.091C103.86 231.045 104.127 231.807 104.661 232.375C105.201 232.943 105.888 233.227 106.724 233.227C107.224 233.227 107.732 233.099 108.249 232.844C108.772 232.588 109.21 232.196 109.562 231.668C109.92 231.139 110.099 230.466 110.099 229.648ZM121.078 240.182C120.107 240.182 119.271 240.057 118.572 239.807C117.874 239.562 117.291 239.239 116.825 238.835C116.365 238.438 115.999 238.011 115.726 237.557L117.328 236.432C117.51 236.67 117.74 236.943 118.018 237.25C118.297 237.562 118.678 237.832 119.161 238.06C119.649 238.293 120.288 238.409 121.078 238.409C122.135 238.409 123.007 238.153 123.695 237.642C124.382 237.131 124.726 236.33 124.726 235.239V232.58H124.555C124.408 232.818 124.197 233.114 123.925 233.466C123.658 233.812 123.271 234.122 122.766 234.395C122.266 234.662 121.589 234.795 120.737 234.795C119.68 234.795 118.732 234.545 117.891 234.045C117.055 233.545 116.393 232.818 115.905 231.864C115.422 230.909 115.18 229.75 115.18 228.386C115.18 227.045 115.416 225.878 115.888 224.884C116.359 223.884 117.016 223.111 117.857 222.565C118.697 222.014 119.669 221.739 120.771 221.739C121.624 221.739 122.3 221.881 122.8 222.165C123.305 222.443 123.692 222.761 123.959 223.119C124.232 223.472 124.442 223.761 124.589 223.989H124.794V221.909H126.737V235.375C126.737 236.5 126.482 237.415 125.97 238.119C125.464 238.83 124.783 239.349 123.925 239.679C123.072 240.014 122.124 240.182 121.078 240.182ZM121.01 232.989C121.817 232.989 122.499 232.804 123.055 232.435C123.612 232.065 124.036 231.534 124.325 230.841C124.615 230.148 124.76 229.318 124.76 228.352C124.76 227.409 124.618 226.577 124.334 225.855C124.05 225.134 123.629 224.568 123.072 224.159C122.516 223.75 121.828 223.545 121.01 223.545C120.158 223.545 119.447 223.761 118.879 224.193C118.317 224.625 117.893 225.205 117.609 225.932C117.331 226.659 117.192 227.466 117.192 228.352C117.192 229.261 117.334 230.065 117.618 230.764C117.908 231.457 118.334 232.003 118.896 232.401C119.464 232.793 120.169 232.989 121.01 232.989ZM130.419 235V221.909H132.43V235H130.419ZM131.442 219.727C131.05 219.727 130.712 219.594 130.428 219.327C130.149 219.06 130.01 218.739 130.01 218.364C130.01 217.989 130.149 217.668 130.428 217.401C130.712 217.134 131.05 217 131.442 217C131.834 217 132.169 217.134 132.447 217.401C132.732 217.668 132.874 217.989 132.874 218.364C132.874 218.739 132.732 219.06 132.447 219.327C132.169 219.594 131.834 219.727 131.442 219.727ZM138.126 227.125V235H136.114V221.909H138.058V223.955H138.228C138.535 223.29 139.001 222.756 139.626 222.352C140.251 221.943 141.058 221.739 142.046 221.739C142.933 221.739 143.708 221.92 144.373 222.284C145.038 222.642 145.555 223.188 145.924 223.92C146.293 224.648 146.478 225.568 146.478 226.682V235H144.467V226.818C144.467 225.79 144.2 224.989 143.665 224.415C143.131 223.835 142.398 223.545 141.467 223.545C140.825 223.545 140.251 223.685 139.745 223.963C139.245 224.241 138.85 224.648 138.56 225.182C138.271 225.716 138.126 226.364 138.126 227.125ZM67.4808 264V246.545H69.4922V252.989H69.6626C69.8104 252.761 70.0149 252.472 70.2763 252.119C70.5433 251.761 70.924 251.443 71.4183 251.165C71.9183 250.881 72.5945 250.739 73.4467 250.739C74.549 250.739 75.5206 251.014 76.3615 251.565C77.2024 252.116 77.8587 252.898 78.3303 253.909C78.8018 254.92 79.0376 256.114 79.0376 257.489C79.0376 258.875 78.8018 260.077 78.3303 261.094C77.8587 262.105 77.2053 262.889 76.37 263.446C75.5348 263.997 74.5717 264.273 73.4808 264.273C72.6399 264.273 71.9666 264.134 71.4609 263.855C70.9553 263.571 70.5661 263.25 70.2933 262.892C70.0206 262.528 69.8104 262.227 69.6626 261.989H69.424V264H67.4808ZM69.4581 257.455C69.4581 258.443 69.603 259.315 69.8928 260.071C70.1825 260.821 70.6058 261.409 71.1626 261.835C71.7195 262.256 72.4013 262.466 73.2081 262.466C74.049 262.466 74.7507 262.244 75.3132 261.801C75.8814 261.352 76.3075 260.75 76.5916 259.994C76.8814 259.233 77.0263 258.386 77.0263 257.455C77.0263 256.534 76.8842 255.705 76.6001 254.966C76.3217 254.222 75.8984 253.634 75.3303 253.202C74.7678 252.764 74.0604 252.545 73.2081 252.545C72.3899 252.545 71.7024 252.753 71.1456 253.168C70.5888 253.577 70.1683 254.151 69.8842 254.889C69.6001 255.622 69.4581 256.477 69.4581 257.455ZM85.9666 264.307C85.1371 264.307 84.3842 264.151 83.7081 263.838C83.032 263.52 82.495 263.062 82.0973 262.466C81.6996 261.864 81.5007 261.136 81.5007 260.284C81.5007 259.534 81.6484 258.926 81.9439 258.46C82.2393 257.989 82.6342 257.619 83.1286 257.352C83.6229 257.085 84.1683 256.886 84.7649 256.756C85.3672 256.619 85.9723 256.511 86.5803 256.432C87.3757 256.33 88.0206 256.253 88.5149 256.202C89.0149 256.145 89.3786 256.051 89.6058 255.92C89.8388 255.79 89.9553 255.562 89.9553 255.239V255.17C89.9553 254.33 89.7251 253.676 89.2649 253.21C88.8104 252.744 88.12 252.511 87.1939 252.511C86.2337 252.511 85.4808 252.722 84.9354 253.142C84.3899 253.562 84.0064 254.011 83.7848 254.489L81.8757 253.807C82.2166 253.011 82.6712 252.392 83.2393 251.949C83.8132 251.5 84.4382 251.187 85.1143 251.011C85.7962 250.83 86.4666 250.739 87.1257 250.739C87.5462 250.739 88.0291 250.79 88.5746 250.892C89.1257 250.989 89.657 251.19 90.1683 251.497C90.6854 251.804 91.1143 252.267 91.4553 252.886C91.7962 253.506 91.9666 254.335 91.9666 255.375V264H89.9553V262.227H89.853C89.7166 262.511 89.4893 262.815 89.1712 263.139C88.853 263.463 88.4297 263.739 87.9013 263.966C87.3729 264.193 86.728 264.307 85.9666 264.307ZM86.2734 262.5C87.0689 262.5 87.7393 262.344 88.2848 262.031C88.8359 261.719 89.2507 261.315 89.5291 260.821C89.8132 260.327 89.9553 259.807 89.9553 259.261V257.42C89.87 257.523 89.6825 257.616 89.3928 257.702C89.1087 257.781 88.7791 257.852 88.4041 257.915C88.0348 257.972 87.674 258.023 87.3217 258.068C86.9751 258.108 86.6939 258.142 86.478 258.17C85.9553 258.239 85.4666 258.349 85.0121 258.503C84.5632 258.651 84.1996 258.875 83.9212 259.176C83.6484 259.472 83.5121 259.875 83.5121 260.386C83.5121 261.085 83.7706 261.614 84.2876 261.972C84.8104 262.324 85.4723 262.5 86.2734 262.5ZM100.956 264.273C99.7287 264.273 98.6719 263.983 97.7855 263.403C96.8991 262.824 96.2173 262.026 95.7401 261.009C95.2628 259.991 95.0241 258.83 95.0241 257.523C95.0241 256.193 95.2685 255.02 95.7571 254.003C96.2514 252.98 96.9389 252.182 97.8196 251.608C98.706 251.028 99.7401 250.739 100.922 250.739C101.842 250.739 102.672 250.909 103.411 251.25C104.149 251.591 104.754 252.068 105.226 252.682C105.697 253.295 105.99 254.011 106.104 254.83H104.092C103.939 254.233 103.598 253.705 103.07 253.244C102.547 252.778 101.842 252.545 100.956 252.545C100.172 252.545 99.4844 252.75 98.8935 253.159C98.3082 253.562 97.8509 254.134 97.5213 254.872C97.1974 255.605 97.0355 256.466 97.0355 257.455C97.0355 258.466 97.1946 259.347 97.5128 260.097C97.8366 260.847 98.2912 261.429 98.8764 261.844C99.4673 262.259 100.161 262.466 100.956 262.466C101.479 262.466 101.953 262.375 102.379 262.193C102.805 262.011 103.166 261.75 103.462 261.409C103.757 261.068 103.967 260.659 104.092 260.182H106.104C105.99 260.955 105.709 261.651 105.26 262.27C104.817 262.884 104.229 263.372 103.496 263.736C102.768 264.094 101.922 264.273 100.956 264.273ZM110.919 259.227L110.885 256.739H111.294L117.021 250.909H119.51L113.408 257.08H113.237L110.919 259.227ZM109.044 264V246.545H111.055V264H109.044ZM117.362 264L112.249 257.523L113.68 256.125L119.919 264H117.362ZM127.048 264.273C125.787 264.273 124.699 263.994 123.784 263.438C122.875 262.875 122.173 262.091 121.679 261.085C121.19 260.074 120.946 258.898 120.946 257.557C120.946 256.216 121.19 255.034 121.679 254.011C122.173 252.983 122.861 252.182 123.741 251.608C124.628 251.028 125.662 250.739 126.844 250.739C127.526 250.739 128.199 250.852 128.864 251.08C129.528 251.307 130.134 251.676 130.679 252.188C131.224 252.693 131.659 253.364 131.983 254.199C132.307 255.034 132.469 256.062 132.469 257.284V258.136H122.378V256.398H130.423C130.423 255.659 130.276 255 129.98 254.42C129.69 253.841 129.276 253.384 128.736 253.048C128.202 252.713 127.571 252.545 126.844 252.545C126.043 252.545 125.349 252.744 124.764 253.142C124.185 253.534 123.739 254.045 123.426 254.676C123.114 255.307 122.957 255.983 122.957 256.705V257.864C122.957 258.852 123.128 259.69 123.469 260.378C123.815 261.06 124.295 261.58 124.909 261.938C125.523 262.29 126.236 262.466 127.048 262.466C127.577 262.466 128.054 262.392 128.48 262.244C128.912 262.091 129.284 261.864 129.597 261.562C129.909 261.256 130.151 260.875 130.321 260.42L132.264 260.966C132.06 261.625 131.716 262.205 131.233 262.705C130.75 263.199 130.153 263.585 129.443 263.864C128.733 264.136 127.935 264.273 127.048 264.273ZM137.54 256.125V264H135.528V250.909H137.472V252.955H137.642C137.949 252.29 138.415 251.756 139.04 251.352C139.665 250.943 140.472 250.739 141.46 250.739C142.347 250.739 143.122 250.92 143.787 251.284C144.452 251.642 144.969 252.188 145.338 252.92C145.707 253.648 145.892 254.568 145.892 255.682V264H143.881V255.818C143.881 254.79 143.614 253.989 143.08 253.415C142.545 252.835 141.813 252.545 140.881 252.545C140.239 252.545 139.665 252.685 139.159 252.963C138.659 253.241 138.264 253.648 137.974 254.182C137.685 254.716 137.54 255.364 137.54 256.125ZM154.511 264.273C153.42 264.273 152.457 263.997 151.621 263.446C150.786 262.889 150.133 262.105 149.661 261.094C149.19 260.077 148.954 258.875 148.954 257.489C148.954 256.114 149.19 254.92 149.661 253.909C150.133 252.898 150.789 252.116 151.63 251.565C152.471 251.014 153.442 250.739 154.545 250.739C155.397 250.739 156.07 250.881 156.565 251.165C157.065 251.443 157.445 251.761 157.707 252.119C157.974 252.472 158.181 252.761 158.329 252.989H158.499V246.545H160.511V264H158.567V261.989H158.329C158.181 262.227 157.971 262.528 157.698 262.892C157.425 263.25 157.036 263.571 156.531 263.855C156.025 264.134 155.352 264.273 154.511 264.273ZM154.783 262.466C155.59 262.466 156.272 262.256 156.829 261.835C157.386 261.409 157.809 260.821 158.099 260.071C158.388 259.315 158.533 258.443 158.533 257.455C158.533 256.477 158.391 255.622 158.107 254.889C157.823 254.151 157.403 253.577 156.846 253.168C156.289 252.753 155.602 252.545 154.783 252.545C153.931 252.545 153.221 252.764 152.653 253.202C152.09 253.634 151.667 254.222 151.383 254.966C151.104 255.705 150.965 256.534 150.965 257.455C150.965 258.386 151.107 259.233 151.391 259.994C151.681 260.75 152.107 261.352 152.67 261.801C153.238 262.244 153.942 262.466 154.783 262.466Z" fill="black"/>
<path d="M366.005 58.2727C364.744 58.2727 363.656 57.9943 362.741 57.4375C361.832 56.875 361.13 56.0909 360.636 55.0852C360.147 54.0739 359.903 52.8977 359.903 51.5568C359.903 50.2159 360.147 49.0341 360.636 48.0114C361.13 46.983 361.818 46.1818 362.699 45.608C363.585 45.0284 364.619 44.7386 365.801 44.7386C366.483 44.7386 367.156 44.8523 367.821 45.0795C368.485 45.3068 369.091 45.6761 369.636 46.1875C370.181 46.6932 370.616 47.3636 370.94 48.1989C371.264 49.0341 371.426 50.0625 371.426 51.2841V52.1364H361.335V50.3977H369.38C369.38 49.6591 369.233 49 368.937 48.4205C368.647 47.8409 368.233 47.3835 367.693 47.0483C367.159 46.7131 366.528 46.5455 365.801 46.5455C365 46.5455 364.306 46.7443 363.721 47.142C363.142 47.5341 362.696 48.0455 362.383 48.6761C362.071 49.3068 361.914 49.983 361.914 50.7045V51.8636C361.914 52.8523 362.085 53.6903 362.426 54.3778C362.772 55.0597 363.252 55.5795 363.866 55.9375C364.48 56.2898 365.193 56.4659 366.005 56.4659C366.534 56.4659 367.011 56.392 367.437 56.2443C367.869 56.0909 368.241 55.8636 368.554 55.5625C368.866 55.2557 369.108 54.875 369.278 54.4205L371.221 54.9659C371.017 55.625 370.673 56.2045 370.19 56.7045C369.707 57.1989 369.11 57.5852 368.4 57.8636C367.69 58.1364 366.892 58.2727 366.005 58.2727ZM376.497 40.5455V58H374.485V40.5455H376.497ZM385.669 58.2727C384.408 58.2727 383.32 57.9943 382.405 57.4375C381.496 56.875 380.794 56.0909 380.3 55.0852C379.811 54.0739 379.567 52.8977 379.567 51.5568C379.567 50.2159 379.811 49.0341 380.3 48.0114C380.794 46.983 381.482 46.1818 382.363 45.608C383.249 45.0284 384.283 44.7386 385.465 44.7386C386.147 44.7386 386.82 44.8523 387.485 45.0795C388.15 45.3068 388.755 45.6761 389.3 46.1875C389.846 46.6932 390.28 47.3636 390.604 48.1989C390.928 49.0341 391.09 50.0625 391.09 51.2841V52.1364H380.999V50.3977H389.044C389.044 49.6591 388.897 49 388.601 48.4205C388.311 47.8409 387.897 47.3835 387.357 47.0483C386.823 46.7131 386.192 46.5455 385.465 46.5455C384.664 46.5455 383.971 46.7443 383.385 47.142C382.806 47.5341 382.36 48.0455 382.047 48.6761C381.735 49.3068 381.578 49.983 381.578 50.7045V51.8636C381.578 52.8523 381.749 53.6903 382.09 54.3778C382.436 55.0597 382.917 55.5795 383.53 55.9375C384.144 56.2898 384.857 56.4659 385.669 56.4659C386.198 56.4659 386.675 56.392 387.101 56.2443C387.533 56.0909 387.905 55.8636 388.218 55.5625C388.53 55.2557 388.772 54.875 388.942 54.4205L390.885 54.9659C390.681 55.625 390.337 56.2045 389.854 56.7045C389.371 57.1989 388.775 57.5852 388.064 57.8636C387.354 58.1364 386.556 58.2727 385.669 58.2727ZM399.468 58.2727C398.24 58.2727 397.184 57.983 396.297 57.4034C395.411 56.8239 394.729 56.0256 394.252 55.0085C393.775 53.9915 393.536 52.8295 393.536 51.5227C393.536 50.1932 393.78 49.0199 394.269 48.0028C394.763 46.9801 395.451 46.1818 396.331 45.608C397.218 45.0284 398.252 44.7386 399.434 44.7386C400.354 44.7386 401.184 44.9091 401.922 45.25C402.661 45.5909 403.266 46.0682 403.738 46.6818C404.209 47.2955 404.502 48.0114 404.615 48.8295H402.604C402.451 48.233 402.11 47.7045 401.581 47.2443C401.059 46.7784 400.354 46.5455 399.468 46.5455C398.684 46.5455 397.996 46.75 397.405 47.1591C396.82 47.5625 396.363 48.1335 396.033 48.8722C395.709 49.6051 395.547 50.4659 395.547 51.4545C395.547 52.4659 395.706 53.3466 396.025 54.0966C396.348 54.8466 396.803 55.429 397.388 55.8438C397.979 56.2585 398.672 56.4659 399.468 56.4659C399.99 56.4659 400.465 56.375 400.891 56.1932C401.317 56.0114 401.678 55.75 401.973 55.4091C402.269 55.0682 402.479 54.6591 402.604 54.1818H404.615C404.502 54.9545 404.221 55.6506 403.772 56.2699C403.328 56.8835 402.74 57.3722 402.007 57.7358C401.28 58.0938 400.434 58.2727 399.468 58.2727ZM413.249 44.9091V46.6136H406.465V44.9091H413.249ZM408.442 41.7727H410.453V54.25C410.453 54.8182 410.536 55.2443 410.701 55.5284C410.871 55.8068 411.087 55.9943 411.348 56.0909C411.615 56.1818 411.897 56.2273 412.192 56.2273C412.414 56.2273 412.596 56.2159 412.738 56.1932C412.88 56.1648 412.993 56.142 413.078 56.125L413.488 57.9318C413.351 57.983 413.161 58.0341 412.917 58.0852C412.672 58.142 412.363 58.1705 411.988 58.1705C411.419 58.1705 410.863 58.0483 410.317 57.804C409.777 57.5597 409.328 57.1875 408.971 56.6875C408.618 56.1875 408.442 55.5568 408.442 54.7955V41.7727ZM416.275 58V44.9091H418.218V46.8864H418.354C418.593 46.2386 419.025 45.7131 419.65 45.3097C420.275 44.9062 420.979 44.7045 421.763 44.7045C421.911 44.7045 422.096 44.7074 422.317 44.7131C422.539 44.7187 422.706 44.7273 422.82 44.7386V46.7841C422.752 46.767 422.596 46.7415 422.351 46.7074C422.113 46.6676 421.86 46.6477 421.593 46.6477C420.956 46.6477 420.388 46.7812 419.888 47.0483C419.394 47.3097 419.002 47.6733 418.712 48.1392C418.428 48.5994 418.286 49.125 418.286 49.7159V58H416.275ZM430.124 58.2727C428.942 58.2727 427.905 57.9915 427.013 57.429C426.127 56.8665 425.434 56.0795 424.934 55.0682C424.439 54.0568 424.192 52.875 424.192 51.5227C424.192 50.1591 424.439 48.9687 424.934 47.9517C425.434 46.9347 426.127 46.1449 427.013 45.5824C427.905 45.0199 428.942 44.7386 430.124 44.7386C431.306 44.7386 432.34 45.0199 433.226 45.5824C434.118 46.1449 434.811 46.9347 435.306 47.9517C435.806 48.9687 436.056 50.1591 436.056 51.5227C436.056 52.875 435.806 54.0568 435.306 55.0682C434.811 56.0795 434.118 56.8665 433.226 57.429C432.34 57.9915 431.306 58.2727 430.124 58.2727ZM430.124 56.4659C431.022 56.4659 431.76 56.2358 432.34 55.7756C432.919 55.3153 433.348 54.7102 433.627 53.9602C433.905 53.2102 434.044 52.3977 434.044 51.5227C434.044 50.6477 433.905 49.8324 433.627 49.0767C433.348 48.321 432.919 47.7102 432.34 47.2443C431.76 46.7784 431.022 46.5455 430.124 46.5455C429.226 46.5455 428.488 46.7784 427.908 47.2443C427.328 47.7102 426.9 48.321 426.621 49.0767C426.343 49.8324 426.203 50.6477 426.203 51.5227C426.203 52.3977 426.343 53.2102 426.621 53.9602C426.9 54.7102 427.328 55.3153 427.908 55.7756C428.488 56.2358 429.226 56.4659 430.124 56.4659ZM441.137 50.125V58H439.126V44.9091H441.069V46.9545H441.24C441.547 46.2898 442.012 45.7557 442.637 45.3523C443.262 44.9432 444.069 44.7386 445.058 44.7386C445.944 44.7386 446.72 44.9205 447.385 45.2841C448.049 45.642 448.566 46.1875 448.936 46.9205C449.305 47.6477 449.49 48.5682 449.49 49.6818V58H447.478V49.8182C447.478 48.7898 447.211 47.9886 446.677 47.4148C446.143 46.8352 445.41 46.5455 444.478 46.5455C443.836 46.5455 443.262 46.6847 442.757 46.9631C442.257 47.2415 441.862 47.6477 441.572 48.1818C441.282 48.7159 441.137 49.3636 441.137 50.125ZM358.481 87V69.5455H360.492V75.9886H360.663C360.81 75.7614 361.015 75.4716 361.276 75.1193C361.543 74.7614 361.924 74.4432 362.418 74.1648C362.918 73.8807 363.594 73.7386 364.447 73.7386C365.549 73.7386 366.521 74.0142 367.362 74.5653C368.202 75.1165 368.859 75.8977 369.33 76.9091C369.802 77.9205 370.038 79.1136 370.038 80.4886C370.038 81.875 369.802 83.0767 369.33 84.0938C368.859 85.1051 368.205 85.8892 367.37 86.446C366.535 86.9972 365.572 87.2727 364.481 87.2727C363.64 87.2727 362.967 87.1335 362.461 86.8551C361.955 86.571 361.566 86.25 361.293 85.892C361.021 85.5284 360.81 85.2273 360.663 84.9886H360.424V87H358.481ZM360.458 80.4545C360.458 81.4432 360.603 82.3153 360.893 83.071C361.183 83.821 361.606 84.4091 362.163 84.8352C362.719 85.2557 363.401 85.4659 364.208 85.4659C365.049 85.4659 365.751 85.2443 366.313 84.8011C366.881 84.3523 367.308 83.75 367.592 82.9943C367.881 82.233 368.026 81.3864 368.026 80.4545C368.026 79.5341 367.884 78.7045 367.6 77.9659C367.322 77.2216 366.898 76.6335 366.33 76.2017C365.768 75.7642 365.06 75.5455 364.208 75.5455C363.39 75.5455 362.702 75.7528 362.146 76.1676C361.589 76.5767 361.168 77.1506 360.884 77.8892C360.6 78.6222 360.458 79.4773 360.458 80.4545ZM376.967 87.3068C376.137 87.3068 375.384 87.1506 374.708 86.8381C374.032 86.5199 373.495 86.0625 373.097 85.4659C372.7 84.8636 372.501 84.1364 372.501 83.2841C372.501 82.5341 372.648 81.9261 372.944 81.4602C373.239 80.9886 373.634 80.6193 374.129 80.3523C374.623 80.0852 375.168 79.8864 375.765 79.7557C376.367 79.6193 376.972 79.5114 377.58 79.4318C378.376 79.3295 379.021 79.2528 379.515 79.2017C380.015 79.1449 380.379 79.0511 380.606 78.9205C380.839 78.7898 380.955 78.5625 380.955 78.2386V78.1705C380.955 77.3295 380.725 76.6761 380.265 76.2102C379.81 75.7443 379.12 75.5114 378.194 75.5114C377.234 75.5114 376.481 75.7216 375.935 76.142C375.39 76.5625 375.006 77.0114 374.785 77.4886L372.876 76.8068C373.217 76.0114 373.671 75.392 374.239 74.9489C374.813 74.5 375.438 74.1875 376.114 74.0114C376.796 73.8295 377.467 73.7386 378.126 73.7386C378.546 73.7386 379.029 73.7898 379.575 73.892C380.126 73.9886 380.657 74.1903 381.168 74.4972C381.685 74.804 382.114 75.267 382.455 75.8864C382.796 76.5057 382.967 77.3352 382.967 78.375V87H380.955V85.2273H380.853C380.717 85.5114 380.489 85.8153 380.171 86.1392C379.853 86.4631 379.43 86.7386 378.901 86.9659C378.373 87.1932 377.728 87.3068 376.967 87.3068ZM377.273 85.5C378.069 85.5 378.739 85.3438 379.285 85.0312C379.836 84.7188 380.251 84.3153 380.529 83.821C380.813 83.3267 380.955 82.8068 380.955 82.2614V80.4205C380.87 80.5227 380.683 80.6165 380.393 80.7017C380.109 80.7812 379.779 80.8523 379.404 80.9148C379.035 80.9716 378.674 81.0227 378.322 81.0682C377.975 81.108 377.694 81.142 377.478 81.1705C376.955 81.2386 376.467 81.3494 376.012 81.5028C375.563 81.6506 375.2 81.875 374.921 82.1761C374.648 82.4716 374.512 82.875 374.512 83.3864C374.512 84.0852 374.771 84.6136 375.288 84.9716C375.81 85.3239 376.472 85.5 377.273 85.5ZM391.956 87.2727C390.729 87.2727 389.672 86.983 388.786 86.4034C387.899 85.8239 387.217 85.0256 386.74 84.0085C386.263 82.9915 386.024 81.8295 386.024 80.5227C386.024 79.1932 386.268 78.0199 386.757 77.0028C387.251 75.9801 387.939 75.1818 388.82 74.608C389.706 74.0284 390.74 73.7386 391.922 73.7386C392.842 73.7386 393.672 73.9091 394.411 74.25C395.149 74.5909 395.754 75.0682 396.226 75.6818C396.697 76.2955 396.99 77.0114 397.104 77.8295H395.092C394.939 77.233 394.598 76.7045 394.07 76.2443C393.547 75.7784 392.842 75.5455 391.956 75.5455C391.172 75.5455 390.484 75.75 389.893 76.1591C389.308 76.5625 388.851 77.1335 388.521 77.8722C388.197 78.6051 388.036 79.4659 388.036 80.4545C388.036 81.4659 388.195 82.3466 388.513 83.0966C388.837 83.8466 389.291 84.429 389.876 84.8438C390.467 85.2585 391.161 85.4659 391.956 85.4659C392.479 85.4659 392.953 85.375 393.379 85.1932C393.805 85.0114 394.166 84.75 394.462 84.4091C394.757 84.0682 394.967 83.6591 395.092 83.1818H397.104C396.99 83.9545 396.709 84.6506 396.26 85.2699C395.817 85.8835 395.229 86.3722 394.496 86.7358C393.768 87.0938 392.922 87.2727 391.956 87.2727ZM401.919 82.2273L401.885 79.7386H402.294L408.021 73.9091H410.51L404.408 80.0795H404.237L401.919 82.2273ZM400.044 87V69.5455H402.055V87H400.044ZM408.362 87L403.249 80.5227L404.68 79.125L410.919 87H408.362ZM418.048 87.2727C416.787 87.2727 415.699 86.9943 414.784 86.4375C413.875 85.875 413.173 85.0909 412.679 84.0852C412.19 83.0739 411.946 81.8977 411.946 80.5568C411.946 79.2159 412.19 78.0341 412.679 77.0114C413.173 75.983 413.861 75.1818 414.741 74.608C415.628 74.0284 416.662 73.7386 417.844 73.7386C418.526 73.7386 419.199 73.8523 419.864 74.0795C420.528 74.3068 421.134 74.6761 421.679 75.1875C422.224 75.6932 422.659 76.3636 422.983 77.1989C423.307 78.0341 423.469 79.0625 423.469 80.2841V81.1364H413.378V79.3977H421.423C421.423 78.6591 421.276 78 420.98 77.4205C420.69 76.8409 420.276 76.3835 419.736 76.0483C419.202 75.7131 418.571 75.5455 417.844 75.5455C417.043 75.5455 416.349 75.7443 415.764 76.142C415.185 76.5341 414.739 77.0455 414.426 77.6761C414.114 78.3068 413.957 78.983 413.957 79.7045V80.8636C413.957 81.8523 414.128 82.6903 414.469 83.3778C414.815 84.0597 415.295 84.5795 415.909 84.9375C416.523 85.2898 417.236 85.4659 418.048 85.4659C418.577 85.4659 419.054 85.392 419.48 85.2443C419.912 85.0909 420.284 84.8636 420.597 84.5625C420.909 84.2557 421.151 83.875 421.321 83.4205L423.264 83.9659C423.06 84.625 422.716 85.2045 422.233 85.7045C421.75 86.1989 421.153 86.5852 420.443 86.8636C419.733 87.1364 418.935 87.2727 418.048 87.2727ZM428.54 79.125V87H426.528V73.9091H428.472V75.9545H428.642C428.949 75.2898 429.415 74.7557 430.04 74.3523C430.665 73.9432 431.472 73.7386 432.46 73.7386C433.347 73.7386 434.122 73.9205 434.787 74.2841C435.452 74.642 435.969 75.1875 436.338 75.9205C436.707 76.6477 436.892 77.5682 436.892 78.6818V87H434.881V78.8182C434.881 77.7898 434.614 76.9886 434.08 76.4148C433.545 75.8352 432.813 75.5455 431.881 75.5455C431.239 75.5455 430.665 75.6847 430.159 75.9631C429.659 76.2415 429.264 76.6477 428.974 77.1818C428.685 77.7159 428.54 78.3636 428.54 79.125ZM445.511 87.2727C444.42 87.2727 443.457 86.9972 442.621 86.446C441.786 85.8892 441.133 85.1051 440.661 84.0938C440.19 83.0767 439.954 81.875 439.954 80.4886C439.954 79.1136 440.19 77.9205 440.661 76.9091C441.133 75.8977 441.789 75.1165 442.63 74.5653C443.471 74.0142 444.442 73.7386 445.545 73.7386C446.397 73.7386 447.07 73.8807 447.565 74.1648C448.065 74.4432 448.445 74.7614 448.707 75.1193C448.974 75.4716 449.181 75.7614 449.329 75.9886H449.499V69.5455H451.511V87H449.567V84.9886H449.329C449.181 85.2273 448.971 85.5284 448.698 85.892C448.425 86.25 448.036 86.571 447.531 86.8551C447.025 87.1335 446.352 87.2727 445.511 87.2727ZM445.783 85.4659C446.59 85.4659 447.272 85.2557 447.829 84.8352C448.386 84.4091 448.809 83.821 449.099 83.071C449.388 82.3153 449.533 81.4432 449.533 80.4545C449.533 79.4773 449.391 78.6222 449.107 77.8892C448.823 77.1506 448.403 76.5767 447.846 76.1676C447.289 75.7528 446.602 75.5455 445.783 75.5455C444.931 75.5455 444.221 75.7642 443.653 76.2017C443.09 76.6335 442.667 77.2216 442.383 77.9659C442.104 78.7045 441.965 79.5341 441.965 80.4545C441.965 81.3864 442.107 82.233 442.391 82.9943C442.681 83.75 443.107 84.3523 443.67 84.8011C444.238 85.2443 444.942 85.4659 445.783 85.4659Z" fill="black"/>
<path d="M81.5284 62.9091V44.9091H83.4716V46.9886H83.7102C83.858 46.7614 84.0625 46.4716 84.3239 46.1193C84.5909 45.7614 84.9716 45.4432 85.4659 45.1648C85.9659 44.8807 86.642 44.7386 87.4943 44.7386C88.5966 44.7386 89.5682 45.0142 90.4091 45.5653C91.25 46.1165 91.9063 46.8977 92.3778 47.9091C92.8494 48.9205 93.0852 50.1136 93.0852 51.4886C93.0852 52.875 92.8494 54.0767 92.3778 55.0938C91.9063 56.1051 91.2528 56.8892 90.4176 57.446C89.5824 57.9972 88.6193 58.2727 87.5284 58.2727C86.6875 58.2727 86.0142 58.1335 85.5085 57.8551C85.0028 57.571 84.6136 57.25 84.3409 56.892C84.0682 56.5284 83.858 56.2273 83.7102 55.9886H83.5398V62.9091H81.5284ZM83.5057 51.4545C83.5057 52.4432 83.6506 53.3153 83.9403 54.071C84.2301 54.821 84.6534 55.4091 85.2102 55.8352C85.767 56.2557 86.4489 56.4659 87.2557 56.4659C88.0966 56.4659 88.7983 56.2443 89.3608 55.8011C89.929 55.3523 90.3551 54.75 90.6392 53.9943C90.929 53.233 91.0739 52.3864 91.0739 51.4545C91.0739 50.5341 90.9318 49.7045 90.6477 48.9659C90.3693 48.2216 89.946 47.6335 89.3778 47.2017C88.8153 46.7642 88.108 46.5455 87.2557 46.5455C86.4375 46.5455 85.75 46.7528 85.1932 47.1676C84.6364 47.5767 84.2159 48.1506 83.9318 48.8892C83.6477 49.6222 83.5057 50.4773 83.5057 51.4545ZM98.1648 40.5455V58H96.1534V40.5455H98.1648ZM110.099 52.6477V44.9091H112.11V58H110.099V55.7841H109.962C109.656 56.4489 109.178 57.0142 108.531 57.4801C107.883 57.9403 107.065 58.1705 106.076 58.1705C105.258 58.1705 104.531 57.9915 103.894 57.6335C103.258 57.2699 102.758 56.7244 102.394 55.9972C102.031 55.2642 101.849 54.3409 101.849 53.2273V44.9091H103.86V53.0909C103.86 54.0455 104.127 54.8068 104.661 55.375C105.201 55.9432 105.888 56.2273 106.724 56.2273C107.224 56.2273 107.732 56.0994 108.249 55.8438C108.772 55.5881 109.21 55.196 109.562 54.6676C109.92 54.1392 110.099 53.4659 110.099 52.6477ZM121.078 63.1818C120.107 63.1818 119.271 63.0568 118.572 62.8068C117.874 62.5625 117.291 62.2386 116.825 61.8352C116.365 61.4375 115.999 61.0114 115.726 60.5568L117.328 59.4318C117.51 59.6705 117.74 59.9432 118.018 60.25C118.297 60.5625 118.678 60.8324 119.161 61.0597C119.649 61.2926 120.288 61.4091 121.078 61.4091C122.135 61.4091 123.007 61.1534 123.695 60.642C124.382 60.1307 124.726 59.3295 124.726 58.2386V55.5795H124.555C124.408 55.8182 124.197 56.1136 123.925 56.4659C123.658 56.8125 123.271 57.1222 122.766 57.3949C122.266 57.6619 121.589 57.7955 120.737 57.7955C119.68 57.7955 118.732 57.5455 117.891 57.0455C117.055 56.5455 116.393 55.8182 115.905 54.8636C115.422 53.9091 115.18 52.75 115.18 51.3864C115.18 50.0455 115.416 48.8778 115.888 47.8835C116.359 46.8835 117.016 46.1108 117.857 45.5653C118.697 45.0142 119.669 44.7386 120.771 44.7386C121.624 44.7386 122.3 44.8807 122.8 45.1648C123.305 45.4432 123.692 45.7614 123.959 46.1193C124.232 46.4716 124.442 46.7614 124.589 46.9886H124.794V44.9091H126.737V58.375C126.737 59.5 126.482 60.4148 125.97 61.1193C125.464 61.8295 124.783 62.3494 123.925 62.679C123.072 63.0142 122.124 63.1818 121.078 63.1818ZM121.01 55.9886C121.817 55.9886 122.499 55.804 123.055 55.4347C123.612 55.0653 124.036 54.5341 124.325 53.8409C124.615 53.1477 124.76 52.3182 124.76 51.3523C124.76 50.4091 124.618 49.5767 124.334 48.8551C124.05 48.1335 123.629 47.5682 123.072 47.1591C122.516 46.75 121.828 46.5455 121.01 46.5455C120.158 46.5455 119.447 46.7614 118.879 47.1932C118.317 47.625 117.893 48.2045 117.609 48.9318C117.331 49.6591 117.192 50.4659 117.192 51.3523C117.192 52.2614 117.334 53.0653 117.618 53.7642C117.908 54.4574 118.334 55.0028 118.896 55.4006C119.464 55.7926 120.169 55.9886 121.01 55.9886ZM130.419 58V44.9091H132.43V58H130.419ZM131.442 42.7273C131.05 42.7273 130.712 42.5938 130.428 42.3267C130.149 42.0597 130.01 41.7386 130.01 41.3636C130.01 40.9886 130.149 40.6676 130.428 40.4006C130.712 40.1335 131.05 40 131.442 40C131.834 40 132.169 40.1335 132.447 40.4006C132.732 40.6676 132.874 40.9886 132.874 41.3636C132.874 41.7386 132.732 42.0597 132.447 42.3267C132.169 42.5938 131.834 42.7273 131.442 42.7273ZM138.126 50.125V58H136.114V44.9091H138.058V46.9545H138.228C138.535 46.2898 139.001 45.7557 139.626 45.3523C140.251 44.9432 141.058 44.7386 142.046 44.7386C142.933 44.7386 143.708 44.9205 144.373 45.2841C145.038 45.642 145.555 46.1875 145.924 46.9205C146.293 47.6477 146.478 48.5682 146.478 49.6818V58H144.467V49.8182C144.467 48.7898 144.2 47.9886 143.665 47.4148C143.131 46.8352 142.398 46.5455 141.467 46.5455C140.825 46.5455 140.251 46.6847 139.745 46.9631C139.245 47.2415 138.85 47.6477 138.56 48.1818C138.271 48.7159 138.126 49.3636 138.126 50.125ZM73.1548 73.9091V75.6136H66.098V73.9091H73.1548ZM68.2116 87V72.1023C68.2116 71.3523 68.3878 70.7273 68.7401 70.2273C69.0923 69.7273 69.5497 69.3523 70.1122 69.1023C70.6747 68.8523 71.2685 68.7273 71.8935 68.7273C72.3878 68.7273 72.7912 68.767 73.1037 68.8466C73.4162 68.9261 73.6491 69 73.8026 69.0682L73.223 70.8068C73.1207 70.7727 72.9787 70.7301 72.7969 70.679C72.6207 70.6278 72.3878 70.6023 72.098 70.6023C71.4332 70.6023 70.9531 70.7699 70.6577 71.1051C70.3679 71.4403 70.223 71.9318 70.223 72.5795V87H68.2116ZM75.9737 87V73.9091H77.9169V75.8864H78.0533C78.2919 75.2386 78.7237 74.7131 79.3487 74.3097C79.9737 73.9062 80.6783 73.7045 81.4624 73.7045C81.6101 73.7045 81.7947 73.7074 82.0163 73.7131C82.2379 73.7187 82.4055 73.7273 82.5192 73.7386V75.7841C82.451 75.767 82.2947 75.7415 82.0504 75.7074C81.8118 75.6676 81.5589 75.6477 81.2919 75.6477C80.6555 75.6477 80.0874 75.7812 79.5874 76.0483C79.093 76.3097 78.701 76.6733 78.4112 77.1392C78.1271 77.5994 77.9851 78.125 77.9851 78.7159V87H75.9737ZM89.8232 87.2727C88.6413 87.2727 87.6044 86.9915 86.7124 86.429C85.826 85.8665 85.1328 85.0795 84.6328 84.0682C84.1385 83.0568 83.8913 81.875 83.8913 80.5227C83.8913 79.1591 84.1385 77.9687 84.6328 76.9517C85.1328 75.9347 85.826 75.1449 86.7124 74.5824C87.6044 74.0199 88.6413 73.7386 89.8232 73.7386C91.005 73.7386 92.0391 74.0199 92.9254 74.5824C93.8175 75.1449 94.5107 75.9347 95.005 76.9517C95.505 77.9687 95.755 79.1591 95.755 80.5227C95.755 81.875 95.505 83.0568 95.005 84.0682C94.5107 85.0795 93.8175 85.8665 92.9254 86.429C92.0391 86.9915 91.005 87.2727 89.8232 87.2727ZM89.8232 85.4659C90.7209 85.4659 91.4595 85.2358 92.0391 84.7756C92.6186 84.3153 93.0476 83.7102 93.326 82.9602C93.6044 82.2102 93.7436 81.3977 93.7436 80.5227C93.7436 79.6477 93.6044 78.8324 93.326 78.0767C93.0476 77.321 92.6186 76.7102 92.0391 76.2443C91.4595 75.7784 90.7209 75.5455 89.8232 75.5455C88.9254 75.5455 88.1868 75.7784 87.6072 76.2443C87.0277 76.7102 86.5987 77.321 86.3203 78.0767C86.0419 78.8324 85.9027 79.6477 85.9027 80.5227C85.9027 81.3977 86.0419 82.2102 86.3203 82.9602C86.5987 83.7102 87.0277 84.3153 87.6072 84.7756C88.1868 85.2358 88.9254 85.4659 89.8232 85.4659ZM100.837 79.125V87H98.8253V73.9091H100.768V75.9545H100.939C101.246 75.2898 101.712 74.7557 102.337 74.3523C102.962 73.9432 103.768 73.7386 104.757 73.7386C105.643 73.7386 106.419 73.9205 107.084 74.2841C107.749 74.642 108.266 75.1875 108.635 75.9205C109.004 76.6477 109.189 77.5682 109.189 78.6818V87H107.178V78.8182C107.178 77.7898 106.911 76.9886 106.376 76.4148C105.842 75.8352 105.109 75.5455 104.178 75.5455C103.536 75.5455 102.962 75.6847 102.456 75.9631C101.956 76.2415 101.561 76.6477 101.271 77.1818C100.982 77.7159 100.837 78.3636 100.837 79.125ZM118.558 73.9091V75.6136H111.773V73.9091H118.558ZM113.751 70.7727H115.762V83.25C115.762 83.8182 115.844 84.2443 116.009 84.5284C116.18 84.8068 116.396 84.9943 116.657 85.0909C116.924 85.1818 117.205 85.2273 117.501 85.2273C117.722 85.2273 117.904 85.2159 118.046 85.1932C118.188 85.1648 118.302 85.142 118.387 85.125L118.796 86.9318C118.66 86.983 118.469 87.0341 118.225 87.0852C117.981 87.142 117.671 87.1705 117.296 87.1705C116.728 87.1705 116.171 87.0483 115.626 86.804C115.086 86.5597 114.637 86.1875 114.279 85.6875C113.927 85.1875 113.751 84.5568 113.751 83.7955V70.7727ZM126.931 87.2727C125.67 87.2727 124.582 86.9943 123.667 86.4375C122.758 85.875 122.056 85.0909 121.562 84.0852C121.073 83.0739 120.829 81.8977 120.829 80.5568C120.829 79.2159 121.073 78.0341 121.562 77.0114C122.056 75.983 122.744 75.1818 123.624 74.608C124.511 74.0284 125.545 73.7386 126.727 73.7386C127.408 73.7386 128.082 73.8523 128.746 74.0795C129.411 74.3068 130.016 74.6761 130.562 75.1875C131.107 75.6932 131.542 76.3636 131.866 77.1989C132.19 78.0341 132.352 79.0625 132.352 80.2841V81.1364H122.261V79.3977H130.306C130.306 78.6591 130.158 78 129.863 77.4205C129.573 76.8409 129.158 76.3835 128.619 76.0483C128.085 75.7131 127.454 75.5455 126.727 75.5455C125.925 75.5455 125.232 75.7443 124.647 76.142C124.067 76.5341 123.621 77.0455 123.309 77.6761C122.996 78.3068 122.84 78.983 122.84 79.7045V80.8636C122.84 81.8523 123.011 82.6903 123.352 83.3778C123.698 84.0597 124.178 84.5795 124.792 84.9375C125.406 85.2898 126.119 85.4659 126.931 85.4659C127.46 85.4659 127.937 85.392 128.363 85.2443C128.795 85.0909 129.167 84.8636 129.479 84.5625C129.792 84.2557 130.033 83.875 130.204 83.4205L132.147 83.9659C131.942 84.625 131.599 85.2045 131.116 85.7045C130.633 86.1989 130.036 86.5852 129.326 86.8636C128.616 87.1364 127.817 87.2727 126.931 87.2727ZM137.423 79.125V87H135.411V73.9091H137.354V75.9545H137.525C137.832 75.2898 138.298 74.7557 138.923 74.3523C139.548 73.9432 140.354 73.7386 141.343 73.7386C142.229 73.7386 143.005 73.9205 143.67 74.2841C144.335 74.642 144.852 75.1875 145.221 75.9205C145.59 76.6477 145.775 77.5682 145.775 78.6818V87H143.763V78.8182C143.763 77.7898 143.496 76.9886 142.962 76.4148C142.428 75.8352 141.695 75.5455 140.763 75.5455C140.121 75.5455 139.548 75.6847 139.042 75.9631C138.542 76.2415 138.147 76.6477 137.857 77.1818C137.567 77.7159 137.423 78.3636 137.423 79.125ZM154.393 87.2727C153.303 87.2727 152.339 86.9972 151.504 86.446C150.669 85.8892 150.016 85.1051 149.544 84.0938C149.072 83.0767 148.837 81.875 148.837 80.4886C148.837 79.1136 149.072 77.9205 149.544 76.9091C150.016 75.8977 150.672 75.1165 151.513 74.5653C152.354 74.0142 153.325 73.7386 154.428 73.7386C155.28 73.7386 155.953 73.8807 156.447 74.1648C156.947 74.4432 157.328 74.7614 157.589 75.1193C157.857 75.4716 158.064 75.7614 158.212 75.9886H158.382V69.5455H160.393V87H158.45V84.9886H158.212C158.064 85.2273 157.854 85.5284 157.581 85.892C157.308 86.25 156.919 86.571 156.413 86.8551C155.908 87.1335 155.234 87.2727 154.393 87.2727ZM154.666 85.4659C155.473 85.4659 156.155 85.2557 156.712 84.8352C157.268 84.4091 157.692 83.821 157.982 83.071C158.271 82.3153 158.416 81.4432 158.416 80.4545C158.416 79.4773 158.274 78.6222 157.99 77.8892C157.706 77.1506 157.286 76.5767 156.729 76.1676C156.172 75.7528 155.484 75.5455 154.666 75.5455C153.814 75.5455 153.104 75.7642 152.536 76.2017C151.973 76.6335 151.55 77.2216 151.266 77.9659C150.987 78.7045 150.848 79.5341 150.848 80.4545C150.848 81.3864 150.99 82.233 151.274 82.9943C151.564 83.75 151.99 84.3523 152.553 84.8011C153.121 85.2443 153.825 85.4659 154.666 85.4659Z" fill="black"/>
<path d="M369.005 241.273C367.744 241.273 366.656 240.994 365.741 240.438C364.832 239.875 364.13 239.091 363.636 238.085C363.147 237.074 362.903 235.898 362.903 234.557C362.903 233.216 363.147 232.034 363.636 231.011C364.13 229.983 364.818 229.182 365.699 228.608C366.585 228.028 367.619 227.739 368.801 227.739C369.483 227.739 370.156 227.852 370.821 228.08C371.485 228.307 372.091 228.676 372.636 229.188C373.181 229.693 373.616 230.364 373.94 231.199C374.264 232.034 374.426 233.062 374.426 234.284V235.136H364.335V233.398H372.38C372.38 232.659 372.233 232 371.937 231.42C371.647 230.841 371.233 230.384 370.693 230.048C370.159 229.713 369.528 229.545 368.801 229.545C368 229.545 367.306 229.744 366.721 230.142C366.142 230.534 365.696 231.045 365.383 231.676C365.071 232.307 364.914 232.983 364.914 233.705V234.864C364.914 235.852 365.085 236.69 365.426 237.378C365.772 238.06 366.252 238.58 366.866 238.938C367.48 239.29 368.193 239.466 369.005 239.466C369.534 239.466 370.011 239.392 370.437 239.244C370.869 239.091 371.241 238.864 371.554 238.562C371.866 238.256 372.108 237.875 372.278 237.42L374.221 237.966C374.017 238.625 373.673 239.205 373.19 239.705C372.707 240.199 372.11 240.585 371.4 240.864C370.69 241.136 369.892 241.273 369.005 241.273ZM379.497 223.545V241H377.485V223.545H379.497ZM388.669 241.273C387.408 241.273 386.32 240.994 385.405 240.438C384.496 239.875 383.794 239.091 383.3 238.085C382.811 237.074 382.567 235.898 382.567 234.557C382.567 233.216 382.811 232.034 383.3 231.011C383.794 229.983 384.482 229.182 385.363 228.608C386.249 228.028 387.283 227.739 388.465 227.739C389.147 227.739 389.82 227.852 390.485 228.08C391.15 228.307 391.755 228.676 392.3 229.188C392.846 229.693 393.28 230.364 393.604 231.199C393.928 232.034 394.09 233.062 394.09 234.284V235.136H383.999V233.398H392.044C392.044 232.659 391.897 232 391.601 231.42C391.311 230.841 390.897 230.384 390.357 230.048C389.823 229.713 389.192 229.545 388.465 229.545C387.664 229.545 386.971 229.744 386.385 230.142C385.806 230.534 385.36 231.045 385.047 231.676C384.735 232.307 384.578 232.983 384.578 233.705V234.864C384.578 235.852 384.749 236.69 385.09 237.378C385.436 238.06 385.917 238.58 386.53 238.938C387.144 239.29 387.857 239.466 388.669 239.466C389.198 239.466 389.675 239.392 390.101 239.244C390.533 239.091 390.905 238.864 391.218 238.562C391.53 238.256 391.772 237.875 391.942 237.42L393.885 237.966C393.681 238.625 393.337 239.205 392.854 239.705C392.371 240.199 391.775 240.585 391.064 240.864C390.354 241.136 389.556 241.273 388.669 241.273ZM402.468 241.273C401.24 241.273 400.184 240.983 399.297 240.403C398.411 239.824 397.729 239.026 397.252 238.009C396.775 236.991 396.536 235.83 396.536 234.523C396.536 233.193 396.78 232.02 397.269 231.003C397.763 229.98 398.451 229.182 399.331 228.608C400.218 228.028 401.252 227.739 402.434 227.739C403.354 227.739 404.184 227.909 404.922 228.25C405.661 228.591 406.266 229.068 406.738 229.682C407.209 230.295 407.502 231.011 407.615 231.83H405.604C405.451 231.233 405.11 230.705 404.581 230.244C404.059 229.778 403.354 229.545 402.468 229.545C401.684 229.545 400.996 229.75 400.405 230.159C399.82 230.562 399.363 231.134 399.033 231.872C398.709 232.605 398.547 233.466 398.547 234.455C398.547 235.466 398.706 236.347 399.025 237.097C399.348 237.847 399.803 238.429 400.388 238.844C400.979 239.259 401.672 239.466 402.468 239.466C402.99 239.466 403.465 239.375 403.891 239.193C404.317 239.011 404.678 238.75 404.973 238.409C405.269 238.068 405.479 237.659 405.604 237.182H407.615C407.502 237.955 407.221 238.651 406.772 239.27C406.328 239.884 405.74 240.372 405.007 240.736C404.28 241.094 403.434 241.273 402.468 241.273ZM416.249 227.909V229.614H409.465V227.909H416.249ZM411.442 224.773H413.453V237.25C413.453 237.818 413.536 238.244 413.701 238.528C413.871 238.807 414.087 238.994 414.348 239.091C414.615 239.182 414.897 239.227 415.192 239.227C415.414 239.227 415.596 239.216 415.738 239.193C415.88 239.165 415.993 239.142 416.078 239.125L416.488 240.932C416.351 240.983 416.161 241.034 415.917 241.085C415.672 241.142 415.363 241.17 414.988 241.17C414.419 241.17 413.863 241.048 413.317 240.804C412.777 240.56 412.328 240.188 411.971 239.688C411.618 239.188 411.442 238.557 411.442 237.795V224.773ZM419.275 241V227.909H421.218V229.886H421.354C421.593 229.239 422.025 228.713 422.65 228.31C423.275 227.906 423.979 227.705 424.763 227.705C424.911 227.705 425.096 227.707 425.317 227.713C425.539 227.719 425.706 227.727 425.82 227.739V229.784C425.752 229.767 425.596 229.741 425.351 229.707C425.113 229.668 424.86 229.648 424.593 229.648C423.956 229.648 423.388 229.781 422.888 230.048C422.394 230.31 422.002 230.673 421.712 231.139C421.428 231.599 421.286 232.125 421.286 232.716V241H419.275ZM433.124 241.273C431.942 241.273 430.905 240.991 430.013 240.429C429.127 239.866 428.434 239.08 427.934 238.068C427.439 237.057 427.192 235.875 427.192 234.523C427.192 233.159 427.439 231.969 427.934 230.952C428.434 229.935 429.127 229.145 430.013 228.582C430.905 228.02 431.942 227.739 433.124 227.739C434.306 227.739 435.34 228.02 436.226 228.582C437.118 229.145 437.811 229.935 438.306 230.952C438.806 231.969 439.056 233.159 439.056 234.523C439.056 235.875 438.806 237.057 438.306 238.068C437.811 239.08 437.118 239.866 436.226 240.429C435.34 240.991 434.306 241.273 433.124 241.273ZM433.124 239.466C434.022 239.466 434.76 239.236 435.34 238.776C435.919 238.315 436.348 237.71 436.627 236.96C436.905 236.21 437.044 235.398 437.044 234.523C437.044 233.648 436.905 232.832 436.627 232.077C436.348 231.321 435.919 230.71 435.34 230.244C434.76 229.778 434.022 229.545 433.124 229.545C432.226 229.545 431.488 229.778 430.908 230.244C430.328 230.71 429.9 231.321 429.621 232.077C429.343 232.832 429.203 233.648 429.203 234.523C429.203 235.398 429.343 236.21 429.621 236.96C429.9 237.71 430.328 238.315 430.908 238.776C431.488 239.236 432.226 239.466 433.124 239.466ZM444.137 233.125V241H442.126V227.909H444.069V229.955H444.24C444.547 229.29 445.012 228.756 445.637 228.352C446.262 227.943 447.069 227.739 448.058 227.739C448.944 227.739 449.72 227.92 450.385 228.284C451.049 228.642 451.566 229.188 451.936 229.92C452.305 230.648 452.49 231.568 452.49 232.682V241H450.478V232.818C450.478 231.79 450.211 230.989 449.677 230.415C449.143 229.835 448.41 229.545 447.478 229.545C446.836 229.545 446.262 229.685 445.757 229.963C445.257 230.241 444.862 230.648 444.572 231.182C444.282 231.716 444.137 232.364 444.137 233.125ZM367.155 256.909V258.614H360.098V256.909H367.155ZM362.212 270V255.102C362.212 254.352 362.388 253.727 362.74 253.227C363.092 252.727 363.55 252.352 364.112 252.102C364.675 251.852 365.268 251.727 365.893 251.727C366.388 251.727 366.791 251.767 367.104 251.847C367.416 251.926 367.649 252 367.803 252.068L367.223 253.807C367.121 253.773 366.979 253.73 366.797 253.679C366.621 253.628 366.388 253.602 366.098 253.602C365.433 253.602 364.953 253.77 364.658 254.105C364.368 254.44 364.223 254.932 364.223 255.58V270H362.212ZM369.974 270V256.909H371.917V258.886H372.053C372.292 258.239 372.724 257.713 373.349 257.31C373.974 256.906 374.678 256.705 375.462 256.705C375.61 256.705 375.795 256.707 376.016 256.713C376.238 256.719 376.406 256.727 376.519 256.739V258.784C376.451 258.767 376.295 258.741 376.05 258.707C375.812 258.668 375.559 258.648 375.292 258.648C374.656 258.648 374.087 258.781 373.587 259.048C373.093 259.31 372.701 259.673 372.411 260.139C372.127 260.599 371.985 261.125 371.985 261.716V270H369.974ZM383.823 270.273C382.641 270.273 381.604 269.991 380.712 269.429C379.826 268.866 379.133 268.08 378.633 267.068C378.138 266.057 377.891 264.875 377.891 263.523C377.891 262.159 378.138 260.969 378.633 259.952C379.133 258.935 379.826 258.145 380.712 257.582C381.604 257.02 382.641 256.739 383.823 256.739C385.005 256.739 386.039 257.02 386.925 257.582C387.817 258.145 388.511 258.935 389.005 259.952C389.505 260.969 389.755 262.159 389.755 263.523C389.755 264.875 389.505 266.057 389.005 267.068C388.511 268.08 387.817 268.866 386.925 269.429C386.039 269.991 385.005 270.273 383.823 270.273ZM383.823 268.466C384.721 268.466 385.46 268.236 386.039 267.776C386.619 267.315 387.048 266.71 387.326 265.96C387.604 265.21 387.744 264.398 387.744 263.523C387.744 262.648 387.604 261.832 387.326 261.077C387.048 260.321 386.619 259.71 386.039 259.244C385.46 258.778 384.721 258.545 383.823 258.545C382.925 258.545 382.187 258.778 381.607 259.244C381.028 259.71 380.599 260.321 380.32 261.077C380.042 261.832 379.903 262.648 379.903 263.523C379.903 264.398 380.042 265.21 380.32 265.96C380.599 266.71 381.028 267.315 381.607 267.776C382.187 268.236 382.925 268.466 383.823 268.466ZM394.837 262.125V270H392.825V256.909H394.768V258.955H394.939C395.246 258.29 395.712 257.756 396.337 257.352C396.962 256.943 397.768 256.739 398.757 256.739C399.643 256.739 400.419 256.92 401.084 257.284C401.749 257.642 402.266 258.188 402.635 258.92C403.004 259.648 403.189 260.568 403.189 261.682V270H401.178V261.818C401.178 260.79 400.911 259.989 400.376 259.415C399.842 258.835 399.109 258.545 398.178 258.545C397.536 258.545 396.962 258.685 396.456 258.963C395.956 259.241 395.561 259.648 395.271 260.182C394.982 260.716 394.837 261.364 394.837 262.125ZM412.558 256.909V258.614H405.773V256.909H412.558ZM407.751 253.773H409.762V266.25C409.762 266.818 409.844 267.244 410.009 267.528C410.18 267.807 410.396 267.994 410.657 268.091C410.924 268.182 411.205 268.227 411.501 268.227C411.722 268.227 411.904 268.216 412.046 268.193C412.188 268.165 412.302 268.142 412.387 268.125L412.796 269.932C412.66 269.983 412.469 270.034 412.225 270.085C411.981 270.142 411.671 270.17 411.296 270.17C410.728 270.17 410.171 270.048 409.626 269.804C409.086 269.56 408.637 269.188 408.279 268.688C407.927 268.188 407.751 267.557 407.751 266.795V253.773ZM420.931 270.273C419.67 270.273 418.582 269.994 417.667 269.438C416.758 268.875 416.056 268.091 415.562 267.085C415.073 266.074 414.829 264.898 414.829 263.557C414.829 262.216 415.073 261.034 415.562 260.011C416.056 258.983 416.744 258.182 417.624 257.608C418.511 257.028 419.545 256.739 420.727 256.739C421.408 256.739 422.082 256.852 422.746 257.08C423.411 257.307 424.016 257.676 424.562 258.188C425.107 258.693 425.542 259.364 425.866 260.199C426.19 261.034 426.352 262.062 426.352 263.284V264.136H416.261V262.398H424.306C424.306 261.659 424.158 261 423.863 260.42C423.573 259.841 423.158 259.384 422.619 259.048C422.085 258.713 421.454 258.545 420.727 258.545C419.925 258.545 419.232 258.744 418.647 259.142C418.067 259.534 417.621 260.045 417.309 260.676C416.996 261.307 416.84 261.983 416.84 262.705V263.864C416.84 264.852 417.011 265.69 417.352 266.378C417.698 267.06 418.178 267.58 418.792 267.938C419.406 268.29 420.119 268.466 420.931 268.466C421.46 268.466 421.937 268.392 422.363 268.244C422.795 268.091 423.167 267.864 423.479 267.562C423.792 267.256 424.033 266.875 424.204 266.42L426.147 266.966C425.942 267.625 425.599 268.205 425.116 268.705C424.633 269.199 424.036 269.585 423.326 269.864C422.616 270.136 421.817 270.273 420.931 270.273ZM431.423 262.125V270H429.411V256.909H431.354V258.955H431.525C431.832 258.29 432.298 257.756 432.923 257.352C433.548 256.943 434.354 256.739 435.343 256.739C436.229 256.739 437.005 256.92 437.67 257.284C438.335 257.642 438.852 258.188 439.221 258.92C439.59 259.648 439.775 260.568 439.775 261.682V270H437.763V261.818C437.763 260.79 437.496 259.989 436.962 259.415C436.428 258.835 435.695 258.545 434.763 258.545C434.121 258.545 433.548 258.685 433.042 258.963C432.542 259.241 432.147 259.648 431.857 260.182C431.567 260.716 431.423 261.364 431.423 262.125ZM448.393 270.273C447.303 270.273 446.339 269.997 445.504 269.446C444.669 268.889 444.016 268.105 443.544 267.094C443.072 266.077 442.837 264.875 442.837 263.489C442.837 262.114 443.072 260.92 443.544 259.909C444.016 258.898 444.672 258.116 445.513 257.565C446.354 257.014 447.325 256.739 448.428 256.739C449.28 256.739 449.953 256.881 450.447 257.165C450.947 257.443 451.328 257.761 451.589 258.119C451.857 258.472 452.064 258.761 452.212 258.989H452.382V252.545H454.393V270H452.45V267.989H452.212C452.064 268.227 451.854 268.528 451.581 268.892C451.308 269.25 450.919 269.571 450.413 269.855C449.908 270.134 449.234 270.273 448.393 270.273ZM448.666 268.466C449.473 268.466 450.155 268.256 450.712 267.835C451.268 267.409 451.692 266.821 451.982 266.071C452.271 265.315 452.416 264.443 452.416 263.455C452.416 262.477 452.274 261.622 451.99 260.889C451.706 260.151 451.286 259.577 450.729 259.168C450.172 258.753 449.484 258.545 448.666 258.545C447.814 258.545 447.104 258.764 446.536 259.202C445.973 259.634 445.55 260.222 445.266 260.966C444.987 261.705 444.848 262.534 444.848 263.455C444.848 264.386 444.99 265.233 445.274 265.994C445.564 266.75 445.99 267.352 446.553 267.801C447.121 268.244 447.825 268.466 448.666 268.466Z" fill="black"/>
<path d="M113.293 204.207C113.684 204.598 114.317 204.598 114.707 204.207L121.071 197.843C121.462 197.453 121.462 196.819 121.071 196.429C120.681 196.038 120.047 196.038 119.657 196.429L114 202.086L108.343 196.429C107.953 196.038 107.32 196.038 106.929 196.429C106.538 196.819 106.538 197.453 106.929 197.843L113.293 204.207ZM114.707 103.293C114.317 102.902 113.683 102.902 113.293 103.293L106.929 109.657C106.538 110.047 106.538 110.681 106.929 111.071C107.319 111.462 107.953 111.462 108.343 111.071L114 105.414L119.657 111.071C120.047 111.462 120.681 111.462 121.071 111.071C121.462 110.681 121.462 110.047 121.071 109.657L114.707 103.293ZM115 203.5L115 104L113 104L113 203.5L115 203.5Z" fill="black"/>
<path d="M404.293 204.207C404.684 204.598 405.317 204.598 405.707 204.207L412.071 197.843C412.462 197.453 412.462 196.819 412.071 196.429C411.681 196.038 411.047 196.038 410.657 196.429L405 202.086L399.343 196.429C398.953 196.038 398.32 196.038 397.929 196.429C397.538 196.819 397.538 197.453 397.929 197.843L404.293 204.207ZM405.707 103.293C405.317 102.902 404.683 102.902 404.293 103.293L397.929 109.657C397.538 110.047 397.538 110.681 397.929 111.071C398.319 111.462 398.953 111.462 399.343 111.071L405 105.414L410.657 111.071C411.047 111.462 411.681 111.462 412.071 111.071C412.462 110.681 412.462 110.047 412.071 109.657L405.707 103.293ZM406 203.5L406 104L404 104L404 203.5L406 203.5Z" fill="black"/>
<path d="M612.707 78.7071C613.098 78.3166 613.098 77.6834 612.707 77.2929L606.343 70.9289C605.953 70.5384 605.319 70.5384 604.929 70.9289C604.538 71.3195 604.538 71.9526 604.929 72.3431L610.586 78L604.929 83.6569C604.538 84.0474 604.538 84.6805 604.929 85.0711C605.319 85.4616 605.953 85.4616 606.343 85.0711L612.707 78.7071ZM464.293 77.2929C463.902 77.6834 463.902 78.3166 464.293 78.7071L470.657 85.0711C471.047 85.4616 471.681 85.4616 472.071 85.0711C472.462 84.6805 472.462 84.0474 472.071 83.6569L466.414 78L472.071 72.3431C472.462 71.9526 472.462 71.3195 472.071 70.9289C471.681 70.5384 471.047 70.5384 470.657 70.9289L464.293 77.2929ZM612 77L465 77V79L612 79V77Z" fill="black"/>
<path d="M327.707 78.7071C328.098 78.3166 328.098 77.6834 327.707 77.2929L321.343 70.9289C320.953 70.5384 320.319 70.5384 319.929 70.9289C319.538 71.3195 319.538 71.9526 319.929 72.3431L325.586 78L319.929 83.6569C319.538 84.0474 319.538 84.6805 319.929 85.0711C320.319 85.4616 320.953 85.4616 321.343 85.0711L327.707 78.7071ZM179.293 77.2929C178.902 77.6834 178.902 78.3166 179.293 78.7071L185.657 85.0711C186.047 85.4616 186.681 85.4616 187.071 85.0711C187.462 84.6805 187.462 84.0474 187.071 83.6569L181.414 78L187.071 72.3431C187.462 71.9526 187.462 71.3195 187.071 70.9289C186.681 70.5384 186.047 70.5384 185.657 70.9289L179.293 77.2929ZM327 77L180 77V79L327 79V77Z" fill="black"/>
</svg>
