<svg width="1440" height="900" viewBox="0 0 1440 900" fill="none" xmlns="http://www.w3.org/2000/svg">
<g id="taki sobie slajd">
<rect width="1440" height="900" fill="white"/>
<rect id="habzdryg data (do not delete): {&#34;events&#34;:[{&#34;type&#34;:&#34;show&#34;,&#34;id&#34;:&#34;1:6&#34;,&#34;name&#34;:&#34;Ellipse 3&#34;,&#34;index&#34;:3},{&#34;type&#34;:&#34;show&#34;,&#34;id&#34;:&#34;3:10&#34;,&#34;name&#34;:&#34;Group 2&#34;,&#34;index&#34;:2},{&#34;type&#34;:&#34;show&#34;,&#34;id&#34;:&#34;3:9&#34;,&#34;name&#34;:&#34;Group 1&#34;,&#34;index&#34;:4},{&#34;type&#34;:&#34;child&#34;,&#34;id&#34;:&#34;4:0&#34;,&#34;name&#34;:&#34;tarski frame&#34;},{&#34;type&#34;:&#34;child&#34;,&#34;id&#34;:&#34;4:3&#34;,&#34;name&#34;:&#34;second frame&#34;},{&#34;type&#34;:&#34;child&#34;,&#34;id&#34;:&#34;22:0&#34;,&#34;name&#34;:&#34;jeszcze nowszy&#34;}],&#34;name&#34;:&#34;taki sobie slajd&#34;,&#34;id&#34;:&#34;1:2&#34;,&#34;root&#34;:false,&#34;pagecount&#34;:8}" x="1" y="1" width="1" height="1" fill="#C4C4C4"/>
<circle id="Ellipse 1" cx="384" cy="186" r="25" fill="#C4C4C4"/>
<g id="Group 2">
<path id="Arrow 1" d="M693.119 372.486C693.388 372.42 693.551 372.149 693.486 371.881L692.411 367.511C692.345 367.243 692.074 367.079 691.806 367.145C691.538 367.211 691.374 367.481 691.44 367.75L692.395 371.634L688.511 372.589C688.243 372.655 688.079 372.926 688.145 373.194C688.211 373.462 688.481 373.626 688.75 373.56L693.119 372.486ZM426.741 211.428L692.741 372.428L693.259 371.572L427.259 210.572L426.741 211.428Z" fill="black"/>
<circle id="Ellipse 2" cx="731" cy="402" r="25" fill="#C4C4C4"/>
</g>
<circle id="Ellipse 3" cx="466" cy="562" r="25" fill="#C4C4C4"/>
<g id="Group 1">
<path id="Arrow 2" d="M766.36 169.347C766.552 169.148 766.546 168.831 766.347 168.64L763.105 165.519C762.906 165.327 762.589 165.333 762.398 165.532C762.206 165.731 762.212 166.048 762.411 166.239L765.293 169.013L762.519 171.895C762.327 172.094 762.333 172.411 762.532 172.602C762.731 172.794 763.048 172.788 763.239 172.589L766.36 169.347ZM450.009 175.5L766.009 169.5L765.99 168.5L449.991 174.5L450.009 175.5Z" fill="black"/>
<circle id="Ellipse 4" cx="802" cy="161" r="25" fill="#C4C4C4"/>
</g>
<text id="hello!" fill="black" xml:space="preserve" style="white-space: pre" font-family="Roboto" font-size="12" letter-spacing="0em"><tspan x="910" y="327.102">hello!</tspan></text>
<rect id="4:3" x="924" y="562" width="100" height="62.5" fill="#FF0000"/>
<rect id="4:0" x="100" y="100" width="100" height="62.5" fill="#FF0000"/>
<rect id="22:0" x="172" y="371" width="100" height="62.5" fill="#FF0000"/>
</g>
</svg>
