<svg width="175" height="95" viewBox="0 0 175 95" fill="none" xmlns="http://www.w3.org/2000/svg">
<rect width="175" height="95" fill="#F2F2F2"/>
<rect x="47" y="12" width="16" height="16" rx="5" fill="white"/>
<rect x="27" y="12" width="16" height="16" rx="5" fill="white"/>
<rect x="47" y="68" width="16" height="16" rx="5" fill="white"/>
<rect x="27" y="68" width="16" height="16" rx="5" fill="white"/>
<rect x="17" y="40" width="46" height="16" rx="5" fill="white"/>
<path d="M77.8457 16.6602L77.8809 17.457C78.3652 16.8477 78.998 16.543 79.7793 16.543C81.1191 16.543 81.7949 17.2988 81.8066 18.8105V23H80.7227V18.8047C80.7188 18.3477 80.6133 18.0098 80.4062 17.791C80.2031 17.5723 79.8848 17.4629 79.4512 17.4629C79.0996 17.4629 78.791 17.5566 78.5254 17.7441C78.2598 17.9316 78.0527 18.1777 77.9043 18.4824V23H76.8203V16.6602H77.8457ZM86.0723 23.1172C85.2129 23.1172 84.5137 22.8359 83.9746 22.2734C83.4355 21.707 83.166 20.9512 83.166 20.0059V19.8066C83.166 19.1777 83.2852 18.6172 83.5234 18.125C83.7656 17.6289 84.1016 17.2422 84.5312 16.9648C84.9648 16.6836 85.4336 16.543 85.9375 16.543C86.7617 16.543 87.4023 16.8145 87.8594 17.3574C88.3164 17.9004 88.5449 18.6777 88.5449 19.6895V20.1406H84.25C84.2656 20.7656 84.4473 21.2715 84.7949 21.6582C85.1465 22.041 85.5918 22.2324 86.1309 22.2324C86.5137 22.2324 86.8379 22.1543 87.1035 21.998C87.3691 21.8418 87.6016 21.6348 87.8008 21.377L88.4629 21.8926C87.9316 22.709 87.1348 23.1172 86.0723 23.1172ZM85.9375 17.4336C85.5 17.4336 85.1328 17.5938 84.8359 17.9141C84.5391 18.2305 84.3555 18.6758 84.2852 19.25H87.4609V19.168C87.4297 18.6172 87.2812 18.1914 87.0156 17.8906C86.75 17.5859 86.3906 17.4336 85.9375 17.4336ZM91.9316 18.9746L93.3379 16.6602H94.6035L92.5293 19.7949L94.668 23H93.4141L91.9492 20.627L90.4844 23H89.2246L91.3633 19.7949L89.2891 16.6602H90.543L91.9316 18.9746ZM97.2285 15.125V16.6602H98.4121V17.498H97.2285V21.4297C97.2285 21.6836 97.2812 21.875 97.3867 22.0039C97.4922 22.1289 97.6719 22.1914 97.9258 22.1914C98.0508 22.1914 98.2227 22.168 98.4414 22.1211V23C98.1562 23.0781 97.8789 23.1172 97.6094 23.1172C97.125 23.1172 96.7598 22.9707 96.5137 22.6777C96.2676 22.3848 96.1445 21.9688 96.1445 21.4297V17.498H94.9902V16.6602H96.1445V15.125H97.2285ZM102.877 23.7324H101.945L105.508 14.4688H106.434L102.877 23.7324ZM115.938 19.9004C115.938 20.8652 115.717 21.6426 115.275 22.2324C114.834 22.8223 114.236 23.1172 113.482 23.1172C112.713 23.1172 112.107 22.873 111.666 22.3848V25.4375H110.582V16.6602H111.572L111.625 17.3633C112.066 16.8164 112.68 16.543 113.465 16.543C114.227 16.543 114.828 16.8301 115.27 17.4043C115.715 17.9785 115.938 18.7773 115.938 19.8008V19.9004ZM114.854 19.7773C114.854 19.0625 114.701 18.498 114.396 18.084C114.092 17.6699 113.674 17.4629 113.143 17.4629C112.486 17.4629 111.994 17.7539 111.666 18.3359V21.3652C111.99 21.9434 112.486 22.2324 113.154 22.2324C113.674 22.2324 114.086 22.0273 114.391 21.6172C114.699 21.2031 114.854 20.5898 114.854 19.7773ZM120.385 17.6328C120.221 17.6055 120.043 17.5918 119.852 17.5918C119.141 17.5918 118.658 17.8945 118.404 18.5V23H117.32V16.6602H118.375L118.393 17.3926C118.748 16.8262 119.252 16.543 119.904 16.543C120.115 16.543 120.275 16.5703 120.385 16.625V17.6328ZM123.9 23.1172C123.041 23.1172 122.342 22.8359 121.803 22.2734C121.264 21.707 120.994 20.9512 120.994 20.0059V19.8066C120.994 19.1777 121.113 18.6172 121.352 18.125C121.594 17.6289 121.93 17.2422 122.359 16.9648C122.793 16.6836 123.262 16.543 123.766 16.543C124.59 16.543 125.23 16.8145 125.688 17.3574C126.145 17.9004 126.373 18.6777 126.373 19.6895V20.1406H122.078C122.094 20.7656 122.275 21.2715 122.623 21.6582C122.975 22.041 123.42 22.2324 123.959 22.2324C124.342 22.2324 124.666 22.1543 124.932 21.998C125.197 21.8418 125.43 21.6348 125.629 21.377L126.291 21.8926C125.76 22.709 124.963 23.1172 123.9 23.1172ZM123.766 17.4336C123.328 17.4336 122.961 17.5938 122.664 17.9141C122.367 18.2305 122.184 18.6758 122.113 19.25H125.289V19.168C125.258 18.6172 125.109 18.1914 124.844 17.8906C124.578 17.5859 124.219 17.4336 123.766 17.4336ZM129.643 21.5293L131.213 16.6602H132.32L130.047 23H129.221L126.924 16.6602H128.031L129.643 21.5293ZM134.541 23H133.457V16.6602H134.541V23ZM133.369 14.9785C133.369 14.8027 133.422 14.6543 133.527 14.5332C133.637 14.4121 133.797 14.3516 134.008 14.3516C134.219 14.3516 134.379 14.4121 134.488 14.5332C134.598 14.6543 134.652 14.8027 134.652 14.9785C134.652 15.1543 134.598 15.3008 134.488 15.418C134.379 15.5352 134.219 15.5938 134.008 15.5938C133.797 15.5938 133.637 15.5352 133.527 15.418C133.422 15.3008 133.369 15.1543 133.369 14.9785ZM135.994 19.7715C135.994 19.1504 136.115 18.5918 136.357 18.0957C136.604 17.5996 136.943 17.2168 137.377 16.9473C137.814 16.6777 138.312 16.543 138.871 16.543C139.734 16.543 140.432 16.8418 140.963 17.4395C141.498 18.0371 141.766 18.832 141.766 19.8242V19.9004C141.766 20.5176 141.646 21.0723 141.408 21.5645C141.174 22.0527 140.836 22.4336 140.395 22.707C139.957 22.9805 139.453 23.1172 138.883 23.1172C138.023 23.1172 137.326 22.8184 136.791 22.2207C136.26 21.623 135.994 20.832 135.994 19.8477V19.7715ZM137.084 19.9004C137.084 20.6035 137.246 21.168 137.57 21.5938C137.898 22.0195 138.336 22.2324 138.883 22.2324C139.434 22.2324 139.871 22.0176 140.195 21.5879C140.52 21.1543 140.682 20.5488 140.682 19.7715C140.682 19.0762 140.516 18.5137 140.184 18.084C139.855 17.6504 139.418 17.4336 138.871 17.4336C138.336 17.4336 137.904 17.6465 137.576 18.0723C137.248 18.498 137.084 19.1074 137.084 19.9004ZM147.039 22.373C146.617 22.8691 145.998 23.1172 145.182 23.1172C144.506 23.1172 143.99 22.9219 143.635 22.5312C143.283 22.1367 143.105 21.5547 143.102 20.7852V16.6602H144.186V20.7559C144.186 21.7168 144.576 22.1973 145.357 22.1973C146.186 22.1973 146.736 21.8887 147.01 21.2715V16.6602H148.094V23H147.062L147.039 22.373ZM153.438 21.3184C153.438 21.0254 153.326 20.7988 153.104 20.6387C152.885 20.4746 152.5 20.334 151.949 20.2168C151.402 20.0996 150.967 19.959 150.643 19.7949C150.322 19.6309 150.084 19.4355 149.928 19.209C149.775 18.9824 149.699 18.7129 149.699 18.4004C149.699 17.8809 149.918 17.4414 150.355 17.082C150.797 16.7227 151.359 16.543 152.043 16.543C152.762 16.543 153.344 16.7285 153.789 17.0996C154.238 17.4707 154.463 17.9453 154.463 18.5234H153.373C153.373 18.2266 153.246 17.9707 152.992 17.7559C152.742 17.541 152.426 17.4336 152.043 17.4336C151.648 17.4336 151.34 17.5195 151.117 17.6914C150.895 17.8633 150.783 18.0879 150.783 18.3652C150.783 18.627 150.887 18.8242 151.094 18.957C151.301 19.0898 151.674 19.2168 152.213 19.3379C152.756 19.459 153.195 19.6035 153.531 19.7715C153.867 19.9395 154.115 20.1426 154.275 20.3809C154.439 20.6152 154.521 20.9023 154.521 21.2422C154.521 21.8086 154.295 22.2637 153.842 22.6074C153.389 22.9473 152.801 23.1172 152.078 23.1172C151.57 23.1172 151.121 23.0273 150.73 22.8477C150.34 22.668 150.033 22.418 149.811 22.0977C149.592 21.7734 149.482 21.4238 149.482 21.0488H150.566C150.586 21.4121 150.73 21.7012 151 21.916C151.273 22.127 151.633 22.2324 152.078 22.2324C152.488 22.2324 152.816 22.1504 153.062 21.9863C153.312 21.8184 153.438 21.5957 153.438 21.3184Z" fill="black"/>
<path d="M80.5117 77.3184C80.5117 77.0254 80.4004 76.7988 80.1777 76.6387C79.959 76.4746 79.5742 76.334 79.0234 76.2168C78.4766 76.0996 78.041 75.959 77.7168 75.7949C77.3965 75.6309 77.1582 75.4355 77.002 75.209C76.8496 74.9824 76.7734 74.7129 76.7734 74.4004C76.7734 73.8809 76.9922 73.4414 77.4297 73.082C77.8711 72.7227 78.4336 72.543 79.1172 72.543C79.8359 72.543 80.418 72.7285 80.8633 73.0996C81.3125 73.4707 81.5371 73.9453 81.5371 74.5234H80.4473C80.4473 74.2266 80.3203 73.9707 80.0664 73.7559C79.8164 73.541 79.5 73.4336 79.1172 73.4336C78.7227 73.4336 78.4141 73.5195 78.1914 73.6914C77.9688 73.8633 77.8574 74.0879 77.8574 74.3652C77.8574 74.627 77.9609 74.8242 78.168 74.957C78.375 75.0898 78.748 75.2168 79.2871 75.3379C79.8301 75.459 80.2695 75.6035 80.6055 75.7715C80.9414 75.9395 81.1895 76.1426 81.3496 76.3809C81.5137 76.6152 81.5957 76.9023 81.5957 77.2422C81.5957 77.8086 81.3691 78.2637 80.916 78.6074C80.4629 78.9473 79.875 79.1172 79.1523 79.1172C78.6445 79.1172 78.1953 79.0273 77.8047 78.8477C77.4141 78.668 77.1074 78.418 76.8848 78.0977C76.666 77.7734 76.5566 77.4238 76.5566 77.0488H77.6406C77.6602 77.4121 77.8047 77.7012 78.0742 77.916C78.3477 78.127 78.707 78.2324 79.1523 78.2324C79.5625 78.2324 79.8906 78.1504 80.1367 77.9863C80.3867 77.8184 80.5117 77.5957 80.5117 77.3184ZM82.7207 75.7715C82.7207 75.1504 82.8418 74.5918 83.084 74.0957C83.3301 73.5996 83.6699 73.2168 84.1035 72.9473C84.541 72.6777 85.0391 72.543 85.5977 72.543C86.4609 72.543 87.1582 72.8418 87.6895 73.4395C88.2246 74.0371 88.4922 74.832 88.4922 75.8242V75.9004C88.4922 76.5176 88.373 77.0723 88.1348 77.5645C87.9004 78.0527 87.5625 78.4336 87.1211 78.707C86.6836 78.9805 86.1797 79.1172 85.6094 79.1172C84.75 79.1172 84.0527 78.8184 83.5176 78.2207C82.9863 77.623 82.7207 76.832 82.7207 75.8477V75.7715ZM83.8105 75.9004C83.8105 76.6035 83.9727 77.168 84.2969 77.5938C84.625 78.0195 85.0625 78.2324 85.6094 78.2324C86.1602 78.2324 86.5977 78.0176 86.9219 77.5879C87.2461 77.1543 87.4082 76.5488 87.4082 75.7715C87.4082 75.0762 87.2422 74.5137 86.9102 74.084C86.582 73.6504 86.1445 73.4336 85.5977 73.4336C85.0625 73.4336 84.6309 73.6465 84.3027 74.0723C83.9746 74.498 83.8105 75.1074 83.8105 75.9004ZM93.7656 78.373C93.3438 78.8691 92.7246 79.1172 91.9082 79.1172C91.2324 79.1172 90.7168 78.9219 90.3613 78.5312C90.0098 78.1367 89.832 77.5547 89.8281 76.7852V72.6602H90.9121V76.7559C90.9121 77.7168 91.3027 78.1973 92.084 78.1973C92.9121 78.1973 93.4629 77.8887 93.7363 77.2715V72.6602H94.8203V79H93.7891L93.7656 78.373ZM97.498 72.6602L97.5332 73.457C98.0176 72.8477 98.6504 72.543 99.4316 72.543C100.771 72.543 101.447 73.2988 101.459 74.8105V79H100.375V74.8047C100.371 74.3477 100.266 74.0098 100.059 73.791C99.8555 73.5723 99.5371 73.4629 99.1035 73.4629C98.752 73.4629 98.4434 73.5566 98.1777 73.7441C97.9121 73.9316 97.7051 74.1777 97.5566 74.4824V79H96.4727V72.6602H97.498ZM102.83 75.7773C102.83 74.8047 103.061 74.0234 103.521 73.4336C103.982 72.8398 104.586 72.543 105.332 72.543C106.074 72.543 106.662 72.7969 107.096 73.3047V70H108.18V79H107.184L107.131 78.3203C106.697 78.8516 106.094 79.1172 105.32 79.1172C104.586 79.1172 103.986 78.8164 103.521 78.2148C103.061 77.6133 102.83 76.8281 102.83 75.8594V75.7773ZM103.914 75.9004C103.914 76.6191 104.062 77.1816 104.359 77.5879C104.656 77.9941 105.066 78.1973 105.59 78.1973C106.277 78.1973 106.779 77.8887 107.096 77.2715V74.3594C106.771 73.7617 106.273 73.4629 105.602 73.4629C105.07 73.4629 104.656 73.668 104.359 74.0781C104.062 74.4883 103.914 75.0957 103.914 75.9004ZM116.535 77.3184C116.535 77.0254 116.424 76.7988 116.201 76.6387C115.982 76.4746 115.598 76.334 115.047 76.2168C114.5 76.0996 114.064 75.959 113.74 75.7949C113.42 75.6309 113.182 75.4355 113.025 75.209C112.873 74.9824 112.797 74.7129 112.797 74.4004C112.797 73.8809 113.016 73.4414 113.453 73.082C113.895 72.7227 114.457 72.543 115.141 72.543C115.859 72.543 116.441 72.7285 116.887 73.0996C117.336 73.4707 117.561 73.9453 117.561 74.5234H116.471C116.471 74.2266 116.344 73.9707 116.09 73.7559C115.84 73.541 115.523 73.4336 115.141 73.4336C114.746 73.4336 114.438 73.5195 114.215 73.6914C113.992 73.8633 113.881 74.0879 113.881 74.3652C113.881 74.627 113.984 74.8242 114.191 74.957C114.398 75.0898 114.771 75.2168 115.311 75.3379C115.854 75.459 116.293 75.6035 116.629 75.7715C116.965 75.9395 117.213 76.1426 117.373 76.3809C117.537 76.6152 117.619 76.9023 117.619 77.2422C117.619 77.8086 117.393 78.2637 116.939 78.6074C116.486 78.9473 115.898 79.1172 115.176 79.1172C114.668 79.1172 114.219 79.0273 113.828 78.8477C113.438 78.668 113.131 78.418 112.908 78.0977C112.689 77.7734 112.58 77.4238 112.58 77.0488H113.664C113.684 77.4121 113.828 77.7012 114.098 77.916C114.371 78.127 114.73 78.2324 115.176 78.2324C115.586 78.2324 115.914 78.1504 116.16 77.9863C116.41 77.8184 116.535 77.5957 116.535 77.3184ZM124.387 75.9004C124.387 76.8652 124.166 77.6426 123.725 78.2324C123.283 78.8223 122.686 79.1172 121.932 79.1172C121.162 79.1172 120.557 78.873 120.115 78.3848V81.4375H119.031V72.6602H120.021L120.074 73.3633C120.516 72.8164 121.129 72.543 121.914 72.543C122.676 72.543 123.277 72.8301 123.719 73.4043C124.164 73.9785 124.387 74.7773 124.387 75.8008V75.9004ZM123.303 75.7773C123.303 75.0625 123.15 74.498 122.846 74.084C122.541 73.6699 122.123 73.4629 121.592 73.4629C120.936 73.4629 120.443 73.7539 120.115 74.3359V77.3652C120.439 77.9434 120.936 78.2324 121.604 78.2324C122.123 78.2324 122.535 78.0273 122.84 77.6172C123.148 77.2031 123.303 76.5898 123.303 75.7773ZM128.4 79.1172C127.541 79.1172 126.842 78.8359 126.303 78.2734C125.764 77.707 125.494 76.9512 125.494 76.0059V75.8066C125.494 75.1777 125.613 74.6172 125.852 74.125C126.094 73.6289 126.43 73.2422 126.859 72.9648C127.293 72.6836 127.762 72.543 128.266 72.543C129.09 72.543 129.73 72.8145 130.188 73.3574C130.645 73.9004 130.873 74.6777 130.873 75.6895V76.1406H126.578C126.594 76.7656 126.775 77.2715 127.123 77.6582C127.475 78.041 127.92 78.2324 128.459 78.2324C128.842 78.2324 129.166 78.1543 129.432 77.998C129.697 77.8418 129.93 77.6348 130.129 77.377L130.791 77.8926C130.26 78.709 129.463 79.1172 128.4 79.1172ZM128.266 73.4336C127.828 73.4336 127.461 73.5938 127.164 73.9141C126.867 74.2305 126.684 74.6758 126.613 75.25H129.789V75.168C129.758 74.6172 129.609 74.1914 129.344 73.8906C129.078 73.5859 128.719 73.4336 128.266 73.4336ZM134.764 79.1172C133.904 79.1172 133.205 78.8359 132.666 78.2734C132.127 77.707 131.857 76.9512 131.857 76.0059V75.8066C131.857 75.1777 131.977 74.6172 132.215 74.125C132.457 73.6289 132.793 73.2422 133.223 72.9648C133.656 72.6836 134.125 72.543 134.629 72.543C135.453 72.543 136.094 72.8145 136.551 73.3574C137.008 73.9004 137.236 74.6777 137.236 75.6895V76.1406H132.941C132.957 76.7656 133.139 77.2715 133.486 77.6582C133.838 78.041 134.283 78.2324 134.822 78.2324C135.205 78.2324 135.529 78.1543 135.795 77.998C136.061 77.8418 136.293 77.6348 136.492 77.377L137.154 77.8926C136.623 78.709 135.826 79.1172 134.764 79.1172ZM134.629 73.4336C134.191 73.4336 133.824 73.5938 133.527 73.9141C133.23 74.2305 133.047 74.6758 132.977 75.25H136.152V75.168C136.121 74.6172 135.973 74.1914 135.707 73.8906C135.441 73.5859 135.082 73.4336 134.629 73.4336ZM138.232 75.7773C138.232 74.8047 138.463 74.0234 138.924 73.4336C139.385 72.8398 139.988 72.543 140.734 72.543C141.477 72.543 142.064 72.7969 142.498 73.3047V70H143.582V79H142.586L142.533 78.3203C142.1 78.8516 141.496 79.1172 140.723 79.1172C139.988 79.1172 139.389 78.8164 138.924 78.2148C138.463 77.6133 138.232 76.8281 138.232 75.8594V75.7773ZM139.316 75.9004C139.316 76.6191 139.465 77.1816 139.762 77.5879C140.059 77.9941 140.469 78.1973 140.992 78.1973C141.68 78.1973 142.182 77.8887 142.498 77.2715V74.3594C142.174 73.7617 141.676 73.4629 141.004 73.4629C140.473 73.4629 140.059 73.668 139.762 74.0781C139.465 74.4883 139.316 75.0957 139.316 75.9004Z" fill="black"/>
<path d="M80.5117 48.3184C80.5117 48.0254 80.4004 47.7988 80.1777 47.6387C79.959 47.4746 79.5742 47.334 79.0234 47.2168C78.4766 47.0996 78.041 46.959 77.7168 46.7949C77.3965 46.6309 77.1582 46.4355 77.002 46.209C76.8496 45.9824 76.7734 45.7129 76.7734 45.4004C76.7734 44.8809 76.9922 44.4414 77.4297 44.082C77.8711 43.7227 78.4336 43.543 79.1172 43.543C79.8359 43.543 80.418 43.7285 80.8633 44.0996C81.3125 44.4707 81.5371 44.9453 81.5371 45.5234H80.4473C80.4473 45.2266 80.3203 44.9707 80.0664 44.7559C79.8164 44.541 79.5 44.4336 79.1172 44.4336C78.7227 44.4336 78.4141 44.5195 78.1914 44.6914C77.9688 44.8633 77.8574 45.0879 77.8574 45.3652C77.8574 45.627 77.9609 45.8242 78.168 45.957C78.375 46.0898 78.748 46.2168 79.2871 46.3379C79.8301 46.459 80.2695 46.6035 80.6055 46.7715C80.9414 46.9395 81.1895 47.1426 81.3496 47.3809C81.5137 47.6152 81.5957 47.9023 81.5957 48.2422C81.5957 48.8086 81.3691 49.2637 80.916 49.6074C80.4629 49.9473 79.875 50.1172 79.1523 50.1172C78.6445 50.1172 78.1953 50.0273 77.8047 49.8477C77.4141 49.668 77.1074 49.418 76.8848 49.0977C76.666 48.7734 76.5566 48.4238 76.5566 48.0488H77.6406C77.6602 48.4121 77.8047 48.7012 78.0742 48.916C78.3477 49.127 78.707 49.2324 79.1523 49.2324C79.5625 49.2324 79.8906 49.1504 80.1367 48.9863C80.3867 48.8184 80.5117 48.5957 80.5117 48.3184ZM84.4785 42.125V43.6602H85.6621V44.498H84.4785V48.4297C84.4785 48.6836 84.5312 48.875 84.6367 49.0039C84.7422 49.1289 84.9219 49.1914 85.1758 49.1914C85.3008 49.1914 85.4727 49.168 85.6914 49.1211V50C85.4062 50.0781 85.1289 50.1172 84.8594 50.1172C84.375 50.1172 84.0098 49.9707 83.7637 49.6777C83.5176 49.3848 83.3945 48.9688 83.3945 48.4297V44.498H82.2402V43.6602H83.3945V42.125H84.4785ZM90.8477 50C90.7852 49.875 90.7344 49.6523 90.6953 49.332C90.1914 49.8555 89.5898 50.1172 88.8906 50.1172C88.2656 50.1172 87.752 49.9414 87.3496 49.5898C86.9512 49.2344 86.752 48.7852 86.752 48.2422C86.752 47.582 87.002 47.0703 87.502 46.707C88.0059 46.3398 88.7129 46.1562 89.623 46.1562H90.6777V45.6582C90.6777 45.2793 90.5645 44.9785 90.3379 44.7559C90.1113 44.5293 89.7773 44.416 89.3359 44.416C88.9492 44.416 88.625 44.5137 88.3633 44.709C88.1016 44.9043 87.9707 45.1406 87.9707 45.418H86.8809C86.8809 45.1016 86.9922 44.7969 87.2148 44.5039C87.4414 44.207 87.7461 43.9727 88.1289 43.8008C88.5156 43.6289 88.9395 43.543 89.4004 43.543C90.1309 43.543 90.7031 43.7266 91.1172 44.0938C91.5312 44.457 91.7461 44.959 91.7617 45.5996V48.5176C91.7617 49.0996 91.8359 49.5625 91.9844 49.9062V50H90.8477ZM89.0488 49.1738C89.3887 49.1738 89.7109 49.0859 90.0156 48.9102C90.3203 48.7344 90.541 48.5059 90.6777 48.2246V46.9238H89.8281C88.5 46.9238 87.8359 47.3125 87.8359 48.0898C87.8359 48.4297 87.9492 48.6953 88.1758 48.8867C88.4023 49.0781 88.6934 49.1738 89.0488 49.1738ZM96.5254 44.6328C96.3613 44.6055 96.1836 44.5918 95.9922 44.5918C95.2812 44.5918 94.7988 44.8945 94.5449 45.5V50H93.4609V43.6602H94.5156L94.5332 44.3926C94.8887 43.8262 95.3926 43.543 96.0449 43.543C96.2559 43.543 96.416 43.5703 96.5254 43.625V44.6328ZM99.291 42.125V43.6602H100.475V44.498H99.291V48.4297C99.291 48.6836 99.3438 48.875 99.4492 49.0039C99.5547 49.1289 99.7344 49.1914 99.9883 49.1914C100.113 49.1914 100.285 49.168 100.504 49.1211V50C100.219 50.0781 99.9414 50.1172 99.6719 50.1172C99.1875 50.1172 98.8223 49.9707 98.5762 49.6777C98.3301 49.3848 98.207 48.9688 98.207 48.4297V44.498H97.0527V43.6602H98.207V42.125H99.291ZM108.414 48.3184C108.414 48.0254 108.303 47.7988 108.08 47.6387C107.861 47.4746 107.477 47.334 106.926 47.2168C106.379 47.0996 105.943 46.959 105.619 46.7949C105.299 46.6309 105.061 46.4355 104.904 46.209C104.752 45.9824 104.676 45.7129 104.676 45.4004C104.676 44.8809 104.895 44.4414 105.332 44.082C105.773 43.7227 106.336 43.543 107.02 43.543C107.738 43.543 108.32 43.7285 108.766 44.0996C109.215 44.4707 109.439 44.9453 109.439 45.5234H108.35C108.35 45.2266 108.223 44.9707 107.969 44.7559C107.719 44.541 107.402 44.4336 107.02 44.4336C106.625 44.4336 106.316 44.5195 106.094 44.6914C105.871 44.8633 105.76 45.0879 105.76 45.3652C105.76 45.627 105.863 45.8242 106.07 45.957C106.277 46.0898 106.65 46.2168 107.189 46.3379C107.732 46.459 108.172 46.6035 108.508 46.7715C108.844 46.9395 109.092 47.1426 109.252 47.3809C109.416 47.6152 109.498 47.9023 109.498 48.2422C109.498 48.8086 109.271 49.2637 108.818 49.6074C108.365 49.9473 107.777 50.1172 107.055 50.1172C106.547 50.1172 106.098 50.0273 105.707 49.8477C105.316 49.668 105.01 49.418 104.787 49.0977C104.568 48.7734 104.459 48.4238 104.459 48.0488H105.543C105.562 48.4121 105.707 48.7012 105.977 48.916C106.25 49.127 106.609 49.2324 107.055 49.2324C107.465 49.2324 107.793 49.1504 108.039 48.9863C108.289 48.8184 108.414 48.5957 108.414 48.3184ZM110.623 46.7715C110.623 46.1504 110.744 45.5918 110.986 45.0957C111.232 44.5996 111.572 44.2168 112.006 43.9473C112.443 43.6777 112.941 43.543 113.5 43.543C114.363 43.543 115.061 43.8418 115.592 44.4395C116.127 45.0371 116.395 45.832 116.395 46.8242V46.9004C116.395 47.5176 116.275 48.0723 116.037 48.5645C115.803 49.0527 115.465 49.4336 115.023 49.707C114.586 49.9805 114.082 50.1172 113.512 50.1172C112.652 50.1172 111.955 49.8184 111.42 49.2207C110.889 48.623 110.623 47.832 110.623 46.8477V46.7715ZM111.713 46.9004C111.713 47.6035 111.875 48.168 112.199 48.5938C112.527 49.0195 112.965 49.2324 113.512 49.2324C114.062 49.2324 114.5 49.0176 114.824 48.5879C115.148 48.1543 115.311 47.5488 115.311 46.7715C115.311 46.0762 115.145 45.5137 114.812 45.084C114.484 44.6504 114.047 44.4336 113.5 44.4336C112.965 44.4336 112.533 44.6465 112.205 45.0723C111.877 45.498 111.713 46.1074 111.713 46.9004ZM121.668 49.373C121.246 49.8691 120.627 50.1172 119.811 50.1172C119.135 50.1172 118.619 49.9219 118.264 49.5312C117.912 49.1367 117.734 48.5547 117.73 47.7852V43.6602H118.814V47.7559C118.814 48.7168 119.205 49.1973 119.986 49.1973C120.814 49.1973 121.365 48.8887 121.639 48.2715V43.6602H122.723V50H121.691L121.668 49.373ZM125.4 43.6602L125.436 44.457C125.92 43.8477 126.553 43.543 127.334 43.543C128.674 43.543 129.35 44.2988 129.361 45.8105V50H128.277V45.8047C128.273 45.3477 128.168 45.0098 127.961 44.791C127.758 44.5723 127.439 44.4629 127.006 44.4629C126.654 44.4629 126.346 44.5566 126.08 44.7441C125.814 44.9316 125.607 45.1777 125.459 45.4824V50H124.375V43.6602H125.4ZM130.732 46.7773C130.732 45.8047 130.963 45.0234 131.424 44.4336C131.885 43.8398 132.488 43.543 133.234 43.543C133.977 43.543 134.564 43.7969 134.998 44.3047V41H136.082V50H135.086L135.033 49.3203C134.6 49.8516 133.996 50.1172 133.223 50.1172C132.488 50.1172 131.889 49.8164 131.424 49.2148C130.963 48.6133 130.732 47.8281 130.732 46.8594V46.7773ZM131.816 46.9004C131.816 47.6191 131.965 48.1816 132.262 48.5879C132.559 48.9941 132.969 49.1973 133.492 49.1973C134.18 49.1973 134.682 48.8887 134.998 48.2715V45.3594C134.674 44.7617 134.176 44.4629 133.504 44.4629C132.973 44.4629 132.559 44.668 132.262 45.0781C131.965 45.4883 131.816 46.0957 131.816 46.9004Z" fill="black"/>
<path d="M27.5117 49.3184C27.5117 49.0254 27.4004 48.7988 27.1777 48.6387C26.959 48.4746 26.5742 48.334 26.0234 48.2168C25.4766 48.0996 25.041 47.959 24.7168 47.7949C24.3965 47.6309 24.1582 47.4355 24.002 47.209C23.8496 46.9824 23.7734 46.7129 23.7734 46.4004C23.7734 45.8809 23.9922 45.4414 24.4297 45.082C24.8711 44.7227 25.4336 44.543 26.1172 44.543C26.8359 44.543 27.418 44.7285 27.8633 45.0996C28.3125 45.4707 28.5371 45.9453 28.5371 46.5234H27.4473C27.4473 46.2266 27.3203 45.9707 27.0664 45.7559C26.8164 45.541 26.5 45.4336 26.1172 45.4336C25.7227 45.4336 25.4141 45.5195 25.1914 45.6914C24.9688 45.8633 24.8574 46.0879 24.8574 46.3652C24.8574 46.627 24.9609 46.8242 25.168 46.957C25.375 47.0898 25.748 47.2168 26.2871 47.3379C26.8301 47.459 27.2695 47.6035 27.6055 47.7715C27.9414 47.9395 28.1895 48.1426 28.3496 48.3809C28.5137 48.6152 28.5957 48.9023 28.5957 49.2422C28.5957 49.8086 28.3691 50.2637 27.916 50.6074C27.4629 50.9473 26.875 51.1172 26.1523 51.1172C25.6445 51.1172 25.1953 51.0273 24.8047 50.8477C24.4141 50.668 24.1074 50.418 23.8848 50.0977C23.666 49.7734 23.5566 49.4238 23.5566 49.0488H24.6406C24.6602 49.4121 24.8047 49.7012 25.0742 49.916C25.3477 50.127 25.707 50.2324 26.1523 50.2324C26.5625 50.2324 26.8906 50.1504 27.1367 49.9863C27.3867 49.8184 27.5117 49.5957 27.5117 49.3184ZM35.3633 47.9004C35.3633 48.8652 35.1426 49.6426 34.7012 50.2324C34.2598 50.8223 33.6621 51.1172 32.9082 51.1172C32.1387 51.1172 31.5332 50.873 31.0918 50.3848V53.4375H30.0078V44.6602H30.998L31.0508 45.3633C31.4922 44.8164 32.1055 44.543 32.8906 44.543C33.6523 44.543 34.2539 44.8301 34.6953 45.4043C35.1406 45.9785 35.3633 46.7773 35.3633 47.8008V47.9004ZM34.2793 47.7773C34.2793 47.0625 34.127 46.498 33.8223 46.084C33.5176 45.6699 33.0996 45.4629 32.5684 45.4629C31.9121 45.4629 31.4199 45.7539 31.0918 46.3359V49.3652C31.416 49.9434 31.9121 50.2324 32.5801 50.2324C33.0996 50.2324 33.5117 50.0273 33.8164 49.6172C34.125 49.2031 34.2793 48.5898 34.2793 47.7773ZM40.6602 51C40.5977 50.875 40.5469 50.6523 40.5078 50.332C40.0039 50.8555 39.4023 51.1172 38.7031 51.1172C38.0781 51.1172 37.5645 50.9414 37.1621 50.5898C36.7637 50.2344 36.5645 49.7852 36.5645 49.2422C36.5645 48.582 36.8145 48.0703 37.3145 47.707C37.8184 47.3398 38.5254 47.1562 39.4355 47.1562H40.4902V46.6582C40.4902 46.2793 40.377 45.9785 40.1504 45.7559C39.9238 45.5293 39.5898 45.416 39.1484 45.416C38.7617 45.416 38.4375 45.5137 38.1758 45.709C37.9141 45.9043 37.7832 46.1406 37.7832 46.418H36.6934C36.6934 46.1016 36.8047 45.7969 37.0273 45.5039C37.2539 45.207 37.5586 44.9727 37.9414 44.8008C38.3281 44.6289 38.752 44.543 39.2129 44.543C39.9434 44.543 40.5156 44.7266 40.9297 45.0938C41.3438 45.457 41.5586 45.959 41.5742 46.5996V49.5176C41.5742 50.0996 41.6484 50.5625 41.7969 50.9062V51H40.6602ZM38.8613 50.1738C39.2012 50.1738 39.5234 50.0859 39.8281 49.9102C40.1328 49.7344 40.3535 49.5059 40.4902 49.2246V47.9238H39.6406C38.3125 47.9238 37.6484 48.3125 37.6484 49.0898C37.6484 49.4297 37.7617 49.6953 37.9883 49.8867C38.2148 50.0781 38.5059 50.1738 38.8613 50.1738ZM45.8164 50.2324C46.2031 50.2324 46.541 50.1152 46.8301 49.8809C47.1191 49.6465 47.2793 49.3535 47.3105 49.002H48.3359C48.3164 49.3652 48.1914 49.7109 47.9609 50.0391C47.7305 50.3672 47.4219 50.6289 47.0352 50.8242C46.6523 51.0195 46.2461 51.1172 45.8164 51.1172C44.9531 51.1172 44.2656 50.8301 43.7539 50.2559C43.2461 49.6777 42.9922 48.8887 42.9922 47.8887V47.707C42.9922 47.0898 43.1055 46.541 43.332 46.0605C43.5586 45.5801 43.8828 45.207 44.3047 44.9414C44.7305 44.6758 45.2324 44.543 45.8105 44.543C46.5215 44.543 47.1113 44.7559 47.5801 45.1816C48.0527 45.6074 48.3047 46.1602 48.3359 46.8398H47.3105C47.2793 46.4297 47.123 46.0938 46.8418 45.832C46.5645 45.5664 46.2207 45.4336 45.8105 45.4336C45.2598 45.4336 44.832 45.6328 44.5273 46.0312C44.2266 46.4258 44.0762 46.998 44.0762 47.748V47.9531C44.0762 48.6836 44.2266 49.2461 44.5273 49.6406C44.8281 50.0352 45.2578 50.2324 45.8164 50.2324ZM52.1855 51.1172C51.3262 51.1172 50.627 50.8359 50.0879 50.2734C49.5488 49.707 49.2793 48.9512 49.2793 48.0059V47.8066C49.2793 47.1777 49.3984 46.6172 49.6367 46.125C49.8789 45.6289 50.2148 45.2422 50.6445 44.9648C51.0781 44.6836 51.5469 44.543 52.0508 44.543C52.875 44.543 53.5156 44.8145 53.9727 45.3574C54.4297 45.9004 54.6582 46.6777 54.6582 47.6895V48.1406H50.3633C50.3789 48.7656 50.5605 49.2715 50.9082 49.6582C51.2598 50.041 51.7051 50.2324 52.2441 50.2324C52.627 50.2324 52.9512 50.1543 53.2168 49.998C53.4824 49.8418 53.7148 49.6348 53.9141 49.377L54.5762 49.8926C54.0449 50.709 53.248 51.1172 52.1855 51.1172ZM52.0508 45.4336C51.6133 45.4336 51.2461 45.5938 50.9492 45.9141C50.6523 46.2305 50.4688 46.6758 50.3984 47.25H53.5742V47.168C53.543 46.6172 53.3945 46.1914 53.1289 45.8906C52.8633 45.5859 52.5039 45.4336 52.0508 45.4336Z" fill="black"/>
<path d="M56.6582 76.1914L52.7852 74.6738V73.5605L57.7891 75.7754V76.6309L52.7852 78.8516V77.7266L56.6582 76.1914Z" fill="black"/>
<path d="M33.5469 76.2266L37.2148 77.709V78.8574L32.4219 76.6367V75.7812L37.2148 73.5664V74.7148L33.5469 76.2266Z" fill="black"/>
<path d="M33.356 18.52C33.196 18.944 33 19.308 32.768 19.612L39.2 19.612L39.2 20.596L32.768 20.596C32.992 20.9 33.184 21.264 33.344 21.688L32.432 21.688C31.936 21.104 31.392 20.66 30.8 20.356L30.8 19.84C31.392 19.552 31.936 19.112 32.432 18.52L33.356 18.52Z" fill="black"/>
<path d="M56.644 21.48C56.804 21.056 57 20.692 57.232 20.388H50.8V19.404H57.232C57.008 19.1 56.816 18.736 56.656 18.312H57.568C58.064 18.896 58.608 19.34 59.2 19.644V20.16C58.608 20.448 58.064 20.888 57.568 21.48H56.644Z" fill="black"/>
</svg>
