<svg width="776" height="474" viewBox="0 0 776 474" fill="none" xmlns="http://www.w3.org/2000/svg">
<rect width="776" height="474" fill="white"/>
<g opacity="0.5">
<path d="M323.118 73V59.9091H325.061V61.8864H325.198C325.436 61.2386 325.868 60.7131 326.493 60.3097C327.118 59.9062 327.823 59.7045 328.607 59.7045C328.755 59.7045 328.939 59.7074 329.161 59.7131C329.382 59.7187 329.55 59.7273 329.664 59.7386V61.7841C329.596 61.767 329.439 61.7415 329.195 61.7074C328.956 61.6676 328.703 61.6477 328.436 61.6477C327.8 61.6477 327.232 61.7812 326.732 62.0483C326.238 62.3097 325.846 62.6733 325.556 63.1392C325.272 63.5994 325.13 64.125 325.13 64.7159V73H323.118ZM336.968 73.2727C335.786 73.2727 334.749 72.9915 333.857 72.429C332.971 71.8665 332.277 71.0795 331.777 70.0682C331.283 69.0568 331.036 67.875 331.036 66.5227C331.036 65.1591 331.283 63.9687 331.777 62.9517C332.277 61.9347 332.971 61.1449 333.857 60.5824C334.749 60.0199 335.786 59.7386 336.968 59.7386C338.15 59.7386 339.184 60.0199 340.07 60.5824C340.962 61.1449 341.655 61.9347 342.15 62.9517C342.65 63.9687 342.9 65.1591 342.9 66.5227C342.9 67.875 342.65 69.0568 342.15 70.0682C341.655 71.0795 340.962 71.8665 340.07 72.429C339.184 72.9915 338.15 73.2727 336.968 73.2727ZM336.968 71.4659C337.865 71.4659 338.604 71.2358 339.184 70.7756C339.763 70.3153 340.192 69.7102 340.471 68.9602C340.749 68.2102 340.888 67.3977 340.888 66.5227C340.888 65.6477 340.749 64.8324 340.471 64.0767C340.192 63.321 339.763 62.7102 339.184 62.2443C338.604 61.7784 337.865 61.5455 336.968 61.5455C336.07 61.5455 335.331 61.7784 334.752 62.2443C334.172 62.7102 333.743 63.321 333.465 64.0767C333.186 64.8324 333.047 65.6477 333.047 66.5227C333.047 67.3977 333.186 68.2102 333.465 68.9602C333.743 69.7102 334.172 70.3153 334.752 70.7756C335.331 71.2358 336.07 71.4659 336.968 71.4659ZM351.288 73.2727C350.106 73.2727 349.069 72.9915 348.177 72.429C347.291 71.8665 346.598 71.0795 346.098 70.0682C345.603 69.0568 345.356 67.875 345.356 66.5227C345.356 65.1591 345.603 63.9687 346.098 62.9517C346.598 61.9347 347.291 61.1449 348.177 60.5824C349.069 60.0199 350.106 59.7386 351.288 59.7386C352.47 59.7386 353.504 60.0199 354.39 60.5824C355.282 61.1449 355.975 61.9347 356.47 62.9517C356.97 63.9687 357.22 65.1591 357.22 66.5227C357.22 67.875 356.97 69.0568 356.47 70.0682C355.975 71.0795 355.282 71.8665 354.39 72.429C353.504 72.9915 352.47 73.2727 351.288 73.2727ZM351.288 71.4659C352.186 71.4659 352.924 71.2358 353.504 70.7756C354.083 70.3153 354.512 69.7102 354.791 68.9602C355.069 68.2102 355.208 67.3977 355.208 66.5227C355.208 65.6477 355.069 64.8324 354.791 64.0767C354.512 63.321 354.083 62.7102 353.504 62.2443C352.924 61.7784 352.186 61.5455 351.288 61.5455C350.39 61.5455 349.652 61.7784 349.072 62.2443C348.493 62.7102 348.064 63.321 347.785 64.0767C347.507 64.8324 347.368 65.6477 347.368 66.5227C347.368 67.3977 347.507 68.2102 347.785 68.9602C348.064 69.7102 348.493 70.3153 349.072 70.7756C349.652 71.2358 350.39 71.4659 351.288 71.4659ZM365.983 59.9091V61.6136H359.199V59.9091H365.983ZM361.176 56.7727H363.188V69.25C363.188 69.8182 363.27 70.2443 363.435 70.5284C363.605 70.8068 363.821 70.9943 364.083 71.0909C364.35 71.1818 364.631 71.2273 364.926 71.2273C365.148 71.2273 365.33 71.2159 365.472 71.1932C365.614 71.1648 365.728 71.142 365.813 71.125L366.222 72.9318C366.086 72.983 365.895 73.0341 365.651 73.0852C365.407 73.142 365.097 73.1705 364.722 73.1705C364.154 73.1705 363.597 73.0483 363.051 72.804C362.512 72.5597 362.063 72.1875 361.705 71.6875C361.353 71.1875 361.176 70.5568 361.176 69.7955V56.7727ZM385.032 62.8409L383.225 63.3523C383.111 63.0511 382.944 62.7585 382.722 62.4744C382.506 62.1847 382.211 61.946 381.836 61.7585C381.461 61.571 380.98 61.4773 380.395 61.4773C379.594 61.4773 378.926 61.6619 378.392 62.0312C377.864 62.3949 377.6 62.858 377.6 63.4205C377.6 63.9205 377.782 64.3153 378.145 64.6051C378.509 64.8949 379.077 65.1364 379.85 65.3295L381.793 65.8068C382.963 66.0909 383.836 66.5256 384.409 67.1108C384.983 67.6903 385.27 68.4375 385.27 69.3523C385.27 70.1023 385.054 70.7727 384.623 71.3636C384.196 71.9545 383.6 72.4205 382.833 72.7614C382.066 73.1023 381.174 73.2727 380.157 73.2727C378.821 73.2727 377.716 72.983 376.841 72.4034C375.966 71.8239 375.412 70.9773 375.179 69.8636L377.088 69.3864C377.27 70.0909 377.614 70.6193 378.12 70.9716C378.631 71.3239 379.299 71.5 380.123 71.5C381.06 71.5 381.804 71.3011 382.355 70.9034C382.912 70.5 383.191 70.017 383.191 69.4545C383.191 69 383.032 68.6193 382.713 68.3125C382.395 68 381.907 67.767 381.248 67.6136L379.066 67.1023C377.867 66.8182 376.986 66.3778 376.424 65.7812C375.867 65.179 375.588 64.4261 375.588 63.5227C375.588 62.7841 375.796 62.1307 376.211 61.5625C376.631 60.9943 377.202 60.5483 377.924 60.2244C378.651 59.9006 379.475 59.7386 380.395 59.7386C381.691 59.7386 382.708 60.0227 383.446 60.5909C384.191 61.1591 384.719 61.9091 385.032 62.8409ZM390.309 55.5455V73H388.298V55.5455H390.309ZM393.993 73V59.9091H396.005V73H393.993ZM395.016 57.7273C394.624 57.7273 394.286 57.5938 394.002 57.3267C393.723 57.0597 393.584 56.7386 393.584 56.3636C393.584 55.9886 393.723 55.6676 394.002 55.4006C394.286 55.1335 394.624 55 395.016 55C395.408 55 395.743 55.1335 396.022 55.4006C396.306 55.6676 396.448 55.9886 396.448 56.3636C396.448 56.7386 396.306 57.0597 396.022 57.3267C395.743 57.5938 395.408 57.7273 395.016 57.7273ZM404.632 73.2727C403.541 73.2727 402.578 72.9972 401.743 72.446C400.907 71.8892 400.254 71.1051 399.782 70.0938C399.311 69.0767 399.075 67.875 399.075 66.4886C399.075 65.1136 399.311 63.9205 399.782 62.9091C400.254 61.8977 400.91 61.1165 401.751 60.5653C402.592 60.0142 403.564 59.7386 404.666 59.7386C405.518 59.7386 406.191 59.8807 406.686 60.1648C407.186 60.4432 407.566 60.7614 407.828 61.1193C408.095 61.4716 408.302 61.7614 408.45 61.9886H408.62V55.5455H410.632V73H408.689V70.9886H408.45C408.302 71.2273 408.092 71.5284 407.819 71.892C407.547 72.25 407.157 72.571 406.652 72.8551C406.146 73.1335 405.473 73.2727 404.632 73.2727ZM404.904 71.4659C405.711 71.4659 406.393 71.2557 406.95 70.8352C407.507 70.4091 407.93 69.821 408.22 69.071C408.51 68.3153 408.654 67.4432 408.654 66.4545C408.654 65.4773 408.512 64.6222 408.228 63.8892C407.944 63.1506 407.524 62.5767 406.967 62.1676C406.41 61.7528 405.723 61.5455 404.904 61.5455C404.052 61.5455 403.342 61.7642 402.774 62.2017C402.211 62.6335 401.788 63.2216 401.504 63.9659C401.225 64.7045 401.086 65.5341 401.086 66.4545C401.086 67.3864 401.228 68.233 401.512 68.9943C401.802 69.75 402.228 70.3523 402.791 70.8011C403.359 71.2443 404.064 71.4659 404.904 71.4659ZM420.083 73.2727C418.822 73.2727 417.734 72.9943 416.819 72.4375C415.91 71.875 415.208 71.0909 414.714 70.0852C414.225 69.0739 413.981 67.8977 413.981 66.5568C413.981 65.2159 414.225 64.0341 414.714 63.0114C415.208 61.983 415.896 61.1818 416.777 60.608C417.663 60.0284 418.697 59.7386 419.879 59.7386C420.561 59.7386 421.234 59.8523 421.899 60.0795C422.564 60.3068 423.169 60.6761 423.714 61.1875C424.26 61.6932 424.694 62.3636 425.018 63.1989C425.342 64.0341 425.504 65.0625 425.504 66.2841V67.1364H415.413V65.3977H423.458C423.458 64.6591 423.311 64 423.015 63.4205C422.725 62.8409 422.311 62.3835 421.771 62.0483C421.237 61.7131 420.606 61.5455 419.879 61.5455C419.078 61.5455 418.385 61.7443 417.799 62.142C417.22 62.5341 416.774 63.0455 416.461 63.6761C416.149 64.3068 415.993 64.983 415.993 65.7045V66.8636C415.993 67.8523 416.163 68.6903 416.504 69.3778C416.85 70.0597 417.331 70.5795 417.944 70.9375C418.558 71.2898 419.271 71.4659 420.083 71.4659C420.612 71.4659 421.089 71.392 421.515 71.2443C421.947 71.0909 422.319 70.8636 422.632 70.5625C422.944 70.2557 423.186 69.875 423.356 69.4205L425.299 69.9659C425.095 70.625 424.751 71.2045 424.268 71.7045C423.785 72.1989 423.189 72.5852 422.478 72.8636C421.768 73.1364 420.97 73.2727 420.083 73.2727Z" fill="#2F80ED"/>
<path d="M431.087 232.125V240H429.075V222.545H431.087V228.955H431.257C431.564 228.278 432.024 227.741 432.638 227.344C433.257 226.94 434.081 226.739 435.109 226.739C436.001 226.739 436.783 226.918 437.453 227.276C438.124 227.628 438.643 228.17 439.013 228.903C439.388 229.631 439.575 230.557 439.575 231.682V240H437.564V231.818C437.564 230.778 437.294 229.974 436.754 229.406C436.22 228.832 435.479 228.545 434.53 228.545C433.871 228.545 433.28 228.685 432.757 228.963C432.24 229.241 431.831 229.648 431.53 230.182C431.234 230.716 431.087 231.364 431.087 232.125ZM443.255 240V226.909H445.266V240H443.255ZM444.278 224.727C443.886 224.727 443.548 224.594 443.263 224.327C442.985 224.06 442.846 223.739 442.846 223.364C442.846 222.989 442.985 222.668 443.263 222.401C443.548 222.134 443.886 222 444.278 222C444.67 222 445.005 222.134 445.283 222.401C445.567 222.668 445.71 222.989 445.71 223.364C445.71 223.739 445.567 224.06 445.283 224.327C445.005 224.594 444.67 224.727 444.278 224.727ZM453.893 240.273C452.803 240.273 451.839 239.997 451.004 239.446C450.169 238.889 449.516 238.105 449.044 237.094C448.572 236.077 448.337 234.875 448.337 233.489C448.337 232.114 448.572 230.92 449.044 229.909C449.516 228.898 450.172 228.116 451.013 227.565C451.854 227.014 452.825 226.739 453.928 226.739C454.78 226.739 455.453 226.881 455.947 227.165C456.447 227.443 456.828 227.761 457.089 228.119C457.357 228.472 457.564 228.761 457.712 228.989H457.882V222.545H459.893V240H457.95V237.989H457.712C457.564 238.227 457.354 238.528 457.081 238.892C456.808 239.25 456.419 239.571 455.913 239.855C455.408 240.134 454.734 240.273 453.893 240.273ZM454.166 238.466C454.973 238.466 455.655 238.256 456.212 237.835C456.768 237.409 457.192 236.821 457.482 236.071C457.771 235.315 457.916 234.443 457.916 233.455C457.916 232.477 457.774 231.622 457.49 230.889C457.206 230.151 456.786 229.577 456.229 229.168C455.672 228.753 454.984 228.545 454.166 228.545C453.314 228.545 452.604 228.764 452.036 229.202C451.473 229.634 451.05 230.222 450.766 230.966C450.487 231.705 450.348 232.534 450.348 233.455C450.348 234.386 450.49 235.233 450.774 235.994C451.064 236.75 451.49 237.352 452.053 237.801C452.621 238.244 453.325 238.466 454.166 238.466ZM469.345 240.273C468.084 240.273 466.996 239.994 466.081 239.438C465.172 238.875 464.47 238.091 463.976 237.085C463.487 236.074 463.243 234.898 463.243 233.557C463.243 232.216 463.487 231.034 463.976 230.011C464.47 228.983 465.158 228.182 466.038 227.608C466.925 227.028 467.959 226.739 469.141 226.739C469.822 226.739 470.496 226.852 471.161 227.08C471.825 227.307 472.43 227.676 472.976 228.188C473.521 228.693 473.956 229.364 474.28 230.199C474.604 231.034 474.766 232.062 474.766 233.284V234.136H464.675V232.398H472.72C472.72 231.659 472.572 231 472.277 230.42C471.987 229.841 471.572 229.384 471.033 229.048C470.499 228.713 469.868 228.545 469.141 228.545C468.339 228.545 467.646 228.744 467.061 229.142C466.482 229.534 466.036 230.045 465.723 230.676C465.411 231.307 465.254 231.983 465.254 232.705V233.864C465.254 234.852 465.425 235.69 465.766 236.378C466.112 237.06 466.592 237.58 467.206 237.938C467.82 238.29 468.533 238.466 469.345 238.466C469.874 238.466 470.351 238.392 470.777 238.244C471.209 238.091 471.581 237.864 471.893 237.562C472.206 237.256 472.447 236.875 472.618 236.42L474.561 236.966C474.357 237.625 474.013 238.205 473.53 238.705C473.047 239.199 472.45 239.585 471.74 239.864C471.03 240.136 470.232 240.273 469.345 240.273ZM490.268 226.909V228.614H483.484V226.909H490.268ZM485.462 223.773H487.473V236.25C487.473 236.818 487.555 237.244 487.72 237.528C487.891 237.807 488.107 237.994 488.368 238.091C488.635 238.182 488.916 238.227 489.212 238.227C489.433 238.227 489.615 238.216 489.757 238.193C489.899 238.165 490.013 238.142 490.098 238.125L490.507 239.932C490.371 239.983 490.18 240.034 489.936 240.085C489.692 240.142 489.382 240.17 489.007 240.17C488.439 240.17 487.882 240.048 487.337 239.804C486.797 239.56 486.348 239.188 485.99 238.688C485.638 238.188 485.462 237.557 485.462 236.795V223.773ZM498.642 240.273C497.381 240.273 496.293 239.994 495.378 239.438C494.469 238.875 493.767 238.091 493.273 237.085C492.784 236.074 492.54 234.898 492.54 233.557C492.54 232.216 492.784 231.034 493.273 230.011C493.767 228.983 494.455 228.182 495.335 227.608C496.222 227.028 497.256 226.739 498.438 226.739C499.119 226.739 499.793 226.852 500.457 227.08C501.122 227.307 501.727 227.676 502.273 228.188C502.818 228.693 503.253 229.364 503.577 230.199C503.901 231.034 504.062 232.062 504.062 233.284V234.136H493.972V232.398H502.017C502.017 231.659 501.869 231 501.574 230.42C501.284 229.841 500.869 229.384 500.33 229.048C499.795 228.713 499.165 228.545 498.438 228.545C497.636 228.545 496.943 228.744 496.358 229.142C495.778 229.534 495.332 230.045 495.02 230.676C494.707 231.307 494.551 231.983 494.551 232.705V233.864C494.551 234.852 494.722 235.69 495.062 236.378C495.409 237.06 495.889 237.58 496.503 237.938C497.116 238.29 497.83 238.466 498.642 238.466C499.17 238.466 499.648 238.392 500.074 238.244C500.506 238.091 500.878 237.864 501.19 237.562C501.503 237.256 501.744 236.875 501.915 236.42L503.858 236.966C503.653 237.625 503.31 238.205 502.827 238.705C502.344 239.199 501.747 239.585 501.037 239.864C500.327 240.136 499.528 240.273 498.642 240.273ZM508.271 226.909L511.407 232.261L514.543 226.909H516.862L512.634 233.455L516.862 240H514.543L511.407 234.92L508.271 240H505.952L510.112 233.455L505.952 226.909H508.271ZM525.425 226.909V228.614H518.641V226.909H525.425ZM520.618 223.773H522.629V236.25C522.629 236.818 522.712 237.244 522.876 237.528C523.047 237.807 523.263 237.994 523.524 238.091C523.791 238.182 524.072 238.227 524.368 238.227C524.589 238.227 524.771 238.216 524.913 238.193C525.055 238.165 525.169 238.142 525.254 238.125L525.663 239.932C525.527 239.983 525.337 240.034 525.092 240.085C524.848 240.142 524.538 240.17 524.163 240.17C523.595 240.17 523.038 240.048 522.493 239.804C521.953 239.56 521.504 239.188 521.146 238.688C520.794 238.188 520.618 237.557 520.618 236.795V223.773ZM534.553 222.545V240H532.439V224.761H532.337L528.075 227.591V225.443L532.439 222.545H534.553Z" fill="#EB5757"/>
<path d="M279.114 408.841L277.307 409.352C277.193 409.051 277.026 408.759 276.804 408.474C276.588 408.185 276.293 407.946 275.918 407.759C275.543 407.571 275.062 407.477 274.477 407.477C273.676 407.477 273.009 407.662 272.474 408.031C271.946 408.395 271.682 408.858 271.682 409.42C271.682 409.92 271.864 410.315 272.227 410.605C272.591 410.895 273.159 411.136 273.932 411.33L275.875 411.807C277.045 412.091 277.918 412.526 278.491 413.111C279.065 413.69 279.352 414.437 279.352 415.352C279.352 416.102 279.136 416.773 278.705 417.364C278.278 417.955 277.682 418.42 276.915 418.761C276.148 419.102 275.256 419.273 274.239 419.273C272.903 419.273 271.798 418.983 270.923 418.403C270.048 417.824 269.494 416.977 269.261 415.864L271.17 415.386C271.352 416.091 271.696 416.619 272.202 416.972C272.713 417.324 273.381 417.5 274.205 417.5C275.142 417.5 275.886 417.301 276.438 416.903C276.994 416.5 277.273 416.017 277.273 415.455C277.273 415 277.114 414.619 276.795 414.312C276.477 414 275.989 413.767 275.33 413.614L273.148 413.102C271.949 412.818 271.068 412.378 270.506 411.781C269.949 411.179 269.67 410.426 269.67 409.523C269.67 408.784 269.878 408.131 270.293 407.562C270.713 406.994 271.284 406.548 272.006 406.224C272.733 405.901 273.557 405.739 274.477 405.739C275.773 405.739 276.79 406.023 277.528 406.591C278.273 407.159 278.801 407.909 279.114 408.841ZM284.391 411.125V419H282.38V401.545H284.391V407.955H284.562C284.869 407.278 285.329 406.741 285.942 406.344C286.562 405.94 287.386 405.739 288.414 405.739C289.306 405.739 290.087 405.918 290.758 406.276C291.428 406.628 291.948 407.17 292.317 407.903C292.692 408.631 292.88 409.557 292.88 410.682V419H290.869V410.818C290.869 409.778 290.599 408.974 290.059 408.406C289.525 407.832 288.783 407.545 287.835 407.545C287.175 407.545 286.585 407.685 286.062 407.963C285.545 408.241 285.136 408.648 284.835 409.182C284.539 409.716 284.391 410.364 284.391 411.125ZM301.878 419.273C300.696 419.273 299.659 418.991 298.767 418.429C297.881 417.866 297.188 417.08 296.688 416.068C296.193 415.057 295.946 413.875 295.946 412.523C295.946 411.159 296.193 409.969 296.688 408.952C297.188 407.935 297.881 407.145 298.767 406.582C299.659 406.02 300.696 405.739 301.878 405.739C303.06 405.739 304.094 406.02 304.98 406.582C305.872 407.145 306.565 407.935 307.06 408.952C307.56 409.969 307.81 411.159 307.81 412.523C307.81 413.875 307.56 415.057 307.06 416.068C306.565 417.08 305.872 417.866 304.98 418.429C304.094 418.991 303.06 419.273 301.878 419.273ZM301.878 417.466C302.776 417.466 303.514 417.236 304.094 416.776C304.673 416.315 305.102 415.71 305.381 414.96C305.659 414.21 305.798 413.398 305.798 412.523C305.798 411.648 305.659 410.832 305.381 410.077C305.102 409.321 304.673 408.71 304.094 408.244C303.514 407.778 302.776 407.545 301.878 407.545C300.98 407.545 300.241 407.778 299.662 408.244C299.082 408.71 298.653 409.321 298.375 410.077C298.097 410.832 297.957 411.648 297.957 412.523C297.957 413.398 298.097 414.21 298.375 414.96C298.653 415.71 299.082 416.315 299.662 416.776C300.241 417.236 300.98 417.466 301.878 417.466ZM313.401 419L309.412 405.909H311.526L314.355 415.932H314.491L317.287 405.909H319.435L322.196 415.898H322.332L325.162 405.909H327.276L323.287 419H321.31L318.446 408.943H318.241L315.378 419H313.401ZM342.378 405.909V407.614H335.594V405.909H342.378ZM337.571 402.773H339.582V415.25C339.582 415.818 339.665 416.244 339.83 416.528C340 416.807 340.216 416.994 340.477 417.091C340.744 417.182 341.026 417.227 341.321 417.227C341.543 417.227 341.724 417.216 341.866 417.193C342.009 417.165 342.122 417.142 342.207 417.125L342.616 418.932C342.48 418.983 342.29 419.034 342.045 419.085C341.801 419.142 341.491 419.17 341.116 419.17C340.548 419.17 339.991 419.048 339.446 418.804C338.906 418.56 338.457 418.188 338.099 417.688C337.747 417.188 337.571 416.557 337.571 415.795V402.773ZM350.751 419.273C349.49 419.273 348.402 418.994 347.487 418.438C346.578 417.875 345.876 417.091 345.382 416.085C344.893 415.074 344.649 413.898 344.649 412.557C344.649 411.216 344.893 410.034 345.382 409.011C345.876 407.983 346.564 407.182 347.445 406.608C348.331 406.028 349.365 405.739 350.547 405.739C351.229 405.739 351.902 405.852 352.567 406.08C353.232 406.307 353.837 406.676 354.382 407.188C354.928 407.693 355.362 408.364 355.686 409.199C356.01 410.034 356.172 411.062 356.172 412.284V413.136H346.081V411.398H354.126C354.126 410.659 353.979 410 353.683 409.42C353.393 408.841 352.979 408.384 352.439 408.048C351.905 407.713 351.274 407.545 350.547 407.545C349.746 407.545 349.053 407.744 348.467 408.142C347.888 408.534 347.442 409.045 347.129 409.676C346.817 410.307 346.661 410.983 346.661 411.705V412.864C346.661 413.852 346.831 414.69 347.172 415.378C347.518 416.06 347.999 416.58 348.612 416.938C349.226 417.29 349.939 417.466 350.751 417.466C351.28 417.466 351.757 417.392 352.183 417.244C352.615 417.091 352.987 416.864 353.3 416.562C353.612 416.256 353.854 415.875 354.024 415.42L355.967 415.966C355.763 416.625 355.419 417.205 354.936 417.705C354.453 418.199 353.857 418.585 353.146 418.864C352.436 419.136 351.638 419.273 350.751 419.273ZM360.38 405.909L363.516 411.261L366.653 405.909H368.971L364.744 412.455L368.971 419H366.653L363.516 413.92L360.38 419H358.062L362.221 412.455L358.062 405.909H360.38ZM377.534 405.909V407.614H370.75V405.909H377.534ZM372.727 402.773H374.739V415.25C374.739 415.818 374.821 416.244 374.986 416.528C375.156 416.807 375.372 416.994 375.634 417.091C375.901 417.182 376.182 417.227 376.477 417.227C376.699 417.227 376.881 417.216 377.023 417.193C377.165 417.165 377.278 417.142 377.364 417.125L377.773 418.932C377.636 418.983 377.446 419.034 377.202 419.085C376.957 419.142 376.648 419.17 376.273 419.17C375.705 419.17 375.148 419.048 374.602 418.804C374.063 418.56 373.614 418.188 373.256 417.688C372.903 417.188 372.727 416.557 372.727 415.795V402.773ZM386.423 419.239C385.298 419.239 384.295 419.045 383.415 418.659C382.54 418.273 381.844 417.736 381.327 417.048C380.815 416.355 380.537 415.551 380.491 414.636H382.639C382.685 415.199 382.878 415.685 383.219 416.094C383.56 416.497 384.006 416.81 384.557 417.031C385.108 417.253 385.719 417.364 386.389 417.364C387.139 417.364 387.804 417.233 388.384 416.972C388.963 416.71 389.418 416.347 389.747 415.881C390.077 415.415 390.241 414.875 390.241 414.261C390.241 413.619 390.082 413.054 389.764 412.565C389.446 412.071 388.98 411.685 388.366 411.406C387.753 411.128 387.003 410.989 386.116 410.989H384.719V409.114H386.116C386.81 409.114 387.418 408.989 387.94 408.739C388.469 408.489 388.881 408.136 389.176 407.682C389.477 407.227 389.628 406.693 389.628 406.08C389.628 405.489 389.497 404.974 389.236 404.537C388.974 404.099 388.605 403.759 388.128 403.514C387.656 403.27 387.099 403.148 386.457 403.148C385.855 403.148 385.287 403.259 384.753 403.48C384.224 403.696 383.793 404.011 383.457 404.426C383.122 404.835 382.94 405.33 382.912 405.909H380.866C380.901 404.994 381.176 404.193 381.693 403.506C382.21 402.812 382.886 402.273 383.722 401.886C384.563 401.5 385.486 401.307 386.491 401.307C387.571 401.307 388.497 401.526 389.27 401.963C390.043 402.395 390.636 402.966 391.051 403.676C391.466 404.386 391.673 405.153 391.673 405.977C391.673 406.96 391.415 407.798 390.898 408.491C390.386 409.185 389.69 409.665 388.81 409.932V410.068C389.912 410.25 390.773 410.719 391.392 411.474C392.011 412.224 392.321 413.153 392.321 414.261C392.321 415.21 392.063 416.062 391.545 416.818C391.034 417.568 390.335 418.159 389.449 418.591C388.563 419.023 387.554 419.239 386.423 419.239Z" fill="#EB5757"/>
<path d="M243.64 240.273C242.412 240.273 241.355 239.983 240.469 239.403C239.583 238.824 238.901 238.026 238.424 237.009C237.946 235.991 237.708 234.83 237.708 233.523C237.708 232.193 237.952 231.02 238.441 230.003C238.935 228.98 239.623 228.182 240.503 227.608C241.39 227.028 242.424 226.739 243.605 226.739C244.526 226.739 245.355 226.909 246.094 227.25C246.833 227.591 247.438 228.068 247.909 228.682C248.381 229.295 248.674 230.011 248.787 230.83H246.776C246.623 230.233 246.282 229.705 245.753 229.244C245.23 228.778 244.526 228.545 243.64 228.545C242.855 228.545 242.168 228.75 241.577 229.159C240.992 229.562 240.534 230.134 240.205 230.872C239.881 231.605 239.719 232.466 239.719 233.455C239.719 234.466 239.878 235.347 240.196 236.097C240.52 236.847 240.975 237.429 241.56 237.844C242.151 238.259 242.844 238.466 243.64 238.466C244.162 238.466 244.637 238.375 245.063 238.193C245.489 238.011 245.85 237.75 246.145 237.409C246.441 237.068 246.651 236.659 246.776 236.182H248.787C248.674 236.955 248.392 237.651 247.944 238.27C247.5 238.884 246.912 239.372 246.179 239.736C245.452 240.094 244.605 240.273 243.64 240.273ZM253.739 232.125V240H251.728V222.545H253.739V228.955H253.909C254.216 228.278 254.676 227.741 255.29 227.344C255.909 226.94 256.733 226.739 257.762 226.739C258.654 226.739 259.435 226.918 260.105 227.276C260.776 227.628 261.296 228.17 261.665 228.903C262.04 229.631 262.228 230.557 262.228 231.682V240H260.216V231.818C260.216 230.778 259.946 229.974 259.407 229.406C258.873 228.832 258.131 228.545 257.182 228.545C256.523 228.545 255.932 228.685 255.409 228.963C254.892 229.241 254.483 229.648 254.182 230.182C253.887 230.716 253.739 231.364 253.739 232.125ZM265.907 240V226.909H267.919V240H265.907ZM266.93 224.727C266.538 224.727 266.2 224.594 265.916 224.327C265.637 224.06 265.498 223.739 265.498 223.364C265.498 222.989 265.637 222.668 265.916 222.401C266.2 222.134 266.538 222 266.93 222C267.322 222 267.657 222.134 267.936 222.401C268.22 222.668 268.362 222.989 268.362 223.364C268.362 223.739 268.22 224.06 267.936 224.327C267.657 224.594 267.322 224.727 266.93 224.727ZM273.614 222.545V240H271.603V222.545H273.614ZM282.241 240.273C281.15 240.273 280.187 239.997 279.352 239.446C278.517 238.889 277.863 238.105 277.392 237.094C276.92 236.077 276.684 234.875 276.684 233.489C276.684 232.114 276.92 230.92 277.392 229.909C277.863 228.898 278.52 228.116 279.36 227.565C280.201 227.014 281.173 226.739 282.275 226.739C283.127 226.739 283.801 226.881 284.295 227.165C284.795 227.443 285.176 227.761 285.437 228.119C285.704 228.472 285.912 228.761 286.059 228.989H286.23V222.545H288.241V240H286.298V237.989H286.059C285.912 238.227 285.701 238.528 285.429 238.892C285.156 239.25 284.767 239.571 284.261 239.855C283.755 240.134 283.082 240.273 282.241 240.273ZM282.514 238.466C283.321 238.466 284.002 238.256 284.559 237.835C285.116 237.409 285.539 236.821 285.829 236.071C286.119 235.315 286.264 234.443 286.264 233.455C286.264 232.477 286.122 231.622 285.838 230.889C285.554 230.151 285.133 229.577 284.576 229.168C284.02 228.753 283.332 228.545 282.514 228.545C281.662 228.545 280.951 228.764 280.383 229.202C279.821 229.634 279.397 230.222 279.113 230.966C278.835 231.705 278.696 232.534 278.696 233.455C278.696 234.386 278.838 235.233 279.122 235.994C279.412 236.75 279.838 237.352 280.4 237.801C280.968 238.244 281.673 238.466 282.514 238.466ZM298.306 222.545V240H296.193V224.761H296.091L291.829 227.591V225.443L296.193 222.545H298.306Z" fill="#2F80ED"/>
<path d="M132.489 408.841L130.682 409.352C130.568 409.051 130.401 408.759 130.179 408.474C129.963 408.185 129.668 407.946 129.293 407.759C128.918 407.571 128.438 407.477 127.852 407.477C127.051 407.477 126.384 407.662 125.849 408.031C125.321 408.395 125.057 408.858 125.057 409.42C125.057 409.92 125.239 410.315 125.602 410.605C125.966 410.895 126.534 411.136 127.307 411.33L129.25 411.807C130.42 412.091 131.293 412.526 131.866 413.111C132.44 413.69 132.727 414.437 132.727 415.352C132.727 416.102 132.511 416.773 132.08 417.364C131.653 417.955 131.057 418.42 130.29 418.761C129.523 419.102 128.631 419.273 127.614 419.273C126.278 419.273 125.173 418.983 124.298 418.403C123.423 417.824 122.869 416.977 122.636 415.864L124.545 415.386C124.727 416.091 125.071 416.619 125.577 416.972C126.088 417.324 126.756 417.5 127.58 417.5C128.517 417.5 129.261 417.301 129.812 416.903C130.369 416.5 130.648 416.017 130.648 415.455C130.648 415 130.489 414.619 130.17 414.312C129.852 414 129.364 413.767 128.705 413.614L126.523 413.102C125.324 412.818 124.443 412.378 123.881 411.781C123.324 411.179 123.045 410.426 123.045 409.523C123.045 408.784 123.253 408.131 123.668 407.562C124.088 406.994 124.659 406.548 125.381 406.224C126.108 405.901 126.932 405.739 127.852 405.739C129.148 405.739 130.165 406.023 130.903 406.591C131.648 407.159 132.176 407.909 132.489 408.841ZM137.766 411.125V419H135.755V401.545H137.766V407.955H137.937C138.244 407.278 138.704 406.741 139.317 406.344C139.937 405.94 140.761 405.739 141.789 405.739C142.681 405.739 143.462 405.918 144.133 406.276C144.803 406.628 145.323 407.17 145.692 407.903C146.067 408.631 146.255 409.557 146.255 410.682V419H144.244V410.818C144.244 409.778 143.974 408.974 143.434 408.406C142.9 407.832 142.158 407.545 141.21 407.545C140.55 407.545 139.96 407.685 139.437 407.963C138.92 408.241 138.511 408.648 138.21 409.182C137.914 409.716 137.766 410.364 137.766 411.125ZM155.253 419.273C154.071 419.273 153.034 418.991 152.142 418.429C151.256 417.866 150.562 417.08 150.062 416.068C149.568 415.057 149.321 413.875 149.321 412.523C149.321 411.159 149.568 409.969 150.062 408.952C150.562 407.935 151.256 407.145 152.142 406.582C153.034 406.02 154.071 405.739 155.253 405.739C156.435 405.739 157.469 406.02 158.355 406.582C159.247 407.145 159.94 407.935 160.435 408.952C160.935 409.969 161.185 411.159 161.185 412.523C161.185 413.875 160.935 415.057 160.435 416.068C159.94 417.08 159.247 417.866 158.355 418.429C157.469 418.991 156.435 419.273 155.253 419.273ZM155.253 417.466C156.151 417.466 156.889 417.236 157.469 416.776C158.048 416.315 158.477 415.71 158.756 414.96C159.034 414.21 159.173 413.398 159.173 412.523C159.173 411.648 159.034 410.832 158.756 410.077C158.477 409.321 158.048 408.71 157.469 408.244C156.889 407.778 156.151 407.545 155.253 407.545C154.355 407.545 153.616 407.778 153.037 408.244C152.457 408.71 152.028 409.321 151.75 410.077C151.472 410.832 151.332 411.648 151.332 412.523C151.332 413.398 151.472 414.21 151.75 414.96C152.028 415.71 152.457 416.315 153.037 416.776C153.616 417.236 154.355 417.466 155.253 417.466ZM166.776 419L162.787 405.909H164.901L167.73 415.932H167.866L170.662 405.909H172.81L175.571 415.898H175.707L178.537 405.909H180.651L176.662 419H174.685L171.821 408.943H171.616L168.753 419H166.776ZM195.753 405.909V407.614H188.969V405.909H195.753ZM190.946 402.773H192.957V415.25C192.957 415.818 193.04 416.244 193.205 416.528C193.375 416.807 193.591 416.994 193.852 417.091C194.119 417.182 194.401 417.227 194.696 417.227C194.918 417.227 195.099 417.216 195.241 417.193C195.384 417.165 195.497 417.142 195.582 417.125L195.991 418.932C195.855 418.983 195.665 419.034 195.42 419.085C195.176 419.142 194.866 419.17 194.491 419.17C193.923 419.17 193.366 419.048 192.821 418.804C192.281 418.56 191.832 418.188 191.474 417.688C191.122 417.188 190.946 416.557 190.946 415.795V402.773ZM204.126 419.273C202.865 419.273 201.777 418.994 200.862 418.438C199.953 417.875 199.251 417.091 198.757 416.085C198.268 415.074 198.024 413.898 198.024 412.557C198.024 411.216 198.268 410.034 198.757 409.011C199.251 407.983 199.939 407.182 200.82 406.608C201.706 406.028 202.74 405.739 203.922 405.739C204.604 405.739 205.277 405.852 205.942 406.08C206.607 406.307 207.212 406.676 207.757 407.188C208.303 407.693 208.737 408.364 209.061 409.199C209.385 410.034 209.547 411.062 209.547 412.284V413.136H199.456V411.398H207.501C207.501 410.659 207.354 410 207.058 409.42C206.768 408.841 206.354 408.384 205.814 408.048C205.28 407.713 204.649 407.545 203.922 407.545C203.121 407.545 202.428 407.744 201.842 408.142C201.263 408.534 200.817 409.045 200.504 409.676C200.192 410.307 200.036 410.983 200.036 411.705V412.864C200.036 413.852 200.206 414.69 200.547 415.378C200.893 416.06 201.374 416.58 201.987 416.938C202.601 417.29 203.314 417.466 204.126 417.466C204.655 417.466 205.132 417.392 205.558 417.244C205.99 417.091 206.362 416.864 206.675 416.562C206.987 416.256 207.229 415.875 207.399 415.42L209.342 415.966C209.138 416.625 208.794 417.205 208.311 417.705C207.828 418.199 207.232 418.585 206.521 418.864C205.811 419.136 205.013 419.273 204.126 419.273ZM213.755 405.909L216.891 411.261L220.028 405.909H222.346L218.119 412.455L222.346 419H220.028L216.891 413.92L213.755 419H211.437L215.596 412.455L211.437 405.909H213.755ZM230.909 405.909V407.614H224.125V405.909H230.909ZM226.102 402.773H228.114V415.25C228.114 415.818 228.196 416.244 228.361 416.528C228.531 416.807 228.747 416.994 229.009 417.091C229.276 417.182 229.557 417.227 229.852 417.227C230.074 417.227 230.256 417.216 230.398 417.193C230.54 417.165 230.653 417.142 230.739 417.125L231.148 418.932C231.011 418.983 230.821 419.034 230.577 419.085C230.332 419.142 230.023 419.17 229.648 419.17C229.08 419.17 228.523 419.048 227.977 418.804C227.438 418.56 226.989 418.188 226.631 417.688C226.278 417.188 226.102 416.557 226.102 415.795V402.773ZM233.901 419V417.466L239.662 411.159C240.338 410.42 240.895 409.778 241.332 409.233C241.77 408.682 242.094 408.165 242.304 407.682C242.52 407.193 242.628 406.682 242.628 406.148C242.628 405.534 242.48 405.003 242.185 404.554C241.895 404.105 241.497 403.759 240.991 403.514C240.486 403.27 239.918 403.148 239.287 403.148C238.616 403.148 238.031 403.287 237.531 403.565C237.037 403.838 236.653 404.222 236.381 404.716C236.114 405.21 235.98 405.79 235.98 406.455H233.969C233.969 405.432 234.205 404.534 234.676 403.761C235.148 402.989 235.79 402.386 236.602 401.955C237.42 401.523 238.338 401.307 239.355 401.307C240.378 401.307 241.284 401.523 242.074 401.955C242.864 402.386 243.483 402.969 243.932 403.702C244.381 404.435 244.605 405.25 244.605 406.148C244.605 406.79 244.489 407.418 244.256 408.031C244.028 408.639 243.631 409.318 243.062 410.068C242.5 410.812 241.719 411.722 240.719 412.795L236.798 416.989V417.125H244.912V419H233.901Z" fill="#EB5757"/>
<path d="M634.231 408.841L632.424 409.352C632.31 409.051 632.143 408.759 631.921 408.474C631.705 408.185 631.41 407.946 631.035 407.759C630.66 407.571 630.18 407.477 629.594 407.477C628.793 407.477 628.126 407.662 627.592 408.031C627.063 408.395 626.799 408.858 626.799 409.42C626.799 409.92 626.981 410.315 627.344 410.605C627.708 410.895 628.276 411.136 629.049 411.33L630.992 411.807C632.163 412.091 633.035 412.526 633.609 413.111C634.183 413.69 634.469 414.437 634.469 415.352C634.469 416.102 634.254 416.773 633.822 417.364C633.396 417.955 632.799 418.42 632.032 418.761C631.265 419.102 630.373 419.273 629.356 419.273C628.021 419.273 626.915 418.983 626.04 418.403C625.165 417.824 624.612 416.977 624.379 415.864L626.288 415.386C626.469 416.091 626.813 416.619 627.319 416.972C627.83 417.324 628.498 417.5 629.322 417.5C630.259 417.5 631.004 417.301 631.555 416.903C632.112 416.5 632.39 416.017 632.39 415.455C632.39 415 632.231 414.619 631.913 414.312C631.594 414 631.106 413.767 630.447 413.614L628.265 413.102C627.066 412.818 626.185 412.378 625.623 411.781C625.066 411.179 624.788 410.426 624.788 409.523C624.788 408.784 624.995 408.131 625.41 407.562C625.83 406.994 626.401 406.548 627.123 406.224C627.85 405.901 628.674 405.739 629.594 405.739C630.89 405.739 631.907 406.023 632.646 406.591C633.39 407.159 633.918 407.909 634.231 408.841ZM639.509 411.125V419H637.497V401.545H639.509V407.955H639.679C639.986 407.278 640.446 406.741 641.06 406.344C641.679 405.94 642.503 405.739 643.531 405.739C644.423 405.739 645.205 405.918 645.875 406.276C646.545 406.628 647.065 407.17 647.435 407.903C647.81 408.631 647.997 409.557 647.997 410.682V419H645.986V410.818C645.986 409.778 645.716 408.974 645.176 408.406C644.642 407.832 643.901 407.545 642.952 407.545C642.293 407.545 641.702 407.685 641.179 407.963C640.662 408.241 640.253 408.648 639.952 409.182C639.656 409.716 639.509 410.364 639.509 411.125ZM656.995 419.273C655.813 419.273 654.776 418.991 653.884 418.429C652.998 417.866 652.305 417.08 651.805 416.068C651.31 415.057 651.063 413.875 651.063 412.523C651.063 411.159 651.31 409.969 651.805 408.952C652.305 407.935 652.998 407.145 653.884 406.582C654.776 406.02 655.813 405.739 656.995 405.739C658.177 405.739 659.211 406.02 660.097 406.582C660.989 407.145 661.683 407.935 662.177 408.952C662.677 409.969 662.927 411.159 662.927 412.523C662.927 413.875 662.677 415.057 662.177 416.068C661.683 417.08 660.989 417.866 660.097 418.429C659.211 418.991 658.177 419.273 656.995 419.273ZM656.995 417.466C657.893 417.466 658.631 417.236 659.211 416.776C659.79 416.315 660.219 415.71 660.498 414.96C660.776 414.21 660.915 413.398 660.915 412.523C660.915 411.648 660.776 410.832 660.498 410.077C660.219 409.321 659.79 408.71 659.211 408.244C658.631 407.778 657.893 407.545 656.995 407.545C656.097 407.545 655.359 407.778 654.779 408.244C654.2 408.71 653.771 409.321 653.492 410.077C653.214 410.832 653.075 411.648 653.075 412.523C653.075 413.398 653.214 414.21 653.492 414.96C653.771 415.71 654.2 416.315 654.779 416.776C655.359 417.236 656.097 417.466 656.995 417.466ZM668.518 419L664.529 405.909H666.643L669.472 415.932H669.609L672.404 405.909H674.552L677.313 415.898H677.45L680.279 405.909H682.393L678.404 419H676.427L673.563 408.943H673.359L670.495 419H668.518ZM697.495 405.909V407.614H690.711V405.909H697.495ZM692.688 402.773H694.7V415.25C694.7 415.818 694.782 416.244 694.947 416.528C695.117 416.807 695.333 416.994 695.594 417.091C695.862 417.182 696.143 417.227 696.438 417.227C696.66 417.227 696.842 417.216 696.984 417.193C697.126 417.165 697.239 417.142 697.325 417.125L697.734 418.932C697.597 418.983 697.407 419.034 697.163 419.085C696.918 419.142 696.609 419.17 696.234 419.17C695.665 419.17 695.109 419.048 694.563 418.804C694.023 418.56 693.575 418.188 693.217 417.688C692.864 417.188 692.688 416.557 692.688 415.795V402.773ZM705.869 419.273C704.607 419.273 703.519 418.994 702.604 418.438C701.695 417.875 700.994 417.091 700.499 416.085C700.011 415.074 699.766 413.898 699.766 412.557C699.766 411.216 700.011 410.034 700.499 409.011C700.994 407.983 701.681 407.182 702.562 406.608C703.448 406.028 704.482 405.739 705.664 405.739C706.346 405.739 707.019 405.852 707.684 406.08C708.349 406.307 708.954 406.676 709.499 407.188C710.045 407.693 710.479 408.364 710.803 409.199C711.127 410.034 711.289 411.062 711.289 412.284V413.136H701.198V411.398H709.244C709.244 410.659 709.096 410 708.8 409.42C708.511 408.841 708.096 408.384 707.556 408.048C707.022 407.713 706.391 407.545 705.664 407.545C704.863 407.545 704.17 407.744 703.585 408.142C703.005 408.534 702.559 409.045 702.246 409.676C701.934 410.307 701.778 410.983 701.778 411.705V412.864C701.778 413.852 701.948 414.69 702.289 415.378C702.636 416.06 703.116 416.58 703.729 416.938C704.343 417.29 705.056 417.466 705.869 417.466C706.397 417.466 706.874 417.392 707.3 417.244C707.732 417.091 708.104 416.864 708.417 416.562C708.729 416.256 708.971 415.875 709.141 415.42L711.085 415.966C710.88 416.625 710.536 417.205 710.053 417.705C709.57 418.199 708.974 418.585 708.263 418.864C707.553 419.136 706.755 419.273 705.869 419.273ZM715.497 405.909L718.634 411.261L721.77 405.909H724.088L719.861 412.455L724.088 419H721.77L718.634 413.92L715.497 419H713.179L717.338 412.455L713.179 405.909H715.497ZM732.651 405.909V407.614H725.867V405.909H732.651ZM727.844 402.773H729.856V415.25C729.856 415.818 729.938 416.244 730.103 416.528C730.273 416.807 730.489 416.994 730.751 417.091C731.018 417.182 731.299 417.227 731.594 417.227C731.816 417.227 731.998 417.216 732.14 417.193C732.282 417.165 732.396 417.142 732.481 417.125L732.89 418.932C732.754 418.983 732.563 419.034 732.319 419.085C732.075 419.142 731.765 419.17 731.39 419.17C730.822 419.17 730.265 419.048 729.719 418.804C729.18 418.56 728.731 418.188 728.373 417.688C728.021 417.188 727.844 416.557 727.844 415.795V402.773ZM734.882 415.42V413.682L742.553 401.545H743.814V404.239H742.962L737.166 413.409V413.545H747.496V415.42H734.882ZM743.098 419V414.892V414.082V401.545H745.109V419H743.098Z" fill="#EB5757"/>
<path d="M651.452 240.273C650.225 240.273 649.168 239.983 648.282 239.403C647.395 238.824 646.713 238.026 646.236 237.009C645.759 235.991 645.52 234.83 645.52 233.523C645.52 232.193 645.765 231.02 646.253 230.003C646.748 228.98 647.435 228.182 648.316 227.608C649.202 227.028 650.236 226.739 651.418 226.739C652.338 226.739 653.168 226.909 653.907 227.25C654.645 227.591 655.25 228.068 655.722 228.682C656.194 229.295 656.486 230.011 656.6 230.83H654.588C654.435 230.233 654.094 229.705 653.566 229.244C653.043 228.778 652.338 228.545 651.452 228.545C650.668 228.545 649.98 228.75 649.39 229.159C648.804 229.562 648.347 230.134 648.017 230.872C647.694 231.605 647.532 232.466 647.532 233.455C647.532 234.466 647.691 235.347 648.009 236.097C648.333 236.847 648.787 237.429 649.373 237.844C649.963 238.259 650.657 238.466 651.452 238.466C651.975 238.466 652.449 238.375 652.875 238.193C653.301 238.011 653.662 237.75 653.958 237.409C654.253 237.068 654.463 236.659 654.588 236.182H656.6C656.486 236.955 656.205 237.651 655.756 238.27C655.313 238.884 654.725 239.372 653.992 239.736C653.265 240.094 652.418 240.273 651.452 240.273ZM661.551 232.125V240H659.54V222.545H661.551V228.955H661.722C662.029 228.278 662.489 227.741 663.103 227.344C663.722 226.94 664.546 226.739 665.574 226.739C666.466 226.739 667.248 226.918 667.918 227.276C668.588 227.628 669.108 228.17 669.478 228.903C669.853 229.631 670.04 230.557 670.04 231.682V240H668.029V231.818C668.029 230.778 667.759 229.974 667.219 229.406C666.685 228.832 665.944 228.545 664.995 228.545C664.336 228.545 663.745 228.685 663.222 228.963C662.705 229.241 662.296 229.648 661.995 230.182C661.699 230.716 661.551 231.364 661.551 232.125ZM673.72 240V226.909H675.731V240H673.72ZM674.743 224.727C674.35 224.727 674.012 224.594 673.728 224.327C673.45 224.06 673.311 223.739 673.311 223.364C673.311 222.989 673.45 222.668 673.728 222.401C674.012 222.134 674.35 222 674.743 222C675.135 222 675.47 222.134 675.748 222.401C676.032 222.668 676.174 222.989 676.174 223.364C676.174 223.739 676.032 224.06 675.748 224.327C675.47 224.594 675.135 224.727 674.743 224.727ZM681.426 222.545V240H679.415V222.545H681.426ZM690.054 240.273C688.963 240.273 688 239.997 687.164 239.446C686.329 238.889 685.676 238.105 685.204 237.094C684.733 236.077 684.497 234.875 684.497 233.489C684.497 232.114 684.733 230.92 685.204 229.909C685.676 228.898 686.332 228.116 687.173 227.565C688.014 227.014 688.985 226.739 690.088 226.739C690.94 226.739 691.613 226.881 692.108 227.165C692.608 227.443 692.988 227.761 693.25 228.119C693.517 228.472 693.724 228.761 693.872 228.989H694.042V222.545H696.054V240H694.11V237.989H693.872C693.724 238.227 693.514 238.528 693.241 238.892C692.968 239.25 692.579 239.571 692.074 239.855C691.568 240.134 690.895 240.273 690.054 240.273ZM690.326 238.466C691.133 238.466 691.815 238.256 692.372 237.835C692.929 237.409 693.352 236.821 693.642 236.071C693.931 235.315 694.076 234.443 694.076 233.455C694.076 232.477 693.934 231.622 693.65 230.889C693.366 230.151 692.946 229.577 692.389 229.168C691.832 228.753 691.145 228.545 690.326 228.545C689.474 228.545 688.764 228.764 688.196 229.202C687.633 229.634 687.21 230.222 686.926 230.966C686.647 231.705 686.508 232.534 686.508 233.455C686.508 234.386 686.65 235.233 686.934 235.994C687.224 236.75 687.65 237.352 688.213 237.801C688.781 238.244 689.485 238.466 690.326 238.466ZM699.983 240V238.466L705.744 232.159C706.42 231.42 706.977 230.778 707.414 230.233C707.852 229.682 708.176 229.165 708.386 228.682C708.602 228.193 708.71 227.682 708.71 227.148C708.71 226.534 708.562 226.003 708.267 225.554C707.977 225.105 707.579 224.759 707.074 224.514C706.568 224.27 706 224.148 705.369 224.148C704.699 224.148 704.113 224.287 703.613 224.565C703.119 224.838 702.735 225.222 702.463 225.716C702.196 226.21 702.062 226.79 702.062 227.455H700.051C700.051 226.432 700.287 225.534 700.758 224.761C701.23 223.989 701.872 223.386 702.684 222.955C703.502 222.523 704.42 222.307 705.437 222.307C706.46 222.307 707.366 222.523 708.156 222.955C708.946 223.386 709.565 223.969 710.014 224.702C710.463 225.435 710.687 226.25 710.687 227.148C710.687 227.79 710.571 228.418 710.338 229.031C710.11 229.639 709.713 230.318 709.145 231.068C708.582 231.812 707.801 232.722 706.801 233.795L702.88 237.989V238.125H710.994V240H699.983Z" fill="#2F80ED"/>
<path d="M27.1761 229.841L25.3693 230.352C25.2557 230.051 25.0881 229.759 24.8665 229.474C24.6506 229.185 24.3551 228.946 23.9801 228.759C23.6051 228.571 23.125 228.477 22.5398 228.477C21.7386 228.477 21.071 228.662 20.5369 229.031C20.0085 229.395 19.7443 229.858 19.7443 230.42C19.7443 230.92 19.9261 231.315 20.2898 231.605C20.6534 231.895 21.2216 232.136 21.9943 232.33L23.9375 232.807C25.108 233.091 25.9801 233.526 26.554 234.111C27.1278 234.69 27.4148 235.437 27.4148 236.352C27.4148 237.102 27.1989 237.773 26.767 238.364C26.3409 238.955 25.7443 239.42 24.9773 239.761C24.2102 240.102 23.3182 240.273 22.3011 240.273C20.9659 240.273 19.8608 239.983 18.9858 239.403C18.1108 238.824 17.5568 237.977 17.3239 236.864L19.233 236.386C19.4148 237.091 19.7585 237.619 20.2642 237.972C20.7756 238.324 21.4432 238.5 22.267 238.5C23.2045 238.5 23.9489 238.301 24.5 237.903C25.0568 237.5 25.3352 237.017 25.3352 236.455C25.3352 236 25.1761 235.619 24.858 235.312C24.5398 235 24.0511 234.767 23.392 234.614L21.2102 234.102C20.0114 233.818 19.1307 233.378 18.5682 232.781C18.0114 232.179 17.733 231.426 17.733 230.523C17.733 229.784 17.9403 229.131 18.3551 228.562C18.7756 227.994 19.3466 227.548 20.0682 227.224C20.7955 226.901 21.6193 226.739 22.5398 226.739C23.8352 226.739 24.8523 227.023 25.5909 227.591C26.3352 228.159 26.8636 228.909 27.1761 229.841ZM32.4538 232.125V240H30.4425V222.545H32.4538V228.955H32.6243C32.9311 228.278 33.3913 227.741 34.005 227.344C34.6243 226.94 35.4482 226.739 36.4766 226.739C37.3686 226.739 38.1499 226.918 38.8203 227.276C39.4908 227.628 40.0107 228.17 40.38 228.903C40.755 229.631 40.9425 230.557 40.9425 231.682V240H38.9311V231.818C38.9311 230.778 38.6612 229.974 38.1214 229.406C37.5874 228.832 36.8459 228.545 35.897 228.545C35.2379 228.545 34.647 228.685 34.1243 228.963C33.6072 229.241 33.1982 229.648 32.897 230.182C32.6016 230.716 32.4538 231.364 32.4538 232.125ZM49.9403 240.273C48.7585 240.273 47.7216 239.991 46.8295 239.429C45.9432 238.866 45.25 238.08 44.75 237.068C44.2557 236.057 44.0085 234.875 44.0085 233.523C44.0085 232.159 44.2557 230.969 44.75 229.952C45.25 228.935 45.9432 228.145 46.8295 227.582C47.7216 227.02 48.7585 226.739 49.9403 226.739C51.1222 226.739 52.1563 227.02 53.0426 227.582C53.9347 228.145 54.6278 228.935 55.1222 229.952C55.6222 230.969 55.8722 232.159 55.8722 233.523C55.8722 234.875 55.6222 236.057 55.1222 237.068C54.6278 238.08 53.9347 238.866 53.0426 239.429C52.1563 239.991 51.1222 240.273 49.9403 240.273ZM49.9403 238.466C50.8381 238.466 51.5767 238.236 52.1562 237.776C52.7358 237.315 53.1648 236.71 53.4432 235.96C53.7216 235.21 53.8608 234.398 53.8608 233.523C53.8608 232.648 53.7216 231.832 53.4432 231.077C53.1648 230.321 52.7358 229.71 52.1562 229.244C51.5767 228.778 50.8381 228.545 49.9403 228.545C49.0426 228.545 48.304 228.778 47.7244 229.244C47.1449 229.71 46.7159 230.321 46.4375 231.077C46.1591 231.832 46.0199 232.648 46.0199 233.523C46.0199 234.398 46.1591 235.21 46.4375 235.96C46.7159 236.71 47.1449 237.315 47.7244 237.776C48.304 238.236 49.0426 238.466 49.9403 238.466ZM61.4631 240L57.4744 226.909H59.5881L62.4176 236.932H62.554L65.3494 226.909H67.4972L70.2585 236.898H70.3949L73.2244 226.909H75.3381L71.3494 240H69.3722L66.5085 229.943H66.304L63.4403 240H61.4631ZM90.4403 226.909V228.614H83.6562V226.909H90.4403ZM85.6335 223.773H87.6449V236.25C87.6449 236.818 87.7273 237.244 87.892 237.528C88.0625 237.807 88.2784 237.994 88.5398 238.091C88.8068 238.182 89.0881 238.227 89.3835 238.227C89.6051 238.227 89.7869 238.216 89.929 238.193C90.071 238.165 90.1847 238.142 90.2699 238.125L90.679 239.932C90.5426 239.983 90.3523 240.034 90.108 240.085C89.8636 240.142 89.554 240.17 89.179 240.17C88.6108 240.17 88.054 240.048 87.5085 239.804C86.9688 239.56 86.5199 239.188 86.1619 238.688C85.8097 238.188 85.6335 237.557 85.6335 236.795V223.773ZM98.8139 240.273C97.5526 240.273 96.4645 239.994 95.5497 239.438C94.6406 238.875 93.9389 238.091 93.4446 237.085C92.956 236.074 92.7116 234.898 92.7116 233.557C92.7116 232.216 92.956 231.034 93.4446 230.011C93.9389 228.983 94.6264 228.182 95.5071 227.608C96.3935 227.028 97.4276 226.739 98.6094 226.739C99.2912 226.739 99.9645 226.852 100.629 227.08C101.294 227.307 101.899 227.676 102.445 228.188C102.99 228.693 103.425 229.364 103.749 230.199C104.072 231.034 104.234 232.062 104.234 233.284V234.136H94.1435V232.398H102.189C102.189 231.659 102.041 231 101.746 230.42C101.456 229.841 101.041 229.384 100.501 229.048C99.9673 228.713 99.3366 228.545 98.6094 228.545C97.8082 228.545 97.1151 228.744 96.5298 229.142C95.9503 229.534 95.5043 230.045 95.1918 230.676C94.8793 231.307 94.723 231.983 94.723 232.705V233.864C94.723 234.852 94.8935 235.69 95.2344 236.378C95.581 237.06 96.0611 237.58 96.6747 237.938C97.2884 238.29 98.0014 238.466 98.8139 238.466C99.3423 238.466 99.8196 238.392 100.246 238.244C100.678 238.091 101.05 237.864 101.362 237.562C101.675 237.256 101.916 236.875 102.087 236.42L104.03 236.966C103.825 237.625 103.482 238.205 102.999 238.705C102.516 239.199 101.919 239.585 101.209 239.864C100.499 240.136 99.7003 240.273 98.8139 240.273ZM108.442 226.909L111.579 232.261L114.715 226.909H117.033L112.806 233.455L117.033 240H114.715L111.579 234.92L108.442 240H106.124L110.283 233.455L106.124 226.909H108.442ZM125.597 226.909V228.614H118.812V226.909H125.597ZM120.79 223.773H122.801V236.25C122.801 236.818 122.884 237.244 123.048 237.528C123.219 237.807 123.435 237.994 123.696 238.091C123.963 238.182 124.244 238.227 124.54 238.227C124.761 238.227 124.943 238.216 125.085 238.193C125.227 238.165 125.341 238.142 125.426 238.125L125.835 239.932C125.699 239.983 125.509 240.034 125.264 240.085C125.02 240.142 124.71 240.17 124.335 240.17C123.767 240.17 123.21 240.048 122.665 239.804C122.125 239.56 121.676 239.188 121.318 238.688C120.966 238.188 120.79 237.557 120.79 236.795V223.773ZM134.724 222.545V240H132.611V224.761H132.509L128.247 227.591V225.443L132.611 222.545H134.724Z" fill="#EB5757"/>
<line x1="306.242" y1="87.4375" x2="118.242" y2="191.438" stroke="#EB5757"/>
<line x1="347.433" y1="92.2495" x2="290.433" y2="191.249" stroke="#2F80ED"/>
<line x1="262.433" y1="271.249" x2="205.433" y2="370.249" stroke="#EB5757"/>
<line x1="416.185" y1="95.5356" x2="644.185" y2="186.536" stroke="#2F80ED"/>
<line x1="379.429" y1="85.7428" x2="442.429" y2="190.743" stroke="#EB5757"/>
<line x1="294.475" y1="264.843" x2="331.475" y2="376.843" stroke="#EB5757"/>
<line x1="686.5" y1="251" x2="686.5" y2="377" stroke="#EB5757"/>
</g>
<circle cx="369" cy="61" r="25" fill="#56CCF2"/>
<path d="M371.365 50.5455V68H369.251V52.7614H369.149L364.888 55.5909V53.4432L369.251 50.5455H371.365Z" fill="black"/>
<circle cx="230" cy="166" r="25" fill="#F2C94C"/>
<path d="M225.041 173V171.466L230.803 165.159C231.479 164.42 232.036 163.778 232.473 163.233C232.911 162.682 233.234 162.165 233.445 161.682C233.661 161.193 233.768 160.682 233.768 160.148C233.768 159.534 233.621 159.003 233.325 158.554C233.036 158.105 232.638 157.759 232.132 157.514C231.626 157.27 231.058 157.148 230.428 157.148C229.757 157.148 229.172 157.287 228.672 157.565C228.178 157.838 227.794 158.222 227.521 158.716C227.254 159.21 227.121 159.79 227.121 160.455H225.109C225.109 159.432 225.345 158.534 225.817 157.761C226.288 156.989 226.93 156.386 227.743 155.955C228.561 155.523 229.479 155.307 230.496 155.307C231.518 155.307 232.425 155.523 233.214 155.955C234.004 156.386 234.624 156.969 235.072 157.702C235.521 158.435 235.746 159.25 235.746 160.148C235.746 160.79 235.629 161.418 235.396 162.031C235.169 162.639 234.771 163.318 234.203 164.068C233.641 164.812 232.859 165.722 231.859 166.795L227.939 170.989V171.125H236.053V173H225.041Z" fill="black"/>
<circle cx="277" cy="232" r="25" fill="#56CCF2"/>
<path d="M277.064 239.239C275.939 239.239 274.936 239.045 274.055 238.659C273.18 238.273 272.484 237.736 271.967 237.048C271.456 236.355 271.178 235.551 271.132 234.636H273.28C273.325 235.199 273.518 235.685 273.859 236.094C274.2 236.497 274.646 236.81 275.197 237.031C275.749 237.253 276.359 237.364 277.03 237.364C277.78 237.364 278.445 237.233 279.024 236.972C279.604 236.71 280.058 236.347 280.388 235.881C280.717 235.415 280.882 234.875 280.882 234.261C280.882 233.619 280.723 233.054 280.405 232.565C280.087 232.071 279.621 231.685 279.007 231.406C278.393 231.128 277.643 230.989 276.757 230.989H275.359V229.114H276.757C277.45 229.114 278.058 228.989 278.581 228.739C279.109 228.489 279.521 228.136 279.817 227.682C280.118 227.227 280.268 226.693 280.268 226.08C280.268 225.489 280.138 224.974 279.876 224.537C279.615 224.099 279.246 223.759 278.768 223.514C278.297 223.27 277.74 223.148 277.098 223.148C276.496 223.148 275.928 223.259 275.393 223.48C274.865 223.696 274.433 224.011 274.098 224.426C273.763 224.835 273.581 225.33 273.553 225.909H271.507C271.541 224.994 271.817 224.193 272.334 223.506C272.851 222.812 273.527 222.273 274.362 221.886C275.203 221.5 276.126 221.307 277.132 221.307C278.212 221.307 279.138 221.526 279.911 221.963C280.683 222.395 281.277 222.966 281.692 223.676C282.107 224.386 282.314 225.153 282.314 225.977C282.314 226.96 282.055 227.798 281.538 228.491C281.027 229.185 280.331 229.665 279.45 229.932V230.068C280.553 230.25 281.413 230.719 282.033 231.474C282.652 232.224 282.962 233.153 282.962 234.261C282.962 235.21 282.703 236.062 282.186 236.818C281.675 237.568 280.976 238.159 280.089 238.591C279.203 239.023 278.195 239.239 277.064 239.239Z" fill="black"/>
<circle cx="277" cy="321" r="25" fill="#F2C94C"/>
<path d="M270.699 324.42V322.682L278.369 310.545H279.63V313.239H278.778L272.983 322.409V322.545H283.312V324.42H270.699ZM278.914 328V323.892V323.082V310.545H280.926V328H278.914Z" fill="black"/>
<circle cx="356" cy="321" r="25" fill="#F2C94C"/>
<path d="M356.461 328.239C355.461 328.239 354.56 328.04 353.759 327.642C352.958 327.244 352.316 326.699 351.833 326.006C351.35 325.312 351.086 324.523 351.04 323.636H353.086C353.165 324.426 353.523 325.08 354.159 325.597C354.801 326.108 355.569 326.364 356.461 326.364C357.176 326.364 357.813 326.196 358.37 325.861C358.932 325.526 359.373 325.065 359.691 324.48C360.015 323.889 360.176 323.222 360.176 322.477C360.176 321.716 360.009 321.037 359.674 320.44C359.344 319.838 358.89 319.364 358.31 319.017C357.73 318.67 357.069 318.494 356.324 318.489C355.79 318.483 355.242 318.565 354.679 318.736C354.117 318.901 353.654 319.114 353.29 319.375L351.313 319.136L352.37 310.545H361.438V312.42H354.142L353.529 317.568H353.631C353.989 317.284 354.438 317.048 354.978 316.861C355.517 316.673 356.08 316.58 356.665 316.58C357.733 316.58 358.685 316.835 359.52 317.347C360.361 317.852 361.02 318.545 361.498 319.426C361.98 320.307 362.222 321.312 362.222 322.443C362.222 323.557 361.972 324.551 361.472 325.426C360.978 326.295 360.296 326.983 359.426 327.489C358.557 327.989 357.569 328.239 356.461 328.239Z" fill="black"/>
<circle cx="372" cy="164" r="25" fill="#F2C94C"/>
<path d="M372.614 171.239C371.898 171.227 371.182 171.091 370.466 170.83C369.75 170.568 369.097 170.128 368.506 169.509C367.915 168.884 367.441 168.04 367.083 166.977C366.725 165.909 366.546 164.568 366.546 162.955C366.546 161.409 366.691 160.04 366.98 158.847C367.27 157.648 367.691 156.639 368.242 155.821C368.793 154.997 369.458 154.372 370.236 153.946C371.02 153.52 371.904 153.307 372.887 153.307C373.864 153.307 374.733 153.503 375.495 153.895C376.262 154.281 376.887 154.821 377.37 155.514C377.853 156.207 378.165 157.006 378.307 157.909H376.228C376.034 157.125 375.659 156.474 375.103 155.957C374.546 155.44 373.807 155.182 372.887 155.182C371.534 155.182 370.469 155.77 369.691 156.946C368.918 158.122 368.529 159.773 368.523 161.898H368.659C368.978 161.415 369.355 161.003 369.793 160.662C370.236 160.315 370.725 160.048 371.259 159.861C371.793 159.673 372.358 159.58 372.955 159.58C373.955 159.58 374.87 159.83 375.699 160.33C376.529 160.824 377.194 161.509 377.694 162.384C378.194 163.253 378.444 164.25 378.444 165.375C378.444 166.455 378.202 167.443 377.719 168.341C377.236 169.233 376.557 169.943 375.682 170.472C374.813 170.994 373.79 171.25 372.614 171.239ZM372.614 169.364C373.33 169.364 373.972 169.185 374.54 168.827C375.114 168.469 375.566 167.989 375.895 167.386C376.23 166.784 376.398 166.114 376.398 165.375C376.398 164.653 376.236 163.997 375.912 163.406C375.594 162.81 375.154 162.335 374.591 161.983C374.034 161.631 373.398 161.455 372.682 161.455C372.142 161.455 371.64 161.562 371.174 161.778C370.708 161.989 370.299 162.278 369.946 162.648C369.6 163.017 369.327 163.44 369.128 163.918C368.929 164.389 368.83 164.886 368.83 165.409C368.83 166.102 368.992 166.75 369.316 167.352C369.645 167.955 370.094 168.44 370.662 168.81C371.236 169.179 371.887 169.364 372.614 169.364Z" fill="black"/>
<circle cx="480" cy="163" r="25" fill="#F2C94C"/>
<path d="M475.497 170L483.304 154.557V154.42H474.304V152.545H485.485V154.523L477.713 170H475.497Z" fill="black"/>
<circle cx="679" cy="226" r="25" fill="#56CCF2"/>
<path d="M679.503 233.239C678.333 233.239 677.299 233.031 676.401 232.616C675.509 232.196 674.813 231.619 674.313 230.886C673.813 230.148 673.566 229.307 673.571 228.364C673.566 227.625 673.711 226.943 674.006 226.318C674.301 225.687 674.705 225.162 675.216 224.741C675.733 224.315 676.31 224.045 676.946 223.932V223.83C676.111 223.614 675.446 223.145 674.952 222.423C674.458 221.696 674.213 220.869 674.219 219.943C674.213 219.057 674.438 218.264 674.892 217.565C675.347 216.866 675.972 216.315 676.767 215.912C677.569 215.509 678.48 215.307 679.503 215.307C680.515 215.307 681.418 215.509 682.213 215.912C683.009 216.315 683.634 216.866 684.088 217.565C684.549 218.264 684.782 219.057 684.787 219.943C684.782 220.869 684.529 221.696 684.029 222.423C683.534 223.145 682.878 223.614 682.06 223.83V223.932C682.691 224.045 683.259 224.315 683.765 224.741C684.27 225.162 684.674 225.687 684.975 226.318C685.276 226.943 685.429 227.625 685.435 228.364C685.429 229.307 685.174 230.148 684.668 230.886C684.168 231.619 683.472 232.196 682.58 232.616C681.694 233.031 680.668 233.239 679.503 233.239ZM679.503 231.364C680.293 231.364 680.975 231.236 681.549 230.98C682.123 230.724 682.566 230.364 682.878 229.898C683.191 229.432 683.35 228.886 683.355 228.261C683.35 227.602 683.179 227.02 682.844 226.514C682.509 226.009 682.051 225.611 681.472 225.321C680.898 225.031 680.242 224.886 679.503 224.886C678.759 224.886 678.094 225.031 677.509 225.321C676.929 225.611 676.472 226.009 676.137 226.514C675.807 227.02 675.645 227.602 675.651 228.261C675.645 228.886 675.796 229.432 676.103 229.898C676.415 230.364 676.861 230.724 677.441 230.98C678.02 231.236 678.708 231.364 679.503 231.364ZM679.503 223.08C680.128 223.08 680.682 222.955 681.165 222.705C681.654 222.455 682.037 222.105 682.316 221.656C682.594 221.207 682.736 220.682 682.742 220.08C682.736 219.489 682.597 218.974 682.324 218.537C682.051 218.094 681.674 217.753 681.191 217.514C680.708 217.27 680.145 217.148 679.503 217.148C678.85 217.148 678.279 217.27 677.79 217.514C677.301 217.753 676.924 218.094 676.657 218.537C676.39 218.974 676.259 219.489 676.265 220.08C676.259 220.682 676.392 221.207 676.665 221.656C676.944 222.105 677.327 222.455 677.816 222.705C678.304 222.955 678.867 223.08 679.503 223.08Z" fill="black"/>
<circle cx="661" cy="162" r="25" fill="#F2C94C"/>
<path d="M656.365 151.545V169H654.251V153.761H654.149L649.888 156.591V154.443L654.251 151.545H656.365ZM667.078 169.239C665.794 169.239 664.7 168.889 663.797 168.19C662.893 167.486 662.203 166.466 661.726 165.131C661.249 163.79 661.01 162.17 661.01 160.273C661.01 158.386 661.249 156.776 661.726 155.44C662.209 154.099 662.902 153.077 663.805 152.372C664.714 151.662 665.805 151.307 667.078 151.307C668.351 151.307 669.439 151.662 670.342 152.372C671.251 153.077 671.945 154.099 672.422 155.44C672.905 156.776 673.146 158.386 673.146 160.273C673.146 162.17 672.908 163.79 672.43 165.131C671.953 166.466 671.263 167.486 670.359 168.19C669.456 168.889 668.362 169.239 667.078 169.239ZM667.078 167.364C668.351 167.364 669.339 166.75 670.044 165.523C670.749 164.295 671.101 162.545 671.101 160.273C671.101 158.761 670.939 157.474 670.615 156.412C670.297 155.349 669.837 154.54 669.234 153.983C668.638 153.426 667.919 153.148 667.078 153.148C665.817 153.148 664.831 153.77 664.121 155.014C663.411 156.253 663.055 158.006 663.055 160.273C663.055 161.784 663.214 163.068 663.533 164.125C663.851 165.182 664.308 165.986 664.905 166.537C665.507 167.088 666.232 167.364 667.078 167.364Z" fill="black"/>
<circle cx="724" cy="320" r="25" fill="#F2C94C"/>
<path d="M724.375 309.307C725.091 309.312 725.807 309.449 726.523 309.716C727.239 309.983 727.892 310.426 728.483 311.045C729.074 311.659 729.549 312.497 729.907 313.56C730.265 314.622 730.444 315.955 730.444 317.557C730.444 319.108 730.296 320.486 730 321.69C729.711 322.889 729.29 323.901 728.739 324.724C728.194 325.548 727.529 326.173 726.745 326.599C725.966 327.026 725.086 327.239 724.103 327.239C723.125 327.239 722.253 327.045 721.486 326.659C720.725 326.267 720.1 325.724 719.611 325.031C719.128 324.332 718.819 323.523 718.682 322.602H720.762C720.949 323.403 721.321 324.065 721.878 324.588C722.441 325.105 723.182 325.364 724.103 325.364C725.449 325.364 726.512 324.776 727.29 323.599C728.074 322.423 728.466 320.761 728.466 318.614H728.33C728.012 319.091 727.634 319.503 727.196 319.849C726.759 320.196 726.273 320.463 725.739 320.651C725.205 320.838 724.637 320.932 724.034 320.932C723.034 320.932 722.117 320.685 721.282 320.19C720.452 319.69 719.787 319.006 719.287 318.136C718.793 317.261 718.546 316.261 718.546 315.136C718.546 314.068 718.784 313.091 719.262 312.205C719.745 311.312 720.421 310.602 721.29 310.074C722.165 309.545 723.194 309.29 724.375 309.307ZM724.375 311.182C723.659 311.182 723.015 311.361 722.441 311.719C721.873 312.071 721.421 312.548 721.086 313.151C720.756 313.747 720.591 314.409 720.591 315.136C720.591 315.864 720.75 316.526 721.069 317.122C721.392 317.713 721.833 318.185 722.39 318.537C722.952 318.884 723.591 319.057 724.307 319.057C724.847 319.057 725.35 318.952 725.816 318.741C726.282 318.526 726.688 318.233 727.034 317.864C727.387 317.489 727.662 317.065 727.861 316.594C728.06 316.116 728.159 315.619 728.159 315.102C728.159 314.42 727.995 313.781 727.665 313.185C727.341 312.588 726.892 312.105 726.319 311.736C725.75 311.366 725.103 311.182 724.375 311.182Z" fill="black"/>
</svg>
