<svg width="776" height="439" viewBox="0 0 776 439" fill="none" xmlns="http://www.w3.org/2000/svg">
<rect width="776" height="439" fill="white"/>
<path d="M323.118 40V26.9091H325.061V28.8864H325.198C325.436 28.2386 325.868 27.7131 326.493 27.3097C327.118 26.9062 327.823 26.7045 328.607 26.7045C328.755 26.7045 328.939 26.7074 329.161 26.7131C329.382 26.7187 329.55 26.7273 329.664 26.7386V28.7841C329.596 28.767 329.439 28.7415 329.195 28.7074C328.956 28.6676 328.703 28.6477 328.436 28.6477C327.8 28.6477 327.232 28.7812 326.732 29.0483C326.238 29.3097 325.846 29.6733 325.556 30.1392C325.272 30.5994 325.13 31.125 325.13 31.7159V40H323.118ZM336.968 40.2727C335.786 40.2727 334.749 39.9915 333.857 39.429C332.971 38.8665 332.277 38.0795 331.777 37.0682C331.283 36.0568 331.036 34.875 331.036 33.5227C331.036 32.1591 331.283 30.9687 331.777 29.9517C332.277 28.9347 332.971 28.1449 333.857 27.5824C334.749 27.0199 335.786 26.7386 336.968 26.7386C338.15 26.7386 339.184 27.0199 340.07 27.5824C340.962 28.1449 341.655 28.9347 342.15 29.9517C342.65 30.9687 342.9 32.1591 342.9 33.5227C342.9 34.875 342.65 36.0568 342.15 37.0682C341.655 38.0795 340.962 38.8665 340.07 39.429C339.184 39.9915 338.15 40.2727 336.968 40.2727ZM336.968 38.4659C337.865 38.4659 338.604 38.2358 339.184 37.7756C339.763 37.3153 340.192 36.7102 340.471 35.9602C340.749 35.2102 340.888 34.3977 340.888 33.5227C340.888 32.6477 340.749 31.8324 340.471 31.0767C340.192 30.321 339.763 29.7102 339.184 29.2443C338.604 28.7784 337.865 28.5455 336.968 28.5455C336.07 28.5455 335.331 28.7784 334.752 29.2443C334.172 29.7102 333.743 30.321 333.465 31.0767C333.186 31.8324 333.047 32.6477 333.047 33.5227C333.047 34.3977 333.186 35.2102 333.465 35.9602C333.743 36.7102 334.172 37.3153 334.752 37.7756C335.331 38.2358 336.07 38.4659 336.968 38.4659ZM351.288 40.2727C350.106 40.2727 349.069 39.9915 348.177 39.429C347.291 38.8665 346.598 38.0795 346.098 37.0682C345.603 36.0568 345.356 34.875 345.356 33.5227C345.356 32.1591 345.603 30.9687 346.098 29.9517C346.598 28.9347 347.291 28.1449 348.177 27.5824C349.069 27.0199 350.106 26.7386 351.288 26.7386C352.47 26.7386 353.504 27.0199 354.39 27.5824C355.282 28.1449 355.975 28.9347 356.47 29.9517C356.97 30.9687 357.22 32.1591 357.22 33.5227C357.22 34.875 356.97 36.0568 356.47 37.0682C355.975 38.0795 355.282 38.8665 354.39 39.429C353.504 39.9915 352.47 40.2727 351.288 40.2727ZM351.288 38.4659C352.186 38.4659 352.924 38.2358 353.504 37.7756C354.083 37.3153 354.512 36.7102 354.791 35.9602C355.069 35.2102 355.208 34.3977 355.208 33.5227C355.208 32.6477 355.069 31.8324 354.791 31.0767C354.512 30.321 354.083 29.7102 353.504 29.2443C352.924 28.7784 352.186 28.5455 351.288 28.5455C350.39 28.5455 349.652 28.7784 349.072 29.2443C348.493 29.7102 348.064 30.321 347.785 31.0767C347.507 31.8324 347.368 32.6477 347.368 33.5227C347.368 34.3977 347.507 35.2102 347.785 35.9602C348.064 36.7102 348.493 37.3153 349.072 37.7756C349.652 38.2358 350.39 38.4659 351.288 38.4659ZM365.983 26.9091V28.6136H359.199V26.9091H365.983ZM361.176 23.7727H363.188V36.25C363.188 36.8182 363.27 37.2443 363.435 37.5284C363.605 37.8068 363.821 37.9943 364.083 38.0909C364.35 38.1818 364.631 38.2273 364.926 38.2273C365.148 38.2273 365.33 38.2159 365.472 38.1932C365.614 38.1648 365.728 38.142 365.813 38.125L366.222 39.9318C366.086 39.983 365.895 40.0341 365.651 40.0852C365.407 40.142 365.097 40.1705 364.722 40.1705C364.154 40.1705 363.597 40.0483 363.051 39.804C362.512 39.5597 362.063 39.1875 361.705 38.6875C361.353 38.1875 361.176 37.5568 361.176 36.7955V23.7727ZM385.032 29.8409L383.225 30.3523C383.111 30.0511 382.944 29.7585 382.722 29.4744C382.506 29.1847 382.211 28.946 381.836 28.7585C381.461 28.571 380.98 28.4773 380.395 28.4773C379.594 28.4773 378.926 28.6619 378.392 29.0312C377.864 29.3949 377.6 29.858 377.6 30.4205C377.6 30.9205 377.782 31.3153 378.145 31.6051C378.509 31.8949 379.077 32.1364 379.85 32.3295L381.793 32.8068C382.963 33.0909 383.836 33.5256 384.409 34.1108C384.983 34.6903 385.27 35.4375 385.27 36.3523C385.27 37.1023 385.054 37.7727 384.623 38.3636C384.196 38.9545 383.6 39.4205 382.833 39.7614C382.066 40.1023 381.174 40.2727 380.157 40.2727C378.821 40.2727 377.716 39.983 376.841 39.4034C375.966 38.8239 375.412 37.9773 375.179 36.8636L377.088 36.3864C377.27 37.0909 377.614 37.6193 378.12 37.9716C378.631 38.3239 379.299 38.5 380.123 38.5C381.06 38.5 381.804 38.3011 382.355 37.9034C382.912 37.5 383.191 37.017 383.191 36.4545C383.191 36 383.032 35.6193 382.713 35.3125C382.395 35 381.907 34.767 381.248 34.6136L379.066 34.1023C377.867 33.8182 376.986 33.3778 376.424 32.7812C375.867 32.179 375.588 31.4261 375.588 30.5227C375.588 29.7841 375.796 29.1307 376.211 28.5625C376.631 27.9943 377.202 27.5483 377.924 27.2244C378.651 26.9006 379.475 26.7386 380.395 26.7386C381.691 26.7386 382.708 27.0227 383.446 27.5909C384.191 28.1591 384.719 28.9091 385.032 29.8409ZM390.309 22.5455V40H388.298V22.5455H390.309ZM393.993 40V26.9091H396.005V40H393.993ZM395.016 24.7273C394.624 24.7273 394.286 24.5938 394.002 24.3267C393.723 24.0597 393.584 23.7386 393.584 23.3636C393.584 22.9886 393.723 22.6676 394.002 22.4006C394.286 22.1335 394.624 22 395.016 22C395.408 22 395.743 22.1335 396.022 22.4006C396.306 22.6676 396.448 22.9886 396.448 23.3636C396.448 23.7386 396.306 24.0597 396.022 24.3267C395.743 24.5938 395.408 24.7273 395.016 24.7273ZM404.632 40.2727C403.541 40.2727 402.578 39.9972 401.743 39.446C400.907 38.8892 400.254 38.1051 399.782 37.0938C399.311 36.0767 399.075 34.875 399.075 33.4886C399.075 32.1136 399.311 30.9205 399.782 29.9091C400.254 28.8977 400.91 28.1165 401.751 27.5653C402.592 27.0142 403.564 26.7386 404.666 26.7386C405.518 26.7386 406.191 26.8807 406.686 27.1648C407.186 27.4432 407.566 27.7614 407.828 28.1193C408.095 28.4716 408.302 28.7614 408.45 28.9886H408.62V22.5455H410.632V40H408.689V37.9886H408.45C408.302 38.2273 408.092 38.5284 407.819 38.892C407.547 39.25 407.157 39.571 406.652 39.8551C406.146 40.1335 405.473 40.2727 404.632 40.2727ZM404.904 38.4659C405.711 38.4659 406.393 38.2557 406.95 37.8352C407.507 37.4091 407.93 36.821 408.22 36.071C408.51 35.3153 408.654 34.4432 408.654 33.4545C408.654 32.4773 408.512 31.6222 408.228 30.8892C407.944 30.1506 407.524 29.5767 406.967 29.1676C406.41 28.7528 405.723 28.5455 404.904 28.5455C404.052 28.5455 403.342 28.7642 402.774 29.2017C402.211 29.6335 401.788 30.2216 401.504 30.9659C401.225 31.7045 401.086 32.5341 401.086 33.4545C401.086 34.3864 401.228 35.233 401.512 35.9943C401.802 36.75 402.228 37.3523 402.791 37.8011C403.359 38.2443 404.064 38.4659 404.904 38.4659ZM420.083 40.2727C418.822 40.2727 417.734 39.9943 416.819 39.4375C415.91 38.875 415.208 38.0909 414.714 37.0852C414.225 36.0739 413.981 34.8977 413.981 33.5568C413.981 32.2159 414.225 31.0341 414.714 30.0114C415.208 28.983 415.896 28.1818 416.777 27.608C417.663 27.0284 418.697 26.7386 419.879 26.7386C420.561 26.7386 421.234 26.8523 421.899 27.0795C422.564 27.3068 423.169 27.6761 423.714 28.1875C424.26 28.6932 424.694 29.3636 425.018 30.1989C425.342 31.0341 425.504 32.0625 425.504 33.2841V34.1364H415.413V32.3977H423.458C423.458 31.6591 423.311 31 423.015 30.4205C422.725 29.8409 422.311 29.3835 421.771 29.0483C421.237 28.7131 420.606 28.5455 419.879 28.5455C419.078 28.5455 418.385 28.7443 417.799 29.142C417.22 29.5341 416.774 30.0455 416.461 30.6761C416.149 31.3068 415.993 31.983 415.993 32.7045V33.8636C415.993 34.8523 416.163 35.6903 416.504 36.3778C416.85 37.0597 417.331 37.5795 417.944 37.9375C418.558 38.2898 419.271 38.4659 420.083 38.4659C420.612 38.4659 421.089 38.392 421.515 38.2443C421.947 38.0909 422.319 37.8636 422.632 37.5625C422.944 37.2557 423.186 36.875 423.356 36.4205L425.299 36.9659C425.095 37.625 424.751 38.2045 424.268 38.7045C423.785 39.1989 423.189 39.5852 422.478 39.8636C421.768 40.1364 420.97 40.2727 420.083 40.2727Z" fill="#2F80ED"/>
<path d="M431.087 199.125V207H429.075V189.545H431.087V195.955H431.257C431.564 195.278 432.024 194.741 432.638 194.344C433.257 193.94 434.081 193.739 435.109 193.739C436.001 193.739 436.783 193.918 437.453 194.276C438.124 194.628 438.643 195.17 439.013 195.903C439.388 196.631 439.575 197.557 439.575 198.682V207H437.564V198.818C437.564 197.778 437.294 196.974 436.754 196.406C436.22 195.832 435.479 195.545 434.53 195.545C433.871 195.545 433.28 195.685 432.757 195.963C432.24 196.241 431.831 196.648 431.53 197.182C431.234 197.716 431.087 198.364 431.087 199.125ZM443.255 207V193.909H445.266V207H443.255ZM444.278 191.727C443.886 191.727 443.548 191.594 443.263 191.327C442.985 191.06 442.846 190.739 442.846 190.364C442.846 189.989 442.985 189.668 443.263 189.401C443.548 189.134 443.886 189 444.278 189C444.67 189 445.005 189.134 445.283 189.401C445.567 189.668 445.71 189.989 445.71 190.364C445.71 190.739 445.567 191.06 445.283 191.327C445.005 191.594 444.67 191.727 444.278 191.727ZM453.893 207.273C452.803 207.273 451.839 206.997 451.004 206.446C450.169 205.889 449.516 205.105 449.044 204.094C448.572 203.077 448.337 201.875 448.337 200.489C448.337 199.114 448.572 197.92 449.044 196.909C449.516 195.898 450.172 195.116 451.013 194.565C451.854 194.014 452.825 193.739 453.928 193.739C454.78 193.739 455.453 193.881 455.947 194.165C456.447 194.443 456.828 194.761 457.089 195.119C457.357 195.472 457.564 195.761 457.712 195.989H457.882V189.545H459.893V207H457.95V204.989H457.712C457.564 205.227 457.354 205.528 457.081 205.892C456.808 206.25 456.419 206.571 455.913 206.855C455.408 207.134 454.734 207.273 453.893 207.273ZM454.166 205.466C454.973 205.466 455.655 205.256 456.212 204.835C456.768 204.409 457.192 203.821 457.482 203.071C457.771 202.315 457.916 201.443 457.916 200.455C457.916 199.477 457.774 198.622 457.49 197.889C457.206 197.151 456.786 196.577 456.229 196.168C455.672 195.753 454.984 195.545 454.166 195.545C453.314 195.545 452.604 195.764 452.036 196.202C451.473 196.634 451.05 197.222 450.766 197.966C450.487 198.705 450.348 199.534 450.348 200.455C450.348 201.386 450.49 202.233 450.774 202.994C451.064 203.75 451.49 204.352 452.053 204.801C452.621 205.244 453.325 205.466 454.166 205.466ZM469.345 207.273C468.084 207.273 466.996 206.994 466.081 206.438C465.172 205.875 464.47 205.091 463.976 204.085C463.487 203.074 463.243 201.898 463.243 200.557C463.243 199.216 463.487 198.034 463.976 197.011C464.47 195.983 465.158 195.182 466.038 194.608C466.925 194.028 467.959 193.739 469.141 193.739C469.822 193.739 470.496 193.852 471.161 194.08C471.825 194.307 472.43 194.676 472.976 195.188C473.521 195.693 473.956 196.364 474.28 197.199C474.604 198.034 474.766 199.062 474.766 200.284V201.136H464.675V199.398H472.72C472.72 198.659 472.572 198 472.277 197.42C471.987 196.841 471.572 196.384 471.033 196.048C470.499 195.713 469.868 195.545 469.141 195.545C468.339 195.545 467.646 195.744 467.061 196.142C466.482 196.534 466.036 197.045 465.723 197.676C465.411 198.307 465.254 198.983 465.254 199.705V200.864C465.254 201.852 465.425 202.69 465.766 203.378C466.112 204.06 466.592 204.58 467.206 204.938C467.82 205.29 468.533 205.466 469.345 205.466C469.874 205.466 470.351 205.392 470.777 205.244C471.209 205.091 471.581 204.864 471.893 204.562C472.206 204.256 472.447 203.875 472.618 203.42L474.561 203.966C474.357 204.625 474.013 205.205 473.53 205.705C473.047 206.199 472.45 206.585 471.74 206.864C471.03 207.136 470.232 207.273 469.345 207.273ZM490.268 193.909V195.614H483.484V193.909H490.268ZM485.462 190.773H487.473V203.25C487.473 203.818 487.555 204.244 487.72 204.528C487.891 204.807 488.107 204.994 488.368 205.091C488.635 205.182 488.916 205.227 489.212 205.227C489.433 205.227 489.615 205.216 489.757 205.193C489.899 205.165 490.013 205.142 490.098 205.125L490.507 206.932C490.371 206.983 490.18 207.034 489.936 207.085C489.692 207.142 489.382 207.17 489.007 207.17C488.439 207.17 487.882 207.048 487.337 206.804C486.797 206.56 486.348 206.188 485.99 205.688C485.638 205.188 485.462 204.557 485.462 203.795V190.773ZM498.642 207.273C497.381 207.273 496.293 206.994 495.378 206.438C494.469 205.875 493.767 205.091 493.273 204.085C492.784 203.074 492.54 201.898 492.54 200.557C492.54 199.216 492.784 198.034 493.273 197.011C493.767 195.983 494.455 195.182 495.335 194.608C496.222 194.028 497.256 193.739 498.438 193.739C499.119 193.739 499.793 193.852 500.457 194.08C501.122 194.307 501.727 194.676 502.273 195.188C502.818 195.693 503.253 196.364 503.577 197.199C503.901 198.034 504.062 199.062 504.062 200.284V201.136H493.972V199.398H502.017C502.017 198.659 501.869 198 501.574 197.42C501.284 196.841 500.869 196.384 500.33 196.048C499.795 195.713 499.165 195.545 498.438 195.545C497.636 195.545 496.943 195.744 496.358 196.142C495.778 196.534 495.332 197.045 495.02 197.676C494.707 198.307 494.551 198.983 494.551 199.705V200.864C494.551 201.852 494.722 202.69 495.062 203.378C495.409 204.06 495.889 204.58 496.503 204.938C497.116 205.29 497.83 205.466 498.642 205.466C499.17 205.466 499.648 205.392 500.074 205.244C500.506 205.091 500.878 204.864 501.19 204.562C501.503 204.256 501.744 203.875 501.915 203.42L503.858 203.966C503.653 204.625 503.31 205.205 502.827 205.705C502.344 206.199 501.747 206.585 501.037 206.864C500.327 207.136 499.528 207.273 498.642 207.273ZM508.271 193.909L511.407 199.261L514.543 193.909H516.862L512.634 200.455L516.862 207H514.543L511.407 201.92L508.271 207H505.952L510.112 200.455L505.952 193.909H508.271ZM525.425 193.909V195.614H518.641V193.909H525.425ZM520.618 190.773H522.629V203.25C522.629 203.818 522.712 204.244 522.876 204.528C523.047 204.807 523.263 204.994 523.524 205.091C523.791 205.182 524.072 205.227 524.368 205.227C524.589 205.227 524.771 205.216 524.913 205.193C525.055 205.165 525.169 205.142 525.254 205.125L525.663 206.932C525.527 206.983 525.337 207.034 525.092 207.085C524.848 207.142 524.538 207.17 524.163 207.17C523.595 207.17 523.038 207.048 522.493 206.804C521.953 206.56 521.504 206.188 521.146 205.688C520.794 205.188 520.618 204.557 520.618 203.795V190.773ZM534.553 189.545V207H532.439V191.761H532.337L528.075 194.591V192.443L532.439 189.545H534.553Z" fill="#EB5757"/>
<path d="M279.114 375.841L277.307 376.352C277.193 376.051 277.026 375.759 276.804 375.474C276.588 375.185 276.293 374.946 275.918 374.759C275.543 374.571 275.062 374.477 274.477 374.477C273.676 374.477 273.009 374.662 272.474 375.031C271.946 375.395 271.682 375.858 271.682 376.42C271.682 376.92 271.864 377.315 272.227 377.605C272.591 377.895 273.159 378.136 273.932 378.33L275.875 378.807C277.045 379.091 277.918 379.526 278.491 380.111C279.065 380.69 279.352 381.437 279.352 382.352C279.352 383.102 279.136 383.773 278.705 384.364C278.278 384.955 277.682 385.42 276.915 385.761C276.148 386.102 275.256 386.273 274.239 386.273C272.903 386.273 271.798 385.983 270.923 385.403C270.048 384.824 269.494 383.977 269.261 382.864L271.17 382.386C271.352 383.091 271.696 383.619 272.202 383.972C272.713 384.324 273.381 384.5 274.205 384.5C275.142 384.5 275.886 384.301 276.438 383.903C276.994 383.5 277.273 383.017 277.273 382.455C277.273 382 277.114 381.619 276.795 381.312C276.477 381 275.989 380.767 275.33 380.614L273.148 380.102C271.949 379.818 271.068 379.378 270.506 378.781C269.949 378.179 269.67 377.426 269.67 376.523C269.67 375.784 269.878 375.131 270.293 374.562C270.713 373.994 271.284 373.548 272.006 373.224C272.733 372.901 273.557 372.739 274.477 372.739C275.773 372.739 276.79 373.023 277.528 373.591C278.273 374.159 278.801 374.909 279.114 375.841ZM284.391 378.125V386H282.38V368.545H284.391V374.955H284.562C284.869 374.278 285.329 373.741 285.942 373.344C286.562 372.94 287.386 372.739 288.414 372.739C289.306 372.739 290.087 372.918 290.758 373.276C291.428 373.628 291.948 374.17 292.317 374.903C292.692 375.631 292.88 376.557 292.88 377.682V386H290.869V377.818C290.869 376.778 290.599 375.974 290.059 375.406C289.525 374.832 288.783 374.545 287.835 374.545C287.175 374.545 286.585 374.685 286.062 374.963C285.545 375.241 285.136 375.648 284.835 376.182C284.539 376.716 284.391 377.364 284.391 378.125ZM301.878 386.273C300.696 386.273 299.659 385.991 298.767 385.429C297.881 384.866 297.188 384.08 296.688 383.068C296.193 382.057 295.946 380.875 295.946 379.523C295.946 378.159 296.193 376.969 296.688 375.952C297.188 374.935 297.881 374.145 298.767 373.582C299.659 373.02 300.696 372.739 301.878 372.739C303.06 372.739 304.094 373.02 304.98 373.582C305.872 374.145 306.565 374.935 307.06 375.952C307.56 376.969 307.81 378.159 307.81 379.523C307.81 380.875 307.56 382.057 307.06 383.068C306.565 384.08 305.872 384.866 304.98 385.429C304.094 385.991 303.06 386.273 301.878 386.273ZM301.878 384.466C302.776 384.466 303.514 384.236 304.094 383.776C304.673 383.315 305.102 382.71 305.381 381.96C305.659 381.21 305.798 380.398 305.798 379.523C305.798 378.648 305.659 377.832 305.381 377.077C305.102 376.321 304.673 375.71 304.094 375.244C303.514 374.778 302.776 374.545 301.878 374.545C300.98 374.545 300.241 374.778 299.662 375.244C299.082 375.71 298.653 376.321 298.375 377.077C298.097 377.832 297.957 378.648 297.957 379.523C297.957 380.398 298.097 381.21 298.375 381.96C298.653 382.71 299.082 383.315 299.662 383.776C300.241 384.236 300.98 384.466 301.878 384.466ZM313.401 386L309.412 372.909H311.526L314.355 382.932H314.491L317.287 372.909H319.435L322.196 382.898H322.332L325.162 372.909H327.276L323.287 386H321.31L318.446 375.943H318.241L315.378 386H313.401ZM342.378 372.909V374.614H335.594V372.909H342.378ZM337.571 369.773H339.582V382.25C339.582 382.818 339.665 383.244 339.83 383.528C340 383.807 340.216 383.994 340.477 384.091C340.744 384.182 341.026 384.227 341.321 384.227C341.543 384.227 341.724 384.216 341.866 384.193C342.009 384.165 342.122 384.142 342.207 384.125L342.616 385.932C342.48 385.983 342.29 386.034 342.045 386.085C341.801 386.142 341.491 386.17 341.116 386.17C340.548 386.17 339.991 386.048 339.446 385.804C338.906 385.56 338.457 385.188 338.099 384.688C337.747 384.188 337.571 383.557 337.571 382.795V369.773ZM350.751 386.273C349.49 386.273 348.402 385.994 347.487 385.438C346.578 384.875 345.876 384.091 345.382 383.085C344.893 382.074 344.649 380.898 344.649 379.557C344.649 378.216 344.893 377.034 345.382 376.011C345.876 374.983 346.564 374.182 347.445 373.608C348.331 373.028 349.365 372.739 350.547 372.739C351.229 372.739 351.902 372.852 352.567 373.08C353.232 373.307 353.837 373.676 354.382 374.188C354.928 374.693 355.362 375.364 355.686 376.199C356.01 377.034 356.172 378.062 356.172 379.284V380.136H346.081V378.398H354.126C354.126 377.659 353.979 377 353.683 376.42C353.393 375.841 352.979 375.384 352.439 375.048C351.905 374.713 351.274 374.545 350.547 374.545C349.746 374.545 349.053 374.744 348.467 375.142C347.888 375.534 347.442 376.045 347.129 376.676C346.817 377.307 346.661 377.983 346.661 378.705V379.864C346.661 380.852 346.831 381.69 347.172 382.378C347.518 383.06 347.999 383.58 348.612 383.938C349.226 384.29 349.939 384.466 350.751 384.466C351.28 384.466 351.757 384.392 352.183 384.244C352.615 384.091 352.987 383.864 353.3 383.562C353.612 383.256 353.854 382.875 354.024 382.42L355.967 382.966C355.763 383.625 355.419 384.205 354.936 384.705C354.453 385.199 353.857 385.585 353.146 385.864C352.436 386.136 351.638 386.273 350.751 386.273ZM360.38 372.909L363.516 378.261L366.653 372.909H368.971L364.744 379.455L368.971 386H366.653L363.516 380.92L360.38 386H358.062L362.221 379.455L358.062 372.909H360.38ZM377.534 372.909V374.614H370.75V372.909H377.534ZM372.727 369.773H374.739V382.25C374.739 382.818 374.821 383.244 374.986 383.528C375.156 383.807 375.372 383.994 375.634 384.091C375.901 384.182 376.182 384.227 376.477 384.227C376.699 384.227 376.881 384.216 377.023 384.193C377.165 384.165 377.278 384.142 377.364 384.125L377.773 385.932C377.636 385.983 377.446 386.034 377.202 386.085C376.957 386.142 376.648 386.17 376.273 386.17C375.705 386.17 375.148 386.048 374.602 385.804C374.063 385.56 373.614 385.188 373.256 384.688C372.903 384.188 372.727 383.557 372.727 382.795V369.773ZM386.423 386.239C385.298 386.239 384.295 386.045 383.415 385.659C382.54 385.273 381.844 384.736 381.327 384.048C380.815 383.355 380.537 382.551 380.491 381.636H382.639C382.685 382.199 382.878 382.685 383.219 383.094C383.56 383.497 384.006 383.81 384.557 384.031C385.108 384.253 385.719 384.364 386.389 384.364C387.139 384.364 387.804 384.233 388.384 383.972C388.963 383.71 389.418 383.347 389.747 382.881C390.077 382.415 390.241 381.875 390.241 381.261C390.241 380.619 390.082 380.054 389.764 379.565C389.446 379.071 388.98 378.685 388.366 378.406C387.753 378.128 387.003 377.989 386.116 377.989H384.719V376.114H386.116C386.81 376.114 387.418 375.989 387.94 375.739C388.469 375.489 388.881 375.136 389.176 374.682C389.477 374.227 389.628 373.693 389.628 373.08C389.628 372.489 389.497 371.974 389.236 371.537C388.974 371.099 388.605 370.759 388.128 370.514C387.656 370.27 387.099 370.148 386.457 370.148C385.855 370.148 385.287 370.259 384.753 370.48C384.224 370.696 383.793 371.011 383.457 371.426C383.122 371.835 382.94 372.33 382.912 372.909H380.866C380.901 371.994 381.176 371.193 381.693 370.506C382.21 369.812 382.886 369.273 383.722 368.886C384.563 368.5 385.486 368.307 386.491 368.307C387.571 368.307 388.497 368.526 389.27 368.963C390.043 369.395 390.636 369.966 391.051 370.676C391.466 371.386 391.673 372.153 391.673 372.977C391.673 373.96 391.415 374.798 390.898 375.491C390.386 376.185 389.69 376.665 388.81 376.932V377.068C389.912 377.25 390.773 377.719 391.392 378.474C392.011 379.224 392.321 380.153 392.321 381.261C392.321 382.21 392.063 383.062 391.545 383.818C391.034 384.568 390.335 385.159 389.449 385.591C388.563 386.023 387.554 386.239 386.423 386.239Z" fill="#EB5757"/>
<path d="M243.64 207.273C242.412 207.273 241.355 206.983 240.469 206.403C239.583 205.824 238.901 205.026 238.424 204.009C237.946 202.991 237.708 201.83 237.708 200.523C237.708 199.193 237.952 198.02 238.441 197.003C238.935 195.98 239.623 195.182 240.503 194.608C241.39 194.028 242.424 193.739 243.605 193.739C244.526 193.739 245.355 193.909 246.094 194.25C246.833 194.591 247.438 195.068 247.909 195.682C248.381 196.295 248.674 197.011 248.787 197.83H246.776C246.623 197.233 246.282 196.705 245.753 196.244C245.23 195.778 244.526 195.545 243.64 195.545C242.855 195.545 242.168 195.75 241.577 196.159C240.992 196.562 240.534 197.134 240.205 197.872C239.881 198.605 239.719 199.466 239.719 200.455C239.719 201.466 239.878 202.347 240.196 203.097C240.52 203.847 240.975 204.429 241.56 204.844C242.151 205.259 242.844 205.466 243.64 205.466C244.162 205.466 244.637 205.375 245.063 205.193C245.489 205.011 245.85 204.75 246.145 204.409C246.441 204.068 246.651 203.659 246.776 203.182H248.787C248.674 203.955 248.392 204.651 247.944 205.27C247.5 205.884 246.912 206.372 246.179 206.736C245.452 207.094 244.605 207.273 243.64 207.273ZM253.739 199.125V207H251.728V189.545H253.739V195.955H253.909C254.216 195.278 254.676 194.741 255.29 194.344C255.909 193.94 256.733 193.739 257.762 193.739C258.654 193.739 259.435 193.918 260.105 194.276C260.776 194.628 261.296 195.17 261.665 195.903C262.04 196.631 262.228 197.557 262.228 198.682V207H260.216V198.818C260.216 197.778 259.946 196.974 259.407 196.406C258.873 195.832 258.131 195.545 257.182 195.545C256.523 195.545 255.932 195.685 255.409 195.963C254.892 196.241 254.483 196.648 254.182 197.182C253.887 197.716 253.739 198.364 253.739 199.125ZM265.907 207V193.909H267.919V207H265.907ZM266.93 191.727C266.538 191.727 266.2 191.594 265.916 191.327C265.637 191.06 265.498 190.739 265.498 190.364C265.498 189.989 265.637 189.668 265.916 189.401C266.2 189.134 266.538 189 266.93 189C267.322 189 267.657 189.134 267.936 189.401C268.22 189.668 268.362 189.989 268.362 190.364C268.362 190.739 268.22 191.06 267.936 191.327C267.657 191.594 267.322 191.727 266.93 191.727ZM273.614 189.545V207H271.603V189.545H273.614ZM282.241 207.273C281.15 207.273 280.187 206.997 279.352 206.446C278.517 205.889 277.863 205.105 277.392 204.094C276.92 203.077 276.684 201.875 276.684 200.489C276.684 199.114 276.92 197.92 277.392 196.909C277.863 195.898 278.52 195.116 279.36 194.565C280.201 194.014 281.173 193.739 282.275 193.739C283.127 193.739 283.801 193.881 284.295 194.165C284.795 194.443 285.176 194.761 285.437 195.119C285.704 195.472 285.912 195.761 286.059 195.989H286.23V189.545H288.241V207H286.298V204.989H286.059C285.912 205.227 285.701 205.528 285.429 205.892C285.156 206.25 284.767 206.571 284.261 206.855C283.755 207.134 283.082 207.273 282.241 207.273ZM282.514 205.466C283.321 205.466 284.002 205.256 284.559 204.835C285.116 204.409 285.539 203.821 285.829 203.071C286.119 202.315 286.264 201.443 286.264 200.455C286.264 199.477 286.122 198.622 285.838 197.889C285.554 197.151 285.133 196.577 284.576 196.168C284.02 195.753 283.332 195.545 282.514 195.545C281.662 195.545 280.951 195.764 280.383 196.202C279.821 196.634 279.397 197.222 279.113 197.966C278.835 198.705 278.696 199.534 278.696 200.455C278.696 201.386 278.838 202.233 279.122 202.994C279.412 203.75 279.838 204.352 280.4 204.801C280.968 205.244 281.673 205.466 282.514 205.466ZM298.306 189.545V207H296.193V191.761H296.091L291.829 194.591V192.443L296.193 189.545H298.306Z" fill="#2F80ED"/>
<path d="M132.489 375.841L130.682 376.352C130.568 376.051 130.401 375.759 130.179 375.474C129.963 375.185 129.668 374.946 129.293 374.759C128.918 374.571 128.438 374.477 127.852 374.477C127.051 374.477 126.384 374.662 125.849 375.031C125.321 375.395 125.057 375.858 125.057 376.42C125.057 376.92 125.239 377.315 125.602 377.605C125.966 377.895 126.534 378.136 127.307 378.33L129.25 378.807C130.42 379.091 131.293 379.526 131.866 380.111C132.44 380.69 132.727 381.437 132.727 382.352C132.727 383.102 132.511 383.773 132.08 384.364C131.653 384.955 131.057 385.42 130.29 385.761C129.523 386.102 128.631 386.273 127.614 386.273C126.278 386.273 125.173 385.983 124.298 385.403C123.423 384.824 122.869 383.977 122.636 382.864L124.545 382.386C124.727 383.091 125.071 383.619 125.577 383.972C126.088 384.324 126.756 384.5 127.58 384.5C128.517 384.5 129.261 384.301 129.812 383.903C130.369 383.5 130.648 383.017 130.648 382.455C130.648 382 130.489 381.619 130.17 381.312C129.852 381 129.364 380.767 128.705 380.614L126.523 380.102C125.324 379.818 124.443 379.378 123.881 378.781C123.324 378.179 123.045 377.426 123.045 376.523C123.045 375.784 123.253 375.131 123.668 374.562C124.088 373.994 124.659 373.548 125.381 373.224C126.108 372.901 126.932 372.739 127.852 372.739C129.148 372.739 130.165 373.023 130.903 373.591C131.648 374.159 132.176 374.909 132.489 375.841ZM137.766 378.125V386H135.755V368.545H137.766V374.955H137.937C138.244 374.278 138.704 373.741 139.317 373.344C139.937 372.94 140.761 372.739 141.789 372.739C142.681 372.739 143.462 372.918 144.133 373.276C144.803 373.628 145.323 374.17 145.692 374.903C146.067 375.631 146.255 376.557 146.255 377.682V386H144.244V377.818C144.244 376.778 143.974 375.974 143.434 375.406C142.9 374.832 142.158 374.545 141.21 374.545C140.55 374.545 139.96 374.685 139.437 374.963C138.92 375.241 138.511 375.648 138.21 376.182C137.914 376.716 137.766 377.364 137.766 378.125ZM155.253 386.273C154.071 386.273 153.034 385.991 152.142 385.429C151.256 384.866 150.562 384.08 150.062 383.068C149.568 382.057 149.321 380.875 149.321 379.523C149.321 378.159 149.568 376.969 150.062 375.952C150.562 374.935 151.256 374.145 152.142 373.582C153.034 373.02 154.071 372.739 155.253 372.739C156.435 372.739 157.469 373.02 158.355 373.582C159.247 374.145 159.94 374.935 160.435 375.952C160.935 376.969 161.185 378.159 161.185 379.523C161.185 380.875 160.935 382.057 160.435 383.068C159.94 384.08 159.247 384.866 158.355 385.429C157.469 385.991 156.435 386.273 155.253 386.273ZM155.253 384.466C156.151 384.466 156.889 384.236 157.469 383.776C158.048 383.315 158.477 382.71 158.756 381.96C159.034 381.21 159.173 380.398 159.173 379.523C159.173 378.648 159.034 377.832 158.756 377.077C158.477 376.321 158.048 375.71 157.469 375.244C156.889 374.778 156.151 374.545 155.253 374.545C154.355 374.545 153.616 374.778 153.037 375.244C152.457 375.71 152.028 376.321 151.75 377.077C151.472 377.832 151.332 378.648 151.332 379.523C151.332 380.398 151.472 381.21 151.75 381.96C152.028 382.71 152.457 383.315 153.037 383.776C153.616 384.236 154.355 384.466 155.253 384.466ZM166.776 386L162.787 372.909H164.901L167.73 382.932H167.866L170.662 372.909H172.81L175.571 382.898H175.707L178.537 372.909H180.651L176.662 386H174.685L171.821 375.943H171.616L168.753 386H166.776ZM195.753 372.909V374.614H188.969V372.909H195.753ZM190.946 369.773H192.957V382.25C192.957 382.818 193.04 383.244 193.205 383.528C193.375 383.807 193.591 383.994 193.852 384.091C194.119 384.182 194.401 384.227 194.696 384.227C194.918 384.227 195.099 384.216 195.241 384.193C195.384 384.165 195.497 384.142 195.582 384.125L195.991 385.932C195.855 385.983 195.665 386.034 195.42 386.085C195.176 386.142 194.866 386.17 194.491 386.17C193.923 386.17 193.366 386.048 192.821 385.804C192.281 385.56 191.832 385.188 191.474 384.688C191.122 384.188 190.946 383.557 190.946 382.795V369.773ZM204.126 386.273C202.865 386.273 201.777 385.994 200.862 385.438C199.953 384.875 199.251 384.091 198.757 383.085C198.268 382.074 198.024 380.898 198.024 379.557C198.024 378.216 198.268 377.034 198.757 376.011C199.251 374.983 199.939 374.182 200.82 373.608C201.706 373.028 202.74 372.739 203.922 372.739C204.604 372.739 205.277 372.852 205.942 373.08C206.607 373.307 207.212 373.676 207.757 374.188C208.303 374.693 208.737 375.364 209.061 376.199C209.385 377.034 209.547 378.062 209.547 379.284V380.136H199.456V378.398H207.501C207.501 377.659 207.354 377 207.058 376.42C206.768 375.841 206.354 375.384 205.814 375.048C205.28 374.713 204.649 374.545 203.922 374.545C203.121 374.545 202.428 374.744 201.842 375.142C201.263 375.534 200.817 376.045 200.504 376.676C200.192 377.307 200.036 377.983 200.036 378.705V379.864C200.036 380.852 200.206 381.69 200.547 382.378C200.893 383.06 201.374 383.58 201.987 383.938C202.601 384.29 203.314 384.466 204.126 384.466C204.655 384.466 205.132 384.392 205.558 384.244C205.99 384.091 206.362 383.864 206.675 383.562C206.987 383.256 207.229 382.875 207.399 382.42L209.342 382.966C209.138 383.625 208.794 384.205 208.311 384.705C207.828 385.199 207.232 385.585 206.521 385.864C205.811 386.136 205.013 386.273 204.126 386.273ZM213.755 372.909L216.891 378.261L220.028 372.909H222.346L218.119 379.455L222.346 386H220.028L216.891 380.92L213.755 386H211.437L215.596 379.455L211.437 372.909H213.755ZM230.909 372.909V374.614H224.125V372.909H230.909ZM226.102 369.773H228.114V382.25C228.114 382.818 228.196 383.244 228.361 383.528C228.531 383.807 228.747 383.994 229.009 384.091C229.276 384.182 229.557 384.227 229.852 384.227C230.074 384.227 230.256 384.216 230.398 384.193C230.54 384.165 230.653 384.142 230.739 384.125L231.148 385.932C231.011 385.983 230.821 386.034 230.577 386.085C230.332 386.142 230.023 386.17 229.648 386.17C229.08 386.17 228.523 386.048 227.977 385.804C227.438 385.56 226.989 385.188 226.631 384.688C226.278 384.188 226.102 383.557 226.102 382.795V369.773ZM233.901 386V384.466L239.662 378.159C240.338 377.42 240.895 376.778 241.332 376.233C241.77 375.682 242.094 375.165 242.304 374.682C242.52 374.193 242.628 373.682 242.628 373.148C242.628 372.534 242.48 372.003 242.185 371.554C241.895 371.105 241.497 370.759 240.991 370.514C240.486 370.27 239.918 370.148 239.287 370.148C238.616 370.148 238.031 370.287 237.531 370.565C237.037 370.838 236.653 371.222 236.381 371.716C236.114 372.21 235.98 372.79 235.98 373.455H233.969C233.969 372.432 234.205 371.534 234.676 370.761C235.148 369.989 235.79 369.386 236.602 368.955C237.42 368.523 238.338 368.307 239.355 368.307C240.378 368.307 241.284 368.523 242.074 368.955C242.864 369.386 243.483 369.969 243.932 370.702C244.381 371.435 244.605 372.25 244.605 373.148C244.605 373.79 244.489 374.418 244.256 375.031C244.028 375.639 243.631 376.318 243.062 377.068C242.5 377.812 241.719 378.722 240.719 379.795L236.798 383.989V384.125H244.912V386H233.901Z" fill="#EB5757"/>
<path d="M634.231 375.841L632.424 376.352C632.31 376.051 632.143 375.759 631.921 375.474C631.705 375.185 631.41 374.946 631.035 374.759C630.66 374.571 630.18 374.477 629.594 374.477C628.793 374.477 628.126 374.662 627.592 375.031C627.063 375.395 626.799 375.858 626.799 376.42C626.799 376.92 626.981 377.315 627.344 377.605C627.708 377.895 628.276 378.136 629.049 378.33L630.992 378.807C632.163 379.091 633.035 379.526 633.609 380.111C634.183 380.69 634.469 381.437 634.469 382.352C634.469 383.102 634.254 383.773 633.822 384.364C633.396 384.955 632.799 385.42 632.032 385.761C631.265 386.102 630.373 386.273 629.356 386.273C628.021 386.273 626.915 385.983 626.04 385.403C625.165 384.824 624.612 383.977 624.379 382.864L626.288 382.386C626.469 383.091 626.813 383.619 627.319 383.972C627.83 384.324 628.498 384.5 629.322 384.5C630.259 384.5 631.004 384.301 631.555 383.903C632.112 383.5 632.39 383.017 632.39 382.455C632.39 382 632.231 381.619 631.913 381.312C631.594 381 631.106 380.767 630.447 380.614L628.265 380.102C627.066 379.818 626.185 379.378 625.623 378.781C625.066 378.179 624.788 377.426 624.788 376.523C624.788 375.784 624.995 375.131 625.41 374.562C625.83 373.994 626.401 373.548 627.123 373.224C627.85 372.901 628.674 372.739 629.594 372.739C630.89 372.739 631.907 373.023 632.646 373.591C633.39 374.159 633.918 374.909 634.231 375.841ZM639.509 378.125V386H637.497V368.545H639.509V374.955H639.679C639.986 374.278 640.446 373.741 641.06 373.344C641.679 372.94 642.503 372.739 643.531 372.739C644.423 372.739 645.205 372.918 645.875 373.276C646.545 373.628 647.065 374.17 647.435 374.903C647.81 375.631 647.997 376.557 647.997 377.682V386H645.986V377.818C645.986 376.778 645.716 375.974 645.176 375.406C644.642 374.832 643.901 374.545 642.952 374.545C642.293 374.545 641.702 374.685 641.179 374.963C640.662 375.241 640.253 375.648 639.952 376.182C639.656 376.716 639.509 377.364 639.509 378.125ZM656.995 386.273C655.813 386.273 654.776 385.991 653.884 385.429C652.998 384.866 652.305 384.08 651.805 383.068C651.31 382.057 651.063 380.875 651.063 379.523C651.063 378.159 651.31 376.969 651.805 375.952C652.305 374.935 652.998 374.145 653.884 373.582C654.776 373.02 655.813 372.739 656.995 372.739C658.177 372.739 659.211 373.02 660.097 373.582C660.989 374.145 661.683 374.935 662.177 375.952C662.677 376.969 662.927 378.159 662.927 379.523C662.927 380.875 662.677 382.057 662.177 383.068C661.683 384.08 660.989 384.866 660.097 385.429C659.211 385.991 658.177 386.273 656.995 386.273ZM656.995 384.466C657.893 384.466 658.631 384.236 659.211 383.776C659.79 383.315 660.219 382.71 660.498 381.96C660.776 381.21 660.915 380.398 660.915 379.523C660.915 378.648 660.776 377.832 660.498 377.077C660.219 376.321 659.79 375.71 659.211 375.244C658.631 374.778 657.893 374.545 656.995 374.545C656.097 374.545 655.359 374.778 654.779 375.244C654.2 375.71 653.771 376.321 653.492 377.077C653.214 377.832 653.075 378.648 653.075 379.523C653.075 380.398 653.214 381.21 653.492 381.96C653.771 382.71 654.2 383.315 654.779 383.776C655.359 384.236 656.097 384.466 656.995 384.466ZM668.518 386L664.529 372.909H666.643L669.472 382.932H669.609L672.404 372.909H674.552L677.313 382.898H677.45L680.279 372.909H682.393L678.404 386H676.427L673.563 375.943H673.359L670.495 386H668.518ZM697.495 372.909V374.614H690.711V372.909H697.495ZM692.688 369.773H694.7V382.25C694.7 382.818 694.782 383.244 694.947 383.528C695.117 383.807 695.333 383.994 695.594 384.091C695.862 384.182 696.143 384.227 696.438 384.227C696.66 384.227 696.842 384.216 696.984 384.193C697.126 384.165 697.239 384.142 697.325 384.125L697.734 385.932C697.597 385.983 697.407 386.034 697.163 386.085C696.918 386.142 696.609 386.17 696.234 386.17C695.665 386.17 695.109 386.048 694.563 385.804C694.023 385.56 693.575 385.188 693.217 384.688C692.864 384.188 692.688 383.557 692.688 382.795V369.773ZM705.869 386.273C704.607 386.273 703.519 385.994 702.604 385.438C701.695 384.875 700.994 384.091 700.499 383.085C700.011 382.074 699.766 380.898 699.766 379.557C699.766 378.216 700.011 377.034 700.499 376.011C700.994 374.983 701.681 374.182 702.562 373.608C703.448 373.028 704.482 372.739 705.664 372.739C706.346 372.739 707.019 372.852 707.684 373.08C708.349 373.307 708.954 373.676 709.499 374.188C710.045 374.693 710.479 375.364 710.803 376.199C711.127 377.034 711.289 378.062 711.289 379.284V380.136H701.198V378.398H709.244C709.244 377.659 709.096 377 708.8 376.42C708.511 375.841 708.096 375.384 707.556 375.048C707.022 374.713 706.391 374.545 705.664 374.545C704.863 374.545 704.17 374.744 703.585 375.142C703.005 375.534 702.559 376.045 702.246 376.676C701.934 377.307 701.778 377.983 701.778 378.705V379.864C701.778 380.852 701.948 381.69 702.289 382.378C702.636 383.06 703.116 383.58 703.729 383.938C704.343 384.29 705.056 384.466 705.869 384.466C706.397 384.466 706.874 384.392 707.3 384.244C707.732 384.091 708.104 383.864 708.417 383.562C708.729 383.256 708.971 382.875 709.141 382.42L711.085 382.966C710.88 383.625 710.536 384.205 710.053 384.705C709.57 385.199 708.974 385.585 708.263 385.864C707.553 386.136 706.755 386.273 705.869 386.273ZM715.497 372.909L718.634 378.261L721.77 372.909H724.088L719.861 379.455L724.088 386H721.77L718.634 380.92L715.497 386H713.179L717.338 379.455L713.179 372.909H715.497ZM732.651 372.909V374.614H725.867V372.909H732.651ZM727.844 369.773H729.856V382.25C729.856 382.818 729.938 383.244 730.103 383.528C730.273 383.807 730.489 383.994 730.751 384.091C731.018 384.182 731.299 384.227 731.594 384.227C731.816 384.227 731.998 384.216 732.14 384.193C732.282 384.165 732.396 384.142 732.481 384.125L732.89 385.932C732.754 385.983 732.563 386.034 732.319 386.085C732.075 386.142 731.765 386.17 731.39 386.17C730.822 386.17 730.265 386.048 729.719 385.804C729.18 385.56 728.731 385.188 728.373 384.688C728.021 384.188 727.844 383.557 727.844 382.795V369.773ZM734.882 382.42V380.682L742.553 368.545H743.814V371.239H742.962L737.166 380.409V380.545H747.496V382.42H734.882ZM743.098 386V381.892V381.082V368.545H745.109V386H743.098Z" fill="#EB5757"/>
<path d="M651.452 207.273C650.225 207.273 649.168 206.983 648.282 206.403C647.395 205.824 646.713 205.026 646.236 204.009C645.759 202.991 645.52 201.83 645.52 200.523C645.52 199.193 645.765 198.02 646.253 197.003C646.748 195.98 647.435 195.182 648.316 194.608C649.202 194.028 650.236 193.739 651.418 193.739C652.338 193.739 653.168 193.909 653.907 194.25C654.645 194.591 655.25 195.068 655.722 195.682C656.194 196.295 656.486 197.011 656.6 197.83H654.588C654.435 197.233 654.094 196.705 653.566 196.244C653.043 195.778 652.338 195.545 651.452 195.545C650.668 195.545 649.98 195.75 649.39 196.159C648.804 196.562 648.347 197.134 648.017 197.872C647.694 198.605 647.532 199.466 647.532 200.455C647.532 201.466 647.691 202.347 648.009 203.097C648.333 203.847 648.787 204.429 649.373 204.844C649.963 205.259 650.657 205.466 651.452 205.466C651.975 205.466 652.449 205.375 652.875 205.193C653.301 205.011 653.662 204.75 653.958 204.409C654.253 204.068 654.463 203.659 654.588 203.182H656.6C656.486 203.955 656.205 204.651 655.756 205.27C655.313 205.884 654.725 206.372 653.992 206.736C653.265 207.094 652.418 207.273 651.452 207.273ZM661.551 199.125V207H659.54V189.545H661.551V195.955H661.722C662.029 195.278 662.489 194.741 663.103 194.344C663.722 193.94 664.546 193.739 665.574 193.739C666.466 193.739 667.248 193.918 667.918 194.276C668.588 194.628 669.108 195.17 669.478 195.903C669.853 196.631 670.04 197.557 670.04 198.682V207H668.029V198.818C668.029 197.778 667.759 196.974 667.219 196.406C666.685 195.832 665.944 195.545 664.995 195.545C664.336 195.545 663.745 195.685 663.222 195.963C662.705 196.241 662.296 196.648 661.995 197.182C661.699 197.716 661.551 198.364 661.551 199.125ZM673.72 207V193.909H675.731V207H673.72ZM674.743 191.727C674.35 191.727 674.012 191.594 673.728 191.327C673.45 191.06 673.311 190.739 673.311 190.364C673.311 189.989 673.45 189.668 673.728 189.401C674.012 189.134 674.35 189 674.743 189C675.135 189 675.47 189.134 675.748 189.401C676.032 189.668 676.174 189.989 676.174 190.364C676.174 190.739 676.032 191.06 675.748 191.327C675.47 191.594 675.135 191.727 674.743 191.727ZM681.426 189.545V207H679.415V189.545H681.426ZM690.054 207.273C688.963 207.273 688 206.997 687.164 206.446C686.329 205.889 685.676 205.105 685.204 204.094C684.733 203.077 684.497 201.875 684.497 200.489C684.497 199.114 684.733 197.92 685.204 196.909C685.676 195.898 686.332 195.116 687.173 194.565C688.014 194.014 688.985 193.739 690.088 193.739C690.94 193.739 691.613 193.881 692.108 194.165C692.608 194.443 692.988 194.761 693.25 195.119C693.517 195.472 693.724 195.761 693.872 195.989H694.042V189.545H696.054V207H694.11V204.989H693.872C693.724 205.227 693.514 205.528 693.241 205.892C692.968 206.25 692.579 206.571 692.074 206.855C691.568 207.134 690.895 207.273 690.054 207.273ZM690.326 205.466C691.133 205.466 691.815 205.256 692.372 204.835C692.929 204.409 693.352 203.821 693.642 203.071C693.931 202.315 694.076 201.443 694.076 200.455C694.076 199.477 693.934 198.622 693.65 197.889C693.366 197.151 692.946 196.577 692.389 196.168C691.832 195.753 691.145 195.545 690.326 195.545C689.474 195.545 688.764 195.764 688.196 196.202C687.633 196.634 687.21 197.222 686.926 197.966C686.647 198.705 686.508 199.534 686.508 200.455C686.508 201.386 686.65 202.233 686.934 202.994C687.224 203.75 687.65 204.352 688.213 204.801C688.781 205.244 689.485 205.466 690.326 205.466ZM699.983 207V205.466L705.744 199.159C706.42 198.42 706.977 197.778 707.414 197.233C707.852 196.682 708.176 196.165 708.386 195.682C708.602 195.193 708.71 194.682 708.71 194.148C708.71 193.534 708.562 193.003 708.267 192.554C707.977 192.105 707.579 191.759 707.074 191.514C706.568 191.27 706 191.148 705.369 191.148C704.699 191.148 704.113 191.287 703.613 191.565C703.119 191.838 702.735 192.222 702.463 192.716C702.196 193.21 702.062 193.79 702.062 194.455H700.051C700.051 193.432 700.287 192.534 700.758 191.761C701.23 190.989 701.872 190.386 702.684 189.955C703.502 189.523 704.42 189.307 705.437 189.307C706.46 189.307 707.366 189.523 708.156 189.955C708.946 190.386 709.565 190.969 710.014 191.702C710.463 192.435 710.687 193.25 710.687 194.148C710.687 194.79 710.571 195.418 710.338 196.031C710.11 196.639 709.713 197.318 709.145 198.068C708.582 198.812 707.801 199.722 706.801 200.795L702.88 204.989V205.125H710.994V207H699.983Z" fill="#2F80ED"/>
<path d="M27.1761 196.841L25.3693 197.352C25.2557 197.051 25.0881 196.759 24.8665 196.474C24.6506 196.185 24.3551 195.946 23.9801 195.759C23.6051 195.571 23.125 195.477 22.5398 195.477C21.7386 195.477 21.071 195.662 20.5369 196.031C20.0085 196.395 19.7443 196.858 19.7443 197.42C19.7443 197.92 19.9261 198.315 20.2898 198.605C20.6534 198.895 21.2216 199.136 21.9943 199.33L23.9375 199.807C25.108 200.091 25.9801 200.526 26.554 201.111C27.1278 201.69 27.4148 202.437 27.4148 203.352C27.4148 204.102 27.1989 204.773 26.767 205.364C26.3409 205.955 25.7443 206.42 24.9773 206.761C24.2102 207.102 23.3182 207.273 22.3011 207.273C20.9659 207.273 19.8608 206.983 18.9858 206.403C18.1108 205.824 17.5568 204.977 17.3239 203.864L19.233 203.386C19.4148 204.091 19.7585 204.619 20.2642 204.972C20.7756 205.324 21.4432 205.5 22.267 205.5C23.2045 205.5 23.9489 205.301 24.5 204.903C25.0568 204.5 25.3352 204.017 25.3352 203.455C25.3352 203 25.1761 202.619 24.858 202.312C24.5398 202 24.0511 201.767 23.392 201.614L21.2102 201.102C20.0114 200.818 19.1307 200.378 18.5682 199.781C18.0114 199.179 17.733 198.426 17.733 197.523C17.733 196.784 17.9403 196.131 18.3551 195.562C18.7756 194.994 19.3466 194.548 20.0682 194.224C20.7955 193.901 21.6193 193.739 22.5398 193.739C23.8352 193.739 24.8523 194.023 25.5909 194.591C26.3352 195.159 26.8636 195.909 27.1761 196.841ZM32.4538 199.125V207H30.4425V189.545H32.4538V195.955H32.6243C32.9311 195.278 33.3913 194.741 34.005 194.344C34.6243 193.94 35.4482 193.739 36.4766 193.739C37.3686 193.739 38.1499 193.918 38.8203 194.276C39.4908 194.628 40.0107 195.17 40.38 195.903C40.755 196.631 40.9425 197.557 40.9425 198.682V207H38.9311V198.818C38.9311 197.778 38.6612 196.974 38.1214 196.406C37.5874 195.832 36.8459 195.545 35.897 195.545C35.2379 195.545 34.647 195.685 34.1243 195.963C33.6072 196.241 33.1982 196.648 32.897 197.182C32.6016 197.716 32.4538 198.364 32.4538 199.125ZM49.9403 207.273C48.7585 207.273 47.7216 206.991 46.8295 206.429C45.9432 205.866 45.25 205.08 44.75 204.068C44.2557 203.057 44.0085 201.875 44.0085 200.523C44.0085 199.159 44.2557 197.969 44.75 196.952C45.25 195.935 45.9432 195.145 46.8295 194.582C47.7216 194.02 48.7585 193.739 49.9403 193.739C51.1222 193.739 52.1563 194.02 53.0426 194.582C53.9347 195.145 54.6278 195.935 55.1222 196.952C55.6222 197.969 55.8722 199.159 55.8722 200.523C55.8722 201.875 55.6222 203.057 55.1222 204.068C54.6278 205.08 53.9347 205.866 53.0426 206.429C52.1563 206.991 51.1222 207.273 49.9403 207.273ZM49.9403 205.466C50.8381 205.466 51.5767 205.236 52.1562 204.776C52.7358 204.315 53.1648 203.71 53.4432 202.96C53.7216 202.21 53.8608 201.398 53.8608 200.523C53.8608 199.648 53.7216 198.832 53.4432 198.077C53.1648 197.321 52.7358 196.71 52.1562 196.244C51.5767 195.778 50.8381 195.545 49.9403 195.545C49.0426 195.545 48.304 195.778 47.7244 196.244C47.1449 196.71 46.7159 197.321 46.4375 198.077C46.1591 198.832 46.0199 199.648 46.0199 200.523C46.0199 201.398 46.1591 202.21 46.4375 202.96C46.7159 203.71 47.1449 204.315 47.7244 204.776C48.304 205.236 49.0426 205.466 49.9403 205.466ZM61.4631 207L57.4744 193.909H59.5881L62.4176 203.932H62.554L65.3494 193.909H67.4972L70.2585 203.898H70.3949L73.2244 193.909H75.3381L71.3494 207H69.3722L66.5085 196.943H66.304L63.4403 207H61.4631ZM90.4403 193.909V195.614H83.6562V193.909H90.4403ZM85.6335 190.773H87.6449V203.25C87.6449 203.818 87.7273 204.244 87.892 204.528C88.0625 204.807 88.2784 204.994 88.5398 205.091C88.8068 205.182 89.0881 205.227 89.3835 205.227C89.6051 205.227 89.7869 205.216 89.929 205.193C90.071 205.165 90.1847 205.142 90.2699 205.125L90.679 206.932C90.5426 206.983 90.3523 207.034 90.108 207.085C89.8636 207.142 89.554 207.17 89.179 207.17C88.6108 207.17 88.054 207.048 87.5085 206.804C86.9688 206.56 86.5199 206.188 86.1619 205.688C85.8097 205.188 85.6335 204.557 85.6335 203.795V190.773ZM98.8139 207.273C97.5526 207.273 96.4645 206.994 95.5497 206.438C94.6406 205.875 93.9389 205.091 93.4446 204.085C92.956 203.074 92.7116 201.898 92.7116 200.557C92.7116 199.216 92.956 198.034 93.4446 197.011C93.9389 195.983 94.6264 195.182 95.5071 194.608C96.3935 194.028 97.4276 193.739 98.6094 193.739C99.2912 193.739 99.9645 193.852 100.629 194.08C101.294 194.307 101.899 194.676 102.445 195.188C102.99 195.693 103.425 196.364 103.749 197.199C104.072 198.034 104.234 199.062 104.234 200.284V201.136H94.1435V199.398H102.189C102.189 198.659 102.041 198 101.746 197.42C101.456 196.841 101.041 196.384 100.501 196.048C99.9673 195.713 99.3366 195.545 98.6094 195.545C97.8082 195.545 97.1151 195.744 96.5298 196.142C95.9503 196.534 95.5043 197.045 95.1918 197.676C94.8793 198.307 94.723 198.983 94.723 199.705V200.864C94.723 201.852 94.8935 202.69 95.2344 203.378C95.581 204.06 96.0611 204.58 96.6747 204.938C97.2884 205.29 98.0014 205.466 98.8139 205.466C99.3423 205.466 99.8196 205.392 100.246 205.244C100.678 205.091 101.05 204.864 101.362 204.562C101.675 204.256 101.916 203.875 102.087 203.42L104.03 203.966C103.825 204.625 103.482 205.205 102.999 205.705C102.516 206.199 101.919 206.585 101.209 206.864C100.499 207.136 99.7003 207.273 98.8139 207.273ZM108.442 193.909L111.579 199.261L114.715 193.909H117.033L112.806 200.455L117.033 207H114.715L111.579 201.92L108.442 207H106.124L110.283 200.455L106.124 193.909H108.442ZM125.597 193.909V195.614H118.812V193.909H125.597ZM120.79 190.773H122.801V203.25C122.801 203.818 122.884 204.244 123.048 204.528C123.219 204.807 123.435 204.994 123.696 205.091C123.963 205.182 124.244 205.227 124.54 205.227C124.761 205.227 124.943 205.216 125.085 205.193C125.227 205.165 125.341 205.142 125.426 205.125L125.835 206.932C125.699 206.983 125.509 207.034 125.264 207.085C125.02 207.142 124.71 207.17 124.335 207.17C123.767 207.17 123.21 207.048 122.665 206.804C122.125 206.56 121.676 206.188 121.318 205.688C120.966 205.188 120.79 204.557 120.79 203.795V190.773ZM134.724 189.545V207H132.611V191.761H132.509L128.247 194.591V192.443L132.611 189.545H134.724Z" fill="#EB5757"/>
<line x1="306.242" y1="54.4375" x2="118.242" y2="158.438" stroke="#EB5757"/>
<line x1="347.433" y1="59.2495" x2="290.433" y2="158.249" stroke="#2F80ED"/>
<line x1="262.433" y1="238.249" x2="205.433" y2="337.249" stroke="#EB5757"/>
<line x1="416.257" y1="62.5713" x2="601.257" y2="173.571" stroke="#2F80ED"/>
<line x1="379.4" y1="52.6994" x2="458.4" y2="157.699" stroke="#EB5757"/>
<line x1="294.475" y1="231.843" x2="331.475" y2="343.843" stroke="#EB5757"/>
<line x1="686.5" y1="218" x2="686.5" y2="344" stroke="#EB5757"/>
</svg>
